G04 #@! TF.GenerationSoftware,KiCad,Pcbnew,5.1.0-rc2-unknown-036be7d~80~ubuntu16.04.1*
G04 #@! TF.CreationDate,2023-05-16T15:29:05+03:00*
G04 #@! TF.ProjectId,ESP32-S3-DevKit-LiPo_Rev_B,45535033-322d-4533-932d-4465764b6974,B*
G04 #@! TF.SameCoordinates,Original*
G04 #@! TF.FileFunction,Soldermask,Top*
G04 #@! TF.FilePolarity,Negative*
%FSLAX46Y46*%
G04 Gerber Fmt 4.6, Leading zero omitted, Abs format (unit mm)*
G04 Created by KiCad (PCBNEW 5.1.0-rc2-unknown-036be7d~80~ubuntu16.04.1) date 2023-05-16 15:29:05*
%MOMM*%
%LPD*%
G04 APERTURE LIST*
%ADD10C,1.501600*%
%ADD11R,1.501600X1.501600*%
%ADD12R,1.301600X3.201600*%
%ADD13R,0.701600X1.651600*%
%ADD14R,1.117600X1.117600*%
%ADD15R,1.501600X1.101600*%
%ADD16R,0.651600X0.601600*%
%ADD17C,1.879600*%
%ADD18R,1.879600X1.879600*%
%ADD19R,1.201600X2.101600*%
%ADD20R,1.201600X2.301600*%
%ADD21C,0.701600*%
%ADD22R,0.351600X1.251600*%
%ADD23O,1.301600X2.301600*%
%ADD24O,1.401600X2.101600*%
%ADD25R,0.401600X1.251600*%
%ADD26R,0.751600X1.151600*%
%ADD27R,0.601600X0.651600*%
%ADD28C,1.254000*%
%ADD29R,0.901600X0.901600*%
%ADD30R,0.351600X1.101600*%
%ADD31R,3.801600X3.801600*%
%ADD32C,1.701600*%
%ADD33R,1.601600X1.001600*%
%ADD34R,1.001600X1.601600*%
%ADD35R,1.101600X1.501600*%
%ADD36R,3.101600X1.701600*%
%ADD37R,1.301600X0.651600*%
%ADD38R,0.651600X1.301600*%
G04 APERTURE END LIST*
D10*
X151655780Y-88534240D03*
D11*
X151658320Y-90563700D03*
D12*
X137202000Y-90266000D03*
X148802000Y-90266000D03*
D13*
X138502000Y-88491000D03*
X139502000Y-88491000D03*
X140502000Y-88491000D03*
X141502000Y-88491000D03*
X142502000Y-88491000D03*
X143502000Y-88491000D03*
X144502000Y-88491000D03*
X145502000Y-88491000D03*
X146502000Y-88491000D03*
X147502000Y-88491000D03*
D14*
X146558000Y-109474000D03*
X146558000Y-107696000D03*
D15*
X144653000Y-109469000D03*
X144653000Y-105669000D03*
X142621000Y-109469000D03*
X142621000Y-105669000D03*
D16*
X137922000Y-99822000D03*
X137922000Y-98806000D03*
D14*
X140589000Y-105664000D03*
X138811000Y-105664000D03*
D15*
X144815560Y-97094040D03*
X144815560Y-98996500D03*
X147025360Y-98041460D03*
D17*
X156210000Y-115570000D03*
X156210000Y-118110000D03*
X156210000Y-72390000D03*
X156210000Y-69850000D03*
X156210000Y-67310000D03*
D18*
X156210000Y-64770000D03*
D17*
X156210000Y-74930000D03*
X156210000Y-77470000D03*
X156210000Y-82550000D03*
X156210000Y-80010000D03*
X156210000Y-85090000D03*
X156210000Y-87630000D03*
X156210000Y-92710000D03*
X156210000Y-90170000D03*
X156210000Y-95250000D03*
X156210000Y-97790000D03*
X156210000Y-102870000D03*
X156210000Y-100330000D03*
X156210000Y-110490000D03*
X156210000Y-113030000D03*
X156210000Y-107950000D03*
X156210000Y-105410000D03*
D19*
X142468600Y-117355000D03*
D20*
X142468600Y-113175000D03*
D19*
X132613400Y-117355000D03*
D20*
X132613400Y-113175000D03*
D21*
X140431000Y-113675000D03*
D22*
X135791000Y-112273000D03*
X136291000Y-112273000D03*
X136791000Y-112273000D03*
X139291000Y-112273000D03*
X137791000Y-112273000D03*
X138791000Y-112273000D03*
X138291000Y-112273000D03*
X137291000Y-112273000D03*
D23*
X141861000Y-113175000D03*
D24*
X141861000Y-117355000D03*
X133221000Y-117355000D03*
D21*
X134651000Y-113675000D03*
D23*
X133221000Y-113175000D03*
D25*
X135266000Y-112273000D03*
X139816000Y-112273000D03*
X135016000Y-112273000D03*
X140066000Y-112273000D03*
X134466000Y-112273000D03*
X140616000Y-112273000D03*
X134216000Y-112273000D03*
X140866000Y-112273000D03*
D19*
X154406600Y-117355000D03*
D20*
X154406600Y-113175000D03*
D19*
X144551400Y-117355000D03*
D20*
X144551400Y-113175000D03*
D21*
X152369000Y-113675000D03*
D22*
X147729000Y-112273000D03*
X148229000Y-112273000D03*
X148729000Y-112273000D03*
X151229000Y-112273000D03*
X149729000Y-112273000D03*
X150729000Y-112273000D03*
X150229000Y-112273000D03*
X149229000Y-112273000D03*
D23*
X153799000Y-113175000D03*
D24*
X153799000Y-117355000D03*
X145159000Y-117355000D03*
D21*
X146589000Y-113675000D03*
D23*
X145159000Y-113175000D03*
D25*
X147204000Y-112273000D03*
X151754000Y-112273000D03*
X146954000Y-112273000D03*
X152004000Y-112273000D03*
X146404000Y-112273000D03*
X152554000Y-112273000D03*
X146154000Y-112273000D03*
X152804000Y-112273000D03*
D26*
X133418000Y-104564000D03*
X133418000Y-100414000D03*
X135568000Y-104564000D03*
X135568000Y-100414000D03*
D27*
X146177000Y-105410000D03*
X147193000Y-105410000D03*
D14*
X132715000Y-69088000D03*
X132715000Y-67310000D03*
D16*
X132715000Y-66040000D03*
X132715000Y-65024000D03*
D17*
X130810000Y-115569999D03*
X130810000Y-118109999D03*
X130810000Y-72389999D03*
X130810000Y-69849999D03*
X130810000Y-67309999D03*
D18*
X130810000Y-64769999D03*
D17*
X130810000Y-74929999D03*
X130810000Y-77469999D03*
X130810000Y-82549999D03*
X130810000Y-80009999D03*
X130810000Y-85089999D03*
X130810000Y-87629999D03*
X130810000Y-92709999D03*
X130810000Y-90169999D03*
X130810000Y-95249999D03*
X130810000Y-97789999D03*
X130810000Y-102869999D03*
X130810000Y-100329999D03*
X130810000Y-110489999D03*
X130810000Y-113029999D03*
X130810000Y-107949999D03*
X130810000Y-105409999D03*
D28*
X133350000Y-84455000D03*
X153670000Y-84455000D03*
X133350000Y-109220000D03*
D29*
X133731000Y-98552000D03*
X135255000Y-98552000D03*
D14*
X153543000Y-109474000D03*
X153543000Y-107696000D03*
D27*
X134239000Y-97155000D03*
X135255000Y-97155000D03*
X133477000Y-106045000D03*
X134493000Y-106045000D03*
D14*
X138811000Y-109728000D03*
X138811000Y-107950000D03*
X140589000Y-109728000D03*
X140589000Y-107950000D03*
D27*
X141097000Y-85852000D03*
X140081000Y-85852000D03*
D26*
X133418000Y-91610000D03*
X133418000Y-87460000D03*
X135568000Y-91610000D03*
X135568000Y-87460000D03*
D30*
X148478999Y-104661000D03*
X148978999Y-104661000D03*
X149478999Y-104661000D03*
X149978999Y-104661000D03*
X150478999Y-104661000D03*
X150478999Y-109461000D03*
X149978999Y-109461000D03*
X149478999Y-109461000D03*
X148978999Y-109461000D03*
X148478999Y-109461000D03*
D31*
X142010000Y-72691000D03*
D32*
X142010000Y-72691000D03*
D33*
X134760000Y-64971000D03*
X134760000Y-66241000D03*
X134760000Y-67511000D03*
X134760000Y-68781000D03*
X134760000Y-70051000D03*
X134760000Y-71321000D03*
X134760000Y-72591000D03*
X134760000Y-73861000D03*
X134760000Y-75131000D03*
X134760000Y-76401000D03*
X134760000Y-77671000D03*
X134760000Y-78941000D03*
X134760000Y-80211000D03*
X134760000Y-81481000D03*
D34*
X136525000Y-82731000D03*
D33*
X152260000Y-81481000D03*
X152260000Y-80211000D03*
X152260000Y-78941000D03*
X152260000Y-77671000D03*
X152260000Y-76401000D03*
X152260000Y-75131000D03*
X152260000Y-73861000D03*
X152260000Y-72591000D03*
X152260000Y-71321000D03*
X152260000Y-70051000D03*
X152260000Y-68781000D03*
X152260000Y-67511000D03*
X152260000Y-66241000D03*
X152260000Y-64971000D03*
D34*
X137795000Y-82731000D03*
X139065000Y-82731000D03*
X140335000Y-82731000D03*
X141605000Y-82731000D03*
X142875000Y-82731000D03*
X144145000Y-82731000D03*
X145415000Y-82731000D03*
X146685000Y-82731000D03*
X147955000Y-82731000D03*
X149225000Y-82731000D03*
X150495000Y-82731000D03*
D14*
X142494000Y-93218000D03*
X144272000Y-93218000D03*
X142494000Y-99314000D03*
X142494000Y-97536000D03*
D16*
X145161000Y-85090000D03*
X145161000Y-86106000D03*
D14*
X132715000Y-72263000D03*
X132715000Y-70485000D03*
D29*
X135255000Y-94234000D03*
X133731000Y-94234000D03*
D35*
X142372000Y-101219000D03*
X146172000Y-101219000D03*
D28*
X143510000Y-67056000D03*
D36*
X139700000Y-103816000D03*
X139700000Y-101416000D03*
D27*
X142113000Y-94869000D03*
X143129000Y-94869000D03*
X135255000Y-95631000D03*
X134239000Y-95631000D03*
D16*
X144780000Y-95758000D03*
X144780000Y-94742000D03*
X147447000Y-85090000D03*
X147447000Y-86106000D03*
X146304000Y-86106000D03*
X146304000Y-85090000D03*
X147955000Y-100330000D03*
X147955000Y-101346000D03*
X149098000Y-101346000D03*
X149098000Y-100330000D03*
X137922000Y-96520000D03*
X137922000Y-97536000D03*
X152146000Y-104521000D03*
X152146000Y-105537000D03*
X143764000Y-102870000D03*
X143764000Y-103886000D03*
D37*
X149128000Y-95184000D03*
X149128000Y-94234000D03*
X149128000Y-93284000D03*
X146528000Y-95184000D03*
X146528000Y-93284000D03*
D38*
X139004000Y-99471000D03*
X139954000Y-99471000D03*
X140904000Y-99471000D03*
X139004000Y-96871000D03*
X140904000Y-96871000D03*
D27*
X154305000Y-105791000D03*
X153289000Y-105791000D03*
X153289000Y-104775000D03*
X154305000Y-104775000D03*
X139065000Y-85852000D03*
X138049000Y-85852000D03*
D16*
X152146000Y-102362000D03*
X152146000Y-103378000D03*
X150114000Y-98806000D03*
X150114000Y-97790000D03*
D15*
X152999440Y-101025960D03*
X152999440Y-99123500D03*
X150789640Y-100078540D03*
D35*
X152651460Y-95163640D03*
X153606500Y-97373440D03*
X151704040Y-97373440D03*
D27*
X149860000Y-102870000D03*
X150876000Y-102870000D03*
D16*
X154051000Y-103632000D03*
X154051000Y-102616000D03*
M02*
