G04 #@! TF.GenerationSoftware,KiCad,Pcbnew,5.1.0-rc2-unknown-036be7d~80~ubuntu16.04.1*
G04 #@! TF.CreationDate,2023-05-16T15:29:05+03:00*
G04 #@! TF.ProjectId,ESP32-S3-DevKit-LiPo_Rev_B,45535033-322d-4533-932d-4465764b6974,B*
G04 #@! TF.SameCoordinates,Original*
G04 #@! TF.FileFunction,Legend,Bot*
G04 #@! TF.FilePolarity,Positive*
%FSLAX46Y46*%
G04 Gerber Fmt 4.6, Leading zero omitted, Abs format (unit mm)*
G04 Created by KiCad (PCBNEW 5.1.0-rc2-unknown-036be7d~80~ubuntu16.04.1) date 2023-05-16 15:29:05*
%MOMM*%
%LPD*%
G04 APERTURE LIST*
%ADD10C,0.177800*%
%ADD11C,0.254000*%
%ADD12C,0.190500*%
%ADD13C,0.127000*%
%ADD14C,0.139700*%
%ADD15C,0.222250*%
%ADD16C,0.158750*%
%ADD17C,0.203200*%
%ADD18C,0.317500*%
%ADD19C,0.300000*%
%ADD20C,0.150000*%
%ADD21C,0.200000*%
%ADD22C,0.420000*%
%ADD23C,0.370000*%
%ADD24C,0.400000*%
%ADD25C,0.380000*%
%ADD26C,1.000000*%
%ADD27C,0.700000*%
%ADD28C,0.500000*%
%ADD29C,0.100000*%
%ADD30C,0.180000*%
G04 APERTURE END LIST*
D10*
X154028563Y-96812100D02*
X154096296Y-96778233D01*
X154197896Y-96778233D01*
X154299496Y-96812100D01*
X154367230Y-96879833D01*
X154401096Y-96947566D01*
X154434963Y-97083033D01*
X154434963Y-97184633D01*
X154401096Y-97320100D01*
X154367230Y-97387833D01*
X154299496Y-97455566D01*
X154197896Y-97489433D01*
X154130163Y-97489433D01*
X154028563Y-97455566D01*
X153994696Y-97421700D01*
X153994696Y-97184633D01*
X154130163Y-97184633D01*
X153689896Y-97489433D02*
X153689896Y-96778233D01*
X153418963Y-96778233D01*
X153351230Y-96812100D01*
X153317363Y-96845966D01*
X153283496Y-96913700D01*
X153283496Y-97015300D01*
X153317363Y-97083033D01*
X153351230Y-97116900D01*
X153418963Y-97150766D01*
X153689896Y-97150766D01*
X152978696Y-97489433D02*
X152978696Y-96778233D01*
X152504563Y-96778233D02*
X152369096Y-96778233D01*
X152301363Y-96812100D01*
X152233630Y-96879833D01*
X152199763Y-97015300D01*
X152199763Y-97252366D01*
X152233630Y-97387833D01*
X152301363Y-97455566D01*
X152369096Y-97489433D01*
X152504563Y-97489433D01*
X152572296Y-97455566D01*
X152640030Y-97387833D01*
X152673896Y-97252366D01*
X152673896Y-97015300D01*
X152640030Y-96879833D01*
X152572296Y-96812100D01*
X152504563Y-96778233D01*
X151759496Y-96778233D02*
X151691763Y-96778233D01*
X151624030Y-96812100D01*
X151590163Y-96845966D01*
X151556296Y-96913700D01*
X151522430Y-97049166D01*
X151522430Y-97218500D01*
X151556296Y-97353966D01*
X151590163Y-97421700D01*
X151624030Y-97455566D01*
X151691763Y-97489433D01*
X151759496Y-97489433D01*
X151827230Y-97455566D01*
X151861096Y-97421700D01*
X151894963Y-97353966D01*
X151928830Y-97218500D01*
X151928830Y-97049166D01*
X151894963Y-96913700D01*
X151861096Y-96845966D01*
X151827230Y-96812100D01*
X151759496Y-96778233D01*
X150709630Y-96744366D02*
X151319230Y-97658766D01*
X154164030Y-98361500D02*
X154062430Y-98395366D01*
X154028563Y-98429233D01*
X153994696Y-98496966D01*
X153994696Y-98598566D01*
X154028563Y-98666300D01*
X154062430Y-98700166D01*
X154130163Y-98734033D01*
X154401096Y-98734033D01*
X154401096Y-98022833D01*
X154164030Y-98022833D01*
X154096296Y-98056700D01*
X154062430Y-98090566D01*
X154028563Y-98158300D01*
X154028563Y-98226033D01*
X154062430Y-98293766D01*
X154096296Y-98327633D01*
X154164030Y-98361500D01*
X154401096Y-98361500D01*
X153689896Y-98022833D02*
X153689896Y-98598566D01*
X153656030Y-98666300D01*
X153622163Y-98700166D01*
X153554430Y-98734033D01*
X153418963Y-98734033D01*
X153351230Y-98700166D01*
X153317363Y-98666300D01*
X153283496Y-98598566D01*
X153283496Y-98022833D01*
X153046430Y-98022833D02*
X152640030Y-98022833D01*
X152843230Y-98734033D02*
X152843230Y-98022833D01*
X152030430Y-98734033D02*
X152436830Y-98734033D01*
X152233630Y-98734033D02*
X152233630Y-98022833D01*
X152301363Y-98124433D01*
X152369096Y-98192166D01*
X152436830Y-98226033D01*
D11*
X152527000Y-88900000D02*
X155194000Y-88900000D01*
D12*
X154432000Y-86831714D02*
X153960285Y-86831714D01*
X154214285Y-87122000D01*
X154105428Y-87122000D01*
X154032857Y-87158285D01*
X153996571Y-87194571D01*
X153960285Y-87267142D01*
X153960285Y-87448571D01*
X153996571Y-87521142D01*
X154032857Y-87557428D01*
X154105428Y-87593714D01*
X154323142Y-87593714D01*
X154395714Y-87557428D01*
X154432000Y-87521142D01*
X153524857Y-87158285D02*
X153597428Y-87122000D01*
X153633714Y-87085714D01*
X153670000Y-87013142D01*
X153670000Y-86976857D01*
X153633714Y-86904285D01*
X153597428Y-86868000D01*
X153524857Y-86831714D01*
X153379714Y-86831714D01*
X153307142Y-86868000D01*
X153270857Y-86904285D01*
X153234571Y-86976857D01*
X153234571Y-87013142D01*
X153270857Y-87085714D01*
X153307142Y-87122000D01*
X153379714Y-87158285D01*
X153524857Y-87158285D01*
X153597428Y-87194571D01*
X153633714Y-87230857D01*
X153670000Y-87303428D01*
X153670000Y-87448571D01*
X153633714Y-87521142D01*
X153597428Y-87557428D01*
X153524857Y-87593714D01*
X153379714Y-87593714D01*
X153307142Y-87557428D01*
X153270857Y-87521142D01*
X153234571Y-87448571D01*
X153234571Y-87303428D01*
X153270857Y-87230857D01*
X153307142Y-87194571D01*
X153379714Y-87158285D01*
X152363714Y-86795428D02*
X153016857Y-87775142D01*
X151746857Y-87593714D02*
X152109714Y-87593714D01*
X152109714Y-86831714D01*
X151492857Y-87194571D02*
X151238857Y-87194571D01*
X151130000Y-87593714D02*
X151492857Y-87593714D01*
X151492857Y-86831714D01*
X151130000Y-86831714D01*
X150803428Y-87593714D02*
X150803428Y-86831714D01*
X150622000Y-86831714D01*
X150513142Y-86868000D01*
X150440571Y-86940571D01*
X150404285Y-87013142D01*
X150368000Y-87158285D01*
X150368000Y-87267142D01*
X150404285Y-87412285D01*
X150440571Y-87484857D01*
X150513142Y-87557428D01*
X150622000Y-87593714D01*
X150803428Y-87593714D01*
X149642285Y-87593714D02*
X150077714Y-87593714D01*
X149860000Y-87593714D02*
X149860000Y-86831714D01*
X149932571Y-86940571D01*
X150005142Y-87013142D01*
X150077714Y-87049428D01*
D11*
X148844000Y-93980000D02*
X155194000Y-93980000D01*
X152527000Y-91440000D02*
X155194000Y-91440000D01*
D10*
X137391563Y-76492100D02*
X137459296Y-76458233D01*
X137560896Y-76458233D01*
X137662496Y-76492100D01*
X137730230Y-76559833D01*
X137764096Y-76627566D01*
X137797963Y-76763033D01*
X137797963Y-76864633D01*
X137764096Y-77000100D01*
X137730230Y-77067833D01*
X137662496Y-77135566D01*
X137560896Y-77169433D01*
X137493163Y-77169433D01*
X137391563Y-77135566D01*
X137357696Y-77101700D01*
X137357696Y-76864633D01*
X137493163Y-76864633D01*
X137052896Y-77169433D02*
X137052896Y-76458233D01*
X136781963Y-76458233D01*
X136714230Y-76492100D01*
X136680363Y-76525966D01*
X136646496Y-76593700D01*
X136646496Y-76695300D01*
X136680363Y-76763033D01*
X136714230Y-76796900D01*
X136781963Y-76830766D01*
X137052896Y-76830766D01*
X136341696Y-77169433D02*
X136341696Y-76458233D01*
X135867563Y-76458233D02*
X135732096Y-76458233D01*
X135664363Y-76492100D01*
X135596630Y-76559833D01*
X135562763Y-76695300D01*
X135562763Y-76932366D01*
X135596630Y-77067833D01*
X135664363Y-77135566D01*
X135732096Y-77169433D01*
X135867563Y-77169433D01*
X135935296Y-77135566D01*
X136003030Y-77067833D01*
X136036896Y-76932366D01*
X136036896Y-76695300D01*
X136003030Y-76559833D01*
X135935296Y-76492100D01*
X135867563Y-76458233D01*
X134953163Y-76458233D02*
X135088630Y-76458233D01*
X135156363Y-76492100D01*
X135190230Y-76525966D01*
X135257963Y-76627566D01*
X135291830Y-76763033D01*
X135291830Y-77033966D01*
X135257963Y-77101700D01*
X135224096Y-77135566D01*
X135156363Y-77169433D01*
X135020896Y-77169433D01*
X134953163Y-77135566D01*
X134919296Y-77101700D01*
X134885430Y-77033966D01*
X134885430Y-76864633D01*
X134919296Y-76796900D01*
X134953163Y-76763033D01*
X135020896Y-76729166D01*
X135156363Y-76729166D01*
X135224096Y-76763033D01*
X135257963Y-76796900D01*
X135291830Y-76864633D01*
X134072630Y-76424366D02*
X134682230Y-77338766D01*
X137527030Y-78041500D02*
X137425430Y-78075366D01*
X137391563Y-78109233D01*
X137357696Y-78176966D01*
X137357696Y-78278566D01*
X137391563Y-78346300D01*
X137425430Y-78380166D01*
X137493163Y-78414033D01*
X137764096Y-78414033D01*
X137764096Y-77702833D01*
X137527030Y-77702833D01*
X137459296Y-77736700D01*
X137425430Y-77770566D01*
X137391563Y-77838300D01*
X137391563Y-77906033D01*
X137425430Y-77973766D01*
X137459296Y-78007633D01*
X137527030Y-78041500D01*
X137764096Y-78041500D01*
X137086763Y-78210833D02*
X136748096Y-78210833D01*
X137154496Y-78414033D02*
X136917430Y-77702833D01*
X136680363Y-78414033D01*
X136544896Y-77702833D02*
X136138496Y-77702833D01*
X136341696Y-78414033D02*
X136341696Y-77702833D01*
X136070763Y-78481766D02*
X135528896Y-78481766D01*
X135393430Y-78380166D02*
X135291830Y-78414033D01*
X135122496Y-78414033D01*
X135054763Y-78380166D01*
X135020896Y-78346300D01*
X134987030Y-78278566D01*
X134987030Y-78210833D01*
X135020896Y-78143100D01*
X135054763Y-78109233D01*
X135122496Y-78075366D01*
X135257963Y-78041500D01*
X135325696Y-78007633D01*
X135359563Y-77973766D01*
X135393430Y-77906033D01*
X135393430Y-77838300D01*
X135359563Y-77770566D01*
X135325696Y-77736700D01*
X135257963Y-77702833D01*
X135088630Y-77702833D01*
X134987030Y-77736700D01*
X134682230Y-78041500D02*
X134445163Y-78041500D01*
X134343563Y-78414033D02*
X134682230Y-78414033D01*
X134682230Y-77702833D01*
X134343563Y-77702833D01*
X134038763Y-78414033D02*
X134038763Y-77702833D01*
X133632363Y-78414033D01*
X133632363Y-77702833D01*
X133327563Y-78380166D02*
X133225963Y-78414033D01*
X133056630Y-78414033D01*
X132988896Y-78380166D01*
X132955030Y-78346300D01*
X132921163Y-78278566D01*
X132921163Y-78210833D01*
X132955030Y-78143100D01*
X132988896Y-78109233D01*
X133056630Y-78075366D01*
X133192096Y-78041500D01*
X133259830Y-78007633D01*
X133293696Y-77973766D01*
X133327563Y-77906033D01*
X133327563Y-77838300D01*
X133293696Y-77770566D01*
X133259830Y-77736700D01*
X133192096Y-77702833D01*
X133022763Y-77702833D01*
X132921163Y-77736700D01*
D11*
X152097619Y-114935000D02*
X152218571Y-114874523D01*
X152400000Y-114874523D01*
X152581428Y-114935000D01*
X152702380Y-115055952D01*
X152762857Y-115176904D01*
X152823333Y-115418809D01*
X152823333Y-115600238D01*
X152762857Y-115842142D01*
X152702380Y-115963095D01*
X152581428Y-116084047D01*
X152400000Y-116144523D01*
X152279047Y-116144523D01*
X152097619Y-116084047D01*
X152037142Y-116023571D01*
X152037142Y-115600238D01*
X152279047Y-115600238D01*
X151492857Y-116144523D02*
X151492857Y-114874523D01*
X150767142Y-116144523D01*
X150767142Y-114874523D01*
X150162380Y-116144523D02*
X150162380Y-114874523D01*
X149860000Y-114874523D01*
X149678571Y-114935000D01*
X149557619Y-115055952D01*
X149497142Y-115176904D01*
X149436666Y-115418809D01*
X149436666Y-115600238D01*
X149497142Y-115842142D01*
X149557619Y-115963095D01*
X149678571Y-116084047D01*
X149860000Y-116144523D01*
X150162380Y-116144523D01*
X153875619Y-107315000D02*
X153972380Y-107266619D01*
X154117523Y-107266619D01*
X154262666Y-107315000D01*
X154359428Y-107411761D01*
X154407809Y-107508523D01*
X154456190Y-107702047D01*
X154456190Y-107847190D01*
X154407809Y-108040714D01*
X154359428Y-108137476D01*
X154262666Y-108234238D01*
X154117523Y-108282619D01*
X154020761Y-108282619D01*
X153875619Y-108234238D01*
X153827238Y-108185857D01*
X153827238Y-107847190D01*
X154020761Y-107847190D01*
X153391809Y-108282619D02*
X153391809Y-107266619D01*
X153004761Y-107266619D01*
X152908000Y-107315000D01*
X152859619Y-107363380D01*
X152811238Y-107460142D01*
X152811238Y-107605285D01*
X152859619Y-107702047D01*
X152908000Y-107750428D01*
X153004761Y-107798809D01*
X153391809Y-107798809D01*
X152375809Y-108282619D02*
X152375809Y-107266619D01*
X151698476Y-107266619D02*
X151504952Y-107266619D01*
X151408190Y-107315000D01*
X151311428Y-107411761D01*
X151263047Y-107605285D01*
X151263047Y-107943952D01*
X151311428Y-108137476D01*
X151408190Y-108234238D01*
X151504952Y-108282619D01*
X151698476Y-108282619D01*
X151795238Y-108234238D01*
X151892000Y-108137476D01*
X151940380Y-107943952D01*
X151940380Y-107605285D01*
X151892000Y-107411761D01*
X151795238Y-107315000D01*
X151698476Y-107266619D01*
X150876000Y-107363380D02*
X150827619Y-107315000D01*
X150730857Y-107266619D01*
X150488952Y-107266619D01*
X150392190Y-107315000D01*
X150343809Y-107363380D01*
X150295428Y-107460142D01*
X150295428Y-107556904D01*
X150343809Y-107702047D01*
X150924380Y-108282619D01*
X150295428Y-108282619D01*
X149327809Y-108282619D02*
X149908380Y-108282619D01*
X149618095Y-108282619D02*
X149618095Y-107266619D01*
X149714857Y-107411761D01*
X149811619Y-107508523D01*
X149908380Y-107556904D01*
X153875619Y-104775000D02*
X153972380Y-104726619D01*
X154117523Y-104726619D01*
X154262666Y-104775000D01*
X154359428Y-104871761D01*
X154407809Y-104968523D01*
X154456190Y-105162047D01*
X154456190Y-105307190D01*
X154407809Y-105500714D01*
X154359428Y-105597476D01*
X154262666Y-105694238D01*
X154117523Y-105742619D01*
X154020761Y-105742619D01*
X153875619Y-105694238D01*
X153827238Y-105645857D01*
X153827238Y-105307190D01*
X154020761Y-105307190D01*
X153391809Y-105742619D02*
X153391809Y-104726619D01*
X153004761Y-104726619D01*
X152908000Y-104775000D01*
X152859619Y-104823380D01*
X152811238Y-104920142D01*
X152811238Y-105065285D01*
X152859619Y-105162047D01*
X152908000Y-105210428D01*
X153004761Y-105258809D01*
X153391809Y-105258809D01*
X152375809Y-105742619D02*
X152375809Y-104726619D01*
X151698476Y-104726619D02*
X151504952Y-104726619D01*
X151408190Y-104775000D01*
X151311428Y-104871761D01*
X151263047Y-105065285D01*
X151263047Y-105403952D01*
X151311428Y-105597476D01*
X151408190Y-105694238D01*
X151504952Y-105742619D01*
X151698476Y-105742619D01*
X151795238Y-105694238D01*
X151892000Y-105597476D01*
X151940380Y-105403952D01*
X151940380Y-105065285D01*
X151892000Y-104871761D01*
X151795238Y-104775000D01*
X151698476Y-104726619D01*
X150392190Y-105065285D02*
X150392190Y-105742619D01*
X150634095Y-104678238D02*
X150876000Y-105403952D01*
X150247047Y-105403952D01*
X149956761Y-104726619D02*
X149279428Y-104726619D01*
X149714857Y-105742619D01*
D13*
X151930402Y-113259809D02*
X151930402Y-113671047D01*
X151906211Y-113719428D01*
X151882021Y-113743619D01*
X151833640Y-113767809D01*
X151736878Y-113767809D01*
X151688497Y-113743619D01*
X151664307Y-113719428D01*
X151640116Y-113671047D01*
X151640116Y-113259809D01*
X151422402Y-113743619D02*
X151349830Y-113767809D01*
X151228878Y-113767809D01*
X151180497Y-113743619D01*
X151156307Y-113719428D01*
X151132116Y-113671047D01*
X151132116Y-113622666D01*
X151156307Y-113574285D01*
X151180497Y-113550095D01*
X151228878Y-113525904D01*
X151325640Y-113501714D01*
X151374021Y-113477523D01*
X151398211Y-113453333D01*
X151422402Y-113404952D01*
X151422402Y-113356571D01*
X151398211Y-113308190D01*
X151374021Y-113284000D01*
X151325640Y-113259809D01*
X151204688Y-113259809D01*
X151132116Y-113284000D01*
X150745069Y-113501714D02*
X150672497Y-113525904D01*
X150648307Y-113550095D01*
X150624116Y-113598476D01*
X150624116Y-113671047D01*
X150648307Y-113719428D01*
X150672497Y-113743619D01*
X150720878Y-113767809D01*
X150914402Y-113767809D01*
X150914402Y-113259809D01*
X150745069Y-113259809D01*
X150696688Y-113284000D01*
X150672497Y-113308190D01*
X150648307Y-113356571D01*
X150648307Y-113404952D01*
X150672497Y-113453333D01*
X150696688Y-113477523D01*
X150745069Y-113501714D01*
X150914402Y-113501714D01*
X150527354Y-113816190D02*
X150140307Y-113816190D01*
X150019354Y-113767809D02*
X150019354Y-113259809D01*
X149898402Y-113259809D01*
X149825830Y-113284000D01*
X149777450Y-113332380D01*
X149753259Y-113380761D01*
X149729069Y-113477523D01*
X149729069Y-113550095D01*
X149753259Y-113646857D01*
X149777450Y-113695238D01*
X149825830Y-113743619D01*
X149898402Y-113767809D01*
X150019354Y-113767809D01*
X149511354Y-113574285D02*
X149124307Y-113574285D01*
D14*
X152264442Y-112242600D02*
X152317661Y-112215990D01*
X152397490Y-112215990D01*
X152477318Y-112242600D01*
X152530537Y-112295819D01*
X152557147Y-112349038D01*
X152583756Y-112455476D01*
X152583756Y-112535304D01*
X152557147Y-112641742D01*
X152530537Y-112694961D01*
X152477318Y-112748180D01*
X152397490Y-112774790D01*
X152344271Y-112774790D01*
X152264442Y-112748180D01*
X152237833Y-112721571D01*
X152237833Y-112535304D01*
X152344271Y-112535304D01*
X151998347Y-112774790D02*
X151998347Y-112215990D01*
X151785471Y-112215990D01*
X151732252Y-112242600D01*
X151705642Y-112269209D01*
X151679033Y-112322428D01*
X151679033Y-112402257D01*
X151705642Y-112455476D01*
X151732252Y-112482085D01*
X151785471Y-112508695D01*
X151998347Y-112508695D01*
X151439547Y-112774790D02*
X151439547Y-112215990D01*
X151067014Y-112215990D02*
X150960575Y-112215990D01*
X150907356Y-112242600D01*
X150854137Y-112295819D01*
X150827528Y-112402257D01*
X150827528Y-112588523D01*
X150854137Y-112694961D01*
X150907356Y-112748180D01*
X150960575Y-112774790D01*
X151067014Y-112774790D01*
X151120233Y-112748180D01*
X151173452Y-112694961D01*
X151200061Y-112588523D01*
X151200061Y-112402257D01*
X151173452Y-112295819D01*
X151120233Y-112242600D01*
X151067014Y-112215990D01*
X150295337Y-112774790D02*
X150614652Y-112774790D01*
X150454995Y-112774790D02*
X150454995Y-112215990D01*
X150508214Y-112295819D01*
X150561433Y-112349038D01*
X150614652Y-112375647D01*
X150029242Y-112774790D02*
X149922804Y-112774790D01*
X149869585Y-112748180D01*
X149842975Y-112721571D01*
X149789756Y-112641742D01*
X149763147Y-112535304D01*
X149763147Y-112322428D01*
X149789756Y-112269209D01*
X149816366Y-112242600D01*
X149869585Y-112215990D01*
X149976023Y-112215990D01*
X150029242Y-112242600D01*
X150055852Y-112269209D01*
X150082461Y-112322428D01*
X150082461Y-112455476D01*
X150055852Y-112508695D01*
X150029242Y-112535304D01*
X149976023Y-112561914D01*
X149869585Y-112561914D01*
X149816366Y-112535304D01*
X149789756Y-112508695D01*
X149763147Y-112455476D01*
X149124518Y-112189380D02*
X149603490Y-112907838D01*
D12*
X137504714Y-112268000D02*
X137577285Y-112231714D01*
X137686142Y-112231714D01*
X137795000Y-112268000D01*
X137867571Y-112340571D01*
X137903857Y-112413142D01*
X137940142Y-112558285D01*
X137940142Y-112667142D01*
X137903857Y-112812285D01*
X137867571Y-112884857D01*
X137795000Y-112957428D01*
X137686142Y-112993714D01*
X137613571Y-112993714D01*
X137504714Y-112957428D01*
X137468428Y-112921142D01*
X137468428Y-112667142D01*
X137613571Y-112667142D01*
X137141857Y-112993714D02*
X137141857Y-112231714D01*
X136851571Y-112231714D01*
X136779000Y-112268000D01*
X136742714Y-112304285D01*
X136706428Y-112376857D01*
X136706428Y-112485714D01*
X136742714Y-112558285D01*
X136779000Y-112594571D01*
X136851571Y-112630857D01*
X137141857Y-112630857D01*
X136379857Y-112993714D02*
X136379857Y-112231714D01*
X135871857Y-112231714D02*
X135726714Y-112231714D01*
X135654142Y-112268000D01*
X135581571Y-112340571D01*
X135545285Y-112485714D01*
X135545285Y-112739714D01*
X135581571Y-112884857D01*
X135654142Y-112957428D01*
X135726714Y-112993714D01*
X135871857Y-112993714D01*
X135944428Y-112957428D01*
X136017000Y-112884857D01*
X136053285Y-112739714D01*
X136053285Y-112485714D01*
X136017000Y-112340571D01*
X135944428Y-112268000D01*
X135871857Y-112231714D01*
X134819571Y-112993714D02*
X135255000Y-112993714D01*
X135037285Y-112993714D02*
X135037285Y-112231714D01*
X135109857Y-112340571D01*
X135182428Y-112413142D01*
X135255000Y-112449428D01*
X134166428Y-112485714D02*
X134166428Y-112993714D01*
X134347857Y-112195428D02*
X134529285Y-112739714D01*
X134057571Y-112739714D01*
D11*
X148844000Y-119380000D02*
X155194000Y-119380000D01*
X148844000Y-116840000D02*
X152781000Y-116840000D01*
X148844000Y-114300000D02*
X152781000Y-114300000D01*
X148844000Y-111760000D02*
X155194000Y-111760000D01*
X148844000Y-109220000D02*
X155194000Y-109220000D01*
X148844000Y-106680000D02*
X155194000Y-106680000D01*
X153875619Y-102362000D02*
X153972380Y-102313619D01*
X154117523Y-102313619D01*
X154262666Y-102362000D01*
X154359428Y-102458761D01*
X154407809Y-102555523D01*
X154456190Y-102749047D01*
X154456190Y-102894190D01*
X154407809Y-103087714D01*
X154359428Y-103184476D01*
X154262666Y-103281238D01*
X154117523Y-103329619D01*
X154020761Y-103329619D01*
X153875619Y-103281238D01*
X153827238Y-103232857D01*
X153827238Y-102894190D01*
X154020761Y-102894190D01*
X153391809Y-103329619D02*
X153391809Y-102313619D01*
X153004761Y-102313619D01*
X152908000Y-102362000D01*
X152859619Y-102410380D01*
X152811238Y-102507142D01*
X152811238Y-102652285D01*
X152859619Y-102749047D01*
X152908000Y-102797428D01*
X153004761Y-102845809D01*
X153391809Y-102845809D01*
X152375809Y-103329619D02*
X152375809Y-102313619D01*
X151698476Y-102313619D02*
X151504952Y-102313619D01*
X151408190Y-102362000D01*
X151311428Y-102458761D01*
X151263047Y-102652285D01*
X151263047Y-102990952D01*
X151311428Y-103184476D01*
X151408190Y-103281238D01*
X151504952Y-103329619D01*
X151698476Y-103329619D01*
X151795238Y-103281238D01*
X151892000Y-103184476D01*
X151940380Y-102990952D01*
X151940380Y-102652285D01*
X151892000Y-102458761D01*
X151795238Y-102362000D01*
X151698476Y-102313619D01*
X150392190Y-102652285D02*
X150392190Y-103329619D01*
X150634095Y-102265238D02*
X150876000Y-102990952D01*
X150247047Y-102990952D01*
X149714857Y-102749047D02*
X149811619Y-102700666D01*
X149860000Y-102652285D01*
X149908380Y-102555523D01*
X149908380Y-102507142D01*
X149860000Y-102410380D01*
X149811619Y-102362000D01*
X149714857Y-102313619D01*
X149521333Y-102313619D01*
X149424571Y-102362000D01*
X149376190Y-102410380D01*
X149327809Y-102507142D01*
X149327809Y-102555523D01*
X149376190Y-102652285D01*
X149424571Y-102700666D01*
X149521333Y-102749047D01*
X149714857Y-102749047D01*
X149811619Y-102797428D01*
X149860000Y-102845809D01*
X149908380Y-102942571D01*
X149908380Y-103136095D01*
X149860000Y-103232857D01*
X149811619Y-103281238D01*
X149714857Y-103329619D01*
X149521333Y-103329619D01*
X149424571Y-103281238D01*
X149376190Y-103232857D01*
X149327809Y-103136095D01*
X149327809Y-102942571D01*
X149376190Y-102845809D01*
X149424571Y-102797428D01*
X149521333Y-102749047D01*
X153875619Y-99695000D02*
X153972380Y-99646619D01*
X154117523Y-99646619D01*
X154262666Y-99695000D01*
X154359428Y-99791761D01*
X154407809Y-99888523D01*
X154456190Y-100082047D01*
X154456190Y-100227190D01*
X154407809Y-100420714D01*
X154359428Y-100517476D01*
X154262666Y-100614238D01*
X154117523Y-100662619D01*
X154020761Y-100662619D01*
X153875619Y-100614238D01*
X153827238Y-100565857D01*
X153827238Y-100227190D01*
X154020761Y-100227190D01*
X153391809Y-100662619D02*
X153391809Y-99646619D01*
X153004761Y-99646619D01*
X152908000Y-99695000D01*
X152859619Y-99743380D01*
X152811238Y-99840142D01*
X152811238Y-99985285D01*
X152859619Y-100082047D01*
X152908000Y-100130428D01*
X153004761Y-100178809D01*
X153391809Y-100178809D01*
X152375809Y-100662619D02*
X152375809Y-99646619D01*
X151698476Y-99646619D02*
X151504952Y-99646619D01*
X151408190Y-99695000D01*
X151311428Y-99791761D01*
X151263047Y-99985285D01*
X151263047Y-100323952D01*
X151311428Y-100517476D01*
X151408190Y-100614238D01*
X151504952Y-100662619D01*
X151698476Y-100662619D01*
X151795238Y-100614238D01*
X151892000Y-100517476D01*
X151940380Y-100323952D01*
X151940380Y-99985285D01*
X151892000Y-99791761D01*
X151795238Y-99695000D01*
X151698476Y-99646619D01*
X150392190Y-99985285D02*
X150392190Y-100662619D01*
X150634095Y-99598238D02*
X150876000Y-100323952D01*
X150247047Y-100323952D01*
X149376190Y-99646619D02*
X149860000Y-99646619D01*
X149908380Y-100130428D01*
X149860000Y-100082047D01*
X149763238Y-100033666D01*
X149521333Y-100033666D01*
X149424571Y-100082047D01*
X149376190Y-100130428D01*
X149327809Y-100227190D01*
X149327809Y-100469095D01*
X149376190Y-100565857D01*
X149424571Y-100614238D01*
X149521333Y-100662619D01*
X149763238Y-100662619D01*
X149860000Y-100614238D01*
X149908380Y-100565857D01*
X153875619Y-94742000D02*
X153972380Y-94693619D01*
X154117523Y-94693619D01*
X154262666Y-94742000D01*
X154359428Y-94838761D01*
X154407809Y-94935523D01*
X154456190Y-95129047D01*
X154456190Y-95274190D01*
X154407809Y-95467714D01*
X154359428Y-95564476D01*
X154262666Y-95661238D01*
X154117523Y-95709619D01*
X154020761Y-95709619D01*
X153875619Y-95661238D01*
X153827238Y-95612857D01*
X153827238Y-95274190D01*
X154020761Y-95274190D01*
X153391809Y-95709619D02*
X153391809Y-94693619D01*
X153004761Y-94693619D01*
X152908000Y-94742000D01*
X152859619Y-94790380D01*
X152811238Y-94887142D01*
X152811238Y-95032285D01*
X152859619Y-95129047D01*
X152908000Y-95177428D01*
X153004761Y-95225809D01*
X153391809Y-95225809D01*
X152375809Y-95709619D02*
X152375809Y-94693619D01*
X151698476Y-94693619D02*
X151504952Y-94693619D01*
X151408190Y-94742000D01*
X151311428Y-94838761D01*
X151263047Y-95032285D01*
X151263047Y-95370952D01*
X151311428Y-95564476D01*
X151408190Y-95661238D01*
X151504952Y-95709619D01*
X151698476Y-95709619D01*
X151795238Y-95661238D01*
X151892000Y-95564476D01*
X151940380Y-95370952D01*
X151940380Y-95032285D01*
X151892000Y-94838761D01*
X151795238Y-94742000D01*
X151698476Y-94693619D01*
X150924380Y-94693619D02*
X150295428Y-94693619D01*
X150634095Y-95080666D01*
X150488952Y-95080666D01*
X150392190Y-95129047D01*
X150343809Y-95177428D01*
X150295428Y-95274190D01*
X150295428Y-95516095D01*
X150343809Y-95612857D01*
X150392190Y-95661238D01*
X150488952Y-95709619D01*
X150779238Y-95709619D01*
X150876000Y-95661238D01*
X150924380Y-95612857D01*
X149376190Y-94693619D02*
X149860000Y-94693619D01*
X149908380Y-95177428D01*
X149860000Y-95129047D01*
X149763238Y-95080666D01*
X149521333Y-95080666D01*
X149424571Y-95129047D01*
X149376190Y-95177428D01*
X149327809Y-95274190D01*
X149327809Y-95516095D01*
X149376190Y-95612857D01*
X149424571Y-95661238D01*
X149521333Y-95709619D01*
X149763238Y-95709619D01*
X149860000Y-95661238D01*
X149908380Y-95612857D01*
X153875619Y-79502000D02*
X153972380Y-79453619D01*
X154117523Y-79453619D01*
X154262666Y-79502000D01*
X154359428Y-79598761D01*
X154407809Y-79695523D01*
X154456190Y-79889047D01*
X154456190Y-80034190D01*
X154407809Y-80227714D01*
X154359428Y-80324476D01*
X154262666Y-80421238D01*
X154117523Y-80469619D01*
X154020761Y-80469619D01*
X153875619Y-80421238D01*
X153827238Y-80372857D01*
X153827238Y-80034190D01*
X154020761Y-80034190D01*
X153391809Y-80469619D02*
X153391809Y-79453619D01*
X153004761Y-79453619D01*
X152908000Y-79502000D01*
X152859619Y-79550380D01*
X152811238Y-79647142D01*
X152811238Y-79792285D01*
X152859619Y-79889047D01*
X152908000Y-79937428D01*
X153004761Y-79985809D01*
X153391809Y-79985809D01*
X152375809Y-80469619D02*
X152375809Y-79453619D01*
X151698476Y-79453619D02*
X151504952Y-79453619D01*
X151408190Y-79502000D01*
X151311428Y-79598761D01*
X151263047Y-79792285D01*
X151263047Y-80130952D01*
X151311428Y-80324476D01*
X151408190Y-80421238D01*
X151504952Y-80469619D01*
X151698476Y-80469619D01*
X151795238Y-80421238D01*
X151892000Y-80324476D01*
X151940380Y-80130952D01*
X151940380Y-79792285D01*
X151892000Y-79598761D01*
X151795238Y-79502000D01*
X151698476Y-79453619D01*
X150392190Y-79792285D02*
X150392190Y-80469619D01*
X150634095Y-79405238D02*
X150876000Y-80130952D01*
X150247047Y-80130952D01*
X149327809Y-80469619D02*
X149908380Y-80469619D01*
X149618095Y-80469619D02*
X149618095Y-79453619D01*
X149714857Y-79598761D01*
X149811619Y-79695523D01*
X149908380Y-79743904D01*
X153899809Y-74549000D02*
X153996571Y-74500619D01*
X154141714Y-74500619D01*
X154286857Y-74549000D01*
X154383619Y-74645761D01*
X154432000Y-74742523D01*
X154480380Y-74936047D01*
X154480380Y-75081190D01*
X154432000Y-75274714D01*
X154383619Y-75371476D01*
X154286857Y-75468238D01*
X154141714Y-75516619D01*
X154044952Y-75516619D01*
X153899809Y-75468238D01*
X153851428Y-75419857D01*
X153851428Y-75081190D01*
X154044952Y-75081190D01*
X153416000Y-75516619D02*
X153416000Y-74500619D01*
X153028952Y-74500619D01*
X152932190Y-74549000D01*
X152883809Y-74597380D01*
X152835428Y-74694142D01*
X152835428Y-74839285D01*
X152883809Y-74936047D01*
X152932190Y-74984428D01*
X153028952Y-75032809D01*
X153416000Y-75032809D01*
X152400000Y-75516619D02*
X152400000Y-74500619D01*
X151722666Y-74500619D02*
X151529142Y-74500619D01*
X151432380Y-74549000D01*
X151335619Y-74645761D01*
X151287238Y-74839285D01*
X151287238Y-75177952D01*
X151335619Y-75371476D01*
X151432380Y-75468238D01*
X151529142Y-75516619D01*
X151722666Y-75516619D01*
X151819428Y-75468238D01*
X151916190Y-75371476D01*
X151964571Y-75177952D01*
X151964571Y-74839285D01*
X151916190Y-74645761D01*
X151819428Y-74549000D01*
X151722666Y-74500619D01*
X150900190Y-74597380D02*
X150851809Y-74549000D01*
X150755047Y-74500619D01*
X150513142Y-74500619D01*
X150416380Y-74549000D01*
X150368000Y-74597380D01*
X150319619Y-74694142D01*
X150319619Y-74790904D01*
X150368000Y-74936047D01*
X150948571Y-75516619D01*
X150319619Y-75516619D01*
X153899809Y-71755000D02*
X153996571Y-71706619D01*
X154141714Y-71706619D01*
X154286857Y-71755000D01*
X154383619Y-71851761D01*
X154432000Y-71948523D01*
X154480380Y-72142047D01*
X154480380Y-72287190D01*
X154432000Y-72480714D01*
X154383619Y-72577476D01*
X154286857Y-72674238D01*
X154141714Y-72722619D01*
X154044952Y-72722619D01*
X153899809Y-72674238D01*
X153851428Y-72625857D01*
X153851428Y-72287190D01*
X154044952Y-72287190D01*
X153416000Y-72722619D02*
X153416000Y-71706619D01*
X153028952Y-71706619D01*
X152932190Y-71755000D01*
X152883809Y-71803380D01*
X152835428Y-71900142D01*
X152835428Y-72045285D01*
X152883809Y-72142047D01*
X152932190Y-72190428D01*
X153028952Y-72238809D01*
X153416000Y-72238809D01*
X152400000Y-72722619D02*
X152400000Y-71706619D01*
X151722666Y-71706619D02*
X151529142Y-71706619D01*
X151432380Y-71755000D01*
X151335619Y-71851761D01*
X151287238Y-72045285D01*
X151287238Y-72383952D01*
X151335619Y-72577476D01*
X151432380Y-72674238D01*
X151529142Y-72722619D01*
X151722666Y-72722619D01*
X151819428Y-72674238D01*
X151916190Y-72577476D01*
X151964571Y-72383952D01*
X151964571Y-72045285D01*
X151916190Y-71851761D01*
X151819428Y-71755000D01*
X151722666Y-71706619D01*
X150319619Y-72722619D02*
X150900190Y-72722619D01*
X150609904Y-72722619D02*
X150609904Y-71706619D01*
X150706666Y-71851761D01*
X150803428Y-71948523D01*
X150900190Y-71996904D01*
X131826000Y-119380000D02*
X138176000Y-119380000D01*
X134239000Y-116840000D02*
X138176000Y-116840000D01*
X134239000Y-114300000D02*
X138176000Y-114300000D01*
X131826000Y-111760000D02*
X138176000Y-111760000D01*
X137111619Y-109982000D02*
X137208380Y-109933619D01*
X137353523Y-109933619D01*
X137498666Y-109982000D01*
X137595428Y-110078761D01*
X137643809Y-110175523D01*
X137692190Y-110369047D01*
X137692190Y-110514190D01*
X137643809Y-110707714D01*
X137595428Y-110804476D01*
X137498666Y-110901238D01*
X137353523Y-110949619D01*
X137256761Y-110949619D01*
X137111619Y-110901238D01*
X137063238Y-110852857D01*
X137063238Y-110514190D01*
X137256761Y-110514190D01*
X136627809Y-110949619D02*
X136627809Y-109933619D01*
X136240761Y-109933619D01*
X136144000Y-109982000D01*
X136095619Y-110030380D01*
X136047238Y-110127142D01*
X136047238Y-110272285D01*
X136095619Y-110369047D01*
X136144000Y-110417428D01*
X136240761Y-110465809D01*
X136627809Y-110465809D01*
X135611809Y-110949619D02*
X135611809Y-109933619D01*
X134934476Y-109933619D02*
X134740952Y-109933619D01*
X134644190Y-109982000D01*
X134547428Y-110078761D01*
X134499047Y-110272285D01*
X134499047Y-110610952D01*
X134547428Y-110804476D01*
X134644190Y-110901238D01*
X134740952Y-110949619D01*
X134934476Y-110949619D01*
X135031238Y-110901238D01*
X135128000Y-110804476D01*
X135176380Y-110610952D01*
X135176380Y-110272285D01*
X135128000Y-110078761D01*
X135031238Y-109982000D01*
X134934476Y-109933619D01*
X133531428Y-110949619D02*
X134112000Y-110949619D01*
X133821714Y-110949619D02*
X133821714Y-109933619D01*
X133918476Y-110078761D01*
X134015238Y-110175523D01*
X134112000Y-110223904D01*
X133192761Y-109933619D02*
X132563809Y-109933619D01*
X132902476Y-110320666D01*
X132757333Y-110320666D01*
X132660571Y-110369047D01*
X132612190Y-110417428D01*
X132563809Y-110514190D01*
X132563809Y-110756095D01*
X132612190Y-110852857D01*
X132660571Y-110901238D01*
X132757333Y-110949619D01*
X133047619Y-110949619D01*
X133144380Y-110901238D01*
X133192761Y-110852857D01*
X137111619Y-107442000D02*
X137208380Y-107393619D01*
X137353523Y-107393619D01*
X137498666Y-107442000D01*
X137595428Y-107538761D01*
X137643809Y-107635523D01*
X137692190Y-107829047D01*
X137692190Y-107974190D01*
X137643809Y-108167714D01*
X137595428Y-108264476D01*
X137498666Y-108361238D01*
X137353523Y-108409619D01*
X137256761Y-108409619D01*
X137111619Y-108361238D01*
X137063238Y-108312857D01*
X137063238Y-107974190D01*
X137256761Y-107974190D01*
X136627809Y-108409619D02*
X136627809Y-107393619D01*
X136240761Y-107393619D01*
X136144000Y-107442000D01*
X136095619Y-107490380D01*
X136047238Y-107587142D01*
X136047238Y-107732285D01*
X136095619Y-107829047D01*
X136144000Y-107877428D01*
X136240761Y-107925809D01*
X136627809Y-107925809D01*
X135611809Y-108409619D02*
X135611809Y-107393619D01*
X134934476Y-107393619D02*
X134740952Y-107393619D01*
X134644190Y-107442000D01*
X134547428Y-107538761D01*
X134499047Y-107732285D01*
X134499047Y-108070952D01*
X134547428Y-108264476D01*
X134644190Y-108361238D01*
X134740952Y-108409619D01*
X134934476Y-108409619D01*
X135031238Y-108361238D01*
X135128000Y-108264476D01*
X135176380Y-108070952D01*
X135176380Y-107732285D01*
X135128000Y-107538761D01*
X135031238Y-107442000D01*
X134934476Y-107393619D01*
X133531428Y-108409619D02*
X134112000Y-108409619D01*
X133821714Y-108409619D02*
X133821714Y-107393619D01*
X133918476Y-107538761D01*
X134015238Y-107635523D01*
X134112000Y-107683904D01*
X133144380Y-107490380D02*
X133096000Y-107442000D01*
X132999238Y-107393619D01*
X132757333Y-107393619D01*
X132660571Y-107442000D01*
X132612190Y-107490380D01*
X132563809Y-107587142D01*
X132563809Y-107683904D01*
X132612190Y-107829047D01*
X133192761Y-108409619D01*
X132563809Y-108409619D01*
X137111619Y-104902000D02*
X137208380Y-104853619D01*
X137353523Y-104853619D01*
X137498666Y-104902000D01*
X137595428Y-104998761D01*
X137643809Y-105095523D01*
X137692190Y-105289047D01*
X137692190Y-105434190D01*
X137643809Y-105627714D01*
X137595428Y-105724476D01*
X137498666Y-105821238D01*
X137353523Y-105869619D01*
X137256761Y-105869619D01*
X137111619Y-105821238D01*
X137063238Y-105772857D01*
X137063238Y-105434190D01*
X137256761Y-105434190D01*
X136627809Y-105869619D02*
X136627809Y-104853619D01*
X136240761Y-104853619D01*
X136144000Y-104902000D01*
X136095619Y-104950380D01*
X136047238Y-105047142D01*
X136047238Y-105192285D01*
X136095619Y-105289047D01*
X136144000Y-105337428D01*
X136240761Y-105385809D01*
X136627809Y-105385809D01*
X135611809Y-105869619D02*
X135611809Y-104853619D01*
X134934476Y-104853619D02*
X134740952Y-104853619D01*
X134644190Y-104902000D01*
X134547428Y-104998761D01*
X134499047Y-105192285D01*
X134499047Y-105530952D01*
X134547428Y-105724476D01*
X134644190Y-105821238D01*
X134740952Y-105869619D01*
X134934476Y-105869619D01*
X135031238Y-105821238D01*
X135128000Y-105724476D01*
X135176380Y-105530952D01*
X135176380Y-105192285D01*
X135128000Y-104998761D01*
X135031238Y-104902000D01*
X134934476Y-104853619D01*
X133531428Y-105869619D02*
X134112000Y-105869619D01*
X133821714Y-105869619D02*
X133821714Y-104853619D01*
X133918476Y-104998761D01*
X134015238Y-105095523D01*
X134112000Y-105143904D01*
X132563809Y-105869619D02*
X133144380Y-105869619D01*
X132854095Y-105869619D02*
X132854095Y-104853619D01*
X132950857Y-104998761D01*
X133047619Y-105095523D01*
X133144380Y-105143904D01*
X137111619Y-102362000D02*
X137208380Y-102313619D01*
X137353523Y-102313619D01*
X137498666Y-102362000D01*
X137595428Y-102458761D01*
X137643809Y-102555523D01*
X137692190Y-102749047D01*
X137692190Y-102894190D01*
X137643809Y-103087714D01*
X137595428Y-103184476D01*
X137498666Y-103281238D01*
X137353523Y-103329619D01*
X137256761Y-103329619D01*
X137111619Y-103281238D01*
X137063238Y-103232857D01*
X137063238Y-102894190D01*
X137256761Y-102894190D01*
X136627809Y-103329619D02*
X136627809Y-102313619D01*
X136240761Y-102313619D01*
X136144000Y-102362000D01*
X136095619Y-102410380D01*
X136047238Y-102507142D01*
X136047238Y-102652285D01*
X136095619Y-102749047D01*
X136144000Y-102797428D01*
X136240761Y-102845809D01*
X136627809Y-102845809D01*
X135611809Y-103329619D02*
X135611809Y-102313619D01*
X134934476Y-102313619D02*
X134740952Y-102313619D01*
X134644190Y-102362000D01*
X134547428Y-102458761D01*
X134499047Y-102652285D01*
X134499047Y-102990952D01*
X134547428Y-103184476D01*
X134644190Y-103281238D01*
X134740952Y-103329619D01*
X134934476Y-103329619D01*
X135031238Y-103281238D01*
X135128000Y-103184476D01*
X135176380Y-102990952D01*
X135176380Y-102652285D01*
X135128000Y-102458761D01*
X135031238Y-102362000D01*
X134934476Y-102313619D01*
X133531428Y-103329619D02*
X134112000Y-103329619D01*
X133821714Y-103329619D02*
X133821714Y-102313619D01*
X133918476Y-102458761D01*
X134015238Y-102555523D01*
X134112000Y-102603904D01*
X132902476Y-102313619D02*
X132805714Y-102313619D01*
X132708952Y-102362000D01*
X132660571Y-102410380D01*
X132612190Y-102507142D01*
X132563809Y-102700666D01*
X132563809Y-102942571D01*
X132612190Y-103136095D01*
X132660571Y-103232857D01*
X132708952Y-103281238D01*
X132805714Y-103329619D01*
X132902476Y-103329619D01*
X132999238Y-103281238D01*
X133047619Y-103232857D01*
X133096000Y-103136095D01*
X133144380Y-102942571D01*
X133144380Y-102700666D01*
X133096000Y-102507142D01*
X133047619Y-102410380D01*
X132999238Y-102362000D01*
X132902476Y-102313619D01*
X137135809Y-99949000D02*
X137232571Y-99900619D01*
X137377714Y-99900619D01*
X137522857Y-99949000D01*
X137619619Y-100045761D01*
X137668000Y-100142523D01*
X137716380Y-100336047D01*
X137716380Y-100481190D01*
X137668000Y-100674714D01*
X137619619Y-100771476D01*
X137522857Y-100868238D01*
X137377714Y-100916619D01*
X137280952Y-100916619D01*
X137135809Y-100868238D01*
X137087428Y-100819857D01*
X137087428Y-100481190D01*
X137280952Y-100481190D01*
X136652000Y-100916619D02*
X136652000Y-99900619D01*
X136264952Y-99900619D01*
X136168190Y-99949000D01*
X136119809Y-99997380D01*
X136071428Y-100094142D01*
X136071428Y-100239285D01*
X136119809Y-100336047D01*
X136168190Y-100384428D01*
X136264952Y-100432809D01*
X136652000Y-100432809D01*
X135636000Y-100916619D02*
X135636000Y-99900619D01*
X134958666Y-99900619D02*
X134765142Y-99900619D01*
X134668380Y-99949000D01*
X134571619Y-100045761D01*
X134523238Y-100239285D01*
X134523238Y-100577952D01*
X134571619Y-100771476D01*
X134668380Y-100868238D01*
X134765142Y-100916619D01*
X134958666Y-100916619D01*
X135055428Y-100868238D01*
X135152190Y-100771476D01*
X135200571Y-100577952D01*
X135200571Y-100239285D01*
X135152190Y-100045761D01*
X135055428Y-99949000D01*
X134958666Y-99900619D01*
X134039428Y-100916619D02*
X133845904Y-100916619D01*
X133749142Y-100868238D01*
X133700761Y-100819857D01*
X133604000Y-100674714D01*
X133555619Y-100481190D01*
X133555619Y-100094142D01*
X133604000Y-99997380D01*
X133652380Y-99949000D01*
X133749142Y-99900619D01*
X133942666Y-99900619D01*
X134039428Y-99949000D01*
X134087809Y-99997380D01*
X134136190Y-100094142D01*
X134136190Y-100336047D01*
X134087809Y-100432809D01*
X134039428Y-100481190D01*
X133942666Y-100529571D01*
X133749142Y-100529571D01*
X133652380Y-100481190D01*
X133604000Y-100432809D01*
X133555619Y-100336047D01*
X137111619Y-97155000D02*
X137208380Y-97106619D01*
X137353523Y-97106619D01*
X137498666Y-97155000D01*
X137595428Y-97251761D01*
X137643809Y-97348523D01*
X137692190Y-97542047D01*
X137692190Y-97687190D01*
X137643809Y-97880714D01*
X137595428Y-97977476D01*
X137498666Y-98074238D01*
X137353523Y-98122619D01*
X137256761Y-98122619D01*
X137111619Y-98074238D01*
X137063238Y-98025857D01*
X137063238Y-97687190D01*
X137256761Y-97687190D01*
X136627809Y-98122619D02*
X136627809Y-97106619D01*
X136240761Y-97106619D01*
X136144000Y-97155000D01*
X136095619Y-97203380D01*
X136047238Y-97300142D01*
X136047238Y-97445285D01*
X136095619Y-97542047D01*
X136144000Y-97590428D01*
X136240761Y-97638809D01*
X136627809Y-97638809D01*
X135611809Y-98122619D02*
X135611809Y-97106619D01*
X134934476Y-97106619D02*
X134740952Y-97106619D01*
X134644190Y-97155000D01*
X134547428Y-97251761D01*
X134499047Y-97445285D01*
X134499047Y-97783952D01*
X134547428Y-97977476D01*
X134644190Y-98074238D01*
X134740952Y-98122619D01*
X134934476Y-98122619D01*
X135031238Y-98074238D01*
X135128000Y-97977476D01*
X135176380Y-97783952D01*
X135176380Y-97445285D01*
X135128000Y-97251761D01*
X135031238Y-97155000D01*
X134934476Y-97106619D01*
X133628190Y-97445285D02*
X133628190Y-98122619D01*
X133870095Y-97058238D02*
X134112000Y-97783952D01*
X133483047Y-97783952D01*
X132660571Y-97106619D02*
X132854095Y-97106619D01*
X132950857Y-97155000D01*
X132999238Y-97203380D01*
X133096000Y-97348523D01*
X133144380Y-97542047D01*
X133144380Y-97929095D01*
X133096000Y-98025857D01*
X133047619Y-98074238D01*
X132950857Y-98122619D01*
X132757333Y-98122619D01*
X132660571Y-98074238D01*
X132612190Y-98025857D01*
X132563809Y-97929095D01*
X132563809Y-97687190D01*
X132612190Y-97590428D01*
X132660571Y-97542047D01*
X132757333Y-97493666D01*
X132950857Y-97493666D01*
X133047619Y-97542047D01*
X133096000Y-97590428D01*
X133144380Y-97687190D01*
X137135809Y-94742000D02*
X137232571Y-94693619D01*
X137377714Y-94693619D01*
X137522857Y-94742000D01*
X137619619Y-94838761D01*
X137668000Y-94935523D01*
X137716380Y-95129047D01*
X137716380Y-95274190D01*
X137668000Y-95467714D01*
X137619619Y-95564476D01*
X137522857Y-95661238D01*
X137377714Y-95709619D01*
X137280952Y-95709619D01*
X137135809Y-95661238D01*
X137087428Y-95612857D01*
X137087428Y-95274190D01*
X137280952Y-95274190D01*
X136652000Y-95709619D02*
X136652000Y-94693619D01*
X136264952Y-94693619D01*
X136168190Y-94742000D01*
X136119809Y-94790380D01*
X136071428Y-94887142D01*
X136071428Y-95032285D01*
X136119809Y-95129047D01*
X136168190Y-95177428D01*
X136264952Y-95225809D01*
X136652000Y-95225809D01*
X135636000Y-95709619D02*
X135636000Y-94693619D01*
X134958666Y-94693619D02*
X134765142Y-94693619D01*
X134668380Y-94742000D01*
X134571619Y-94838761D01*
X134523238Y-95032285D01*
X134523238Y-95370952D01*
X134571619Y-95564476D01*
X134668380Y-95661238D01*
X134765142Y-95709619D01*
X134958666Y-95709619D01*
X135055428Y-95661238D01*
X135152190Y-95564476D01*
X135200571Y-95370952D01*
X135200571Y-95032285D01*
X135152190Y-94838761D01*
X135055428Y-94742000D01*
X134958666Y-94693619D01*
X134184571Y-94693619D02*
X133555619Y-94693619D01*
X133894285Y-95080666D01*
X133749142Y-95080666D01*
X133652380Y-95129047D01*
X133604000Y-95177428D01*
X133555619Y-95274190D01*
X133555619Y-95516095D01*
X133604000Y-95612857D01*
X133652380Y-95661238D01*
X133749142Y-95709619D01*
X134039428Y-95709619D01*
X134136190Y-95661238D01*
X134184571Y-95612857D01*
X137135809Y-92202000D02*
X137232571Y-92153619D01*
X137377714Y-92153619D01*
X137522857Y-92202000D01*
X137619619Y-92298761D01*
X137668000Y-92395523D01*
X137716380Y-92589047D01*
X137716380Y-92734190D01*
X137668000Y-92927714D01*
X137619619Y-93024476D01*
X137522857Y-93121238D01*
X137377714Y-93169619D01*
X137280952Y-93169619D01*
X137135809Y-93121238D01*
X137087428Y-93072857D01*
X137087428Y-92734190D01*
X137280952Y-92734190D01*
X136652000Y-93169619D02*
X136652000Y-92153619D01*
X136264952Y-92153619D01*
X136168190Y-92202000D01*
X136119809Y-92250380D01*
X136071428Y-92347142D01*
X136071428Y-92492285D01*
X136119809Y-92589047D01*
X136168190Y-92637428D01*
X136264952Y-92685809D01*
X136652000Y-92685809D01*
X135636000Y-93169619D02*
X135636000Y-92153619D01*
X134958666Y-92153619D02*
X134765142Y-92153619D01*
X134668380Y-92202000D01*
X134571619Y-92298761D01*
X134523238Y-92492285D01*
X134523238Y-92830952D01*
X134571619Y-93024476D01*
X134668380Y-93121238D01*
X134765142Y-93169619D01*
X134958666Y-93169619D01*
X135055428Y-93121238D01*
X135152190Y-93024476D01*
X135200571Y-92830952D01*
X135200571Y-92492285D01*
X135152190Y-92298761D01*
X135055428Y-92202000D01*
X134958666Y-92153619D01*
X133942666Y-92589047D02*
X134039428Y-92540666D01*
X134087809Y-92492285D01*
X134136190Y-92395523D01*
X134136190Y-92347142D01*
X134087809Y-92250380D01*
X134039428Y-92202000D01*
X133942666Y-92153619D01*
X133749142Y-92153619D01*
X133652380Y-92202000D01*
X133604000Y-92250380D01*
X133555619Y-92347142D01*
X133555619Y-92395523D01*
X133604000Y-92492285D01*
X133652380Y-92540666D01*
X133749142Y-92589047D01*
X133942666Y-92589047D01*
X134039428Y-92637428D01*
X134087809Y-92685809D01*
X134136190Y-92782571D01*
X134136190Y-92976095D01*
X134087809Y-93072857D01*
X134039428Y-93121238D01*
X133942666Y-93169619D01*
X133749142Y-93169619D01*
X133652380Y-93121238D01*
X133604000Y-93072857D01*
X133555619Y-92976095D01*
X133555619Y-92782571D01*
X133604000Y-92685809D01*
X133652380Y-92637428D01*
X133749142Y-92589047D01*
X137135809Y-79629000D02*
X137232571Y-79580619D01*
X137377714Y-79580619D01*
X137522857Y-79629000D01*
X137619619Y-79725761D01*
X137668000Y-79822523D01*
X137716380Y-80016047D01*
X137716380Y-80161190D01*
X137668000Y-80354714D01*
X137619619Y-80451476D01*
X137522857Y-80548238D01*
X137377714Y-80596619D01*
X137280952Y-80596619D01*
X137135809Y-80548238D01*
X137087428Y-80499857D01*
X137087428Y-80161190D01*
X137280952Y-80161190D01*
X136652000Y-80596619D02*
X136652000Y-79580619D01*
X136264952Y-79580619D01*
X136168190Y-79629000D01*
X136119809Y-79677380D01*
X136071428Y-79774142D01*
X136071428Y-79919285D01*
X136119809Y-80016047D01*
X136168190Y-80064428D01*
X136264952Y-80112809D01*
X136652000Y-80112809D01*
X135636000Y-80596619D02*
X135636000Y-79580619D01*
X134958666Y-79580619D02*
X134765142Y-79580619D01*
X134668380Y-79629000D01*
X134571619Y-79725761D01*
X134523238Y-79919285D01*
X134523238Y-80257952D01*
X134571619Y-80451476D01*
X134668380Y-80548238D01*
X134765142Y-80596619D01*
X134958666Y-80596619D01*
X135055428Y-80548238D01*
X135152190Y-80451476D01*
X135200571Y-80257952D01*
X135200571Y-79919285D01*
X135152190Y-79725761D01*
X135055428Y-79629000D01*
X134958666Y-79580619D01*
X134184571Y-79580619D02*
X133507238Y-79580619D01*
X133942666Y-80596619D01*
X137135809Y-71882000D02*
X137232571Y-71833619D01*
X137377714Y-71833619D01*
X137522857Y-71882000D01*
X137619619Y-71978761D01*
X137668000Y-72075523D01*
X137716380Y-72269047D01*
X137716380Y-72414190D01*
X137668000Y-72607714D01*
X137619619Y-72704476D01*
X137522857Y-72801238D01*
X137377714Y-72849619D01*
X137280952Y-72849619D01*
X137135809Y-72801238D01*
X137087428Y-72752857D01*
X137087428Y-72414190D01*
X137280952Y-72414190D01*
X136652000Y-72849619D02*
X136652000Y-71833619D01*
X136264952Y-71833619D01*
X136168190Y-71882000D01*
X136119809Y-71930380D01*
X136071428Y-72027142D01*
X136071428Y-72172285D01*
X136119809Y-72269047D01*
X136168190Y-72317428D01*
X136264952Y-72365809D01*
X136652000Y-72365809D01*
X135636000Y-72849619D02*
X135636000Y-71833619D01*
X134958666Y-71833619D02*
X134765142Y-71833619D01*
X134668380Y-71882000D01*
X134571619Y-71978761D01*
X134523238Y-72172285D01*
X134523238Y-72510952D01*
X134571619Y-72704476D01*
X134668380Y-72801238D01*
X134765142Y-72849619D01*
X134958666Y-72849619D01*
X135055428Y-72801238D01*
X135152190Y-72704476D01*
X135200571Y-72510952D01*
X135200571Y-72172285D01*
X135152190Y-71978761D01*
X135055428Y-71882000D01*
X134958666Y-71833619D01*
X133652380Y-72172285D02*
X133652380Y-72849619D01*
X133894285Y-71785238D02*
X134136190Y-72510952D01*
X133507238Y-72510952D01*
X137795000Y-67400714D02*
X136827380Y-67400714D01*
X137311190Y-67884523D02*
X137311190Y-66916904D01*
X136343571Y-66614523D02*
X135557380Y-66614523D01*
X135980714Y-67098333D01*
X135799285Y-67098333D01*
X135678333Y-67158809D01*
X135617857Y-67219285D01*
X135557380Y-67340238D01*
X135557380Y-67642619D01*
X135617857Y-67763571D01*
X135678333Y-67824047D01*
X135799285Y-67884523D01*
X136162142Y-67884523D01*
X136283095Y-67824047D01*
X136343571Y-67763571D01*
X135013095Y-67763571D02*
X134952619Y-67824047D01*
X135013095Y-67884523D01*
X135073571Y-67824047D01*
X135013095Y-67763571D01*
X135013095Y-67884523D01*
X134529285Y-66614523D02*
X133743095Y-66614523D01*
X134166428Y-67098333D01*
X133985000Y-67098333D01*
X133864047Y-67158809D01*
X133803571Y-67219285D01*
X133743095Y-67340238D01*
X133743095Y-67642619D01*
X133803571Y-67763571D01*
X133864047Y-67824047D01*
X133985000Y-67884523D01*
X134347857Y-67884523D01*
X134468809Y-67824047D01*
X134529285Y-67763571D01*
X133380238Y-66614523D02*
X132956904Y-67884523D01*
X132533571Y-66614523D01*
X131826000Y-71120000D02*
X138176000Y-71120000D01*
D15*
X141880166Y-111569500D02*
X141922500Y-111611833D01*
X142049500Y-111696500D01*
X142134166Y-111738833D01*
X142261166Y-111781166D01*
X142472833Y-111823500D01*
X142642166Y-111823500D01*
X142853833Y-111781166D01*
X142980833Y-111738833D01*
X143065500Y-111696500D01*
X143192500Y-111611833D01*
X143234833Y-111569500D01*
X142303500Y-110722833D02*
X142261166Y-110765166D01*
X142218833Y-110892166D01*
X142218833Y-110976833D01*
X142261166Y-111103833D01*
X142345833Y-111188500D01*
X142430500Y-111230833D01*
X142599833Y-111273166D01*
X142726833Y-111273166D01*
X142896166Y-111230833D01*
X142980833Y-111188500D01*
X143065500Y-111103833D01*
X143107833Y-110976833D01*
X143107833Y-110892166D01*
X143065500Y-110765166D01*
X143023166Y-110722833D01*
X141880166Y-110426500D02*
X141922500Y-110384166D01*
X142049500Y-110299500D01*
X142134166Y-110257166D01*
X142261166Y-110214833D01*
X142472833Y-110172500D01*
X142642166Y-110172500D01*
X142853833Y-110214833D01*
X142980833Y-110257166D01*
X143065500Y-110299500D01*
X143192500Y-110384166D01*
X143234833Y-110426500D01*
X143023166Y-109114166D02*
X143065500Y-109071833D01*
X143107833Y-108987166D01*
X143107833Y-108775500D01*
X143065500Y-108690833D01*
X143023166Y-108648500D01*
X142938500Y-108606166D01*
X142853833Y-108606166D01*
X142726833Y-108648500D01*
X142218833Y-109156500D01*
X142218833Y-108606166D01*
X143107833Y-108055833D02*
X143107833Y-107971166D01*
X143065500Y-107886500D01*
X143023166Y-107844166D01*
X142938500Y-107801833D01*
X142769166Y-107759500D01*
X142557500Y-107759500D01*
X142388166Y-107801833D01*
X142303500Y-107844166D01*
X142261166Y-107886500D01*
X142218833Y-107971166D01*
X142218833Y-108055833D01*
X142261166Y-108140500D01*
X142303500Y-108182833D01*
X142388166Y-108225166D01*
X142557500Y-108267500D01*
X142769166Y-108267500D01*
X142938500Y-108225166D01*
X143023166Y-108182833D01*
X143065500Y-108140500D01*
X143107833Y-108055833D01*
X143023166Y-107420833D02*
X143065500Y-107378500D01*
X143107833Y-107293833D01*
X143107833Y-107082166D01*
X143065500Y-106997500D01*
X143023166Y-106955166D01*
X142938500Y-106912833D01*
X142853833Y-106912833D01*
X142726833Y-106955166D01*
X142218833Y-107463166D01*
X142218833Y-106912833D01*
X143107833Y-106616500D02*
X143107833Y-106066166D01*
X142769166Y-106362500D01*
X142769166Y-106235500D01*
X142726833Y-106150833D01*
X142684500Y-106108500D01*
X142599833Y-106066166D01*
X142388166Y-106066166D01*
X142303500Y-106108500D01*
X142261166Y-106150833D01*
X142218833Y-106235500D01*
X142218833Y-106489500D01*
X142261166Y-106574166D01*
X142303500Y-106616500D01*
D11*
X150343809Y-88228714D02*
X149376190Y-88228714D01*
X150343809Y-90387714D02*
X149376190Y-90387714D01*
X149860000Y-90871523D02*
X149860000Y-89903904D01*
X138176000Y-119380000D02*
X138176000Y-63500000D01*
X131826000Y-63500000D02*
X138176000Y-63500000D01*
X148844000Y-63500000D02*
X155194000Y-63500000D01*
D16*
X148223363Y-91697023D02*
X148223363Y-91303928D01*
X147981458Y-91515595D01*
X147981458Y-91424880D01*
X147951220Y-91364404D01*
X147920982Y-91334166D01*
X147860505Y-91303928D01*
X147709315Y-91303928D01*
X147648839Y-91334166D01*
X147618601Y-91364404D01*
X147588363Y-91424880D01*
X147588363Y-91606309D01*
X147618601Y-91666785D01*
X147648839Y-91697023D01*
X147648839Y-91031785D02*
X147618601Y-91001547D01*
X147588363Y-91031785D01*
X147618601Y-91062023D01*
X147648839Y-91031785D01*
X147588363Y-91031785D01*
X148223363Y-90789880D02*
X148223363Y-90366547D01*
X147588363Y-90638690D01*
X148223363Y-90215357D02*
X147588363Y-90003690D01*
X148223363Y-89792023D01*
X147588363Y-88794166D02*
X147588363Y-89096547D01*
X148223363Y-89096547D01*
X147588363Y-88582500D02*
X148011696Y-88582500D01*
X148223363Y-88582500D02*
X148193125Y-88612738D01*
X148162886Y-88582500D01*
X148193125Y-88552261D01*
X148223363Y-88582500D01*
X148162886Y-88582500D01*
X148011696Y-88280119D02*
X147376696Y-88280119D01*
X147981458Y-88280119D02*
X148011696Y-88219642D01*
X148011696Y-88098690D01*
X147981458Y-88038214D01*
X147951220Y-88007976D01*
X147890744Y-87977738D01*
X147709315Y-87977738D01*
X147648839Y-88007976D01*
X147618601Y-88038214D01*
X147588363Y-88098690D01*
X147588363Y-88219642D01*
X147618601Y-88280119D01*
X147588363Y-87614880D02*
X147618601Y-87675357D01*
X147648839Y-87705595D01*
X147709315Y-87735833D01*
X147890744Y-87735833D01*
X147951220Y-87705595D01*
X147981458Y-87675357D01*
X148011696Y-87614880D01*
X148011696Y-87524166D01*
X147981458Y-87463690D01*
X147951220Y-87433452D01*
X147890744Y-87403214D01*
X147709315Y-87403214D01*
X147648839Y-87433452D01*
X147618601Y-87463690D01*
X147588363Y-87524166D01*
X147588363Y-87614880D01*
X146809732Y-90850357D02*
X146779494Y-90759642D01*
X146749255Y-90729404D01*
X146688779Y-90699166D01*
X146598065Y-90699166D01*
X146537589Y-90729404D01*
X146507351Y-90759642D01*
X146477113Y-90820119D01*
X146477113Y-91062023D01*
X147112113Y-91062023D01*
X147112113Y-90850357D01*
X147081875Y-90789880D01*
X147051636Y-90759642D01*
X146991160Y-90729404D01*
X146930684Y-90729404D01*
X146870208Y-90759642D01*
X146839970Y-90789880D01*
X146809732Y-90850357D01*
X146809732Y-91062023D01*
X146477113Y-90154880D02*
X146809732Y-90154880D01*
X146870208Y-90185119D01*
X146900446Y-90245595D01*
X146900446Y-90366547D01*
X146870208Y-90427023D01*
X146507351Y-90154880D02*
X146477113Y-90215357D01*
X146477113Y-90366547D01*
X146507351Y-90427023D01*
X146567827Y-90457261D01*
X146628303Y-90457261D01*
X146688779Y-90427023D01*
X146719017Y-90366547D01*
X146719017Y-90215357D01*
X146749255Y-90154880D01*
X146900446Y-89943214D02*
X146900446Y-89701309D01*
X147112113Y-89852500D02*
X146567827Y-89852500D01*
X146507351Y-89822261D01*
X146477113Y-89761785D01*
X146477113Y-89701309D01*
X146900446Y-89580357D02*
X146900446Y-89338452D01*
X147112113Y-89489642D02*
X146567827Y-89489642D01*
X146507351Y-89459404D01*
X146477113Y-89398928D01*
X146477113Y-89338452D01*
X146507351Y-88884880D02*
X146477113Y-88945357D01*
X146477113Y-89066309D01*
X146507351Y-89126785D01*
X146567827Y-89157023D01*
X146809732Y-89157023D01*
X146870208Y-89126785D01*
X146900446Y-89066309D01*
X146900446Y-88945357D01*
X146870208Y-88884880D01*
X146809732Y-88854642D01*
X146749255Y-88854642D01*
X146688779Y-89157023D01*
X146477113Y-88582500D02*
X146900446Y-88582500D01*
X146779494Y-88582500D02*
X146839970Y-88552261D01*
X146870208Y-88522023D01*
X146900446Y-88461547D01*
X146900446Y-88401071D01*
X146900446Y-88249880D02*
X146477113Y-88098690D01*
X146900446Y-87947500D02*
X146477113Y-88098690D01*
X146325922Y-88159166D01*
X146295684Y-88189404D01*
X146265446Y-88249880D01*
D17*
X147806228Y-115683695D02*
X148077161Y-115296647D01*
X148270685Y-115683695D02*
X148270685Y-114870895D01*
X147961047Y-114870895D01*
X147883638Y-114909600D01*
X147844933Y-114948304D01*
X147806228Y-115025714D01*
X147806228Y-115141828D01*
X147844933Y-115219238D01*
X147883638Y-115257942D01*
X147961047Y-115296647D01*
X148270685Y-115296647D01*
X147341771Y-115683695D02*
X147419180Y-115644990D01*
X147457885Y-115606285D01*
X147496590Y-115528876D01*
X147496590Y-115296647D01*
X147457885Y-115219238D01*
X147419180Y-115180533D01*
X147341771Y-115141828D01*
X147225657Y-115141828D01*
X147148247Y-115180533D01*
X147109542Y-115219238D01*
X147070838Y-115296647D01*
X147070838Y-115528876D01*
X147109542Y-115606285D01*
X147148247Y-115644990D01*
X147225657Y-115683695D01*
X147341771Y-115683695D01*
X146722495Y-115683695D02*
X146722495Y-114870895D01*
X146722495Y-115257942D02*
X146258038Y-115257942D01*
X146258038Y-115683695D02*
X146258038Y-114870895D01*
X145909695Y-115644990D02*
X145793580Y-115683695D01*
X145600057Y-115683695D01*
X145522647Y-115644990D01*
X145483942Y-115606285D01*
X145445238Y-115528876D01*
X145445238Y-115451466D01*
X145483942Y-115374057D01*
X145522647Y-115335352D01*
X145600057Y-115296647D01*
X145754876Y-115257942D01*
X145832285Y-115219238D01*
X145870990Y-115180533D01*
X145909695Y-115103123D01*
X145909695Y-115025714D01*
X145870990Y-114948304D01*
X145832285Y-114909600D01*
X145754876Y-114870895D01*
X145561352Y-114870895D01*
X145445238Y-114909600D01*
X144013161Y-115606285D02*
X144051866Y-115644990D01*
X144167980Y-115683695D01*
X144245390Y-115683695D01*
X144361504Y-115644990D01*
X144438914Y-115567580D01*
X144477619Y-115490171D01*
X144516323Y-115335352D01*
X144516323Y-115219238D01*
X144477619Y-115064419D01*
X144438914Y-114987009D01*
X144361504Y-114909600D01*
X144245390Y-114870895D01*
X144167980Y-114870895D01*
X144051866Y-114909600D01*
X144013161Y-114948304D01*
X143548704Y-115683695D02*
X143626114Y-115644990D01*
X143664819Y-115606285D01*
X143703523Y-115528876D01*
X143703523Y-115296647D01*
X143664819Y-115219238D01*
X143626114Y-115180533D01*
X143548704Y-115141828D01*
X143432590Y-115141828D01*
X143355180Y-115180533D01*
X143316476Y-115219238D01*
X143277771Y-115296647D01*
X143277771Y-115528876D01*
X143316476Y-115606285D01*
X143355180Y-115644990D01*
X143432590Y-115683695D01*
X143548704Y-115683695D01*
X142929428Y-115683695D02*
X142929428Y-115141828D01*
X142929428Y-115219238D02*
X142890723Y-115180533D01*
X142813314Y-115141828D01*
X142697200Y-115141828D01*
X142619790Y-115180533D01*
X142581085Y-115257942D01*
X142581085Y-115683695D01*
X142581085Y-115257942D02*
X142542380Y-115180533D01*
X142464971Y-115141828D01*
X142348857Y-115141828D01*
X142271447Y-115180533D01*
X142232742Y-115257942D01*
X142232742Y-115683695D01*
X141845695Y-115141828D02*
X141845695Y-115954628D01*
X141845695Y-115180533D02*
X141768285Y-115141828D01*
X141613466Y-115141828D01*
X141536057Y-115180533D01*
X141497352Y-115219238D01*
X141458647Y-115296647D01*
X141458647Y-115528876D01*
X141497352Y-115606285D01*
X141536057Y-115644990D01*
X141613466Y-115683695D01*
X141768285Y-115683695D01*
X141845695Y-115644990D01*
X140994190Y-115683695D02*
X141071600Y-115644990D01*
X141110304Y-115567580D01*
X141110304Y-114870895D01*
X140684552Y-115683695D02*
X140684552Y-115141828D01*
X140684552Y-114870895D02*
X140723257Y-114909600D01*
X140684552Y-114948304D01*
X140645847Y-114909600D01*
X140684552Y-114870895D01*
X140684552Y-114948304D01*
X139949161Y-115683695D02*
X139949161Y-115257942D01*
X139987866Y-115180533D01*
X140065276Y-115141828D01*
X140220095Y-115141828D01*
X140297504Y-115180533D01*
X139949161Y-115644990D02*
X140026571Y-115683695D01*
X140220095Y-115683695D01*
X140297504Y-115644990D01*
X140336209Y-115567580D01*
X140336209Y-115490171D01*
X140297504Y-115412761D01*
X140220095Y-115374057D01*
X140026571Y-115374057D01*
X139949161Y-115335352D01*
X139562114Y-115141828D02*
X139562114Y-115683695D01*
X139562114Y-115219238D02*
X139523409Y-115180533D01*
X139446000Y-115141828D01*
X139329885Y-115141828D01*
X139252476Y-115180533D01*
X139213771Y-115257942D01*
X139213771Y-115683695D01*
X138942838Y-115141828D02*
X138633200Y-115141828D01*
X138826723Y-114870895D02*
X138826723Y-115567580D01*
X138788019Y-115644990D01*
X138710609Y-115683695D01*
X138633200Y-115683695D01*
D15*
X142684500Y-105071333D02*
X142091833Y-104902000D01*
X142515166Y-104732666D01*
X142091833Y-104563333D01*
X142684500Y-104394000D01*
X142684500Y-104140000D02*
X142091833Y-103970666D01*
X142515166Y-103801333D01*
X142091833Y-103632000D01*
X142684500Y-103462666D01*
X142684500Y-103208666D02*
X142091833Y-103039333D01*
X142515166Y-102870000D01*
X142091833Y-102700666D01*
X142684500Y-102531333D01*
X142176500Y-102192666D02*
X142134166Y-102150333D01*
X142091833Y-102192666D01*
X142134166Y-102235000D01*
X142176500Y-102192666D01*
X142091833Y-102192666D01*
X142091833Y-101642333D02*
X142134166Y-101727000D01*
X142176500Y-101769333D01*
X142261166Y-101811666D01*
X142515166Y-101811666D01*
X142599833Y-101769333D01*
X142642166Y-101727000D01*
X142684500Y-101642333D01*
X142684500Y-101515333D01*
X142642166Y-101430666D01*
X142599833Y-101388333D01*
X142515166Y-101346000D01*
X142261166Y-101346000D01*
X142176500Y-101388333D01*
X142134166Y-101430666D01*
X142091833Y-101515333D01*
X142091833Y-101642333D01*
X142091833Y-100838000D02*
X142134166Y-100922666D01*
X142218833Y-100965000D01*
X142980833Y-100965000D01*
X142091833Y-100499333D02*
X142684500Y-100499333D01*
X142980833Y-100499333D02*
X142938500Y-100541666D01*
X142896166Y-100499333D01*
X142938500Y-100457000D01*
X142980833Y-100499333D01*
X142896166Y-100499333D01*
X142091833Y-100076000D02*
X142684500Y-100076000D01*
X142599833Y-100076000D02*
X142642166Y-100033666D01*
X142684500Y-99949000D01*
X142684500Y-99822000D01*
X142642166Y-99737333D01*
X142557500Y-99695000D01*
X142091833Y-99695000D01*
X142557500Y-99695000D02*
X142642166Y-99652666D01*
X142684500Y-99568000D01*
X142684500Y-99441000D01*
X142642166Y-99356333D01*
X142557500Y-99314000D01*
X142091833Y-99314000D01*
X142134166Y-98552000D02*
X142091833Y-98636666D01*
X142091833Y-98806000D01*
X142134166Y-98890666D01*
X142218833Y-98933000D01*
X142557500Y-98933000D01*
X142642166Y-98890666D01*
X142684500Y-98806000D01*
X142684500Y-98636666D01*
X142642166Y-98552000D01*
X142557500Y-98509666D01*
X142472833Y-98509666D01*
X142388166Y-98933000D01*
X142091833Y-98213333D02*
X142684500Y-97747666D01*
X142684500Y-98213333D02*
X142091833Y-97747666D01*
X142176500Y-97409000D02*
X142134166Y-97366666D01*
X142091833Y-97409000D01*
X142134166Y-97451333D01*
X142176500Y-97409000D01*
X142091833Y-97409000D01*
X142134166Y-96604666D02*
X142091833Y-96689333D01*
X142091833Y-96858666D01*
X142134166Y-96943333D01*
X142176500Y-96985666D01*
X142261166Y-97028000D01*
X142515166Y-97028000D01*
X142599833Y-96985666D01*
X142642166Y-96943333D01*
X142684500Y-96858666D01*
X142684500Y-96689333D01*
X142642166Y-96604666D01*
X142091833Y-96096666D02*
X142134166Y-96181333D01*
X142176500Y-96223666D01*
X142261166Y-96266000D01*
X142515166Y-96266000D01*
X142599833Y-96223666D01*
X142642166Y-96181333D01*
X142684500Y-96096666D01*
X142684500Y-95969666D01*
X142642166Y-95885000D01*
X142599833Y-95842666D01*
X142515166Y-95800333D01*
X142261166Y-95800333D01*
X142176500Y-95842666D01*
X142134166Y-95885000D01*
X142091833Y-95969666D01*
X142091833Y-96096666D01*
X142091833Y-95419333D02*
X142684500Y-95419333D01*
X142599833Y-95419333D02*
X142642166Y-95377000D01*
X142684500Y-95292333D01*
X142684500Y-95165333D01*
X142642166Y-95080666D01*
X142557500Y-95038333D01*
X142091833Y-95038333D01*
X142557500Y-95038333D02*
X142642166Y-94996000D01*
X142684500Y-94911333D01*
X142684500Y-94784333D01*
X142642166Y-94699666D01*
X142557500Y-94657333D01*
X142091833Y-94657333D01*
D14*
X154169442Y-109721650D02*
X154222661Y-109695040D01*
X154302490Y-109695040D01*
X154382318Y-109721650D01*
X154435537Y-109774869D01*
X154462147Y-109828088D01*
X154488756Y-109934526D01*
X154488756Y-110014354D01*
X154462147Y-110120792D01*
X154435537Y-110174011D01*
X154382318Y-110227230D01*
X154302490Y-110253840D01*
X154249271Y-110253840D01*
X154169442Y-110227230D01*
X154142833Y-110200621D01*
X154142833Y-110014354D01*
X154249271Y-110014354D01*
X153903347Y-110253840D02*
X153903347Y-109695040D01*
X153690471Y-109695040D01*
X153637252Y-109721650D01*
X153610642Y-109748259D01*
X153584033Y-109801478D01*
X153584033Y-109881307D01*
X153610642Y-109934526D01*
X153637252Y-109961135D01*
X153690471Y-109987745D01*
X153903347Y-109987745D01*
X153344547Y-110253840D02*
X153344547Y-109695040D01*
X152972014Y-109695040D02*
X152865575Y-109695040D01*
X152812356Y-109721650D01*
X152759137Y-109774869D01*
X152732528Y-109881307D01*
X152732528Y-110067573D01*
X152759137Y-110174011D01*
X152812356Y-110227230D01*
X152865575Y-110253840D01*
X152972014Y-110253840D01*
X153025233Y-110227230D01*
X153078452Y-110174011D01*
X153105061Y-110067573D01*
X153105061Y-109881307D01*
X153078452Y-109774869D01*
X153025233Y-109721650D01*
X152972014Y-109695040D01*
X152519652Y-109748259D02*
X152493042Y-109721650D01*
X152439823Y-109695040D01*
X152306775Y-109695040D01*
X152253556Y-109721650D01*
X152226947Y-109748259D01*
X152200337Y-109801478D01*
X152200337Y-109854697D01*
X152226947Y-109934526D01*
X152546261Y-110253840D01*
X152200337Y-110253840D01*
X151854414Y-109695040D02*
X151801195Y-109695040D01*
X151747975Y-109721650D01*
X151721366Y-109748259D01*
X151694756Y-109801478D01*
X151668147Y-109907916D01*
X151668147Y-110040964D01*
X151694756Y-110147402D01*
X151721366Y-110200621D01*
X151747975Y-110227230D01*
X151801195Y-110253840D01*
X151854414Y-110253840D01*
X151907633Y-110227230D01*
X151934242Y-110200621D01*
X151960852Y-110147402D01*
X151987461Y-110040964D01*
X151987461Y-109907916D01*
X151960852Y-109801478D01*
X151934242Y-109748259D01*
X151907633Y-109721650D01*
X151854414Y-109695040D01*
X151029518Y-109668430D02*
X151508490Y-110386888D01*
X154462147Y-110672940D02*
X154462147Y-111125302D01*
X154435537Y-111178521D01*
X154408928Y-111205130D01*
X154355709Y-111231740D01*
X154249271Y-111231740D01*
X154196052Y-111205130D01*
X154169442Y-111178521D01*
X154142833Y-111125302D01*
X154142833Y-110672940D01*
X153903347Y-111205130D02*
X153823518Y-111231740D01*
X153690471Y-111231740D01*
X153637252Y-111205130D01*
X153610642Y-111178521D01*
X153584033Y-111125302D01*
X153584033Y-111072083D01*
X153610642Y-111018864D01*
X153637252Y-110992254D01*
X153690471Y-110965645D01*
X153796909Y-110939035D01*
X153850128Y-110912426D01*
X153876737Y-110885816D01*
X153903347Y-110832597D01*
X153903347Y-110779378D01*
X153876737Y-110726159D01*
X153850128Y-110699550D01*
X153796909Y-110672940D01*
X153663861Y-110672940D01*
X153584033Y-110699550D01*
X153158280Y-110939035D02*
X153078452Y-110965645D01*
X153051842Y-110992254D01*
X153025233Y-111045473D01*
X153025233Y-111125302D01*
X153051842Y-111178521D01*
X153078452Y-111205130D01*
X153131671Y-111231740D01*
X153344547Y-111231740D01*
X153344547Y-110672940D01*
X153158280Y-110672940D01*
X153105061Y-110699550D01*
X153078452Y-110726159D01*
X153051842Y-110779378D01*
X153051842Y-110832597D01*
X153078452Y-110885816D01*
X153105061Y-110912426D01*
X153158280Y-110939035D01*
X153344547Y-110939035D01*
X152918795Y-111284959D02*
X152493042Y-111284959D01*
X152359995Y-111231740D02*
X152359995Y-110672940D01*
X152226947Y-110672940D01*
X152147118Y-110699550D01*
X152093899Y-110752769D01*
X152067290Y-110805988D01*
X152040680Y-110912426D01*
X152040680Y-110992254D01*
X152067290Y-111098692D01*
X152093899Y-111151911D01*
X152147118Y-111205130D01*
X152226947Y-111231740D01*
X152359995Y-111231740D01*
X151801195Y-111018864D02*
X151375442Y-111018864D01*
X151588318Y-111231740D02*
X151588318Y-110805988D01*
D11*
X154365476Y-89613619D02*
X153736523Y-89613619D01*
X154075190Y-90000666D01*
X153930047Y-90000666D01*
X153833285Y-90049047D01*
X153784904Y-90097428D01*
X153736523Y-90194190D01*
X153736523Y-90436095D01*
X153784904Y-90532857D01*
X153833285Y-90581238D01*
X153930047Y-90629619D01*
X154220333Y-90629619D01*
X154317095Y-90581238D01*
X154365476Y-90532857D01*
X153397857Y-89613619D02*
X152720523Y-89613619D01*
X153155952Y-90629619D01*
X153875619Y-92202000D02*
X153972380Y-92153619D01*
X154117523Y-92153619D01*
X154262666Y-92202000D01*
X154359428Y-92298761D01*
X154407809Y-92395523D01*
X154456190Y-92589047D01*
X154456190Y-92734190D01*
X154407809Y-92927714D01*
X154359428Y-93024476D01*
X154262666Y-93121238D01*
X154117523Y-93169619D01*
X154020761Y-93169619D01*
X153875619Y-93121238D01*
X153827238Y-93072857D01*
X153827238Y-92734190D01*
X154020761Y-92734190D01*
X153391809Y-93169619D02*
X153391809Y-92153619D01*
X153004761Y-92153619D01*
X152908000Y-92202000D01*
X152859619Y-92250380D01*
X152811238Y-92347142D01*
X152811238Y-92492285D01*
X152859619Y-92589047D01*
X152908000Y-92637428D01*
X153004761Y-92685809D01*
X153391809Y-92685809D01*
X152375809Y-93169619D02*
X152375809Y-92153619D01*
X151698476Y-92153619D02*
X151504952Y-92153619D01*
X151408190Y-92202000D01*
X151311428Y-92298761D01*
X151263047Y-92492285D01*
X151263047Y-92830952D01*
X151311428Y-93024476D01*
X151408190Y-93121238D01*
X151504952Y-93169619D01*
X151698476Y-93169619D01*
X151795238Y-93121238D01*
X151892000Y-93024476D01*
X151940380Y-92830952D01*
X151940380Y-92492285D01*
X151892000Y-92298761D01*
X151795238Y-92202000D01*
X151698476Y-92153619D01*
X150924380Y-92153619D02*
X150295428Y-92153619D01*
X150634095Y-92540666D01*
X150488952Y-92540666D01*
X150392190Y-92589047D01*
X150343809Y-92637428D01*
X150295428Y-92734190D01*
X150295428Y-92976095D01*
X150343809Y-93072857D01*
X150392190Y-93121238D01*
X150488952Y-93169619D01*
X150779238Y-93169619D01*
X150876000Y-93121238D01*
X150924380Y-93072857D01*
X149424571Y-92153619D02*
X149618095Y-92153619D01*
X149714857Y-92202000D01*
X149763238Y-92250380D01*
X149860000Y-92395523D01*
X149908380Y-92589047D01*
X149908380Y-92976095D01*
X149860000Y-93072857D01*
X149811619Y-93121238D01*
X149714857Y-93169619D01*
X149521333Y-93169619D01*
X149424571Y-93121238D01*
X149376190Y-93072857D01*
X149327809Y-92976095D01*
X149327809Y-92734190D01*
X149376190Y-92637428D01*
X149424571Y-92589047D01*
X149521333Y-92540666D01*
X149714857Y-92540666D01*
X149811619Y-92589047D01*
X149860000Y-92637428D01*
X149908380Y-92734190D01*
X153875619Y-84582000D02*
X153972380Y-84533619D01*
X154117523Y-84533619D01*
X154262666Y-84582000D01*
X154359428Y-84678761D01*
X154407809Y-84775523D01*
X154456190Y-84969047D01*
X154456190Y-85114190D01*
X154407809Y-85307714D01*
X154359428Y-85404476D01*
X154262666Y-85501238D01*
X154117523Y-85549619D01*
X154020761Y-85549619D01*
X153875619Y-85501238D01*
X153827238Y-85452857D01*
X153827238Y-85114190D01*
X154020761Y-85114190D01*
X153391809Y-85549619D02*
X153391809Y-84533619D01*
X153004761Y-84533619D01*
X152908000Y-84582000D01*
X152859619Y-84630380D01*
X152811238Y-84727142D01*
X152811238Y-84872285D01*
X152859619Y-84969047D01*
X152908000Y-85017428D01*
X153004761Y-85065809D01*
X153391809Y-85065809D01*
X152375809Y-85549619D02*
X152375809Y-84533619D01*
X151698476Y-84533619D02*
X151504952Y-84533619D01*
X151408190Y-84582000D01*
X151311428Y-84678761D01*
X151263047Y-84872285D01*
X151263047Y-85210952D01*
X151311428Y-85404476D01*
X151408190Y-85501238D01*
X151504952Y-85549619D01*
X151698476Y-85549619D01*
X151795238Y-85501238D01*
X151892000Y-85404476D01*
X151940380Y-85210952D01*
X151940380Y-84872285D01*
X151892000Y-84678761D01*
X151795238Y-84582000D01*
X151698476Y-84533619D01*
X150924380Y-84533619D02*
X150295428Y-84533619D01*
X150634095Y-84920666D01*
X150488952Y-84920666D01*
X150392190Y-84969047D01*
X150343809Y-85017428D01*
X150295428Y-85114190D01*
X150295428Y-85356095D01*
X150343809Y-85452857D01*
X150392190Y-85501238D01*
X150488952Y-85549619D01*
X150779238Y-85549619D01*
X150876000Y-85501238D01*
X150924380Y-85452857D01*
X149811619Y-85549619D02*
X149618095Y-85549619D01*
X149521333Y-85501238D01*
X149472952Y-85452857D01*
X149376190Y-85307714D01*
X149327809Y-85114190D01*
X149327809Y-84727142D01*
X149376190Y-84630380D01*
X149424571Y-84582000D01*
X149521333Y-84533619D01*
X149714857Y-84533619D01*
X149811619Y-84582000D01*
X149860000Y-84630380D01*
X149908380Y-84727142D01*
X149908380Y-84969047D01*
X149860000Y-85065809D01*
X149811619Y-85114190D01*
X149714857Y-85162571D01*
X149521333Y-85162571D01*
X149424571Y-85114190D01*
X149376190Y-85065809D01*
X149327809Y-84969047D01*
X153875619Y-82042000D02*
X153972380Y-81993619D01*
X154117523Y-81993619D01*
X154262666Y-82042000D01*
X154359428Y-82138761D01*
X154407809Y-82235523D01*
X154456190Y-82429047D01*
X154456190Y-82574190D01*
X154407809Y-82767714D01*
X154359428Y-82864476D01*
X154262666Y-82961238D01*
X154117523Y-83009619D01*
X154020761Y-83009619D01*
X153875619Y-82961238D01*
X153827238Y-82912857D01*
X153827238Y-82574190D01*
X154020761Y-82574190D01*
X153391809Y-83009619D02*
X153391809Y-81993619D01*
X153004761Y-81993619D01*
X152908000Y-82042000D01*
X152859619Y-82090380D01*
X152811238Y-82187142D01*
X152811238Y-82332285D01*
X152859619Y-82429047D01*
X152908000Y-82477428D01*
X153004761Y-82525809D01*
X153391809Y-82525809D01*
X152375809Y-83009619D02*
X152375809Y-81993619D01*
X151698476Y-81993619D02*
X151504952Y-81993619D01*
X151408190Y-82042000D01*
X151311428Y-82138761D01*
X151263047Y-82332285D01*
X151263047Y-82670952D01*
X151311428Y-82864476D01*
X151408190Y-82961238D01*
X151504952Y-83009619D01*
X151698476Y-83009619D01*
X151795238Y-82961238D01*
X151892000Y-82864476D01*
X151940380Y-82670952D01*
X151940380Y-82332285D01*
X151892000Y-82138761D01*
X151795238Y-82042000D01*
X151698476Y-81993619D01*
X150392190Y-82332285D02*
X150392190Y-83009619D01*
X150634095Y-81945238D02*
X150876000Y-82670952D01*
X150247047Y-82670952D01*
X149666476Y-81993619D02*
X149569714Y-81993619D01*
X149472952Y-82042000D01*
X149424571Y-82090380D01*
X149376190Y-82187142D01*
X149327809Y-82380666D01*
X149327809Y-82622571D01*
X149376190Y-82816095D01*
X149424571Y-82912857D01*
X149472952Y-82961238D01*
X149569714Y-83009619D01*
X149666476Y-83009619D01*
X149763238Y-82961238D01*
X149811619Y-82912857D01*
X149860000Y-82816095D01*
X149908380Y-82622571D01*
X149908380Y-82380666D01*
X149860000Y-82187142D01*
X149811619Y-82090380D01*
X149763238Y-82042000D01*
X149666476Y-81993619D01*
X152097619Y-117475000D02*
X152218571Y-117414523D01*
X152400000Y-117414523D01*
X152581428Y-117475000D01*
X152702380Y-117595952D01*
X152762857Y-117716904D01*
X152823333Y-117958809D01*
X152823333Y-118140238D01*
X152762857Y-118382142D01*
X152702380Y-118503095D01*
X152581428Y-118624047D01*
X152400000Y-118684523D01*
X152279047Y-118684523D01*
X152097619Y-118624047D01*
X152037142Y-118563571D01*
X152037142Y-118140238D01*
X152279047Y-118140238D01*
X151492857Y-118684523D02*
X151492857Y-117414523D01*
X150767142Y-118684523D01*
X150767142Y-117414523D01*
X150162380Y-118684523D02*
X150162380Y-117414523D01*
X149860000Y-117414523D01*
X149678571Y-117475000D01*
X149557619Y-117595952D01*
X149497142Y-117716904D01*
X149436666Y-117958809D01*
X149436666Y-118140238D01*
X149497142Y-118382142D01*
X149557619Y-118503095D01*
X149678571Y-118624047D01*
X149860000Y-118684523D01*
X150162380Y-118684523D01*
X153875619Y-76962000D02*
X153972380Y-76913619D01*
X154117523Y-76913619D01*
X154262666Y-76962000D01*
X154359428Y-77058761D01*
X154407809Y-77155523D01*
X154456190Y-77349047D01*
X154456190Y-77494190D01*
X154407809Y-77687714D01*
X154359428Y-77784476D01*
X154262666Y-77881238D01*
X154117523Y-77929619D01*
X154020761Y-77929619D01*
X153875619Y-77881238D01*
X153827238Y-77832857D01*
X153827238Y-77494190D01*
X154020761Y-77494190D01*
X153391809Y-77929619D02*
X153391809Y-76913619D01*
X153004761Y-76913619D01*
X152908000Y-76962000D01*
X152859619Y-77010380D01*
X152811238Y-77107142D01*
X152811238Y-77252285D01*
X152859619Y-77349047D01*
X152908000Y-77397428D01*
X153004761Y-77445809D01*
X153391809Y-77445809D01*
X152375809Y-77929619D02*
X152375809Y-76913619D01*
X151698476Y-76913619D02*
X151504952Y-76913619D01*
X151408190Y-76962000D01*
X151311428Y-77058761D01*
X151263047Y-77252285D01*
X151263047Y-77590952D01*
X151311428Y-77784476D01*
X151408190Y-77881238D01*
X151504952Y-77929619D01*
X151698476Y-77929619D01*
X151795238Y-77881238D01*
X151892000Y-77784476D01*
X151940380Y-77590952D01*
X151940380Y-77252285D01*
X151892000Y-77058761D01*
X151795238Y-76962000D01*
X151698476Y-76913619D01*
X150392190Y-77252285D02*
X150392190Y-77929619D01*
X150634095Y-76865238D02*
X150876000Y-77590952D01*
X150247047Y-77590952D01*
X149908380Y-77010380D02*
X149860000Y-76962000D01*
X149763238Y-76913619D01*
X149521333Y-76913619D01*
X149424571Y-76962000D01*
X149376190Y-77010380D01*
X149327809Y-77107142D01*
X149327809Y-77203904D01*
X149376190Y-77349047D01*
X149956761Y-77929619D01*
X149327809Y-77929619D01*
D10*
X154028563Y-68872100D02*
X154096296Y-68838233D01*
X154197896Y-68838233D01*
X154299496Y-68872100D01*
X154367230Y-68939833D01*
X154401096Y-69007566D01*
X154434963Y-69143033D01*
X154434963Y-69244633D01*
X154401096Y-69380100D01*
X154367230Y-69447833D01*
X154299496Y-69515566D01*
X154197896Y-69549433D01*
X154130163Y-69549433D01*
X154028563Y-69515566D01*
X153994696Y-69481700D01*
X153994696Y-69244633D01*
X154130163Y-69244633D01*
X153689896Y-69549433D02*
X153689896Y-68838233D01*
X153418963Y-68838233D01*
X153351230Y-68872100D01*
X153317363Y-68905966D01*
X153283496Y-68973700D01*
X153283496Y-69075300D01*
X153317363Y-69143033D01*
X153351230Y-69176900D01*
X153418963Y-69210766D01*
X153689896Y-69210766D01*
X152978696Y-69549433D02*
X152978696Y-68838233D01*
X152504563Y-68838233D02*
X152369096Y-68838233D01*
X152301363Y-68872100D01*
X152233630Y-68939833D01*
X152199763Y-69075300D01*
X152199763Y-69312366D01*
X152233630Y-69447833D01*
X152301363Y-69515566D01*
X152369096Y-69549433D01*
X152504563Y-69549433D01*
X152572296Y-69515566D01*
X152640030Y-69447833D01*
X152673896Y-69312366D01*
X152673896Y-69075300D01*
X152640030Y-68939833D01*
X152572296Y-68872100D01*
X152504563Y-68838233D01*
X151590163Y-69075300D02*
X151590163Y-69549433D01*
X151759496Y-68804366D02*
X151928830Y-69312366D01*
X151488563Y-69312366D01*
X150912830Y-69075300D02*
X150912830Y-69549433D01*
X151082163Y-68804366D02*
X151251496Y-69312366D01*
X150811230Y-69312366D01*
X150032296Y-68804366D02*
X150641896Y-69718766D01*
X154401096Y-70082833D02*
X154401096Y-70658566D01*
X154367230Y-70726300D01*
X154333363Y-70760166D01*
X154265630Y-70794033D01*
X154130163Y-70794033D01*
X154062430Y-70760166D01*
X154028563Y-70726300D01*
X153994696Y-70658566D01*
X153994696Y-70082833D01*
X153520563Y-70082833D02*
X153452830Y-70082833D01*
X153385096Y-70116700D01*
X153351230Y-70150566D01*
X153317363Y-70218300D01*
X153283496Y-70353766D01*
X153283496Y-70523100D01*
X153317363Y-70658566D01*
X153351230Y-70726300D01*
X153385096Y-70760166D01*
X153452830Y-70794033D01*
X153520563Y-70794033D01*
X153588296Y-70760166D01*
X153622163Y-70726300D01*
X153656030Y-70658566D01*
X153689896Y-70523100D01*
X153689896Y-70353766D01*
X153656030Y-70218300D01*
X153622163Y-70150566D01*
X153588296Y-70116700D01*
X153520563Y-70082833D01*
X152572296Y-70794033D02*
X152809363Y-70455366D01*
X152978696Y-70794033D02*
X152978696Y-70082833D01*
X152707763Y-70082833D01*
X152640030Y-70116700D01*
X152606163Y-70150566D01*
X152572296Y-70218300D01*
X152572296Y-70319900D01*
X152606163Y-70387633D01*
X152640030Y-70421500D01*
X152707763Y-70455366D01*
X152978696Y-70455366D01*
X152335230Y-70082833D02*
X151861096Y-70794033D01*
X151861096Y-70082833D02*
X152335230Y-70794033D01*
X151590163Y-70794033D02*
X151590163Y-70082833D01*
X151420830Y-70082833D01*
X151319230Y-70116700D01*
X151251496Y-70184433D01*
X151217630Y-70252166D01*
X151183763Y-70387633D01*
X151183763Y-70489233D01*
X151217630Y-70624700D01*
X151251496Y-70692433D01*
X151319230Y-70760166D01*
X151420830Y-70794033D01*
X151590163Y-70794033D01*
X154028563Y-66332100D02*
X154096296Y-66298233D01*
X154197896Y-66298233D01*
X154299496Y-66332100D01*
X154367230Y-66399833D01*
X154401096Y-66467566D01*
X154434963Y-66603033D01*
X154434963Y-66704633D01*
X154401096Y-66840100D01*
X154367230Y-66907833D01*
X154299496Y-66975566D01*
X154197896Y-67009433D01*
X154130163Y-67009433D01*
X154028563Y-66975566D01*
X153994696Y-66941700D01*
X153994696Y-66704633D01*
X154130163Y-66704633D01*
X153689896Y-67009433D02*
X153689896Y-66298233D01*
X153418963Y-66298233D01*
X153351230Y-66332100D01*
X153317363Y-66365966D01*
X153283496Y-66433700D01*
X153283496Y-66535300D01*
X153317363Y-66603033D01*
X153351230Y-66636900D01*
X153418963Y-66670766D01*
X153689896Y-66670766D01*
X152978696Y-67009433D02*
X152978696Y-66298233D01*
X152504563Y-66298233D02*
X152369096Y-66298233D01*
X152301363Y-66332100D01*
X152233630Y-66399833D01*
X152199763Y-66535300D01*
X152199763Y-66772366D01*
X152233630Y-66907833D01*
X152301363Y-66975566D01*
X152369096Y-67009433D01*
X152504563Y-67009433D01*
X152572296Y-66975566D01*
X152640030Y-66907833D01*
X152673896Y-66772366D01*
X152673896Y-66535300D01*
X152640030Y-66399833D01*
X152572296Y-66332100D01*
X152504563Y-66298233D01*
X151590163Y-66535300D02*
X151590163Y-67009433D01*
X151759496Y-66264366D02*
X151928830Y-66772366D01*
X151488563Y-66772366D01*
X151285363Y-66298233D02*
X150845096Y-66298233D01*
X151082163Y-66569166D01*
X150980563Y-66569166D01*
X150912830Y-66603033D01*
X150878963Y-66636900D01*
X150845096Y-66704633D01*
X150845096Y-66873966D01*
X150878963Y-66941700D01*
X150912830Y-66975566D01*
X150980563Y-67009433D01*
X151183763Y-67009433D01*
X151251496Y-66975566D01*
X151285363Y-66941700D01*
X150032296Y-66264366D02*
X150641896Y-67178766D01*
X154401096Y-67542833D02*
X154401096Y-68118566D01*
X154367230Y-68186300D01*
X154333363Y-68220166D01*
X154265630Y-68254033D01*
X154130163Y-68254033D01*
X154062430Y-68220166D01*
X154028563Y-68186300D01*
X153994696Y-68118566D01*
X153994696Y-67542833D01*
X153520563Y-67542833D02*
X153452830Y-67542833D01*
X153385096Y-67576700D01*
X153351230Y-67610566D01*
X153317363Y-67678300D01*
X153283496Y-67813766D01*
X153283496Y-67983100D01*
X153317363Y-68118566D01*
X153351230Y-68186300D01*
X153385096Y-68220166D01*
X153452830Y-68254033D01*
X153520563Y-68254033D01*
X153588296Y-68220166D01*
X153622163Y-68186300D01*
X153656030Y-68118566D01*
X153689896Y-67983100D01*
X153689896Y-67813766D01*
X153656030Y-67678300D01*
X153622163Y-67610566D01*
X153588296Y-67576700D01*
X153520563Y-67542833D01*
X153080296Y-67542833D02*
X152673896Y-67542833D01*
X152877096Y-68254033D02*
X152877096Y-67542833D01*
X152504563Y-67542833D02*
X152030430Y-68254033D01*
X152030430Y-67542833D02*
X152504563Y-68254033D01*
X151759496Y-68254033D02*
X151759496Y-67542833D01*
X151590163Y-67542833D01*
X151488563Y-67576700D01*
X151420830Y-67644433D01*
X151386963Y-67712166D01*
X151353096Y-67847633D01*
X151353096Y-67949233D01*
X151386963Y-68084700D01*
X151420830Y-68152433D01*
X151488563Y-68220166D01*
X151590163Y-68254033D01*
X151759496Y-68254033D01*
D11*
X148844000Y-104140000D02*
X155194000Y-104140000D01*
X148844000Y-101600000D02*
X155194000Y-101600000D01*
X148844000Y-99060000D02*
X155194000Y-99060000D01*
X148844000Y-96520000D02*
X155194000Y-96520000D01*
X148844000Y-91440000D02*
X150495000Y-91440000D01*
X148844000Y-88900000D02*
X150495000Y-88900000D01*
X148844000Y-86360000D02*
X155194000Y-86360000D01*
X148844000Y-83820000D02*
X155194000Y-83820000D01*
X148844000Y-81280000D02*
X155194000Y-81280000D01*
X148844000Y-78740000D02*
X155194000Y-78740000D01*
X148844000Y-76200000D02*
X155194000Y-76200000D01*
X148844000Y-73660000D02*
X155194000Y-73660000D01*
X148844000Y-71120000D02*
X155194000Y-71120000D01*
X148844000Y-68580000D02*
X155194000Y-68580000D01*
X148844000Y-119380000D02*
X148844000Y-63500000D01*
X148844000Y-66040000D02*
X155194000Y-66040000D01*
X131826000Y-66040000D02*
X138176000Y-66040000D01*
X131826000Y-68580000D02*
X138176000Y-68580000D01*
X131699000Y-73660000D02*
X138176000Y-73660000D01*
X131826000Y-76200000D02*
X138176000Y-76200000D01*
X131826000Y-78740000D02*
X138176000Y-78740000D01*
X131826000Y-81280000D02*
X138176000Y-81280000D01*
X131826000Y-83820000D02*
X138176000Y-83820000D01*
X131826000Y-86360000D02*
X138176000Y-86360000D01*
X131826000Y-88900000D02*
X138176000Y-88900000D01*
X131826000Y-91440000D02*
X138176000Y-91440000D01*
X131826000Y-93980000D02*
X138176000Y-93980000D01*
X131826000Y-96520000D02*
X138176000Y-96520000D01*
X131826000Y-99060000D02*
X138176000Y-99060000D01*
X131826000Y-109220000D02*
X138176000Y-109220000D01*
X131826000Y-101600000D02*
X138176000Y-101600000D01*
X131826000Y-104140000D02*
X138176000Y-104140000D01*
X131826000Y-106680000D02*
X138176000Y-106680000D01*
X137649857Y-115660714D02*
X136682238Y-115660714D01*
X137166047Y-116144523D02*
X137166047Y-115176904D01*
X135472714Y-114874523D02*
X136077476Y-114874523D01*
X136137952Y-115479285D01*
X136077476Y-115418809D01*
X135956523Y-115358333D01*
X135654142Y-115358333D01*
X135533190Y-115418809D01*
X135472714Y-115479285D01*
X135412238Y-115600238D01*
X135412238Y-115902619D01*
X135472714Y-116023571D01*
X135533190Y-116084047D01*
X135654142Y-116144523D01*
X135956523Y-116144523D01*
X136077476Y-116084047D01*
X136137952Y-116023571D01*
X135049380Y-114874523D02*
X134626047Y-116144523D01*
X134202714Y-114874523D01*
X136984619Y-117475000D02*
X137105571Y-117414523D01*
X137287000Y-117414523D01*
X137468428Y-117475000D01*
X137589380Y-117595952D01*
X137649857Y-117716904D01*
X137710333Y-117958809D01*
X137710333Y-118140238D01*
X137649857Y-118382142D01*
X137589380Y-118503095D01*
X137468428Y-118624047D01*
X137287000Y-118684523D01*
X137166047Y-118684523D01*
X136984619Y-118624047D01*
X136924142Y-118563571D01*
X136924142Y-118140238D01*
X137166047Y-118140238D01*
X136379857Y-118684523D02*
X136379857Y-117414523D01*
X135654142Y-118684523D01*
X135654142Y-117414523D01*
X135049380Y-118684523D02*
X135049380Y-117414523D01*
X134747000Y-117414523D01*
X134565571Y-117475000D01*
X134444619Y-117595952D01*
X134384142Y-117716904D01*
X134323666Y-117958809D01*
X134323666Y-118140238D01*
X134384142Y-118382142D01*
X134444619Y-118503095D01*
X134565571Y-118624047D01*
X134747000Y-118684523D01*
X135049380Y-118684523D01*
X137111619Y-89662000D02*
X137208380Y-89613619D01*
X137353523Y-89613619D01*
X137498666Y-89662000D01*
X137595428Y-89758761D01*
X137643809Y-89855523D01*
X137692190Y-90049047D01*
X137692190Y-90194190D01*
X137643809Y-90387714D01*
X137595428Y-90484476D01*
X137498666Y-90581238D01*
X137353523Y-90629619D01*
X137256761Y-90629619D01*
X137111619Y-90581238D01*
X137063238Y-90532857D01*
X137063238Y-90194190D01*
X137256761Y-90194190D01*
X136627809Y-90629619D02*
X136627809Y-89613619D01*
X136240761Y-89613619D01*
X136144000Y-89662000D01*
X136095619Y-89710380D01*
X136047238Y-89807142D01*
X136047238Y-89952285D01*
X136095619Y-90049047D01*
X136144000Y-90097428D01*
X136240761Y-90145809D01*
X136627809Y-90145809D01*
X135611809Y-90629619D02*
X135611809Y-89613619D01*
X134934476Y-89613619D02*
X134740952Y-89613619D01*
X134644190Y-89662000D01*
X134547428Y-89758761D01*
X134499047Y-89952285D01*
X134499047Y-90290952D01*
X134547428Y-90484476D01*
X134644190Y-90581238D01*
X134740952Y-90629619D01*
X134934476Y-90629619D01*
X135031238Y-90581238D01*
X135128000Y-90484476D01*
X135176380Y-90290952D01*
X135176380Y-89952285D01*
X135128000Y-89758761D01*
X135031238Y-89662000D01*
X134934476Y-89613619D01*
X133531428Y-90629619D02*
X134112000Y-90629619D01*
X133821714Y-90629619D02*
X133821714Y-89613619D01*
X133918476Y-89758761D01*
X134015238Y-89855523D01*
X134112000Y-89903904D01*
X132950857Y-90049047D02*
X133047619Y-90000666D01*
X133096000Y-89952285D01*
X133144380Y-89855523D01*
X133144380Y-89807142D01*
X133096000Y-89710380D01*
X133047619Y-89662000D01*
X132950857Y-89613619D01*
X132757333Y-89613619D01*
X132660571Y-89662000D01*
X132612190Y-89710380D01*
X132563809Y-89807142D01*
X132563809Y-89855523D01*
X132612190Y-89952285D01*
X132660571Y-90000666D01*
X132757333Y-90049047D01*
X132950857Y-90049047D01*
X133047619Y-90097428D01*
X133096000Y-90145809D01*
X133144380Y-90242571D01*
X133144380Y-90436095D01*
X133096000Y-90532857D01*
X133047619Y-90581238D01*
X132950857Y-90629619D01*
X132757333Y-90629619D01*
X132660571Y-90581238D01*
X132612190Y-90532857D01*
X132563809Y-90436095D01*
X132563809Y-90242571D01*
X132612190Y-90145809D01*
X132660571Y-90097428D01*
X132757333Y-90049047D01*
X137111619Y-87122000D02*
X137208380Y-87073619D01*
X137353523Y-87073619D01*
X137498666Y-87122000D01*
X137595428Y-87218761D01*
X137643809Y-87315523D01*
X137692190Y-87509047D01*
X137692190Y-87654190D01*
X137643809Y-87847714D01*
X137595428Y-87944476D01*
X137498666Y-88041238D01*
X137353523Y-88089619D01*
X137256761Y-88089619D01*
X137111619Y-88041238D01*
X137063238Y-87992857D01*
X137063238Y-87654190D01*
X137256761Y-87654190D01*
X136627809Y-88089619D02*
X136627809Y-87073619D01*
X136240761Y-87073619D01*
X136144000Y-87122000D01*
X136095619Y-87170380D01*
X136047238Y-87267142D01*
X136047238Y-87412285D01*
X136095619Y-87509047D01*
X136144000Y-87557428D01*
X136240761Y-87605809D01*
X136627809Y-87605809D01*
X135611809Y-88089619D02*
X135611809Y-87073619D01*
X134934476Y-87073619D02*
X134740952Y-87073619D01*
X134644190Y-87122000D01*
X134547428Y-87218761D01*
X134499047Y-87412285D01*
X134499047Y-87750952D01*
X134547428Y-87944476D01*
X134644190Y-88041238D01*
X134740952Y-88089619D01*
X134934476Y-88089619D01*
X135031238Y-88041238D01*
X135128000Y-87944476D01*
X135176380Y-87750952D01*
X135176380Y-87412285D01*
X135128000Y-87218761D01*
X135031238Y-87122000D01*
X134934476Y-87073619D01*
X133531428Y-88089619D02*
X134112000Y-88089619D01*
X133821714Y-88089619D02*
X133821714Y-87073619D01*
X133918476Y-87218761D01*
X134015238Y-87315523D01*
X134112000Y-87363904D01*
X133192761Y-87073619D02*
X132515428Y-87073619D01*
X132950857Y-88089619D01*
X137111619Y-84582000D02*
X137208380Y-84533619D01*
X137353523Y-84533619D01*
X137498666Y-84582000D01*
X137595428Y-84678761D01*
X137643809Y-84775523D01*
X137692190Y-84969047D01*
X137692190Y-85114190D01*
X137643809Y-85307714D01*
X137595428Y-85404476D01*
X137498666Y-85501238D01*
X137353523Y-85549619D01*
X137256761Y-85549619D01*
X137111619Y-85501238D01*
X137063238Y-85452857D01*
X137063238Y-85114190D01*
X137256761Y-85114190D01*
X136627809Y-85549619D02*
X136627809Y-84533619D01*
X136240761Y-84533619D01*
X136144000Y-84582000D01*
X136095619Y-84630380D01*
X136047238Y-84727142D01*
X136047238Y-84872285D01*
X136095619Y-84969047D01*
X136144000Y-85017428D01*
X136240761Y-85065809D01*
X136627809Y-85065809D01*
X135611809Y-85549619D02*
X135611809Y-84533619D01*
X134934476Y-84533619D02*
X134740952Y-84533619D01*
X134644190Y-84582000D01*
X134547428Y-84678761D01*
X134499047Y-84872285D01*
X134499047Y-85210952D01*
X134547428Y-85404476D01*
X134644190Y-85501238D01*
X134740952Y-85549619D01*
X134934476Y-85549619D01*
X135031238Y-85501238D01*
X135128000Y-85404476D01*
X135176380Y-85210952D01*
X135176380Y-84872285D01*
X135128000Y-84678761D01*
X135031238Y-84582000D01*
X134934476Y-84533619D01*
X133531428Y-85549619D02*
X134112000Y-85549619D01*
X133821714Y-85549619D02*
X133821714Y-84533619D01*
X133918476Y-84678761D01*
X134015238Y-84775523D01*
X134112000Y-84823904D01*
X132660571Y-84533619D02*
X132854095Y-84533619D01*
X132950857Y-84582000D01*
X132999238Y-84630380D01*
X133096000Y-84775523D01*
X133144380Y-84969047D01*
X133144380Y-85356095D01*
X133096000Y-85452857D01*
X133047619Y-85501238D01*
X132950857Y-85549619D01*
X132757333Y-85549619D01*
X132660571Y-85501238D01*
X132612190Y-85452857D01*
X132563809Y-85356095D01*
X132563809Y-85114190D01*
X132612190Y-85017428D01*
X132660571Y-84969047D01*
X132757333Y-84920666D01*
X132950857Y-84920666D01*
X133047619Y-84969047D01*
X133096000Y-85017428D01*
X133144380Y-85114190D01*
X137111619Y-82042000D02*
X137208380Y-81993619D01*
X137353523Y-81993619D01*
X137498666Y-82042000D01*
X137595428Y-82138761D01*
X137643809Y-82235523D01*
X137692190Y-82429047D01*
X137692190Y-82574190D01*
X137643809Y-82767714D01*
X137595428Y-82864476D01*
X137498666Y-82961238D01*
X137353523Y-83009619D01*
X137256761Y-83009619D01*
X137111619Y-82961238D01*
X137063238Y-82912857D01*
X137063238Y-82574190D01*
X137256761Y-82574190D01*
X136627809Y-83009619D02*
X136627809Y-81993619D01*
X136240761Y-81993619D01*
X136144000Y-82042000D01*
X136095619Y-82090380D01*
X136047238Y-82187142D01*
X136047238Y-82332285D01*
X136095619Y-82429047D01*
X136144000Y-82477428D01*
X136240761Y-82525809D01*
X136627809Y-82525809D01*
X135611809Y-83009619D02*
X135611809Y-81993619D01*
X134934476Y-81993619D02*
X134740952Y-81993619D01*
X134644190Y-82042000D01*
X134547428Y-82138761D01*
X134499047Y-82332285D01*
X134499047Y-82670952D01*
X134547428Y-82864476D01*
X134644190Y-82961238D01*
X134740952Y-83009619D01*
X134934476Y-83009619D01*
X135031238Y-82961238D01*
X135128000Y-82864476D01*
X135176380Y-82670952D01*
X135176380Y-82332285D01*
X135128000Y-82138761D01*
X135031238Y-82042000D01*
X134934476Y-81993619D01*
X133531428Y-83009619D02*
X134112000Y-83009619D01*
X133821714Y-83009619D02*
X133821714Y-81993619D01*
X133918476Y-82138761D01*
X134015238Y-82235523D01*
X134112000Y-82283904D01*
X132612190Y-81993619D02*
X133096000Y-81993619D01*
X133144380Y-82477428D01*
X133096000Y-82429047D01*
X132999238Y-82380666D01*
X132757333Y-82380666D01*
X132660571Y-82429047D01*
X132612190Y-82477428D01*
X132563809Y-82574190D01*
X132563809Y-82816095D01*
X132612190Y-82912857D01*
X132660571Y-82961238D01*
X132757333Y-83009619D01*
X132999238Y-83009619D01*
X133096000Y-82961238D01*
X133144380Y-82912857D01*
D10*
X137391563Y-73952100D02*
X137459296Y-73918233D01*
X137560896Y-73918233D01*
X137662496Y-73952100D01*
X137730230Y-74019833D01*
X137764096Y-74087566D01*
X137797963Y-74223033D01*
X137797963Y-74324633D01*
X137764096Y-74460100D01*
X137730230Y-74527833D01*
X137662496Y-74595566D01*
X137560896Y-74629433D01*
X137493163Y-74629433D01*
X137391563Y-74595566D01*
X137357696Y-74561700D01*
X137357696Y-74324633D01*
X137493163Y-74324633D01*
X137052896Y-74629433D02*
X137052896Y-73918233D01*
X136781963Y-73918233D01*
X136714230Y-73952100D01*
X136680363Y-73985966D01*
X136646496Y-74053700D01*
X136646496Y-74155300D01*
X136680363Y-74223033D01*
X136714230Y-74256900D01*
X136781963Y-74290766D01*
X137052896Y-74290766D01*
X136341696Y-74629433D02*
X136341696Y-73918233D01*
X135867563Y-73918233D02*
X135732096Y-73918233D01*
X135664363Y-73952100D01*
X135596630Y-74019833D01*
X135562763Y-74155300D01*
X135562763Y-74392366D01*
X135596630Y-74527833D01*
X135664363Y-74595566D01*
X135732096Y-74629433D01*
X135867563Y-74629433D01*
X135935296Y-74595566D01*
X136003030Y-74527833D01*
X136036896Y-74392366D01*
X136036896Y-74155300D01*
X136003030Y-74019833D01*
X135935296Y-73952100D01*
X135867563Y-73918233D01*
X134919296Y-73918233D02*
X135257963Y-73918233D01*
X135291830Y-74256900D01*
X135257963Y-74223033D01*
X135190230Y-74189166D01*
X135020896Y-74189166D01*
X134953163Y-74223033D01*
X134919296Y-74256900D01*
X134885430Y-74324633D01*
X134885430Y-74493966D01*
X134919296Y-74561700D01*
X134953163Y-74595566D01*
X135020896Y-74629433D01*
X135190230Y-74629433D01*
X135257963Y-74595566D01*
X135291830Y-74561700D01*
X134072630Y-73884366D02*
X134682230Y-74798766D01*
X137764096Y-75874033D02*
X137764096Y-75162833D01*
X137493163Y-75162833D01*
X137425430Y-75196700D01*
X137391563Y-75230566D01*
X137357696Y-75298300D01*
X137357696Y-75399900D01*
X137391563Y-75467633D01*
X137425430Y-75501500D01*
X137493163Y-75535366D01*
X137764096Y-75535366D01*
X137120630Y-75162833D02*
X136951296Y-75874033D01*
X136815830Y-75366033D01*
X136680363Y-75874033D01*
X136511030Y-75162833D01*
X135833696Y-75874033D02*
X136070763Y-75535366D01*
X136240096Y-75874033D02*
X136240096Y-75162833D01*
X135969163Y-75162833D01*
X135901430Y-75196700D01*
X135867563Y-75230566D01*
X135833696Y-75298300D01*
X135833696Y-75399900D01*
X135867563Y-75467633D01*
X135901430Y-75501500D01*
X135969163Y-75535366D01*
X136240096Y-75535366D01*
X135698230Y-75941766D02*
X135156363Y-75941766D01*
X135020896Y-75840166D02*
X134919296Y-75874033D01*
X134749963Y-75874033D01*
X134682230Y-75840166D01*
X134648363Y-75806300D01*
X134614496Y-75738566D01*
X134614496Y-75670833D01*
X134648363Y-75603100D01*
X134682230Y-75569233D01*
X134749963Y-75535366D01*
X134885430Y-75501500D01*
X134953163Y-75467633D01*
X134987030Y-75433766D01*
X135020896Y-75366033D01*
X135020896Y-75298300D01*
X134987030Y-75230566D01*
X134953163Y-75196700D01*
X134885430Y-75162833D01*
X134716096Y-75162833D01*
X134614496Y-75196700D01*
X134309696Y-75501500D02*
X134072630Y-75501500D01*
X133971030Y-75874033D02*
X134309696Y-75874033D01*
X134309696Y-75162833D01*
X133971030Y-75162833D01*
X133666230Y-75874033D02*
X133666230Y-75162833D01*
X133259830Y-75874033D01*
X133259830Y-75162833D01*
X132955030Y-75840166D02*
X132853430Y-75874033D01*
X132684096Y-75874033D01*
X132616363Y-75840166D01*
X132582496Y-75806300D01*
X132548630Y-75738566D01*
X132548630Y-75670833D01*
X132582496Y-75603100D01*
X132616363Y-75569233D01*
X132684096Y-75535366D01*
X132819563Y-75501500D01*
X132887296Y-75467633D01*
X132921163Y-75433766D01*
X132955030Y-75366033D01*
X132955030Y-75298300D01*
X132921163Y-75230566D01*
X132887296Y-75196700D01*
X132819563Y-75162833D01*
X132650230Y-75162833D01*
X132548630Y-75196700D01*
D11*
X137716380Y-69777428D02*
X137377714Y-69777428D01*
X137232571Y-70309619D02*
X137716380Y-70309619D01*
X137716380Y-69293619D01*
X137232571Y-69293619D01*
X136845523Y-70261238D02*
X136700380Y-70309619D01*
X136458476Y-70309619D01*
X136361714Y-70261238D01*
X136313333Y-70212857D01*
X136264952Y-70116095D01*
X136264952Y-70019333D01*
X136313333Y-69922571D01*
X136361714Y-69874190D01*
X136458476Y-69825809D01*
X136652000Y-69777428D01*
X136748761Y-69729047D01*
X136797142Y-69680666D01*
X136845523Y-69583904D01*
X136845523Y-69487142D01*
X136797142Y-69390380D01*
X136748761Y-69342000D01*
X136652000Y-69293619D01*
X136410095Y-69293619D01*
X136264952Y-69342000D01*
X135829523Y-70309619D02*
X135829523Y-69293619D01*
X135442476Y-69293619D01*
X135345714Y-69342000D01*
X135297333Y-69390380D01*
X135248952Y-69487142D01*
X135248952Y-69632285D01*
X135297333Y-69729047D01*
X135345714Y-69777428D01*
X135442476Y-69825809D01*
X135829523Y-69825809D01*
X135055428Y-70406380D02*
X134281333Y-70406380D01*
X134039428Y-69777428D02*
X133700761Y-69777428D01*
X133555619Y-70309619D02*
X134039428Y-70309619D01*
X134039428Y-69293619D01*
X133555619Y-69293619D01*
X133120190Y-70309619D02*
X133120190Y-69293619D01*
X132539619Y-70309619D01*
X132539619Y-69293619D01*
X153748619Y-64135000D02*
X153869571Y-64074523D01*
X154051000Y-64074523D01*
X154232428Y-64135000D01*
X154353380Y-64255952D01*
X154413857Y-64376904D01*
X154474333Y-64618809D01*
X154474333Y-64800238D01*
X154413857Y-65042142D01*
X154353380Y-65163095D01*
X154232428Y-65284047D01*
X154051000Y-65344523D01*
X153930047Y-65344523D01*
X153748619Y-65284047D01*
X153688142Y-65223571D01*
X153688142Y-64800238D01*
X153930047Y-64800238D01*
X153143857Y-65344523D02*
X153143857Y-64074523D01*
X152418142Y-65344523D01*
X152418142Y-64074523D01*
X151813380Y-65344523D02*
X151813380Y-64074523D01*
X151511000Y-64074523D01*
X151329571Y-64135000D01*
X151208619Y-64255952D01*
X151148142Y-64376904D01*
X151087666Y-64618809D01*
X151087666Y-64800238D01*
X151148142Y-65042142D01*
X151208619Y-65163095D01*
X151329571Y-65284047D01*
X151511000Y-65344523D01*
X151813380Y-65344523D01*
X137795000Y-64860714D02*
X136827380Y-64860714D01*
X137311190Y-65344523D02*
X137311190Y-64376904D01*
X136343571Y-64074523D02*
X135557380Y-64074523D01*
X135980714Y-64558333D01*
X135799285Y-64558333D01*
X135678333Y-64618809D01*
X135617857Y-64679285D01*
X135557380Y-64800238D01*
X135557380Y-65102619D01*
X135617857Y-65223571D01*
X135678333Y-65284047D01*
X135799285Y-65344523D01*
X136162142Y-65344523D01*
X136283095Y-65284047D01*
X136343571Y-65223571D01*
X135013095Y-65223571D02*
X134952619Y-65284047D01*
X135013095Y-65344523D01*
X135073571Y-65284047D01*
X135013095Y-65223571D01*
X135013095Y-65344523D01*
X134529285Y-64074523D02*
X133743095Y-64074523D01*
X134166428Y-64558333D01*
X133985000Y-64558333D01*
X133864047Y-64618809D01*
X133803571Y-64679285D01*
X133743095Y-64800238D01*
X133743095Y-65102619D01*
X133803571Y-65223571D01*
X133864047Y-65284047D01*
X133985000Y-65344523D01*
X134347857Y-65344523D01*
X134468809Y-65284047D01*
X134529285Y-65223571D01*
X133380238Y-64074523D02*
X132956904Y-65344523D01*
X132533571Y-64074523D01*
D18*
X139808857Y-112522000D02*
X139808857Y-112014000D01*
X139010571Y-111796285D02*
X139010571Y-112522000D01*
X140534571Y-112522000D01*
X140534571Y-111796285D01*
X139083142Y-111215714D02*
X139010571Y-110998000D01*
X139010571Y-110635142D01*
X139083142Y-110490000D01*
X139155714Y-110417428D01*
X139300857Y-110344857D01*
X139446000Y-110344857D01*
X139591142Y-110417428D01*
X139663714Y-110490000D01*
X139736285Y-110635142D01*
X139808857Y-110925428D01*
X139881428Y-111070571D01*
X139954000Y-111143142D01*
X140099142Y-111215714D01*
X140244285Y-111215714D01*
X140389428Y-111143142D01*
X140462000Y-111070571D01*
X140534571Y-110925428D01*
X140534571Y-110562571D01*
X140462000Y-110344857D01*
X139010571Y-109691714D02*
X140534571Y-109691714D01*
X140534571Y-109111142D01*
X140462000Y-108966000D01*
X140389428Y-108893428D01*
X140244285Y-108820857D01*
X140026571Y-108820857D01*
X139881428Y-108893428D01*
X139808857Y-108966000D01*
X139736285Y-109111142D01*
X139736285Y-109691714D01*
X140534571Y-108312857D02*
X140534571Y-107369428D01*
X139954000Y-107877428D01*
X139954000Y-107659714D01*
X139881428Y-107514571D01*
X139808857Y-107442000D01*
X139663714Y-107369428D01*
X139300857Y-107369428D01*
X139155714Y-107442000D01*
X139083142Y-107514571D01*
X139010571Y-107659714D01*
X139010571Y-108095142D01*
X139083142Y-108240285D01*
X139155714Y-108312857D01*
X140389428Y-106788857D02*
X140462000Y-106716285D01*
X140534571Y-106571142D01*
X140534571Y-106208285D01*
X140462000Y-106063142D01*
X140389428Y-105990571D01*
X140244285Y-105918000D01*
X140099142Y-105918000D01*
X139881428Y-105990571D01*
X139010571Y-106861428D01*
X139010571Y-105918000D01*
X139591142Y-105264857D02*
X139591142Y-104103714D01*
X139083142Y-103450571D02*
X139010571Y-103232857D01*
X139010571Y-102870000D01*
X139083142Y-102724857D01*
X139155714Y-102652285D01*
X139300857Y-102579714D01*
X139446000Y-102579714D01*
X139591142Y-102652285D01*
X139663714Y-102724857D01*
X139736285Y-102870000D01*
X139808857Y-103160285D01*
X139881428Y-103305428D01*
X139954000Y-103378000D01*
X140099142Y-103450571D01*
X140244285Y-103450571D01*
X140389428Y-103378000D01*
X140462000Y-103305428D01*
X140534571Y-103160285D01*
X140534571Y-102797428D01*
X140462000Y-102579714D01*
X140534571Y-102071714D02*
X140534571Y-101128285D01*
X139954000Y-101636285D01*
X139954000Y-101418571D01*
X139881428Y-101273428D01*
X139808857Y-101200857D01*
X139663714Y-101128285D01*
X139300857Y-101128285D01*
X139155714Y-101200857D01*
X139083142Y-101273428D01*
X139010571Y-101418571D01*
X139010571Y-101854000D01*
X139083142Y-101999142D01*
X139155714Y-102071714D01*
X139591142Y-100475142D02*
X139591142Y-99314000D01*
X139010571Y-98588285D02*
X140534571Y-98588285D01*
X140534571Y-98225428D01*
X140462000Y-98007714D01*
X140316857Y-97862571D01*
X140171714Y-97790000D01*
X139881428Y-97717428D01*
X139663714Y-97717428D01*
X139373428Y-97790000D01*
X139228285Y-97862571D01*
X139083142Y-98007714D01*
X139010571Y-98225428D01*
X139010571Y-98588285D01*
X139083142Y-96483714D02*
X139010571Y-96628857D01*
X139010571Y-96919142D01*
X139083142Y-97064285D01*
X139228285Y-97136857D01*
X139808857Y-97136857D01*
X139954000Y-97064285D01*
X140026571Y-96919142D01*
X140026571Y-96628857D01*
X139954000Y-96483714D01*
X139808857Y-96411142D01*
X139663714Y-96411142D01*
X139518571Y-97136857D01*
X140026571Y-95903142D02*
X139010571Y-95540285D01*
X140026571Y-95177428D01*
X139010571Y-94596857D02*
X140534571Y-94596857D01*
X139010571Y-93726000D02*
X139881428Y-94379142D01*
X140534571Y-93726000D02*
X139663714Y-94596857D01*
X139010571Y-93072857D02*
X140026571Y-93072857D01*
X140534571Y-93072857D02*
X140462000Y-93145428D01*
X140389428Y-93072857D01*
X140462000Y-93000285D01*
X140534571Y-93072857D01*
X140389428Y-93072857D01*
X140026571Y-92564857D02*
X140026571Y-91984285D01*
X140534571Y-92347142D02*
X139228285Y-92347142D01*
X139083142Y-92274571D01*
X139010571Y-92129428D01*
X139010571Y-91984285D01*
X139591142Y-91476285D02*
X139591142Y-90315142D01*
X139010571Y-88863714D02*
X139010571Y-89589428D01*
X140534571Y-89589428D01*
X139010571Y-88355714D02*
X140026571Y-88355714D01*
X140534571Y-88355714D02*
X140462000Y-88428285D01*
X140389428Y-88355714D01*
X140462000Y-88283142D01*
X140534571Y-88355714D01*
X140389428Y-88355714D01*
X140026571Y-87630000D02*
X138502571Y-87630000D01*
X139954000Y-87630000D02*
X140026571Y-87484857D01*
X140026571Y-87194571D01*
X139954000Y-87049428D01*
X139881428Y-86976857D01*
X139736285Y-86904285D01*
X139300857Y-86904285D01*
X139155714Y-86976857D01*
X139083142Y-87049428D01*
X139010571Y-87194571D01*
X139010571Y-87484857D01*
X139083142Y-87630000D01*
X139010571Y-86033428D02*
X139083142Y-86178571D01*
X139155714Y-86251142D01*
X139300857Y-86323714D01*
X139736285Y-86323714D01*
X139881428Y-86251142D01*
X139954000Y-86178571D01*
X140026571Y-86033428D01*
X140026571Y-85815714D01*
X139954000Y-85670571D01*
X139881428Y-85598000D01*
X139736285Y-85525428D01*
X139300857Y-85525428D01*
X139155714Y-85598000D01*
X139083142Y-85670571D01*
X139010571Y-85815714D01*
X139010571Y-86033428D01*
D11*
X148304000Y-72616000D02*
X147804000Y-72616000D01*
X144804000Y-72616000D02*
X144304000Y-72616000D01*
X144804000Y-69116000D02*
X144304000Y-69116000D01*
X148304000Y-69116000D02*
X147804000Y-69116000D01*
X146554000Y-70616000D02*
X146554000Y-69366000D01*
X146554000Y-69366000D02*
X146054000Y-69366000D01*
X146054000Y-69366000D02*
X146054000Y-70616000D01*
X146304000Y-69366000D02*
X146304000Y-70616000D01*
X144304000Y-69116000D02*
G75*
G03X148304000Y-69116000I2000000J0D01*
G01*
D19*
X144554000Y-69165980D02*
G75*
G03X148054000Y-69166000I1750000J49980D01*
G01*
D11*
X144804000Y-69116000D02*
G75*
G03X147804000Y-69116000I1500000J0D01*
G01*
D19*
X144554000Y-72665980D02*
G75*
G03X148054000Y-72666000I1750000J49980D01*
G01*
D11*
X144304000Y-72616000D02*
G75*
G03X148304000Y-72616000I2000000J0D01*
G01*
X144804000Y-72616000D02*
G75*
G03X147804000Y-72616000I1500000J0D01*
G01*
D20*
X141274000Y-63960000D02*
X140512000Y-63960000D01*
X141274000Y-68532000D02*
X141274000Y-63960000D01*
X140512000Y-68532000D02*
X141274000Y-68532000D01*
X140512000Y-63960000D02*
X140512000Y-68532000D01*
X141223200Y-64010800D02*
X141223200Y-68430400D01*
X141121600Y-68481200D02*
X141121600Y-64010800D01*
X140969200Y-64010800D02*
X140969200Y-68430400D01*
X140816800Y-64010800D02*
X140816800Y-68430400D01*
X141070800Y-68481200D02*
X141070800Y-64061600D01*
X140918400Y-68481200D02*
X140918400Y-64010800D01*
X140715200Y-64061600D02*
X140715200Y-68430400D01*
X140613600Y-68481200D02*
X140613600Y-64061600D01*
D11*
X146050000Y-68326000D02*
X141859000Y-64135000D01*
X141986000Y-68199000D02*
X145923000Y-64135000D01*
X142367000Y-67183000D02*
X142367000Y-65786000D01*
X142367000Y-67183000D02*
X145415000Y-67437000D01*
X145542000Y-67691000D02*
X145542000Y-64770000D01*
X141986000Y-66675000D02*
X142240000Y-66675000D01*
X141986000Y-67183000D02*
X141986000Y-66675000D01*
X142367000Y-67183000D02*
X141986000Y-67183000D01*
X142875000Y-65278000D02*
X144907000Y-65151000D01*
X142768609Y-65278000D02*
G75*
G03X142768609Y-65278000I-401609J0D01*
G01*
X146177000Y-67056000D02*
X145669000Y-67056000D01*
X146177000Y-67183000D02*
X146177000Y-67056000D01*
X145669000Y-67183000D02*
X146177000Y-67183000D01*
X145034000Y-64770000D02*
X145542000Y-64770000D01*
X145034000Y-65151000D02*
X145034000Y-64770000D01*
X145542000Y-65151000D02*
X145034000Y-65151000D01*
X145415000Y-65024000D02*
X145288000Y-65024000D01*
X145542000Y-65024000D02*
X145161000Y-64897000D01*
X145415000Y-65024000D02*
X145288000Y-65024000D01*
X145415000Y-64897000D02*
X145034000Y-64897000D01*
X145415000Y-65024000D02*
X145415000Y-64897000D01*
X145034000Y-65024000D02*
X145415000Y-65024000D01*
X144653000Y-66421000D02*
X145034000Y-66421000D01*
X144653000Y-65532000D02*
X144653000Y-66421000D01*
X145034000Y-65532000D02*
X144653000Y-65532000D01*
X145034000Y-66421000D02*
X145034000Y-65532000D01*
X144907000Y-66294000D02*
X144907000Y-65659000D01*
X146431000Y-66040000D02*
X146431000Y-66421000D01*
X146304000Y-66040000D02*
X146431000Y-66040000D01*
X146304000Y-66421000D02*
X146304000Y-66040000D01*
X146431000Y-66421000D02*
X146304000Y-66421000D01*
D13*
X142494000Y-65278000D02*
G75*
G03X142494000Y-65278000I-127000J0D01*
G01*
D11*
X145669000Y-65151000D02*
G75*
G02X145669000Y-67437000I-1143000J-1143000D01*
G01*
X145246197Y-92151200D02*
G75*
G03X145246197Y-92151200I-1802237J0D01*
G01*
D21*
X144607280Y-93311980D02*
X142186660Y-90878660D01*
D22*
X141302740Y-79966820D02*
X142725140Y-79415640D01*
D23*
X141488160Y-80312260D02*
X141282420Y-79994760D01*
D24*
X140939520Y-81102200D02*
X141470380Y-80322420D01*
D25*
X141478000Y-81678780D02*
X140939520Y-81114900D01*
D23*
X141478000Y-81663540D02*
X142311120Y-81130140D01*
X143238220Y-81488280D02*
X142354300Y-81130140D01*
X143479520Y-82466180D02*
X143261080Y-81516220D01*
D25*
X144256760Y-82456020D02*
X143469360Y-82461100D01*
D23*
X144269460Y-82468720D02*
X144449800Y-81450180D01*
X144485360Y-81419700D02*
X145351500Y-81071720D01*
X146253200Y-81648300D02*
X145402300Y-81092040D01*
D25*
X146276060Y-81658460D02*
X146809460Y-81158080D01*
D23*
X146834860Y-81109820D02*
X146182080Y-80281780D01*
X146192240Y-80220820D02*
X146598640Y-79375000D01*
X147632420Y-79115920D02*
X146618960Y-79321660D01*
X147645120Y-79123540D02*
X147645120Y-78338680D01*
X147624800Y-78356460D02*
X146606260Y-78143100D01*
X146606260Y-78143100D02*
X146156680Y-77241400D01*
X146161760Y-77228700D02*
X146796200Y-76324460D01*
X146794220Y-76324460D02*
X146248120Y-75770740D01*
X146245580Y-75770740D02*
X145455640Y-76387960D01*
X145455640Y-76387960D02*
X144518380Y-76047600D01*
X144518380Y-76047600D02*
X144289780Y-74965560D01*
X144289780Y-74965560D02*
X143454120Y-74965560D01*
X143454120Y-74965560D02*
X143283940Y-75979020D01*
X143283940Y-75979020D02*
X142372080Y-76385420D01*
X140924280Y-76334620D02*
X141490700Y-77170280D01*
X141490700Y-77170280D02*
X141305280Y-77508100D01*
X141305280Y-77508100D02*
X142745460Y-78082140D01*
X142372080Y-76385420D02*
X141485620Y-75765660D01*
X140931900Y-76319380D02*
X141478000Y-75765660D01*
D20*
X141122400Y-79885540D02*
X142791180Y-79235300D01*
X141325600Y-80269080D02*
X141104620Y-79923640D01*
X141335760Y-80281780D02*
X140771880Y-81107280D01*
X140764260Y-81114900D02*
X141457680Y-81836260D01*
X141460220Y-81843880D02*
X142323820Y-81246980D01*
X143367760Y-82605880D02*
X143172180Y-81534000D01*
X144360900Y-82605880D02*
X143375380Y-82605880D01*
X144363440Y-82608420D02*
X144566640Y-81437480D01*
X144561560Y-81539080D02*
X145394680Y-81203800D01*
X146245580Y-81800700D02*
X145392140Y-81206340D01*
X146281140Y-81821020D02*
X146994880Y-81147920D01*
X146997420Y-81135220D02*
X146281140Y-80164940D01*
X146349720Y-80200500D02*
X146728180Y-79296260D01*
X147744180Y-79212440D02*
X146718020Y-79413100D01*
X147751800Y-79202280D02*
X147751800Y-78237080D01*
X147751800Y-78237080D02*
X146580860Y-78011020D01*
X146662140Y-78021180D02*
X146324320Y-77216000D01*
X146276060Y-77335380D02*
X146949160Y-76324460D01*
X146951700Y-76319380D02*
X146260820Y-75625960D01*
X146253200Y-75620880D02*
X145262600Y-76324460D01*
X145371820Y-76235560D02*
X144503140Y-75869800D01*
X143601440Y-74932540D02*
X143377920Y-76039980D01*
X144343120Y-74848720D02*
X143385540Y-74851260D01*
X143154400Y-75986640D02*
X143365220Y-74863960D01*
X143187420Y-75882500D02*
X142206980Y-76263500D01*
X141551660Y-75915520D02*
X141020800Y-76400660D01*
X140776960Y-76311760D02*
X141467840Y-75628500D01*
X141391640Y-77198220D02*
X140771880Y-76321920D01*
X141086840Y-76334620D02*
X141615160Y-77155040D01*
X141419580Y-77017880D02*
X141091920Y-77546200D01*
X141091920Y-77546200D02*
X142072360Y-77932280D01*
X142770860Y-77937360D02*
X141389100Y-77409040D01*
X144172940Y-82313780D02*
X143522700Y-82313780D01*
X144117060Y-82456020D02*
X144363440Y-81340960D01*
X145384520Y-80926940D02*
X144386300Y-81313020D01*
X145379440Y-80921860D02*
X146288760Y-81523840D01*
X146733260Y-81165700D02*
X146011900Y-80281780D01*
X142712440Y-77894180D02*
X142834360Y-77716380D01*
X142834360Y-77716380D02*
X143545560Y-77340460D01*
X143545560Y-77340460D02*
X144063720Y-77340460D01*
X144051020Y-77335380D02*
X144724120Y-77569060D01*
X144724120Y-77569060D02*
X145153380Y-78079600D01*
X145153380Y-78079600D02*
X145313400Y-78894940D01*
X145321020Y-78894940D02*
X144891760Y-79766160D01*
X144891760Y-79766160D02*
X144160240Y-80185260D01*
X144155160Y-80190340D02*
X143332200Y-80058260D01*
X143301720Y-80053180D02*
X143131540Y-79959200D01*
X143301720Y-80053180D02*
X143131540Y-79959200D01*
X143080740Y-79829660D02*
X142742920Y-79570580D01*
X142966440Y-79461360D02*
X142791180Y-79235300D01*
X142963900Y-77960220D02*
X142798800Y-78214220D01*
X142509240Y-78097380D02*
X142793720Y-78219300D01*
X146014440Y-80276700D02*
X146507200Y-79293720D01*
X143101060Y-79946500D02*
X142834360Y-79639160D01*
D26*
X141671040Y-80962500D02*
X142692120Y-80109060D01*
X143875760Y-81998820D02*
X143936720Y-80581500D01*
X146161760Y-81013300D02*
X145054320Y-79951580D01*
X147137120Y-78752700D02*
X145623280Y-78747620D01*
X146080480Y-76487020D02*
X145013680Y-77599540D01*
X143896080Y-75496420D02*
X143809720Y-76964540D01*
X141843760Y-80286860D02*
X142605760Y-79921100D01*
X142742920Y-80952340D02*
X143222980Y-80388460D01*
X143388080Y-81201260D02*
X143515080Y-80495140D01*
X144632680Y-80876140D02*
X144472660Y-80434180D01*
X145112740Y-80700880D02*
X144823180Y-80243680D01*
X145889980Y-79702660D02*
X145531840Y-79527400D01*
X146149060Y-79268320D02*
X145539460Y-79100680D01*
X146133820Y-78003400D02*
X145448020Y-78224380D01*
X145882360Y-77416660D02*
X145295620Y-77835760D01*
X145013680Y-76547980D02*
X144647920Y-77203300D01*
X144320260Y-76306680D02*
X144172940Y-77028040D01*
X143162020Y-77142340D02*
X143055340Y-76532740D01*
X142742920Y-77462380D02*
X142415260Y-76845160D01*
X142605760Y-77576680D02*
X141592300Y-76395580D01*
X142697200Y-77576680D02*
X141965680Y-77243940D01*
D23*
X142748000Y-78071980D02*
G75*
G02X144612360Y-77701140I1117600J-746760D01*
G01*
X144597120Y-77690980D02*
G75*
G02X144795240Y-79616300I-863600J-1061720D01*
G01*
X144769840Y-79641700D02*
G75*
G02X142915640Y-79565500I-889000J965200D01*
G01*
D11*
X142621000Y-87693500D02*
X142621000Y-87757000D01*
X142621000Y-87693500D02*
X143637000Y-87693500D01*
X142430500Y-87630000D02*
X142557500Y-87630000D01*
X143827500Y-88074500D02*
X142748000Y-88074500D01*
X142430500Y-87122000D02*
X142430500Y-86969600D01*
X144018000Y-84137500D02*
X144018000Y-84455000D01*
X144907000Y-85763100D02*
X144907000Y-84582000D01*
X144843500Y-88138000D02*
X141351000Y-82804000D01*
X144907000Y-84582000D02*
X148463000Y-86360000D01*
X144018000Y-84137500D02*
X144907000Y-84582000D01*
X141351000Y-82804000D02*
X144018000Y-84137500D01*
X141351000Y-89916000D02*
X141351000Y-82804000D01*
X148463000Y-86360000D02*
X141351000Y-89916000D01*
X142621000Y-87757000D02*
G75*
G02X142494000Y-87884000I-127000J0D01*
G01*
X142557500Y-87630000D02*
G75*
G02X142621000Y-87693500I0J-63500D01*
G01*
X142364455Y-87691071D02*
G75*
G02X142430500Y-87630000I63505J-2429D01*
G01*
X142748000Y-88074500D02*
G75*
G02X142367000Y-87693500I0J381000D01*
G01*
X144143425Y-87885048D02*
G75*
G02X143827500Y-88074500I-315925J168688D01*
G01*
X144144858Y-87882549D02*
G75*
G02X144462500Y-87566500I792622J-478971D01*
G01*
X143635155Y-87691935D02*
G75*
G02X144081500Y-86995000I1007685J-153965D01*
G01*
X142874326Y-87248068D02*
G75*
G02X142557500Y-87249000I-159346J316568D01*
G01*
X142557400Y-87248967D02*
G75*
G02X142430500Y-87122000I63600J190467D01*
G01*
X143318507Y-85920275D02*
G75*
G02X143192500Y-86360000I-3709947J825195D01*
G01*
X143191035Y-86359915D02*
G75*
G02X142430500Y-86931500I-808795J284395D01*
G01*
X143635834Y-86297708D02*
G75*
G02X142875000Y-87249000I-1332334J285688D01*
G01*
X143381424Y-85785461D02*
G75*
G02X143827500Y-84963000I1253796J-147819D01*
G01*
X144017526Y-84454301D02*
G75*
G02X143827500Y-84963000I-604046J-64199D01*
G01*
X144968886Y-85978915D02*
G75*
G02X144907000Y-85763100I230214J182795D01*
G01*
X144970322Y-85979721D02*
G75*
G02X144462500Y-87566500I-1274902J-466639D01*
G01*
D24*
X146641447Y-110858300D02*
G75*
G03X146641447Y-110858300I-337447J0D01*
G01*
D27*
X147078700Y-110871000D02*
X147586700Y-110363000D01*
X147662900Y-109270800D02*
X147053300Y-108635800D01*
X145097500Y-108661200D02*
X144513300Y-109220000D01*
X144500600Y-107035600D02*
X144957800Y-107492800D01*
X144500600Y-106049800D02*
X144500600Y-107035600D01*
D24*
X144892324Y-105537000D02*
G75*
G03X144892324Y-105537000I-366324J0D01*
G01*
D27*
X147218400Y-105537000D02*
X145618200Y-105537000D01*
D24*
X148125318Y-105524300D02*
G75*
G03X148125318Y-105524300I-373518J0D01*
G01*
X144911059Y-104305100D02*
G75*
G03X144911059Y-104305100I-359659J0D01*
G01*
D27*
X145059400Y-104317800D02*
X147650200Y-104317800D01*
X147650200Y-104317800D02*
X147650200Y-103479600D01*
X147650200Y-103479600D02*
X147142200Y-102870000D01*
X146354800Y-102768400D02*
X147066000Y-102768400D01*
X147142200Y-102692200D02*
X147650200Y-102057200D01*
D24*
X146192318Y-102768400D02*
G75*
G03X146192318Y-102768400I-370918J0D01*
G01*
D27*
X147650200Y-102057200D02*
X147650200Y-101168200D01*
D24*
X144901929Y-101155500D02*
G75*
G03X144901929Y-101155500I-363229J0D01*
G01*
X144779266Y-95326200D02*
G75*
G03X144779266Y-95326200I-329466J0D01*
G01*
D27*
X144805400Y-95656400D02*
X145618200Y-96494600D01*
D28*
X145719800Y-97002600D02*
X145719800Y-96469200D01*
D27*
X144500600Y-98145600D02*
X145618200Y-97002600D01*
X144500600Y-99466400D02*
X144500600Y-98145600D01*
X144932400Y-99898200D02*
X144500600Y-99466400D01*
X147167600Y-99898200D02*
X144932400Y-99898200D01*
X147193000Y-99898200D02*
X147701000Y-99415600D01*
X147675600Y-99367500D02*
X147675600Y-98145600D01*
X147675600Y-98145600D02*
X146608800Y-97053400D01*
D28*
X146494500Y-97028000D02*
X146494500Y-96469200D01*
D27*
X147485100Y-95605600D02*
X146591400Y-96469200D01*
D24*
X148200135Y-95237300D02*
G75*
G03X148200135Y-95237300I-359435J0D01*
G01*
D27*
X146100800Y-98679000D02*
X146100800Y-99898200D01*
D24*
X146460459Y-98171000D02*
G75*
G03X146460459Y-98171000I-359659J0D01*
G01*
D27*
X144487900Y-110299500D02*
X144487900Y-109258100D01*
X145046700Y-110858300D02*
X145808700Y-110858300D01*
X145059400Y-110871000D02*
X144487900Y-110286800D01*
X147027900Y-110871000D02*
X146786600Y-110871000D01*
X147066000Y-108648500D02*
X145135600Y-108648500D01*
X147675600Y-109270800D02*
X147675600Y-110274100D01*
X147662900Y-101155500D02*
X145059400Y-101155500D01*
X144945100Y-107492800D02*
X147675600Y-107492800D01*
D29*
X148018500Y-107492800D02*
X148018500Y-107772200D01*
X148018500Y-107797600D02*
X144868900Y-107797600D01*
X148018500Y-107784900D02*
X148018500Y-107797600D01*
X148018500Y-107772200D02*
X148018500Y-107784900D01*
X147929600Y-107657900D02*
X147942300Y-107721400D01*
X148018500Y-107175300D02*
X144983200Y-107175300D01*
X148018500Y-107480100D02*
X148018500Y-107175300D01*
X147942300Y-107353100D02*
X147942300Y-107238800D01*
X147332700Y-105854500D02*
X145313400Y-105854500D01*
X145313400Y-105219500D02*
X147332700Y-105219500D01*
X145313400Y-105244900D02*
X145313400Y-105219500D01*
X145313400Y-105854500D02*
X145313400Y-105244900D01*
X145376900Y-105714800D02*
X145376900Y-105778300D01*
X145376900Y-105371900D02*
X145376900Y-105283000D01*
X144970500Y-104635300D02*
X147955000Y-104635300D01*
X147967700Y-103390700D02*
X147485100Y-102806500D01*
X147967700Y-104635300D02*
X147967700Y-103390700D01*
X147904200Y-104482900D02*
X147904200Y-104559100D01*
X144945100Y-100825300D02*
X147955000Y-100825300D01*
X147967700Y-102146100D02*
X147472400Y-102768400D01*
X147967700Y-102120700D02*
X147967700Y-102146100D01*
X147967700Y-100825300D02*
X147967700Y-102120700D01*
X147955000Y-100825300D02*
X147967700Y-100825300D01*
X147891500Y-100977700D02*
X147891500Y-100876100D01*
X148005800Y-98031300D02*
X146761200Y-96774000D01*
X148005800Y-98082100D02*
X148005800Y-98031300D01*
X148005800Y-99453700D02*
X148005800Y-98082100D01*
D11*
X154940000Y-114554000D02*
X154940000Y-116586000D01*
X154940000Y-116586000D02*
X155194000Y-116840000D01*
X155194000Y-116840000D02*
X154940000Y-117094000D01*
X154940000Y-117094000D02*
X154940000Y-119126000D01*
X154940000Y-119126000D02*
X155194000Y-119380000D01*
X155194000Y-114300000D02*
X154940000Y-114554000D01*
X157480000Y-114554000D02*
X157226000Y-114300000D01*
X157480000Y-119126000D02*
X157480000Y-117094000D01*
X157480000Y-117094000D02*
X157226000Y-116840000D01*
X157226000Y-116840000D02*
X157480000Y-116586000D01*
X157480000Y-116586000D02*
X157480000Y-114554000D01*
X157480000Y-119126000D02*
X157226000Y-119380000D01*
X157480000Y-119126000D02*
X157226000Y-119380000D01*
X157226000Y-116840000D02*
X157480000Y-116586000D01*
X157480000Y-117094000D02*
X157226000Y-116840000D01*
X157480000Y-119126000D02*
X157480000Y-117094000D01*
X157480000Y-114554000D02*
X157226000Y-114300000D01*
X155194000Y-114300000D02*
X154940000Y-114554000D01*
X154940000Y-119126000D02*
X155194000Y-119380000D01*
X154940000Y-117094000D02*
X154940000Y-119126000D01*
X155194000Y-116840000D02*
X154940000Y-117094000D01*
X154940000Y-116586000D02*
X155194000Y-116840000D01*
X155194000Y-119380000D02*
X157226000Y-119380000D01*
X157480000Y-104394000D02*
X157226000Y-104140000D01*
X155194000Y-104140000D02*
X154940000Y-104394000D01*
X154940000Y-104394000D02*
X154940000Y-106426000D01*
X154940000Y-108966000D02*
X155194000Y-109220000D01*
X157480000Y-106426000D02*
X157480000Y-104394000D01*
X157226000Y-109220000D02*
X157480000Y-108966000D01*
X154940000Y-106934000D02*
X154940000Y-108966000D01*
X155194000Y-106680000D02*
X154940000Y-106934000D01*
X157480000Y-108966000D02*
X157480000Y-106934000D01*
X157226000Y-106680000D02*
X157480000Y-106426000D01*
X157480000Y-106934000D02*
X157226000Y-106680000D01*
X154940000Y-106426000D02*
X155194000Y-106680000D01*
X154940000Y-108966000D02*
X155194000Y-109220000D01*
X157226000Y-109220000D02*
X157480000Y-108966000D01*
X157480000Y-108966000D02*
X157480000Y-106934000D01*
X154940000Y-106934000D02*
X154940000Y-108966000D01*
X155194000Y-106680000D02*
X154940000Y-106934000D01*
X157480000Y-106934000D02*
X157226000Y-106680000D01*
X157480000Y-112014000D02*
X157226000Y-111760000D01*
X155194000Y-111760000D02*
X154940000Y-112014000D01*
X154940000Y-112014000D02*
X154940000Y-114046000D01*
X157480000Y-114046000D02*
X157480000Y-112014000D01*
X157226000Y-114300000D02*
X157480000Y-114046000D01*
X154940000Y-114046000D02*
X155194000Y-114300000D01*
X154940000Y-111506000D02*
X155194000Y-111760000D01*
X157480000Y-112014000D02*
X157226000Y-111760000D01*
X157226000Y-111760000D02*
X157480000Y-111506000D01*
X157480000Y-114046000D02*
X157480000Y-112014000D01*
X155194000Y-111760000D02*
X154940000Y-112014000D01*
X154940000Y-112014000D02*
X154940000Y-114046000D01*
X157226000Y-114300000D02*
X157480000Y-114046000D01*
X157480000Y-111506000D02*
X157480000Y-109474000D01*
X154940000Y-114046000D02*
X155194000Y-114300000D01*
X154940000Y-109474000D02*
X154940000Y-111506000D01*
X155194000Y-109220000D02*
X154940000Y-109474000D01*
X157480000Y-109474000D02*
X157226000Y-109220000D01*
X157480000Y-99314000D02*
X157226000Y-99060000D01*
X155194000Y-99060000D02*
X154940000Y-99314000D01*
X154940000Y-99314000D02*
X154940000Y-101346000D01*
X154940000Y-103886000D02*
X155194000Y-104140000D01*
X157480000Y-101346000D02*
X157480000Y-99314000D01*
X157226000Y-104140000D02*
X157480000Y-103886000D01*
X154940000Y-101854000D02*
X154940000Y-103886000D01*
X155194000Y-101600000D02*
X154940000Y-101854000D01*
X157480000Y-103886000D02*
X157480000Y-101854000D01*
X157226000Y-101600000D02*
X157480000Y-101346000D01*
X157480000Y-101854000D02*
X157226000Y-101600000D01*
X154940000Y-101346000D02*
X155194000Y-101600000D01*
X154940000Y-103886000D02*
X155194000Y-104140000D01*
X157226000Y-104140000D02*
X157480000Y-103886000D01*
X157480000Y-103886000D02*
X157480000Y-101854000D01*
X154940000Y-101854000D02*
X154940000Y-103886000D01*
X155194000Y-101600000D02*
X154940000Y-101854000D01*
X157480000Y-101854000D02*
X157226000Y-101600000D01*
X157480000Y-96774000D02*
X157226000Y-96520000D01*
X155194000Y-96520000D02*
X154940000Y-96774000D01*
X154940000Y-96774000D02*
X154940000Y-98806000D01*
X157480000Y-98806000D02*
X157480000Y-96774000D01*
X157226000Y-99060000D02*
X157480000Y-98806000D01*
X154940000Y-98806000D02*
X155194000Y-99060000D01*
X154940000Y-96266000D02*
X155194000Y-96520000D01*
X157480000Y-96774000D02*
X157226000Y-96520000D01*
X157226000Y-96520000D02*
X157480000Y-96266000D01*
X157480000Y-98806000D02*
X157480000Y-96774000D01*
X155194000Y-96520000D02*
X154940000Y-96774000D01*
X154940000Y-96774000D02*
X154940000Y-98806000D01*
X157226000Y-99060000D02*
X157480000Y-98806000D01*
X157480000Y-96266000D02*
X157480000Y-94234000D01*
X154940000Y-98806000D02*
X155194000Y-99060000D01*
X154940000Y-94234000D02*
X154940000Y-96266000D01*
X155194000Y-93980000D02*
X154940000Y-94234000D01*
X157480000Y-94234000D02*
X157226000Y-93980000D01*
X157480000Y-89154000D02*
X157226000Y-88900000D01*
X155194000Y-88900000D02*
X154940000Y-89154000D01*
X154940000Y-89154000D02*
X154940000Y-91186000D01*
X154940000Y-93726000D02*
X155194000Y-93980000D01*
X157480000Y-91186000D02*
X157480000Y-89154000D01*
X157226000Y-93980000D02*
X157480000Y-93726000D01*
X154940000Y-91694000D02*
X154940000Y-93726000D01*
X155194000Y-91440000D02*
X154940000Y-91694000D01*
X157480000Y-93726000D02*
X157480000Y-91694000D01*
X157226000Y-91440000D02*
X157480000Y-91186000D01*
X157480000Y-91694000D02*
X157226000Y-91440000D01*
X154940000Y-91186000D02*
X155194000Y-91440000D01*
X154940000Y-93726000D02*
X155194000Y-93980000D01*
X157226000Y-93980000D02*
X157480000Y-93726000D01*
X157480000Y-93726000D02*
X157480000Y-91694000D01*
X154940000Y-91694000D02*
X154940000Y-93726000D01*
X155194000Y-91440000D02*
X154940000Y-91694000D01*
X157480000Y-91694000D02*
X157226000Y-91440000D01*
X157480000Y-86614000D02*
X157226000Y-86360000D01*
X155194000Y-86360000D02*
X154940000Y-86614000D01*
X154940000Y-86614000D02*
X154940000Y-88646000D01*
X157480000Y-88646000D02*
X157480000Y-86614000D01*
X157226000Y-88900000D02*
X157480000Y-88646000D01*
X154940000Y-88646000D02*
X155194000Y-88900000D01*
X154940000Y-86106000D02*
X155194000Y-86360000D01*
X157480000Y-86614000D02*
X157226000Y-86360000D01*
X157226000Y-86360000D02*
X157480000Y-86106000D01*
X157480000Y-88646000D02*
X157480000Y-86614000D01*
X155194000Y-86360000D02*
X154940000Y-86614000D01*
X154940000Y-86614000D02*
X154940000Y-88646000D01*
X157226000Y-88900000D02*
X157480000Y-88646000D01*
X157480000Y-86106000D02*
X157480000Y-84074000D01*
X154940000Y-88646000D02*
X155194000Y-88900000D01*
X154940000Y-84074000D02*
X154940000Y-86106000D01*
X155194000Y-83820000D02*
X154940000Y-84074000D01*
X157480000Y-84074000D02*
X157226000Y-83820000D01*
X157480000Y-78994000D02*
X157226000Y-78740000D01*
X155194000Y-78740000D02*
X154940000Y-78994000D01*
X154940000Y-78994000D02*
X154940000Y-81026000D01*
X154940000Y-83566000D02*
X155194000Y-83820000D01*
X157480000Y-81026000D02*
X157480000Y-78994000D01*
X157226000Y-83820000D02*
X157480000Y-83566000D01*
X154940000Y-81534000D02*
X154940000Y-83566000D01*
X155194000Y-81280000D02*
X154940000Y-81534000D01*
X157480000Y-83566000D02*
X157480000Y-81534000D01*
X157226000Y-81280000D02*
X157480000Y-81026000D01*
X157480000Y-81534000D02*
X157226000Y-81280000D01*
X154940000Y-81026000D02*
X155194000Y-81280000D01*
X154940000Y-83566000D02*
X155194000Y-83820000D01*
X157226000Y-83820000D02*
X157480000Y-83566000D01*
X157480000Y-83566000D02*
X157480000Y-81534000D01*
X154940000Y-81534000D02*
X154940000Y-83566000D01*
X155194000Y-81280000D02*
X154940000Y-81534000D01*
X157480000Y-81534000D02*
X157226000Y-81280000D01*
X157480000Y-76454000D02*
X157226000Y-76200000D01*
X155194000Y-76200000D02*
X154940000Y-76454000D01*
X154940000Y-76454000D02*
X154940000Y-78486000D01*
X157480000Y-78486000D02*
X157480000Y-76454000D01*
X157226000Y-78740000D02*
X157480000Y-78486000D01*
X154940000Y-78486000D02*
X155194000Y-78740000D01*
X154940000Y-75946000D02*
X155194000Y-76200000D01*
X157480000Y-76454000D02*
X157226000Y-76200000D01*
X157226000Y-76200000D02*
X157480000Y-75946000D01*
X157480000Y-78486000D02*
X157480000Y-76454000D01*
X155194000Y-76200000D02*
X154940000Y-76454000D01*
X154940000Y-76454000D02*
X154940000Y-78486000D01*
X157226000Y-78740000D02*
X157480000Y-78486000D01*
X157480000Y-71374000D02*
X157226000Y-71120000D01*
X157480000Y-75946000D02*
X157480000Y-73914000D01*
X154940000Y-78486000D02*
X155194000Y-78740000D01*
X154940000Y-73914000D02*
X154940000Y-75946000D01*
X155194000Y-73660000D02*
X154940000Y-73914000D01*
X154940000Y-63500000D02*
X154940000Y-63754000D01*
X154940000Y-63754000D02*
X154940000Y-65786000D01*
X154940000Y-65786000D02*
X155194000Y-66040000D01*
X155194000Y-66040000D02*
X154940000Y-66294000D01*
X154940000Y-66294000D02*
X154940000Y-68326000D01*
X154940000Y-68326000D02*
X155194000Y-68580000D01*
X155194000Y-68580000D02*
X154940000Y-68834000D01*
X154940000Y-68834000D02*
X154940000Y-70866000D01*
X154940000Y-70866000D02*
X155194000Y-71120000D01*
X155194000Y-71120000D02*
X154940000Y-71374000D01*
X154940000Y-71374000D02*
X154940000Y-73406000D01*
X154940000Y-73406000D02*
X155194000Y-73660000D01*
X157226000Y-73660000D02*
X157480000Y-73406000D01*
X157480000Y-73406000D02*
X157480000Y-71374000D01*
X157480000Y-73914000D02*
X157226000Y-73660000D01*
X157226000Y-71120000D02*
X157480000Y-70866000D01*
X157480000Y-70866000D02*
X157480000Y-68834000D01*
X155194000Y-63500000D02*
X154940000Y-63754000D01*
X157480000Y-63754000D02*
X157226000Y-63500000D01*
X157480000Y-64008000D02*
X157480000Y-63500000D01*
X157480000Y-68326000D02*
X157480000Y-66294000D01*
X157480000Y-66294000D02*
X157226000Y-66040000D01*
X157226000Y-66040000D02*
X157480000Y-65786000D01*
X157480000Y-65786000D02*
X157480000Y-64008000D01*
X157480000Y-68326000D02*
X157226000Y-68580000D01*
X157226000Y-68580000D02*
X157480000Y-68834000D01*
X154940000Y-63500000D02*
X157480000Y-63500000D01*
X154940000Y-63500000D02*
X157480000Y-63500000D01*
X157226000Y-68580000D02*
X157480000Y-68834000D01*
X157480000Y-68326000D02*
X157226000Y-68580000D01*
X157480000Y-65786000D02*
X157480000Y-64008000D01*
X157226000Y-66040000D02*
X157480000Y-65786000D01*
X157480000Y-66294000D02*
X157226000Y-66040000D01*
X157480000Y-68326000D02*
X157480000Y-66294000D01*
X157480000Y-64008000D02*
X157480000Y-63500000D01*
X157480000Y-63754000D02*
X157226000Y-63500000D01*
X155194000Y-63500000D02*
X154940000Y-63754000D01*
X157480000Y-70866000D02*
X157480000Y-68834000D01*
X157226000Y-71120000D02*
X157480000Y-70866000D01*
X157480000Y-73914000D02*
X157226000Y-73660000D01*
X157480000Y-73406000D02*
X157480000Y-71374000D01*
X157226000Y-73660000D02*
X157480000Y-73406000D01*
X154940000Y-73406000D02*
X155194000Y-73660000D01*
X154940000Y-71374000D02*
X154940000Y-73406000D01*
X155194000Y-71120000D02*
X154940000Y-71374000D01*
X154940000Y-70866000D02*
X155194000Y-71120000D01*
X154940000Y-68834000D02*
X154940000Y-70866000D01*
X155194000Y-68580000D02*
X154940000Y-68834000D01*
X154940000Y-68326000D02*
X155194000Y-68580000D01*
X154940000Y-66294000D02*
X154940000Y-68326000D01*
X155194000Y-66040000D02*
X154940000Y-66294000D01*
X154940000Y-65786000D02*
X155194000Y-66040000D01*
X154940000Y-63754000D02*
X154940000Y-65786000D01*
X154940000Y-63500000D02*
X154940000Y-63754000D01*
X155194000Y-73660000D02*
X154940000Y-73914000D01*
X154940000Y-73914000D02*
X154940000Y-75946000D01*
X154940000Y-78486000D02*
X155194000Y-78740000D01*
X157480000Y-75946000D02*
X157480000Y-73914000D01*
X157480000Y-71374000D02*
X157226000Y-71120000D01*
X157226000Y-78740000D02*
X157480000Y-78486000D01*
X154940000Y-76454000D02*
X154940000Y-78486000D01*
X155194000Y-76200000D02*
X154940000Y-76454000D01*
X157480000Y-78486000D02*
X157480000Y-76454000D01*
X157226000Y-76200000D02*
X157480000Y-75946000D01*
X157480000Y-76454000D02*
X157226000Y-76200000D01*
X154940000Y-75946000D02*
X155194000Y-76200000D01*
X154940000Y-78486000D02*
X155194000Y-78740000D01*
X157226000Y-78740000D02*
X157480000Y-78486000D01*
X157480000Y-78486000D02*
X157480000Y-76454000D01*
X154940000Y-76454000D02*
X154940000Y-78486000D01*
X155194000Y-76200000D02*
X154940000Y-76454000D01*
X157480000Y-76454000D02*
X157226000Y-76200000D01*
X157480000Y-81534000D02*
X157226000Y-81280000D01*
X155194000Y-81280000D02*
X154940000Y-81534000D01*
X154940000Y-81534000D02*
X154940000Y-83566000D01*
X157480000Y-83566000D02*
X157480000Y-81534000D01*
X157226000Y-83820000D02*
X157480000Y-83566000D01*
X154940000Y-83566000D02*
X155194000Y-83820000D01*
X154940000Y-81026000D02*
X155194000Y-81280000D01*
X157480000Y-81534000D02*
X157226000Y-81280000D01*
X157226000Y-81280000D02*
X157480000Y-81026000D01*
X157480000Y-83566000D02*
X157480000Y-81534000D01*
X155194000Y-81280000D02*
X154940000Y-81534000D01*
X154940000Y-81534000D02*
X154940000Y-83566000D01*
X157226000Y-83820000D02*
X157480000Y-83566000D01*
X157480000Y-81026000D02*
X157480000Y-78994000D01*
X154940000Y-83566000D02*
X155194000Y-83820000D01*
X154940000Y-78994000D02*
X154940000Y-81026000D01*
X155194000Y-78740000D02*
X154940000Y-78994000D01*
X157480000Y-78994000D02*
X157226000Y-78740000D01*
X157480000Y-84074000D02*
X157226000Y-83820000D01*
X155194000Y-83820000D02*
X154940000Y-84074000D01*
X154940000Y-84074000D02*
X154940000Y-86106000D01*
X154940000Y-88646000D02*
X155194000Y-88900000D01*
X157480000Y-86106000D02*
X157480000Y-84074000D01*
X157226000Y-88900000D02*
X157480000Y-88646000D01*
X154940000Y-86614000D02*
X154940000Y-88646000D01*
X155194000Y-86360000D02*
X154940000Y-86614000D01*
X157480000Y-88646000D02*
X157480000Y-86614000D01*
X157226000Y-86360000D02*
X157480000Y-86106000D01*
X157480000Y-86614000D02*
X157226000Y-86360000D01*
X154940000Y-86106000D02*
X155194000Y-86360000D01*
X154940000Y-88646000D02*
X155194000Y-88900000D01*
X157226000Y-88900000D02*
X157480000Y-88646000D01*
X157480000Y-88646000D02*
X157480000Y-86614000D01*
X154940000Y-86614000D02*
X154940000Y-88646000D01*
X155194000Y-86360000D02*
X154940000Y-86614000D01*
X157480000Y-86614000D02*
X157226000Y-86360000D01*
X157480000Y-91694000D02*
X157226000Y-91440000D01*
X155194000Y-91440000D02*
X154940000Y-91694000D01*
X154940000Y-91694000D02*
X154940000Y-93726000D01*
X157480000Y-93726000D02*
X157480000Y-91694000D01*
X157226000Y-93980000D02*
X157480000Y-93726000D01*
X154940000Y-93726000D02*
X155194000Y-93980000D01*
X154940000Y-91186000D02*
X155194000Y-91440000D01*
X157480000Y-91694000D02*
X157226000Y-91440000D01*
X157226000Y-91440000D02*
X157480000Y-91186000D01*
X157480000Y-93726000D02*
X157480000Y-91694000D01*
X155194000Y-91440000D02*
X154940000Y-91694000D01*
X154940000Y-91694000D02*
X154940000Y-93726000D01*
X157226000Y-93980000D02*
X157480000Y-93726000D01*
X157480000Y-91186000D02*
X157480000Y-89154000D01*
X154940000Y-93726000D02*
X155194000Y-93980000D01*
X154940000Y-89154000D02*
X154940000Y-91186000D01*
X155194000Y-88900000D02*
X154940000Y-89154000D01*
X157480000Y-89154000D02*
X157226000Y-88900000D01*
X157480000Y-94234000D02*
X157226000Y-93980000D01*
X155194000Y-93980000D02*
X154940000Y-94234000D01*
X154940000Y-94234000D02*
X154940000Y-96266000D01*
X154940000Y-98806000D02*
X155194000Y-99060000D01*
X157480000Y-96266000D02*
X157480000Y-94234000D01*
X157226000Y-99060000D02*
X157480000Y-98806000D01*
X154940000Y-96774000D02*
X154940000Y-98806000D01*
X155194000Y-96520000D02*
X154940000Y-96774000D01*
X157480000Y-98806000D02*
X157480000Y-96774000D01*
X157226000Y-96520000D02*
X157480000Y-96266000D01*
X157480000Y-96774000D02*
X157226000Y-96520000D01*
X154940000Y-96266000D02*
X155194000Y-96520000D01*
X154940000Y-98806000D02*
X155194000Y-99060000D01*
X157226000Y-99060000D02*
X157480000Y-98806000D01*
X157480000Y-98806000D02*
X157480000Y-96774000D01*
X154940000Y-96774000D02*
X154940000Y-98806000D01*
X155194000Y-96520000D02*
X154940000Y-96774000D01*
X157480000Y-96774000D02*
X157226000Y-96520000D01*
X157480000Y-101854000D02*
X157226000Y-101600000D01*
X155194000Y-101600000D02*
X154940000Y-101854000D01*
X154940000Y-101854000D02*
X154940000Y-103886000D01*
X157480000Y-103886000D02*
X157480000Y-101854000D01*
X157226000Y-104140000D02*
X157480000Y-103886000D01*
X154940000Y-103886000D02*
X155194000Y-104140000D01*
X154940000Y-101346000D02*
X155194000Y-101600000D01*
X157480000Y-101854000D02*
X157226000Y-101600000D01*
X157226000Y-101600000D02*
X157480000Y-101346000D01*
X157480000Y-103886000D02*
X157480000Y-101854000D01*
X155194000Y-101600000D02*
X154940000Y-101854000D01*
X154940000Y-101854000D02*
X154940000Y-103886000D01*
X157226000Y-104140000D02*
X157480000Y-103886000D01*
X157480000Y-101346000D02*
X157480000Y-99314000D01*
X154940000Y-103886000D02*
X155194000Y-104140000D01*
X154940000Y-99314000D02*
X154940000Y-101346000D01*
X155194000Y-99060000D02*
X154940000Y-99314000D01*
X157480000Y-99314000D02*
X157226000Y-99060000D01*
X157480000Y-109474000D02*
X157226000Y-109220000D01*
X155194000Y-109220000D02*
X154940000Y-109474000D01*
X154940000Y-109474000D02*
X154940000Y-111506000D01*
X154940000Y-114046000D02*
X155194000Y-114300000D01*
X157480000Y-111506000D02*
X157480000Y-109474000D01*
X157226000Y-114300000D02*
X157480000Y-114046000D01*
X154940000Y-112014000D02*
X154940000Y-114046000D01*
X155194000Y-111760000D02*
X154940000Y-112014000D01*
X157480000Y-114046000D02*
X157480000Y-112014000D01*
X157226000Y-111760000D02*
X157480000Y-111506000D01*
X157480000Y-112014000D02*
X157226000Y-111760000D01*
X154940000Y-111506000D02*
X155194000Y-111760000D01*
X154940000Y-114046000D02*
X155194000Y-114300000D01*
X157226000Y-114300000D02*
X157480000Y-114046000D01*
X157480000Y-114046000D02*
X157480000Y-112014000D01*
X154940000Y-112014000D02*
X154940000Y-114046000D01*
X155194000Y-111760000D02*
X154940000Y-112014000D01*
X157480000Y-112014000D02*
X157226000Y-111760000D01*
X157480000Y-106934000D02*
X157226000Y-106680000D01*
X155194000Y-106680000D02*
X154940000Y-106934000D01*
X154940000Y-106934000D02*
X154940000Y-108966000D01*
X157480000Y-108966000D02*
X157480000Y-106934000D01*
X157226000Y-109220000D02*
X157480000Y-108966000D01*
X154940000Y-108966000D02*
X155194000Y-109220000D01*
X154940000Y-106426000D02*
X155194000Y-106680000D01*
X157480000Y-106934000D02*
X157226000Y-106680000D01*
X157226000Y-106680000D02*
X157480000Y-106426000D01*
X157480000Y-108966000D02*
X157480000Y-106934000D01*
X155194000Y-106680000D02*
X154940000Y-106934000D01*
X154940000Y-106934000D02*
X154940000Y-108966000D01*
X157226000Y-109220000D02*
X157480000Y-108966000D01*
X157480000Y-106426000D02*
X157480000Y-104394000D01*
X154940000Y-108966000D02*
X155194000Y-109220000D01*
X154940000Y-104394000D02*
X154940000Y-106426000D01*
X155194000Y-104140000D02*
X154940000Y-104394000D01*
X157480000Y-104394000D02*
X157226000Y-104140000D01*
X129540000Y-114553999D02*
X129540000Y-116585999D01*
X129540000Y-116585999D02*
X129794000Y-116839999D01*
X129794000Y-116839999D02*
X129540000Y-117093999D01*
X129540000Y-117093999D02*
X129540000Y-119125999D01*
X129540000Y-119125999D02*
X129794000Y-119379999D01*
X129794000Y-114299999D02*
X129540000Y-114553999D01*
X132080000Y-114553999D02*
X131826000Y-114299999D01*
X132080000Y-119125999D02*
X132080000Y-117093999D01*
X132080000Y-117093999D02*
X131826000Y-116839999D01*
X131826000Y-116839999D02*
X132080000Y-116585999D01*
X132080000Y-116585999D02*
X132080000Y-114553999D01*
X132080000Y-119125999D02*
X131826000Y-119379999D01*
X132080000Y-119125999D02*
X131826000Y-119379999D01*
X131826000Y-116839999D02*
X132080000Y-116585999D01*
X132080000Y-117093999D02*
X131826000Y-116839999D01*
X132080000Y-119125999D02*
X132080000Y-117093999D01*
X132080000Y-114553999D02*
X131826000Y-114299999D01*
X129794000Y-114299999D02*
X129540000Y-114553999D01*
X129540000Y-119125999D02*
X129794000Y-119379999D01*
X129540000Y-117093999D02*
X129540000Y-119125999D01*
X129794000Y-116839999D02*
X129540000Y-117093999D01*
X129540000Y-116585999D02*
X129794000Y-116839999D01*
X129794000Y-119379999D02*
X131826000Y-119379999D01*
X132080000Y-104393999D02*
X131826000Y-104139999D01*
X129794000Y-104139999D02*
X129540000Y-104393999D01*
X129540000Y-104393999D02*
X129540000Y-106425999D01*
X129540000Y-108965999D02*
X129794000Y-109219999D01*
X132080000Y-106425999D02*
X132080000Y-104393999D01*
X131826000Y-109219999D02*
X132080000Y-108965999D01*
X129540000Y-106933999D02*
X129540000Y-108965999D01*
X129794000Y-106679999D02*
X129540000Y-106933999D01*
X132080000Y-108965999D02*
X132080000Y-106933999D01*
X131826000Y-106679999D02*
X132080000Y-106425999D01*
X132080000Y-106933999D02*
X131826000Y-106679999D01*
X129540000Y-106425999D02*
X129794000Y-106679999D01*
X129540000Y-108965999D02*
X129794000Y-109219999D01*
X131826000Y-109219999D02*
X132080000Y-108965999D01*
X132080000Y-108965999D02*
X132080000Y-106933999D01*
X129540000Y-106933999D02*
X129540000Y-108965999D01*
X129794000Y-106679999D02*
X129540000Y-106933999D01*
X132080000Y-106933999D02*
X131826000Y-106679999D01*
X132080000Y-112013999D02*
X131826000Y-111759999D01*
X129794000Y-111759999D02*
X129540000Y-112013999D01*
X129540000Y-112013999D02*
X129540000Y-114045999D01*
X132080000Y-114045999D02*
X132080000Y-112013999D01*
X131826000Y-114299999D02*
X132080000Y-114045999D01*
X129540000Y-114045999D02*
X129794000Y-114299999D01*
X129540000Y-111505999D02*
X129794000Y-111759999D01*
X132080000Y-112013999D02*
X131826000Y-111759999D01*
X131826000Y-111759999D02*
X132080000Y-111505999D01*
X132080000Y-114045999D02*
X132080000Y-112013999D01*
X129794000Y-111759999D02*
X129540000Y-112013999D01*
X129540000Y-112013999D02*
X129540000Y-114045999D01*
X131826000Y-114299999D02*
X132080000Y-114045999D01*
X132080000Y-111505999D02*
X132080000Y-109473999D01*
X129540000Y-114045999D02*
X129794000Y-114299999D01*
X129540000Y-109473999D02*
X129540000Y-111505999D01*
X129794000Y-109219999D02*
X129540000Y-109473999D01*
X132080000Y-109473999D02*
X131826000Y-109219999D01*
X132080000Y-99313999D02*
X131826000Y-99059999D01*
X129794000Y-99059999D02*
X129540000Y-99313999D01*
X129540000Y-99313999D02*
X129540000Y-101345999D01*
X129540000Y-103885999D02*
X129794000Y-104139999D01*
X132080000Y-101345999D02*
X132080000Y-99313999D01*
X131826000Y-104139999D02*
X132080000Y-103885999D01*
X129540000Y-101853999D02*
X129540000Y-103885999D01*
X129794000Y-101599999D02*
X129540000Y-101853999D01*
X132080000Y-103885999D02*
X132080000Y-101853999D01*
X131826000Y-101599999D02*
X132080000Y-101345999D01*
X132080000Y-101853999D02*
X131826000Y-101599999D01*
X129540000Y-101345999D02*
X129794000Y-101599999D01*
X129540000Y-103885999D02*
X129794000Y-104139999D01*
X131826000Y-104139999D02*
X132080000Y-103885999D01*
X132080000Y-103885999D02*
X132080000Y-101853999D01*
X129540000Y-101853999D02*
X129540000Y-103885999D01*
X129794000Y-101599999D02*
X129540000Y-101853999D01*
X132080000Y-101853999D02*
X131826000Y-101599999D01*
X132080000Y-96773999D02*
X131826000Y-96519999D01*
X129794000Y-96519999D02*
X129540000Y-96773999D01*
X129540000Y-96773999D02*
X129540000Y-98805999D01*
X132080000Y-98805999D02*
X132080000Y-96773999D01*
X131826000Y-99059999D02*
X132080000Y-98805999D01*
X129540000Y-98805999D02*
X129794000Y-99059999D01*
X129540000Y-96265999D02*
X129794000Y-96519999D01*
X132080000Y-96773999D02*
X131826000Y-96519999D01*
X131826000Y-96519999D02*
X132080000Y-96265999D01*
X132080000Y-98805999D02*
X132080000Y-96773999D01*
X129794000Y-96519999D02*
X129540000Y-96773999D01*
X129540000Y-96773999D02*
X129540000Y-98805999D01*
X131826000Y-99059999D02*
X132080000Y-98805999D01*
X132080000Y-96265999D02*
X132080000Y-94233999D01*
X129540000Y-98805999D02*
X129794000Y-99059999D01*
X129540000Y-94233999D02*
X129540000Y-96265999D01*
X129794000Y-93979999D02*
X129540000Y-94233999D01*
X132080000Y-94233999D02*
X131826000Y-93979999D01*
X132080000Y-89153999D02*
X131826000Y-88899999D01*
X129794000Y-88899999D02*
X129540000Y-89153999D01*
X129540000Y-89153999D02*
X129540000Y-91185999D01*
X129540000Y-93725999D02*
X129794000Y-93979999D01*
X132080000Y-91185999D02*
X132080000Y-89153999D01*
X131826000Y-93979999D02*
X132080000Y-93725999D01*
X129540000Y-91693999D02*
X129540000Y-93725999D01*
X129794000Y-91439999D02*
X129540000Y-91693999D01*
X132080000Y-93725999D02*
X132080000Y-91693999D01*
X131826000Y-91439999D02*
X132080000Y-91185999D01*
X132080000Y-91693999D02*
X131826000Y-91439999D01*
X129540000Y-91185999D02*
X129794000Y-91439999D01*
X129540000Y-93725999D02*
X129794000Y-93979999D01*
X131826000Y-93979999D02*
X132080000Y-93725999D01*
X132080000Y-93725999D02*
X132080000Y-91693999D01*
X129540000Y-91693999D02*
X129540000Y-93725999D01*
X129794000Y-91439999D02*
X129540000Y-91693999D01*
X132080000Y-91693999D02*
X131826000Y-91439999D01*
X132080000Y-86613999D02*
X131826000Y-86359999D01*
X129794000Y-86359999D02*
X129540000Y-86613999D01*
X129540000Y-86613999D02*
X129540000Y-88645999D01*
X132080000Y-88645999D02*
X132080000Y-86613999D01*
X131826000Y-88899999D02*
X132080000Y-88645999D01*
X129540000Y-88645999D02*
X129794000Y-88899999D01*
X129540000Y-86105999D02*
X129794000Y-86359999D01*
X132080000Y-86613999D02*
X131826000Y-86359999D01*
X131826000Y-86359999D02*
X132080000Y-86105999D01*
X132080000Y-88645999D02*
X132080000Y-86613999D01*
X129794000Y-86359999D02*
X129540000Y-86613999D01*
X129540000Y-86613999D02*
X129540000Y-88645999D01*
X131826000Y-88899999D02*
X132080000Y-88645999D01*
X132080000Y-86105999D02*
X132080000Y-84073999D01*
X129540000Y-88645999D02*
X129794000Y-88899999D01*
X129540000Y-84073999D02*
X129540000Y-86105999D01*
X129794000Y-83819999D02*
X129540000Y-84073999D01*
X132080000Y-84073999D02*
X131826000Y-83819999D01*
X132080000Y-78993999D02*
X131826000Y-78739999D01*
X129794000Y-78739999D02*
X129540000Y-78993999D01*
X129540000Y-78993999D02*
X129540000Y-81025999D01*
X129540000Y-83565999D02*
X129794000Y-83819999D01*
X132080000Y-81025999D02*
X132080000Y-78993999D01*
X131826000Y-83819999D02*
X132080000Y-83565999D01*
X129540000Y-81533999D02*
X129540000Y-83565999D01*
X129794000Y-81279999D02*
X129540000Y-81533999D01*
X132080000Y-83565999D02*
X132080000Y-81533999D01*
X131826000Y-81279999D02*
X132080000Y-81025999D01*
X132080000Y-81533999D02*
X131826000Y-81279999D01*
X129540000Y-81025999D02*
X129794000Y-81279999D01*
X129540000Y-83565999D02*
X129794000Y-83819999D01*
X131826000Y-83819999D02*
X132080000Y-83565999D01*
X132080000Y-83565999D02*
X132080000Y-81533999D01*
X129540000Y-81533999D02*
X129540000Y-83565999D01*
X129794000Y-81279999D02*
X129540000Y-81533999D01*
X132080000Y-81533999D02*
X131826000Y-81279999D01*
X132080000Y-76453999D02*
X131826000Y-76199999D01*
X129794000Y-76199999D02*
X129540000Y-76453999D01*
X129540000Y-76453999D02*
X129540000Y-78485999D01*
X132080000Y-78485999D02*
X132080000Y-76453999D01*
X131826000Y-78739999D02*
X132080000Y-78485999D01*
X129540000Y-78485999D02*
X129794000Y-78739999D01*
X129540000Y-75945999D02*
X129794000Y-76199999D01*
X132080000Y-76453999D02*
X131826000Y-76199999D01*
X131826000Y-76199999D02*
X132080000Y-75945999D01*
X132080000Y-78485999D02*
X132080000Y-76453999D01*
X129794000Y-76199999D02*
X129540000Y-76453999D01*
X129540000Y-76453999D02*
X129540000Y-78485999D01*
X131826000Y-78739999D02*
X132080000Y-78485999D01*
X132080000Y-71373999D02*
X131826000Y-71119999D01*
X132080000Y-75945999D02*
X132080000Y-73913999D01*
X129540000Y-78485999D02*
X129794000Y-78739999D01*
X129540000Y-73913999D02*
X129540000Y-75945999D01*
X129794000Y-73659999D02*
X129540000Y-73913999D01*
X129540000Y-63499999D02*
X129540000Y-63753999D01*
X129540000Y-63753999D02*
X129540000Y-65785999D01*
X129540000Y-65785999D02*
X129794000Y-66039999D01*
X129794000Y-66039999D02*
X129540000Y-66293999D01*
X129540000Y-66293999D02*
X129540000Y-68325999D01*
X129540000Y-68325999D02*
X129794000Y-68579999D01*
X129794000Y-68579999D02*
X129540000Y-68833999D01*
X129540000Y-68833999D02*
X129540000Y-70865999D01*
X129540000Y-70865999D02*
X129794000Y-71119999D01*
X129794000Y-71119999D02*
X129540000Y-71373999D01*
X129540000Y-71373999D02*
X129540000Y-73405999D01*
X129540000Y-73405999D02*
X129794000Y-73659999D01*
X131826000Y-73659999D02*
X132080000Y-73405999D01*
X132080000Y-73405999D02*
X132080000Y-71373999D01*
X132080000Y-73913999D02*
X131826000Y-73659999D01*
X131826000Y-71119999D02*
X132080000Y-70865999D01*
X132080000Y-70865999D02*
X132080000Y-68833999D01*
X129794000Y-63499999D02*
X129540000Y-63753999D01*
X132080000Y-63753999D02*
X131826000Y-63499999D01*
X132080000Y-64007999D02*
X132080000Y-63499999D01*
X132080000Y-68325999D02*
X132080000Y-66293999D01*
X132080000Y-66293999D02*
X131826000Y-66039999D01*
X131826000Y-66039999D02*
X132080000Y-65785999D01*
X132080000Y-65785999D02*
X132080000Y-64007999D01*
X132080000Y-68325999D02*
X131826000Y-68579999D01*
X131826000Y-68579999D02*
X132080000Y-68833999D01*
X129540000Y-63499999D02*
X132080000Y-63499999D01*
X129540000Y-63499999D02*
X132080000Y-63499999D01*
X131826000Y-68579999D02*
X132080000Y-68833999D01*
X132080000Y-68325999D02*
X131826000Y-68579999D01*
X132080000Y-65785999D02*
X132080000Y-64007999D01*
X131826000Y-66039999D02*
X132080000Y-65785999D01*
X132080000Y-66293999D02*
X131826000Y-66039999D01*
X132080000Y-68325999D02*
X132080000Y-66293999D01*
X132080000Y-64007999D02*
X132080000Y-63499999D01*
X132080000Y-63753999D02*
X131826000Y-63499999D01*
X129794000Y-63499999D02*
X129540000Y-63753999D01*
X132080000Y-70865999D02*
X132080000Y-68833999D01*
X131826000Y-71119999D02*
X132080000Y-70865999D01*
X132080000Y-73913999D02*
X131826000Y-73659999D01*
X132080000Y-73405999D02*
X132080000Y-71373999D01*
X131826000Y-73659999D02*
X132080000Y-73405999D01*
X129540000Y-73405999D02*
X129794000Y-73659999D01*
X129540000Y-71373999D02*
X129540000Y-73405999D01*
X129794000Y-71119999D02*
X129540000Y-71373999D01*
X129540000Y-70865999D02*
X129794000Y-71119999D01*
X129540000Y-68833999D02*
X129540000Y-70865999D01*
X129794000Y-68579999D02*
X129540000Y-68833999D01*
X129540000Y-68325999D02*
X129794000Y-68579999D01*
X129540000Y-66293999D02*
X129540000Y-68325999D01*
X129794000Y-66039999D02*
X129540000Y-66293999D01*
X129540000Y-65785999D02*
X129794000Y-66039999D01*
X129540000Y-63753999D02*
X129540000Y-65785999D01*
X129540000Y-63499999D02*
X129540000Y-63753999D01*
X129794000Y-73659999D02*
X129540000Y-73913999D01*
X129540000Y-73913999D02*
X129540000Y-75945999D01*
X129540000Y-78485999D02*
X129794000Y-78739999D01*
X132080000Y-75945999D02*
X132080000Y-73913999D01*
X132080000Y-71373999D02*
X131826000Y-71119999D01*
X131826000Y-78739999D02*
X132080000Y-78485999D01*
X129540000Y-76453999D02*
X129540000Y-78485999D01*
X129794000Y-76199999D02*
X129540000Y-76453999D01*
X132080000Y-78485999D02*
X132080000Y-76453999D01*
X131826000Y-76199999D02*
X132080000Y-75945999D01*
X132080000Y-76453999D02*
X131826000Y-76199999D01*
X129540000Y-75945999D02*
X129794000Y-76199999D01*
X129540000Y-78485999D02*
X129794000Y-78739999D01*
X131826000Y-78739999D02*
X132080000Y-78485999D01*
X132080000Y-78485999D02*
X132080000Y-76453999D01*
X129540000Y-76453999D02*
X129540000Y-78485999D01*
X129794000Y-76199999D02*
X129540000Y-76453999D01*
X132080000Y-76453999D02*
X131826000Y-76199999D01*
X132080000Y-81533999D02*
X131826000Y-81279999D01*
X129794000Y-81279999D02*
X129540000Y-81533999D01*
X129540000Y-81533999D02*
X129540000Y-83565999D01*
X132080000Y-83565999D02*
X132080000Y-81533999D01*
X131826000Y-83819999D02*
X132080000Y-83565999D01*
X129540000Y-83565999D02*
X129794000Y-83819999D01*
X129540000Y-81025999D02*
X129794000Y-81279999D01*
X132080000Y-81533999D02*
X131826000Y-81279999D01*
X131826000Y-81279999D02*
X132080000Y-81025999D01*
X132080000Y-83565999D02*
X132080000Y-81533999D01*
X129794000Y-81279999D02*
X129540000Y-81533999D01*
X129540000Y-81533999D02*
X129540000Y-83565999D01*
X131826000Y-83819999D02*
X132080000Y-83565999D01*
X132080000Y-81025999D02*
X132080000Y-78993999D01*
X129540000Y-83565999D02*
X129794000Y-83819999D01*
X129540000Y-78993999D02*
X129540000Y-81025999D01*
X129794000Y-78739999D02*
X129540000Y-78993999D01*
X132080000Y-78993999D02*
X131826000Y-78739999D01*
X132080000Y-84073999D02*
X131826000Y-83819999D01*
X129794000Y-83819999D02*
X129540000Y-84073999D01*
X129540000Y-84073999D02*
X129540000Y-86105999D01*
X129540000Y-88645999D02*
X129794000Y-88899999D01*
X132080000Y-86105999D02*
X132080000Y-84073999D01*
X131826000Y-88899999D02*
X132080000Y-88645999D01*
X129540000Y-86613999D02*
X129540000Y-88645999D01*
X129794000Y-86359999D02*
X129540000Y-86613999D01*
X132080000Y-88645999D02*
X132080000Y-86613999D01*
X131826000Y-86359999D02*
X132080000Y-86105999D01*
X132080000Y-86613999D02*
X131826000Y-86359999D01*
X129540000Y-86105999D02*
X129794000Y-86359999D01*
X129540000Y-88645999D02*
X129794000Y-88899999D01*
X131826000Y-88899999D02*
X132080000Y-88645999D01*
X132080000Y-88645999D02*
X132080000Y-86613999D01*
X129540000Y-86613999D02*
X129540000Y-88645999D01*
X129794000Y-86359999D02*
X129540000Y-86613999D01*
X132080000Y-86613999D02*
X131826000Y-86359999D01*
X132080000Y-91693999D02*
X131826000Y-91439999D01*
X129794000Y-91439999D02*
X129540000Y-91693999D01*
X129540000Y-91693999D02*
X129540000Y-93725999D01*
X132080000Y-93725999D02*
X132080000Y-91693999D01*
X131826000Y-93979999D02*
X132080000Y-93725999D01*
X129540000Y-93725999D02*
X129794000Y-93979999D01*
X129540000Y-91185999D02*
X129794000Y-91439999D01*
X132080000Y-91693999D02*
X131826000Y-91439999D01*
X131826000Y-91439999D02*
X132080000Y-91185999D01*
X132080000Y-93725999D02*
X132080000Y-91693999D01*
X129794000Y-91439999D02*
X129540000Y-91693999D01*
X129540000Y-91693999D02*
X129540000Y-93725999D01*
X131826000Y-93979999D02*
X132080000Y-93725999D01*
X132080000Y-91185999D02*
X132080000Y-89153999D01*
X129540000Y-93725999D02*
X129794000Y-93979999D01*
X129540000Y-89153999D02*
X129540000Y-91185999D01*
X129794000Y-88899999D02*
X129540000Y-89153999D01*
X132080000Y-89153999D02*
X131826000Y-88899999D01*
X132080000Y-94233999D02*
X131826000Y-93979999D01*
X129794000Y-93979999D02*
X129540000Y-94233999D01*
X129540000Y-94233999D02*
X129540000Y-96265999D01*
X129540000Y-98805999D02*
X129794000Y-99059999D01*
X132080000Y-96265999D02*
X132080000Y-94233999D01*
X131826000Y-99059999D02*
X132080000Y-98805999D01*
X129540000Y-96773999D02*
X129540000Y-98805999D01*
X129794000Y-96519999D02*
X129540000Y-96773999D01*
X132080000Y-98805999D02*
X132080000Y-96773999D01*
X131826000Y-96519999D02*
X132080000Y-96265999D01*
X132080000Y-96773999D02*
X131826000Y-96519999D01*
X129540000Y-96265999D02*
X129794000Y-96519999D01*
X129540000Y-98805999D02*
X129794000Y-99059999D01*
X131826000Y-99059999D02*
X132080000Y-98805999D01*
X132080000Y-98805999D02*
X132080000Y-96773999D01*
X129540000Y-96773999D02*
X129540000Y-98805999D01*
X129794000Y-96519999D02*
X129540000Y-96773999D01*
X132080000Y-96773999D02*
X131826000Y-96519999D01*
X132080000Y-101853999D02*
X131826000Y-101599999D01*
X129794000Y-101599999D02*
X129540000Y-101853999D01*
X129540000Y-101853999D02*
X129540000Y-103885999D01*
X132080000Y-103885999D02*
X132080000Y-101853999D01*
X131826000Y-104139999D02*
X132080000Y-103885999D01*
X129540000Y-103885999D02*
X129794000Y-104139999D01*
X129540000Y-101345999D02*
X129794000Y-101599999D01*
X132080000Y-101853999D02*
X131826000Y-101599999D01*
X131826000Y-101599999D02*
X132080000Y-101345999D01*
X132080000Y-103885999D02*
X132080000Y-101853999D01*
X129794000Y-101599999D02*
X129540000Y-101853999D01*
X129540000Y-101853999D02*
X129540000Y-103885999D01*
X131826000Y-104139999D02*
X132080000Y-103885999D01*
X132080000Y-101345999D02*
X132080000Y-99313999D01*
X129540000Y-103885999D02*
X129794000Y-104139999D01*
X129540000Y-99313999D02*
X129540000Y-101345999D01*
X129794000Y-99059999D02*
X129540000Y-99313999D01*
X132080000Y-99313999D02*
X131826000Y-99059999D01*
X132080000Y-109473999D02*
X131826000Y-109219999D01*
X129794000Y-109219999D02*
X129540000Y-109473999D01*
X129540000Y-109473999D02*
X129540000Y-111505999D01*
X129540000Y-114045999D02*
X129794000Y-114299999D01*
X132080000Y-111505999D02*
X132080000Y-109473999D01*
X131826000Y-114299999D02*
X132080000Y-114045999D01*
X129540000Y-112013999D02*
X129540000Y-114045999D01*
X129794000Y-111759999D02*
X129540000Y-112013999D01*
X132080000Y-114045999D02*
X132080000Y-112013999D01*
X131826000Y-111759999D02*
X132080000Y-111505999D01*
X132080000Y-112013999D02*
X131826000Y-111759999D01*
X129540000Y-111505999D02*
X129794000Y-111759999D01*
X129540000Y-114045999D02*
X129794000Y-114299999D01*
X131826000Y-114299999D02*
X132080000Y-114045999D01*
X132080000Y-114045999D02*
X132080000Y-112013999D01*
X129540000Y-112013999D02*
X129540000Y-114045999D01*
X129794000Y-111759999D02*
X129540000Y-112013999D01*
X132080000Y-112013999D02*
X131826000Y-111759999D01*
X132080000Y-106933999D02*
X131826000Y-106679999D01*
X129794000Y-106679999D02*
X129540000Y-106933999D01*
X129540000Y-106933999D02*
X129540000Y-108965999D01*
X132080000Y-108965999D02*
X132080000Y-106933999D01*
X131826000Y-109219999D02*
X132080000Y-108965999D01*
X129540000Y-108965999D02*
X129794000Y-109219999D01*
X129540000Y-106425999D02*
X129794000Y-106679999D01*
X132080000Y-106933999D02*
X131826000Y-106679999D01*
X131826000Y-106679999D02*
X132080000Y-106425999D01*
X132080000Y-108965999D02*
X132080000Y-106933999D01*
X129794000Y-106679999D02*
X129540000Y-106933999D01*
X129540000Y-106933999D02*
X129540000Y-108965999D01*
X131826000Y-109219999D02*
X132080000Y-108965999D01*
X132080000Y-106425999D02*
X132080000Y-104393999D01*
X129540000Y-108965999D02*
X129794000Y-109219999D01*
X129540000Y-104393999D02*
X129540000Y-106425999D01*
X129794000Y-104139999D02*
X129540000Y-104393999D01*
X132080000Y-104393999D02*
X131826000Y-104139999D01*
X142695232Y-93105788D02*
X144395232Y-93105788D01*
X144395232Y-92534360D01*
X144314280Y-92391502D01*
X144233327Y-92320074D01*
X144071422Y-92248645D01*
X143828565Y-92248645D01*
X143666660Y-92320074D01*
X143585708Y-92391502D01*
X143504756Y-92534360D01*
X143504756Y-93105788D01*
X142695232Y-91605788D02*
X144395232Y-91605788D01*
X143747613Y-91605788D02*
X143828565Y-91462931D01*
X143828565Y-91177217D01*
X143747613Y-91034360D01*
X143666660Y-90962931D01*
X143504756Y-90891502D01*
X143019041Y-90891502D01*
X142857137Y-90962931D01*
X142776184Y-91034360D01*
X142695232Y-91177217D01*
X142695232Y-91462931D01*
X142776184Y-91605788D01*
X139090620Y-83686298D02*
X139143001Y-83791060D01*
X139195382Y-83843440D01*
X139300144Y-83895821D01*
X139614430Y-83895821D01*
X139719192Y-83843440D01*
X139771573Y-83791060D01*
X139823954Y-83686298D01*
X139823954Y-83529155D01*
X139771573Y-83424393D01*
X139719192Y-83372012D01*
X139614430Y-83319631D01*
X139300144Y-83319631D01*
X139195382Y-83372012D01*
X139143001Y-83424393D01*
X139090620Y-83529155D01*
X139090620Y-83686298D01*
X139823954Y-82848202D02*
X138723954Y-82848202D01*
X139771573Y-82848202D02*
X139823954Y-82743440D01*
X139823954Y-82533917D01*
X139771573Y-82429155D01*
X139719192Y-82376774D01*
X139614430Y-82324393D01*
X139300144Y-82324393D01*
X139195382Y-82376774D01*
X139143001Y-82429155D01*
X139090620Y-82533917D01*
X139090620Y-82743440D01*
X139143001Y-82848202D01*
X139143001Y-81433917D02*
X139090620Y-81538679D01*
X139090620Y-81748202D01*
X139143001Y-81852964D01*
X139247763Y-81905345D01*
X139666811Y-81905345D01*
X139771573Y-81852964D01*
X139823954Y-81748202D01*
X139823954Y-81538679D01*
X139771573Y-81433917D01*
X139666811Y-81381536D01*
X139562049Y-81381536D01*
X139457287Y-81905345D01*
X139823954Y-80910107D02*
X139090620Y-80910107D01*
X139719192Y-80910107D02*
X139771573Y-80857726D01*
X139823954Y-80752964D01*
X139823954Y-80595821D01*
X139771573Y-80491060D01*
X139666811Y-80438679D01*
X139090620Y-80438679D01*
D30*
X139044419Y-79370797D02*
X140044419Y-79370797D01*
X139044419Y-78942225D02*
X139568228Y-78942225D01*
X139663466Y-78989844D01*
X139711085Y-79085082D01*
X139711085Y-79227940D01*
X139663466Y-79323178D01*
X139615847Y-79370797D01*
X139044419Y-78037463D02*
X139568228Y-78037463D01*
X139663466Y-78085082D01*
X139711085Y-78180320D01*
X139711085Y-78370797D01*
X139663466Y-78466035D01*
X139092038Y-78037463D02*
X139044419Y-78132701D01*
X139044419Y-78370797D01*
X139092038Y-78466035D01*
X139187276Y-78513654D01*
X139282514Y-78513654D01*
X139377752Y-78466035D01*
X139425371Y-78370797D01*
X139425371Y-78132701D01*
X139472990Y-78037463D01*
X139044419Y-77561273D02*
X139711085Y-77561273D01*
X139520609Y-77561273D02*
X139615847Y-77513654D01*
X139663466Y-77466035D01*
X139711085Y-77370797D01*
X139711085Y-77275559D01*
X139044419Y-76513654D02*
X140044419Y-76513654D01*
X139092038Y-76513654D02*
X139044419Y-76608892D01*
X139044419Y-76799368D01*
X139092038Y-76894606D01*
X139139657Y-76942225D01*
X139234895Y-76989844D01*
X139520609Y-76989844D01*
X139615847Y-76942225D01*
X139663466Y-76894606D01*
X139711085Y-76799368D01*
X139711085Y-76608892D01*
X139663466Y-76513654D01*
X139711085Y-76132701D02*
X139044419Y-75942225D01*
X139520609Y-75751749D01*
X139044419Y-75561273D01*
X139711085Y-75370797D01*
X139044419Y-74561273D02*
X139568228Y-74561273D01*
X139663466Y-74608892D01*
X139711085Y-74704130D01*
X139711085Y-74894606D01*
X139663466Y-74989844D01*
X139092038Y-74561273D02*
X139044419Y-74656511D01*
X139044419Y-74894606D01*
X139092038Y-74989844D01*
X139187276Y-75037463D01*
X139282514Y-75037463D01*
X139377752Y-74989844D01*
X139425371Y-74894606D01*
X139425371Y-74656511D01*
X139472990Y-74561273D01*
X139044419Y-74085082D02*
X139711085Y-74085082D01*
X139520609Y-74085082D02*
X139615847Y-74037463D01*
X139663466Y-73989844D01*
X139711085Y-73894606D01*
X139711085Y-73799368D01*
X139092038Y-73085082D02*
X139044419Y-73180320D01*
X139044419Y-73370797D01*
X139092038Y-73466035D01*
X139187276Y-73513654D01*
X139568228Y-73513654D01*
X139663466Y-73466035D01*
X139711085Y-73370797D01*
X139711085Y-73180320D01*
X139663466Y-73085082D01*
X139568228Y-73037463D01*
X139472990Y-73037463D01*
X139377752Y-73513654D01*
D11*
X147791714Y-68132476D02*
X147791714Y-67709142D01*
X147126476Y-67527714D02*
X147126476Y-68132476D01*
X148396476Y-68132476D01*
X148396476Y-67527714D01*
X148396476Y-67104380D02*
X147126476Y-66257714D01*
X148396476Y-66257714D02*
X147126476Y-67104380D01*
X148396476Y-65955333D02*
X148396476Y-65229619D01*
X147126476Y-65592476D02*
X148396476Y-65592476D01*
X148275523Y-64866761D02*
X148336000Y-64806285D01*
X148396476Y-64685333D01*
X148396476Y-64382952D01*
X148336000Y-64262000D01*
X148275523Y-64201523D01*
X148154571Y-64141047D01*
X148033619Y-64141047D01*
X147852190Y-64201523D01*
X147126476Y-64927238D01*
X147126476Y-64141047D01*
X139282714Y-68132476D02*
X139282714Y-67709142D01*
X138617476Y-67527714D02*
X138617476Y-68132476D01*
X139887476Y-68132476D01*
X139887476Y-67527714D01*
X139887476Y-67104380D02*
X138617476Y-66257714D01*
X139887476Y-66257714D02*
X138617476Y-67104380D01*
X139887476Y-65955333D02*
X139887476Y-65229619D01*
X138617476Y-65592476D02*
X139887476Y-65592476D01*
X138617476Y-64141047D02*
X138617476Y-64866761D01*
X138617476Y-64503904D02*
X139887476Y-64503904D01*
X139706047Y-64624857D01*
X139585095Y-64745809D01*
X139524619Y-64866761D01*
M02*
