G04 #@! TF.GenerationSoftware,KiCad,Pcbnew,5.1.0-rc2-unknown-036be7d~80~ubuntu16.04.1*
G04 #@! TF.CreationDate,2023-05-16T15:29:05+03:00*
G04 #@! TF.ProjectId,ESP32-S3-DevKit-LiPo_Rev_B,45535033-322d-4533-932d-4465764b6974,B*
G04 #@! TF.SameCoordinates,Original*
G04 #@! TF.FileFunction,Legend,Top*
G04 #@! TF.FilePolarity,Positive*
%FSLAX46Y46*%
G04 Gerber Fmt 4.6, Leading zero omitted, Abs format (unit mm)*
G04 Created by KiCad (PCBNEW 5.1.0-rc2-unknown-036be7d~80~ubuntu16.04.1) date 2023-05-16 15:29:05*
%MOMM*%
%LPD*%
G04 APERTURE LIST*
%ADD10C,0.203200*%
%ADD11C,0.127000*%
%ADD12C,0.750000*%
%ADD13C,0.254000*%
%ADD14C,0.050000*%
%ADD15C,0.100000*%
%ADD16C,0.200000*%
%ADD17C,0.190500*%
%ADD18C,0.158750*%
G04 APERTURE END LIST*
D10*
X148082000Y-109474000D02*
G75*
G03X148082000Y-109474000I-190500J0D01*
G01*
D11*
X131921552Y-118618000D02*
X131873171Y-118593809D01*
X131800600Y-118593809D01*
X131728028Y-118618000D01*
X131679647Y-118666380D01*
X131655457Y-118714761D01*
X131631266Y-118811523D01*
X131631266Y-118884095D01*
X131655457Y-118980857D01*
X131679647Y-119029238D01*
X131728028Y-119077619D01*
X131800600Y-119101809D01*
X131848980Y-119101809D01*
X131921552Y-119077619D01*
X131945742Y-119053428D01*
X131945742Y-118884095D01*
X131848980Y-118884095D01*
X132163457Y-119101809D02*
X132163457Y-118593809D01*
X132453742Y-119101809D01*
X132453742Y-118593809D01*
X132695647Y-119101809D02*
X132695647Y-118593809D01*
X132816600Y-118593809D01*
X132889171Y-118618000D01*
X132937552Y-118666380D01*
X132961742Y-118714761D01*
X132985933Y-118811523D01*
X132985933Y-118884095D01*
X132961742Y-118980857D01*
X132937552Y-119029238D01*
X132889171Y-119077619D01*
X132816600Y-119101809D01*
X132695647Y-119101809D01*
X130060095Y-114555209D02*
X130060095Y-114047209D01*
X130398761Y-114047209D02*
X130495523Y-114047209D01*
X130543904Y-114071400D01*
X130592285Y-114119780D01*
X130616476Y-114216542D01*
X130616476Y-114385876D01*
X130592285Y-114482638D01*
X130543904Y-114531019D01*
X130495523Y-114555209D01*
X130398761Y-114555209D01*
X130350380Y-114531019D01*
X130302000Y-114482638D01*
X130277809Y-114385876D01*
X130277809Y-114216542D01*
X130302000Y-114119780D01*
X130350380Y-114071400D01*
X130398761Y-114047209D01*
X131100285Y-114555209D02*
X130810000Y-114555209D01*
X130955142Y-114555209D02*
X130955142Y-114047209D01*
X130906761Y-114119780D01*
X130858380Y-114168161D01*
X130810000Y-114192352D01*
X131535714Y-114216542D02*
X131535714Y-114555209D01*
X131414761Y-114023019D02*
X131293809Y-114385876D01*
X131608285Y-114385876D01*
X130060095Y-112015209D02*
X130060095Y-111507209D01*
X130398761Y-111507209D02*
X130495523Y-111507209D01*
X130543904Y-111531400D01*
X130592285Y-111579780D01*
X130616476Y-111676542D01*
X130616476Y-111845876D01*
X130592285Y-111942638D01*
X130543904Y-111991019D01*
X130495523Y-112015209D01*
X130398761Y-112015209D01*
X130350380Y-111991019D01*
X130302000Y-111942638D01*
X130277809Y-111845876D01*
X130277809Y-111676542D01*
X130302000Y-111579780D01*
X130350380Y-111531400D01*
X130398761Y-111507209D01*
X131100285Y-112015209D02*
X130810000Y-112015209D01*
X130955142Y-112015209D02*
X130955142Y-111507209D01*
X130906761Y-111579780D01*
X130858380Y-111628161D01*
X130810000Y-111652352D01*
X131269619Y-111507209D02*
X131584095Y-111507209D01*
X131414761Y-111700733D01*
X131487333Y-111700733D01*
X131535714Y-111724923D01*
X131559904Y-111749114D01*
X131584095Y-111797495D01*
X131584095Y-111918447D01*
X131559904Y-111966828D01*
X131535714Y-111991019D01*
X131487333Y-112015209D01*
X131342190Y-112015209D01*
X131293809Y-111991019D01*
X131269619Y-111966828D01*
X130135690Y-108991400D02*
X130087309Y-108967209D01*
X130014738Y-108967209D01*
X129942166Y-108991400D01*
X129893785Y-109039780D01*
X129869595Y-109088161D01*
X129845404Y-109184923D01*
X129845404Y-109257495D01*
X129869595Y-109354257D01*
X129893785Y-109402638D01*
X129942166Y-109451019D01*
X130014738Y-109475209D01*
X130063119Y-109475209D01*
X130135690Y-109451019D01*
X130159880Y-109426828D01*
X130159880Y-109257495D01*
X130063119Y-109257495D01*
X130377595Y-109475209D02*
X130377595Y-108967209D01*
X130571119Y-108967209D01*
X130619500Y-108991400D01*
X130643690Y-109015590D01*
X130667880Y-109063971D01*
X130667880Y-109136542D01*
X130643690Y-109184923D01*
X130619500Y-109209114D01*
X130571119Y-109233304D01*
X130377595Y-109233304D01*
X130885595Y-109475209D02*
X130885595Y-108967209D01*
X131224261Y-108967209D02*
X131321023Y-108967209D01*
X131369404Y-108991400D01*
X131417785Y-109039780D01*
X131441976Y-109136542D01*
X131441976Y-109305876D01*
X131417785Y-109402638D01*
X131369404Y-109451019D01*
X131321023Y-109475209D01*
X131224261Y-109475209D01*
X131175880Y-109451019D01*
X131127500Y-109402638D01*
X131103309Y-109305876D01*
X131103309Y-109136542D01*
X131127500Y-109039780D01*
X131175880Y-108991400D01*
X131224261Y-108967209D01*
X131925785Y-109475209D02*
X131635500Y-109475209D01*
X131780642Y-109475209D02*
X131780642Y-108967209D01*
X131732261Y-109039780D01*
X131683880Y-109088161D01*
X131635500Y-109112352D01*
X132119309Y-109015590D02*
X132143500Y-108991400D01*
X132191880Y-108967209D01*
X132312833Y-108967209D01*
X132361214Y-108991400D01*
X132385404Y-109015590D01*
X132409595Y-109063971D01*
X132409595Y-109112352D01*
X132385404Y-109184923D01*
X132095119Y-109475209D01*
X132409595Y-109475209D01*
X130135690Y-106451400D02*
X130087309Y-106427209D01*
X130014738Y-106427209D01*
X129942166Y-106451400D01*
X129893785Y-106499780D01*
X129869595Y-106548161D01*
X129845404Y-106644923D01*
X129845404Y-106717495D01*
X129869595Y-106814257D01*
X129893785Y-106862638D01*
X129942166Y-106911019D01*
X130014738Y-106935209D01*
X130063119Y-106935209D01*
X130135690Y-106911019D01*
X130159880Y-106886828D01*
X130159880Y-106717495D01*
X130063119Y-106717495D01*
X130377595Y-106935209D02*
X130377595Y-106427209D01*
X130571119Y-106427209D01*
X130619500Y-106451400D01*
X130643690Y-106475590D01*
X130667880Y-106523971D01*
X130667880Y-106596542D01*
X130643690Y-106644923D01*
X130619500Y-106669114D01*
X130571119Y-106693304D01*
X130377595Y-106693304D01*
X130885595Y-106935209D02*
X130885595Y-106427209D01*
X131224261Y-106427209D02*
X131321023Y-106427209D01*
X131369404Y-106451400D01*
X131417785Y-106499780D01*
X131441976Y-106596542D01*
X131441976Y-106765876D01*
X131417785Y-106862638D01*
X131369404Y-106911019D01*
X131321023Y-106935209D01*
X131224261Y-106935209D01*
X131175880Y-106911019D01*
X131127500Y-106862638D01*
X131103309Y-106765876D01*
X131103309Y-106596542D01*
X131127500Y-106499780D01*
X131175880Y-106451400D01*
X131224261Y-106427209D01*
X131925785Y-106935209D02*
X131635500Y-106935209D01*
X131780642Y-106935209D02*
X131780642Y-106427209D01*
X131732261Y-106499780D01*
X131683880Y-106548161D01*
X131635500Y-106572352D01*
X132409595Y-106935209D02*
X132119309Y-106935209D01*
X132264452Y-106935209D02*
X132264452Y-106427209D01*
X132216071Y-106499780D01*
X132167690Y-106548161D01*
X132119309Y-106572352D01*
X130135690Y-103911400D02*
X130087309Y-103887209D01*
X130014738Y-103887209D01*
X129942166Y-103911400D01*
X129893785Y-103959780D01*
X129869595Y-104008161D01*
X129845404Y-104104923D01*
X129845404Y-104177495D01*
X129869595Y-104274257D01*
X129893785Y-104322638D01*
X129942166Y-104371019D01*
X130014738Y-104395209D01*
X130063119Y-104395209D01*
X130135690Y-104371019D01*
X130159880Y-104346828D01*
X130159880Y-104177495D01*
X130063119Y-104177495D01*
X130377595Y-104395209D02*
X130377595Y-103887209D01*
X130571119Y-103887209D01*
X130619500Y-103911400D01*
X130643690Y-103935590D01*
X130667880Y-103983971D01*
X130667880Y-104056542D01*
X130643690Y-104104923D01*
X130619500Y-104129114D01*
X130571119Y-104153304D01*
X130377595Y-104153304D01*
X130885595Y-104395209D02*
X130885595Y-103887209D01*
X131224261Y-103887209D02*
X131321023Y-103887209D01*
X131369404Y-103911400D01*
X131417785Y-103959780D01*
X131441976Y-104056542D01*
X131441976Y-104225876D01*
X131417785Y-104322638D01*
X131369404Y-104371019D01*
X131321023Y-104395209D01*
X131224261Y-104395209D01*
X131175880Y-104371019D01*
X131127500Y-104322638D01*
X131103309Y-104225876D01*
X131103309Y-104056542D01*
X131127500Y-103959780D01*
X131175880Y-103911400D01*
X131224261Y-103887209D01*
X131925785Y-104395209D02*
X131635500Y-104395209D01*
X131780642Y-104395209D02*
X131780642Y-103887209D01*
X131732261Y-103959780D01*
X131683880Y-104008161D01*
X131635500Y-104032352D01*
X132240261Y-103887209D02*
X132288642Y-103887209D01*
X132337023Y-103911400D01*
X132361214Y-103935590D01*
X132385404Y-103983971D01*
X132409595Y-104080733D01*
X132409595Y-104201685D01*
X132385404Y-104298447D01*
X132361214Y-104346828D01*
X132337023Y-104371019D01*
X132288642Y-104395209D01*
X132240261Y-104395209D01*
X132191880Y-104371019D01*
X132167690Y-104346828D01*
X132143500Y-104298447D01*
X132119309Y-104201685D01*
X132119309Y-104080733D01*
X132143500Y-103983971D01*
X132167690Y-103935590D01*
X132191880Y-103911400D01*
X132240261Y-103887209D01*
X130123595Y-101371400D02*
X130075214Y-101347209D01*
X130002642Y-101347209D01*
X129930071Y-101371400D01*
X129881690Y-101419780D01*
X129857500Y-101468161D01*
X129833309Y-101564923D01*
X129833309Y-101637495D01*
X129857500Y-101734257D01*
X129881690Y-101782638D01*
X129930071Y-101831019D01*
X130002642Y-101855209D01*
X130051023Y-101855209D01*
X130123595Y-101831019D01*
X130147785Y-101806828D01*
X130147785Y-101637495D01*
X130051023Y-101637495D01*
X130365500Y-101855209D02*
X130365500Y-101347209D01*
X130559023Y-101347209D01*
X130607404Y-101371400D01*
X130631595Y-101395590D01*
X130655785Y-101443971D01*
X130655785Y-101516542D01*
X130631595Y-101564923D01*
X130607404Y-101589114D01*
X130559023Y-101613304D01*
X130365500Y-101613304D01*
X130873500Y-101855209D02*
X130873500Y-101347209D01*
X131212166Y-101347209D02*
X131308928Y-101347209D01*
X131357309Y-101371400D01*
X131405690Y-101419780D01*
X131429880Y-101516542D01*
X131429880Y-101685876D01*
X131405690Y-101782638D01*
X131357309Y-101831019D01*
X131308928Y-101855209D01*
X131212166Y-101855209D01*
X131163785Y-101831019D01*
X131115404Y-101782638D01*
X131091214Y-101685876D01*
X131091214Y-101516542D01*
X131115404Y-101419780D01*
X131163785Y-101371400D01*
X131212166Y-101347209D01*
X131671785Y-101855209D02*
X131768547Y-101855209D01*
X131816928Y-101831019D01*
X131841119Y-101806828D01*
X131889500Y-101734257D01*
X131913690Y-101637495D01*
X131913690Y-101443971D01*
X131889500Y-101395590D01*
X131865309Y-101371400D01*
X131816928Y-101347209D01*
X131720166Y-101347209D01*
X131671785Y-101371400D01*
X131647595Y-101395590D01*
X131623404Y-101443971D01*
X131623404Y-101564923D01*
X131647595Y-101613304D01*
X131671785Y-101637495D01*
X131720166Y-101661685D01*
X131816928Y-101661685D01*
X131865309Y-101637495D01*
X131889500Y-101613304D01*
X131913690Y-101564923D01*
X130135690Y-98831400D02*
X130087309Y-98807209D01*
X130014738Y-98807209D01*
X129942166Y-98831400D01*
X129893785Y-98879780D01*
X129869595Y-98928161D01*
X129845404Y-99024923D01*
X129845404Y-99097495D01*
X129869595Y-99194257D01*
X129893785Y-99242638D01*
X129942166Y-99291019D01*
X130014738Y-99315209D01*
X130063119Y-99315209D01*
X130135690Y-99291019D01*
X130159880Y-99266828D01*
X130159880Y-99097495D01*
X130063119Y-99097495D01*
X130377595Y-99315209D02*
X130377595Y-98807209D01*
X130571119Y-98807209D01*
X130619500Y-98831400D01*
X130643690Y-98855590D01*
X130667880Y-98903971D01*
X130667880Y-98976542D01*
X130643690Y-99024923D01*
X130619500Y-99049114D01*
X130571119Y-99073304D01*
X130377595Y-99073304D01*
X130885595Y-99315209D02*
X130885595Y-98807209D01*
X131224261Y-98807209D02*
X131321023Y-98807209D01*
X131369404Y-98831400D01*
X131417785Y-98879780D01*
X131441976Y-98976542D01*
X131441976Y-99145876D01*
X131417785Y-99242638D01*
X131369404Y-99291019D01*
X131321023Y-99315209D01*
X131224261Y-99315209D01*
X131175880Y-99291019D01*
X131127500Y-99242638D01*
X131103309Y-99145876D01*
X131103309Y-98976542D01*
X131127500Y-98879780D01*
X131175880Y-98831400D01*
X131224261Y-98807209D01*
X131877404Y-98976542D02*
X131877404Y-99315209D01*
X131756452Y-98783019D02*
X131635500Y-99145876D01*
X131949976Y-99145876D01*
X132361214Y-98807209D02*
X132264452Y-98807209D01*
X132216071Y-98831400D01*
X132191880Y-98855590D01*
X132143500Y-98928161D01*
X132119309Y-99024923D01*
X132119309Y-99218447D01*
X132143500Y-99266828D01*
X132167690Y-99291019D01*
X132216071Y-99315209D01*
X132312833Y-99315209D01*
X132361214Y-99291019D01*
X132385404Y-99266828D01*
X132409595Y-99218447D01*
X132409595Y-99097495D01*
X132385404Y-99049114D01*
X132361214Y-99024923D01*
X132312833Y-99000733D01*
X132216071Y-99000733D01*
X132167690Y-99024923D01*
X132143500Y-99049114D01*
X132119309Y-99097495D01*
X130156857Y-116901685D02*
X130543904Y-116901685D01*
X130350380Y-117095209D02*
X130350380Y-116708161D01*
X131027714Y-116587209D02*
X130785809Y-116587209D01*
X130761619Y-116829114D01*
X130785809Y-116804923D01*
X130834190Y-116780733D01*
X130955142Y-116780733D01*
X131003523Y-116804923D01*
X131027714Y-116829114D01*
X131051904Y-116877495D01*
X131051904Y-116998447D01*
X131027714Y-117046828D01*
X131003523Y-117071019D01*
X130955142Y-117095209D01*
X130834190Y-117095209D01*
X130785809Y-117071019D01*
X130761619Y-117046828D01*
X131197047Y-116587209D02*
X131366380Y-117095209D01*
X131535714Y-116587209D01*
X130123595Y-96291400D02*
X130075214Y-96267209D01*
X130002642Y-96267209D01*
X129930071Y-96291400D01*
X129881690Y-96339780D01*
X129857500Y-96388161D01*
X129833309Y-96484923D01*
X129833309Y-96557495D01*
X129857500Y-96654257D01*
X129881690Y-96702638D01*
X129930071Y-96751019D01*
X130002642Y-96775209D01*
X130051023Y-96775209D01*
X130123595Y-96751019D01*
X130147785Y-96726828D01*
X130147785Y-96557495D01*
X130051023Y-96557495D01*
X130365500Y-96775209D02*
X130365500Y-96267209D01*
X130559023Y-96267209D01*
X130607404Y-96291400D01*
X130631595Y-96315590D01*
X130655785Y-96363971D01*
X130655785Y-96436542D01*
X130631595Y-96484923D01*
X130607404Y-96509114D01*
X130559023Y-96533304D01*
X130365500Y-96533304D01*
X130873500Y-96775209D02*
X130873500Y-96267209D01*
X131212166Y-96267209D02*
X131308928Y-96267209D01*
X131357309Y-96291400D01*
X131405690Y-96339780D01*
X131429880Y-96436542D01*
X131429880Y-96605876D01*
X131405690Y-96702638D01*
X131357309Y-96751019D01*
X131308928Y-96775209D01*
X131212166Y-96775209D01*
X131163785Y-96751019D01*
X131115404Y-96702638D01*
X131091214Y-96605876D01*
X131091214Y-96436542D01*
X131115404Y-96339780D01*
X131163785Y-96291400D01*
X131212166Y-96267209D01*
X131599214Y-96267209D02*
X131913690Y-96267209D01*
X131744357Y-96460733D01*
X131816928Y-96460733D01*
X131865309Y-96484923D01*
X131889500Y-96509114D01*
X131913690Y-96557495D01*
X131913690Y-96678447D01*
X131889500Y-96726828D01*
X131865309Y-96751019D01*
X131816928Y-96775209D01*
X131671785Y-96775209D01*
X131623404Y-96751019D01*
X131599214Y-96726828D01*
X130123595Y-81051400D02*
X130075214Y-81027209D01*
X130002642Y-81027209D01*
X129930071Y-81051400D01*
X129881690Y-81099780D01*
X129857500Y-81148161D01*
X129833309Y-81244923D01*
X129833309Y-81317495D01*
X129857500Y-81414257D01*
X129881690Y-81462638D01*
X129930071Y-81511019D01*
X130002642Y-81535209D01*
X130051023Y-81535209D01*
X130123595Y-81511019D01*
X130147785Y-81486828D01*
X130147785Y-81317495D01*
X130051023Y-81317495D01*
X130365500Y-81535209D02*
X130365500Y-81027209D01*
X130559023Y-81027209D01*
X130607404Y-81051400D01*
X130631595Y-81075590D01*
X130655785Y-81123971D01*
X130655785Y-81196542D01*
X130631595Y-81244923D01*
X130607404Y-81269114D01*
X130559023Y-81293304D01*
X130365500Y-81293304D01*
X130873500Y-81535209D02*
X130873500Y-81027209D01*
X131212166Y-81027209D02*
X131308928Y-81027209D01*
X131357309Y-81051400D01*
X131405690Y-81099780D01*
X131429880Y-81196542D01*
X131429880Y-81365876D01*
X131405690Y-81462638D01*
X131357309Y-81511019D01*
X131308928Y-81535209D01*
X131212166Y-81535209D01*
X131163785Y-81511019D01*
X131115404Y-81462638D01*
X131091214Y-81365876D01*
X131091214Y-81196542D01*
X131115404Y-81099780D01*
X131163785Y-81051400D01*
X131212166Y-81027209D01*
X131599214Y-81027209D02*
X131937880Y-81027209D01*
X131720166Y-81535209D01*
X130123595Y-78511400D02*
X130075214Y-78487209D01*
X130002642Y-78487209D01*
X129930071Y-78511400D01*
X129881690Y-78559780D01*
X129857500Y-78608161D01*
X129833309Y-78704923D01*
X129833309Y-78777495D01*
X129857500Y-78874257D01*
X129881690Y-78922638D01*
X129930071Y-78971019D01*
X130002642Y-78995209D01*
X130051023Y-78995209D01*
X130123595Y-78971019D01*
X130147785Y-78946828D01*
X130147785Y-78777495D01*
X130051023Y-78777495D01*
X130365500Y-78995209D02*
X130365500Y-78487209D01*
X130559023Y-78487209D01*
X130607404Y-78511400D01*
X130631595Y-78535590D01*
X130655785Y-78583971D01*
X130655785Y-78656542D01*
X130631595Y-78704923D01*
X130607404Y-78729114D01*
X130559023Y-78753304D01*
X130365500Y-78753304D01*
X130873500Y-78995209D02*
X130873500Y-78487209D01*
X131212166Y-78487209D02*
X131308928Y-78487209D01*
X131357309Y-78511400D01*
X131405690Y-78559780D01*
X131429880Y-78656542D01*
X131429880Y-78825876D01*
X131405690Y-78922638D01*
X131357309Y-78971019D01*
X131308928Y-78995209D01*
X131212166Y-78995209D01*
X131163785Y-78971019D01*
X131115404Y-78922638D01*
X131091214Y-78825876D01*
X131091214Y-78656542D01*
X131115404Y-78559780D01*
X131163785Y-78511400D01*
X131212166Y-78487209D01*
X131865309Y-78487209D02*
X131768547Y-78487209D01*
X131720166Y-78511400D01*
X131695976Y-78535590D01*
X131647595Y-78608161D01*
X131623404Y-78704923D01*
X131623404Y-78898447D01*
X131647595Y-78946828D01*
X131671785Y-78971019D01*
X131720166Y-78995209D01*
X131816928Y-78995209D01*
X131865309Y-78971019D01*
X131889500Y-78946828D01*
X131913690Y-78898447D01*
X131913690Y-78777495D01*
X131889500Y-78729114D01*
X131865309Y-78704923D01*
X131816928Y-78680733D01*
X131720166Y-78680733D01*
X131671785Y-78704923D01*
X131647595Y-78729114D01*
X131623404Y-78777495D01*
X130123595Y-75971400D02*
X130075214Y-75947209D01*
X130002642Y-75947209D01*
X129930071Y-75971400D01*
X129881690Y-76019780D01*
X129857500Y-76068161D01*
X129833309Y-76164923D01*
X129833309Y-76237495D01*
X129857500Y-76334257D01*
X129881690Y-76382638D01*
X129930071Y-76431019D01*
X130002642Y-76455209D01*
X130051023Y-76455209D01*
X130123595Y-76431019D01*
X130147785Y-76406828D01*
X130147785Y-76237495D01*
X130051023Y-76237495D01*
X130365500Y-76455209D02*
X130365500Y-75947209D01*
X130559023Y-75947209D01*
X130607404Y-75971400D01*
X130631595Y-75995590D01*
X130655785Y-76043971D01*
X130655785Y-76116542D01*
X130631595Y-76164923D01*
X130607404Y-76189114D01*
X130559023Y-76213304D01*
X130365500Y-76213304D01*
X130873500Y-76455209D02*
X130873500Y-75947209D01*
X131212166Y-75947209D02*
X131308928Y-75947209D01*
X131357309Y-75971400D01*
X131405690Y-76019780D01*
X131429880Y-76116542D01*
X131429880Y-76285876D01*
X131405690Y-76382638D01*
X131357309Y-76431019D01*
X131308928Y-76455209D01*
X131212166Y-76455209D01*
X131163785Y-76431019D01*
X131115404Y-76382638D01*
X131091214Y-76285876D01*
X131091214Y-76116542D01*
X131115404Y-76019780D01*
X131163785Y-75971400D01*
X131212166Y-75947209D01*
X131889500Y-75947209D02*
X131647595Y-75947209D01*
X131623404Y-76189114D01*
X131647595Y-76164923D01*
X131695976Y-76140733D01*
X131816928Y-76140733D01*
X131865309Y-76164923D01*
X131889500Y-76189114D01*
X131913690Y-76237495D01*
X131913690Y-76358447D01*
X131889500Y-76406828D01*
X131865309Y-76431019D01*
X131816928Y-76455209D01*
X131695976Y-76455209D01*
X131647595Y-76431019D01*
X131623404Y-76406828D01*
X129794000Y-68641685D02*
X130181047Y-68641685D01*
X129987523Y-68835209D02*
X129987523Y-68448161D01*
X130374571Y-68327209D02*
X130689047Y-68327209D01*
X130519714Y-68520733D01*
X130592285Y-68520733D01*
X130640666Y-68544923D01*
X130664857Y-68569114D01*
X130689047Y-68617495D01*
X130689047Y-68738447D01*
X130664857Y-68786828D01*
X130640666Y-68811019D01*
X130592285Y-68835209D01*
X130447142Y-68835209D01*
X130398761Y-68811019D01*
X130374571Y-68786828D01*
X130906761Y-68786828D02*
X130930952Y-68811019D01*
X130906761Y-68835209D01*
X130882571Y-68811019D01*
X130906761Y-68786828D01*
X130906761Y-68835209D01*
X131100285Y-68327209D02*
X131414761Y-68327209D01*
X131245428Y-68520733D01*
X131318000Y-68520733D01*
X131366380Y-68544923D01*
X131390571Y-68569114D01*
X131414761Y-68617495D01*
X131414761Y-68738447D01*
X131390571Y-68786828D01*
X131366380Y-68811019D01*
X131318000Y-68835209D01*
X131172857Y-68835209D01*
X131124476Y-68811019D01*
X131100285Y-68786828D01*
X131559904Y-68327209D02*
X131729238Y-68835209D01*
X131898571Y-68327209D01*
X154324352Y-118618000D02*
X154275971Y-118593809D01*
X154203400Y-118593809D01*
X154130828Y-118618000D01*
X154082447Y-118666380D01*
X154058257Y-118714761D01*
X154034066Y-118811523D01*
X154034066Y-118884095D01*
X154058257Y-118980857D01*
X154082447Y-119029238D01*
X154130828Y-119077619D01*
X154203400Y-119101809D01*
X154251780Y-119101809D01*
X154324352Y-119077619D01*
X154348542Y-119053428D01*
X154348542Y-118884095D01*
X154251780Y-118884095D01*
X154566257Y-119101809D02*
X154566257Y-118593809D01*
X154856542Y-119101809D01*
X154856542Y-118593809D01*
X155098447Y-119101809D02*
X155098447Y-118593809D01*
X155219400Y-118593809D01*
X155291971Y-118618000D01*
X155340352Y-118666380D01*
X155364542Y-118714761D01*
X155388733Y-118811523D01*
X155388733Y-118884095D01*
X155364542Y-118980857D01*
X155340352Y-119029238D01*
X155291971Y-119077619D01*
X155219400Y-119101809D01*
X155098447Y-119101809D01*
X155485495Y-114555209D02*
X155485495Y-114047209D01*
X155824161Y-114047209D02*
X155920923Y-114047209D01*
X155969304Y-114071400D01*
X156017685Y-114119780D01*
X156041876Y-114216542D01*
X156041876Y-114385876D01*
X156017685Y-114482638D01*
X155969304Y-114531019D01*
X155920923Y-114555209D01*
X155824161Y-114555209D01*
X155775780Y-114531019D01*
X155727400Y-114482638D01*
X155703209Y-114385876D01*
X155703209Y-114216542D01*
X155727400Y-114119780D01*
X155775780Y-114071400D01*
X155824161Y-114047209D01*
X156525685Y-114555209D02*
X156235400Y-114555209D01*
X156380542Y-114555209D02*
X156380542Y-114047209D01*
X156332161Y-114119780D01*
X156283780Y-114168161D01*
X156235400Y-114192352D01*
X156767590Y-114555209D02*
X156864352Y-114555209D01*
X156912733Y-114531019D01*
X156936923Y-114506828D01*
X156985304Y-114434257D01*
X157009495Y-114337495D01*
X157009495Y-114143971D01*
X156985304Y-114095590D01*
X156961114Y-114071400D01*
X156912733Y-114047209D01*
X156815971Y-114047209D01*
X156767590Y-114071400D01*
X156743400Y-114095590D01*
X156719209Y-114143971D01*
X156719209Y-114264923D01*
X156743400Y-114313304D01*
X156767590Y-114337495D01*
X156815971Y-114361685D01*
X156912733Y-114361685D01*
X156961114Y-114337495D01*
X156985304Y-114313304D01*
X157009495Y-114264923D01*
X155460095Y-112015209D02*
X155460095Y-111507209D01*
X155798761Y-111507209D02*
X155895523Y-111507209D01*
X155943904Y-111531400D01*
X155992285Y-111579780D01*
X156016476Y-111676542D01*
X156016476Y-111845876D01*
X155992285Y-111942638D01*
X155943904Y-111991019D01*
X155895523Y-112015209D01*
X155798761Y-112015209D01*
X155750380Y-111991019D01*
X155702000Y-111942638D01*
X155677809Y-111845876D01*
X155677809Y-111676542D01*
X155702000Y-111579780D01*
X155750380Y-111531400D01*
X155798761Y-111507209D01*
X156210000Y-111555590D02*
X156234190Y-111531400D01*
X156282571Y-111507209D01*
X156403523Y-111507209D01*
X156451904Y-111531400D01*
X156476095Y-111555590D01*
X156500285Y-111603971D01*
X156500285Y-111652352D01*
X156476095Y-111724923D01*
X156185809Y-112015209D01*
X156500285Y-112015209D01*
X156814761Y-111507209D02*
X156863142Y-111507209D01*
X156911523Y-111531400D01*
X156935714Y-111555590D01*
X156959904Y-111603971D01*
X156984095Y-111700733D01*
X156984095Y-111821685D01*
X156959904Y-111918447D01*
X156935714Y-111966828D01*
X156911523Y-111991019D01*
X156863142Y-112015209D01*
X156814761Y-112015209D01*
X156766380Y-111991019D01*
X156742190Y-111966828D01*
X156718000Y-111918447D01*
X156693809Y-111821685D01*
X156693809Y-111700733D01*
X156718000Y-111603971D01*
X156742190Y-111555590D01*
X156766380Y-111531400D01*
X156814761Y-111507209D01*
X154964190Y-96291400D02*
X154915809Y-96267209D01*
X154843238Y-96267209D01*
X154770666Y-96291400D01*
X154722285Y-96339780D01*
X154698095Y-96388161D01*
X154673904Y-96484923D01*
X154673904Y-96557495D01*
X154698095Y-96654257D01*
X154722285Y-96702638D01*
X154770666Y-96751019D01*
X154843238Y-96775209D01*
X154891619Y-96775209D01*
X154964190Y-96751019D01*
X154988380Y-96726828D01*
X154988380Y-96557495D01*
X154891619Y-96557495D01*
X155206095Y-96775209D02*
X155206095Y-96267209D01*
X155399619Y-96267209D01*
X155448000Y-96291400D01*
X155472190Y-96315590D01*
X155496380Y-96363971D01*
X155496380Y-96436542D01*
X155472190Y-96484923D01*
X155448000Y-96509114D01*
X155399619Y-96533304D01*
X155206095Y-96533304D01*
X155714095Y-96775209D02*
X155714095Y-96267209D01*
X156052761Y-96267209D02*
X156149523Y-96267209D01*
X156197904Y-96291400D01*
X156246285Y-96339780D01*
X156270476Y-96436542D01*
X156270476Y-96605876D01*
X156246285Y-96702638D01*
X156197904Y-96751019D01*
X156149523Y-96775209D01*
X156052761Y-96775209D01*
X156004380Y-96751019D01*
X155956000Y-96702638D01*
X155931809Y-96605876D01*
X155931809Y-96436542D01*
X155956000Y-96339780D01*
X156004380Y-96291400D01*
X156052761Y-96267209D01*
X156439809Y-96267209D02*
X156754285Y-96267209D01*
X156584952Y-96460733D01*
X156657523Y-96460733D01*
X156705904Y-96484923D01*
X156730095Y-96509114D01*
X156754285Y-96557495D01*
X156754285Y-96678447D01*
X156730095Y-96726828D01*
X156705904Y-96751019D01*
X156657523Y-96775209D01*
X156512380Y-96775209D01*
X156464000Y-96751019D01*
X156439809Y-96726828D01*
X157213904Y-96267209D02*
X156972000Y-96267209D01*
X156947809Y-96509114D01*
X156972000Y-96484923D01*
X157020380Y-96460733D01*
X157141333Y-96460733D01*
X157189714Y-96484923D01*
X157213904Y-96509114D01*
X157238095Y-96557495D01*
X157238095Y-96678447D01*
X157213904Y-96726828D01*
X157189714Y-96751019D01*
X157141333Y-96775209D01*
X157020380Y-96775209D01*
X156972000Y-96751019D01*
X156947809Y-96726828D01*
X155091190Y-88671400D02*
X155042809Y-88647209D01*
X154970238Y-88647209D01*
X154897666Y-88671400D01*
X154849285Y-88719780D01*
X154825095Y-88768161D01*
X154800904Y-88864923D01*
X154800904Y-88937495D01*
X154825095Y-89034257D01*
X154849285Y-89082638D01*
X154897666Y-89131019D01*
X154970238Y-89155209D01*
X155018619Y-89155209D01*
X155091190Y-89131019D01*
X155115380Y-89106828D01*
X155115380Y-88937495D01*
X155018619Y-88937495D01*
X155333095Y-89155209D02*
X155333095Y-88647209D01*
X155526619Y-88647209D01*
X155575000Y-88671400D01*
X155599190Y-88695590D01*
X155623380Y-88743971D01*
X155623380Y-88816542D01*
X155599190Y-88864923D01*
X155575000Y-88889114D01*
X155526619Y-88913304D01*
X155333095Y-88913304D01*
X155841095Y-89155209D02*
X155841095Y-88647209D01*
X156179761Y-88647209D02*
X156276523Y-88647209D01*
X156324904Y-88671400D01*
X156373285Y-88719780D01*
X156397476Y-88816542D01*
X156397476Y-88985876D01*
X156373285Y-89082638D01*
X156324904Y-89131019D01*
X156276523Y-89155209D01*
X156179761Y-89155209D01*
X156131380Y-89131019D01*
X156083000Y-89082638D01*
X156058809Y-88985876D01*
X156058809Y-88816542D01*
X156083000Y-88719780D01*
X156131380Y-88671400D01*
X156179761Y-88647209D01*
X156566809Y-88647209D02*
X156881285Y-88647209D01*
X156711952Y-88840733D01*
X156784523Y-88840733D01*
X156832904Y-88864923D01*
X156857095Y-88889114D01*
X156881285Y-88937495D01*
X156881285Y-89058447D01*
X156857095Y-89106828D01*
X156832904Y-89131019D01*
X156784523Y-89155209D01*
X156639380Y-89155209D01*
X156591000Y-89131019D01*
X156566809Y-89106828D01*
X157171571Y-88864923D02*
X157123190Y-88840733D01*
X157099000Y-88816542D01*
X157074809Y-88768161D01*
X157074809Y-88743971D01*
X157099000Y-88695590D01*
X157123190Y-88671400D01*
X157171571Y-88647209D01*
X157268333Y-88647209D01*
X157316714Y-88671400D01*
X157340904Y-88695590D01*
X157365095Y-88743971D01*
X157365095Y-88768161D01*
X157340904Y-88816542D01*
X157316714Y-88840733D01*
X157268333Y-88864923D01*
X157171571Y-88864923D01*
X157123190Y-88889114D01*
X157099000Y-88913304D01*
X157074809Y-88961685D01*
X157074809Y-89058447D01*
X157099000Y-89106828D01*
X157123190Y-89131019D01*
X157171571Y-89155209D01*
X157268333Y-89155209D01*
X157316714Y-89131019D01*
X157340904Y-89106828D01*
X157365095Y-89058447D01*
X157365095Y-88961685D01*
X157340904Y-88913304D01*
X157316714Y-88889114D01*
X157268333Y-88864923D01*
X154964190Y-81051400D02*
X154915809Y-81027209D01*
X154843238Y-81027209D01*
X154770666Y-81051400D01*
X154722285Y-81099780D01*
X154698095Y-81148161D01*
X154673904Y-81244923D01*
X154673904Y-81317495D01*
X154698095Y-81414257D01*
X154722285Y-81462638D01*
X154770666Y-81511019D01*
X154843238Y-81535209D01*
X154891619Y-81535209D01*
X154964190Y-81511019D01*
X154988380Y-81486828D01*
X154988380Y-81317495D01*
X154891619Y-81317495D01*
X155206095Y-81535209D02*
X155206095Y-81027209D01*
X155399619Y-81027209D01*
X155448000Y-81051400D01*
X155472190Y-81075590D01*
X155496380Y-81123971D01*
X155496380Y-81196542D01*
X155472190Y-81244923D01*
X155448000Y-81269114D01*
X155399619Y-81293304D01*
X155206095Y-81293304D01*
X155714095Y-81535209D02*
X155714095Y-81027209D01*
X156052761Y-81027209D02*
X156149523Y-81027209D01*
X156197904Y-81051400D01*
X156246285Y-81099780D01*
X156270476Y-81196542D01*
X156270476Y-81365876D01*
X156246285Y-81462638D01*
X156197904Y-81511019D01*
X156149523Y-81535209D01*
X156052761Y-81535209D01*
X156004380Y-81511019D01*
X155956000Y-81462638D01*
X155931809Y-81365876D01*
X155931809Y-81196542D01*
X155956000Y-81099780D01*
X156004380Y-81051400D01*
X156052761Y-81027209D01*
X156705904Y-81196542D02*
X156705904Y-81535209D01*
X156584952Y-81003019D02*
X156464000Y-81365876D01*
X156778476Y-81365876D01*
X157238095Y-81535209D02*
X156947809Y-81535209D01*
X157092952Y-81535209D02*
X157092952Y-81027209D01*
X157044571Y-81099780D01*
X156996190Y-81148161D01*
X156947809Y-81172352D01*
D12*
X105994298Y-153212144D02*
X105994298Y-156212143D01*
X104280013Y-153212144D02*
X104280013Y-156212143D01*
X106280012Y-156212143D01*
X106280012Y-156926428D01*
X108565726Y-156069286D02*
X108280012Y-156212143D01*
X107708583Y-156212143D01*
X107422869Y-156069286D01*
X107280012Y-155783572D01*
X107280012Y-154640715D01*
X107422869Y-154355001D01*
X107708583Y-154212144D01*
X108280012Y-154212144D01*
X108565726Y-154355001D01*
X108708583Y-154640715D01*
X108708583Y-154926429D01*
X107280012Y-155212143D01*
X111280011Y-154212144D02*
X111280011Y-156212143D01*
X109994297Y-154212144D02*
X109994297Y-156212143D01*
X111565725Y-156212143D01*
X111565725Y-156926428D01*
X113137153Y-156212143D02*
X112851439Y-156069286D01*
X112708582Y-155926429D01*
X112565725Y-155640715D01*
X112565725Y-154783572D01*
X112708582Y-154497858D01*
X112851439Y-154355001D01*
X113137153Y-154212144D01*
X113565724Y-154212144D01*
X113851438Y-154355001D01*
X113994295Y-154497858D01*
X114137153Y-154783572D01*
X114137153Y-155640715D01*
X113994295Y-155926429D01*
X113851438Y-156069286D01*
X113565724Y-156212143D01*
X113137153Y-156212143D01*
X115565724Y-156069286D02*
X115565724Y-156212143D01*
X115422866Y-156497857D01*
X115280009Y-156640714D01*
X119137151Y-156212143D02*
X119137151Y-154212144D01*
X120422865Y-154212144D01*
X120422865Y-156212143D01*
X123137150Y-156212143D02*
X123137150Y-154640715D01*
X122994292Y-154355001D01*
X122708578Y-154212144D01*
X122137150Y-154212144D01*
X121851436Y-154355001D01*
X123137150Y-156069286D02*
X122851435Y-156212143D01*
X122137150Y-156212143D01*
X121851436Y-156069286D01*
X121708579Y-155783572D01*
X121708579Y-155497857D01*
X121851436Y-155212143D01*
X122137150Y-155069286D01*
X122851435Y-155069286D01*
X123137150Y-154926429D01*
X124565721Y-155212143D02*
X125851434Y-155212143D01*
X124565721Y-154212144D02*
X124565721Y-156212143D01*
X125851434Y-154212144D02*
X125851434Y-156212143D01*
X128422862Y-156069286D02*
X128137148Y-156212143D01*
X127565720Y-156212143D01*
X127280005Y-156069286D01*
X127137148Y-155783572D01*
X127137148Y-154640715D01*
X127280005Y-154355001D01*
X127565720Y-154212144D01*
X128137148Y-154212144D01*
X128422862Y-154355001D01*
X128565719Y-154640715D01*
X128565719Y-154926429D01*
X127137148Y-155212143D01*
X130994290Y-156212143D02*
X130994290Y-154212144D01*
X130565719Y-154212144D01*
X130280004Y-154355001D01*
X130137147Y-154640715D01*
X129994290Y-155783572D01*
X129851433Y-156069286D01*
X129565719Y-156212143D01*
X132422861Y-154212144D02*
X132422861Y-156212143D01*
X133851432Y-154212144D01*
X133851432Y-156212143D01*
X135565717Y-155212143D02*
X135851431Y-155212143D01*
X134994288Y-154355001D02*
X135280003Y-154212144D01*
X135851431Y-154212144D01*
X136137145Y-154355001D01*
X136280002Y-154640715D01*
X136280002Y-154783572D01*
X136137145Y-155069286D01*
X135851431Y-155212143D01*
X136137145Y-155355000D01*
X136280002Y-155640715D01*
X136280002Y-155783572D01*
X136137145Y-156069286D01*
X135851431Y-156212143D01*
X135280003Y-156212143D01*
X134994288Y-156069286D01*
X137565716Y-154212144D02*
X137565716Y-156212143D01*
X138994287Y-154212144D01*
X138994287Y-156212143D01*
X140422858Y-154212144D02*
X140422858Y-157212143D01*
X140422858Y-154355001D02*
X140708572Y-154212144D01*
X141280001Y-154212144D01*
X141565715Y-154355001D01*
X141708572Y-154497858D01*
X141851429Y-154783572D01*
X141851429Y-155640715D01*
X141708572Y-155926429D01*
X141565715Y-156069286D01*
X141280001Y-156212143D01*
X140708572Y-156212143D01*
X140422858Y-156069286D01*
X144422857Y-156212143D02*
X144422857Y-154640715D01*
X144280000Y-154355001D01*
X143994285Y-154212144D01*
X143422857Y-154212144D01*
X143137143Y-154355001D01*
X144422857Y-156069286D02*
X144137143Y-156212143D01*
X143422857Y-156212143D01*
X143137143Y-156069286D01*
X142994286Y-155783572D01*
X142994286Y-155497857D01*
X143137143Y-155212143D01*
X143422857Y-155069286D01*
X144137143Y-155069286D01*
X144422857Y-154926429D01*
X145851428Y-154212144D02*
X145851428Y-156212143D01*
X147279999Y-154212144D01*
X147279999Y-156212143D01*
X145994285Y-153069287D02*
X146137142Y-153355001D01*
X146422856Y-153497858D01*
X146708570Y-153497858D01*
X146994284Y-153355001D01*
X147137142Y-153069287D01*
X150994283Y-156212143D02*
X150994283Y-154212144D01*
X152279997Y-154212144D01*
X152279997Y-156212143D01*
X154851425Y-156212143D02*
X154851425Y-154212144D01*
X154422853Y-154212144D01*
X154137139Y-154355001D01*
X153994282Y-154640715D01*
X153851425Y-155783572D01*
X153708568Y-156069286D01*
X153422854Y-156212143D01*
X157565710Y-156212143D02*
X157565710Y-154640715D01*
X157422852Y-154355001D01*
X157137138Y-154212144D01*
X156565710Y-154212144D01*
X156279996Y-154355001D01*
X157565710Y-156069286D02*
X157279995Y-156212143D01*
X156565710Y-156212143D01*
X156279996Y-156069286D01*
X156137139Y-155783572D01*
X156137139Y-155497857D01*
X156279996Y-155212143D01*
X156565710Y-155069286D01*
X157279995Y-155069286D01*
X157565710Y-154926429D01*
X158565709Y-154212144D02*
X159994280Y-154212144D01*
X159279995Y-154212144D02*
X159279995Y-156212143D01*
X160994280Y-154212144D02*
X160994280Y-156212143D01*
X161279994Y-155069286D02*
X162137137Y-156212143D01*
X162137137Y-154212144D02*
X160994280Y-155355000D01*
X164708564Y-156212143D02*
X164708564Y-154640715D01*
X164565707Y-154355001D01*
X164279993Y-154212144D01*
X163708565Y-154212144D01*
X163422850Y-154355001D01*
X164708564Y-156069286D02*
X164422850Y-156212143D01*
X163708565Y-156212143D01*
X163422850Y-156069286D01*
X163279993Y-155783572D01*
X163279993Y-155497857D01*
X163422850Y-155212143D01*
X163708565Y-155069286D01*
X164422850Y-155069286D01*
X164708564Y-154926429D01*
X165708564Y-154212144D02*
X167137135Y-154212144D01*
X166422849Y-154212144D02*
X166422849Y-156212143D01*
X169422848Y-156212143D02*
X169422848Y-154640715D01*
X169279991Y-154355001D01*
X168994277Y-154212144D01*
X168422849Y-154212144D01*
X168137135Y-154355001D01*
X169422848Y-156069286D02*
X169137134Y-156212143D01*
X168422849Y-156212143D01*
X168137135Y-156069286D01*
X167994277Y-155783572D01*
X167994277Y-155497857D01*
X168137135Y-155212143D01*
X168422849Y-155069286D01*
X169137134Y-155069286D01*
X169422848Y-154926429D01*
X172708562Y-154212144D02*
X174137133Y-154212144D01*
X173422847Y-154212144D02*
X173422847Y-156212143D01*
X176422846Y-156212143D02*
X176422846Y-154640715D01*
X176279989Y-154355001D01*
X175994275Y-154212144D01*
X175422846Y-154212144D01*
X175137132Y-154355001D01*
X176422846Y-156069286D02*
X176137132Y-156212143D01*
X175422846Y-156212143D01*
X175137132Y-156069286D01*
X174994275Y-155783572D01*
X174994275Y-155497857D01*
X175137132Y-155212143D01*
X175422846Y-155069286D01*
X176137132Y-155069286D01*
X176422846Y-154926429D01*
X177851417Y-154212144D02*
X177851417Y-156212143D01*
X178137131Y-155069286D02*
X178994274Y-156212143D01*
X178994274Y-154212144D02*
X177851417Y-155355000D01*
X181565702Y-156212143D02*
X181565702Y-154640715D01*
X181422844Y-154355001D01*
X181137130Y-154212144D01*
X180565702Y-154212144D01*
X180279988Y-154355001D01*
X181565702Y-156069286D02*
X181279987Y-156212143D01*
X180565702Y-156212143D01*
X180279988Y-156069286D01*
X180137131Y-155783572D01*
X180137131Y-155497857D01*
X180279988Y-155212143D01*
X180565702Y-155069286D01*
X181279987Y-155069286D01*
X181565702Y-154926429D01*
X183137130Y-156069286D02*
X183137130Y-156212143D01*
X182994272Y-156497857D01*
X182851415Y-156640714D01*
X100922871Y-159462143D02*
X100922871Y-161462142D01*
X99780015Y-159462143D02*
X99780015Y-160176428D01*
X99922872Y-160462142D01*
X100208586Y-160604999D01*
X100922871Y-160604999D01*
X103637156Y-161319285D02*
X103351442Y-161462142D01*
X102780014Y-161462142D01*
X102494299Y-161319285D01*
X102351442Y-161033571D01*
X102351442Y-159890714D01*
X102494299Y-159605000D01*
X102780014Y-159462143D01*
X103351442Y-159462143D01*
X103637156Y-159605000D01*
X103780013Y-159890714D01*
X103780013Y-160176428D01*
X102351442Y-160462142D01*
X108637154Y-161462142D02*
X108637154Y-159890714D01*
X108494297Y-159605000D01*
X108208583Y-159462143D01*
X107637155Y-159462143D01*
X107351441Y-159605000D01*
X108637154Y-161319285D02*
X108351440Y-161462142D01*
X107637155Y-161462142D01*
X107351441Y-161319285D01*
X107208583Y-161033571D01*
X107208583Y-160747856D01*
X107351441Y-160462142D01*
X107637155Y-160319285D01*
X108351440Y-160319285D01*
X108637154Y-160176428D01*
X110065725Y-160462142D02*
X111351439Y-160462142D01*
X110065725Y-159462143D02*
X110065725Y-161462142D01*
X111351439Y-159462143D02*
X111351439Y-161462142D01*
X112351439Y-159462143D02*
X113780010Y-159462143D01*
X113065724Y-159462143D02*
X113065724Y-161462142D01*
X115922866Y-161319285D02*
X115637152Y-161462142D01*
X115065724Y-161462142D01*
X114780010Y-161319285D01*
X114637152Y-161033571D01*
X114637152Y-159890714D01*
X114780010Y-159605000D01*
X115065724Y-159462143D01*
X115637152Y-159462143D01*
X115922866Y-159605000D01*
X116065723Y-159890714D01*
X116065723Y-160176428D01*
X114637152Y-160462142D01*
X117351437Y-160462142D02*
X118637151Y-160462142D01*
X117351437Y-159462143D02*
X117351437Y-161462142D01*
X118637151Y-159462143D02*
X118637151Y-161462142D01*
X121351436Y-161462142D02*
X121351436Y-159890714D01*
X121208579Y-159605000D01*
X120922865Y-159462143D01*
X120351436Y-159462143D01*
X120065722Y-159605000D01*
X121351436Y-161319285D02*
X121065722Y-161462142D01*
X120351436Y-161462142D01*
X120065722Y-161319285D01*
X119922865Y-161033571D01*
X119922865Y-160747856D01*
X120065722Y-160462142D01*
X120351436Y-160319285D01*
X121065722Y-160319285D01*
X121351436Y-160176428D01*
X122351436Y-159462143D02*
X123780007Y-159462143D01*
X123065721Y-159462143D02*
X123065721Y-161462142D01*
X126065720Y-161462142D02*
X126065720Y-159890714D01*
X125922863Y-159605000D01*
X125637149Y-159462143D01*
X125065720Y-159462143D01*
X124780006Y-159605000D01*
X126065720Y-161319285D02*
X125780006Y-161462142D01*
X125065720Y-161462142D01*
X124780006Y-161319285D01*
X124637149Y-161033571D01*
X124637149Y-160747856D01*
X124780006Y-160462142D01*
X125065720Y-160319285D01*
X125780006Y-160319285D01*
X126065720Y-160176428D01*
X131208575Y-159747857D02*
X131065718Y-159605000D01*
X130780004Y-159462143D01*
X130208576Y-159462143D01*
X129922862Y-159605000D01*
X129780005Y-159747857D01*
X129637147Y-160033571D01*
X129637147Y-160890714D01*
X129780005Y-161176428D01*
X129922862Y-161319285D01*
X130208576Y-161462142D01*
X130637147Y-161462142D01*
X130922861Y-161319285D01*
X131065718Y-161176428D01*
X131208575Y-160890714D01*
X131208575Y-159033571D01*
X131065718Y-158747857D01*
X130922861Y-158605000D01*
X130637147Y-158462143D01*
X130065719Y-158462143D01*
X129780005Y-158605000D01*
X133780003Y-161462142D02*
X133780003Y-159890714D01*
X133637146Y-159605000D01*
X133351432Y-159462143D01*
X132780004Y-159462143D01*
X132494289Y-159605000D01*
X133780003Y-161319285D02*
X133494289Y-161462142D01*
X132780004Y-161462142D01*
X132494289Y-161319285D01*
X132351432Y-161033571D01*
X132351432Y-160747856D01*
X132494289Y-160462142D01*
X132780004Y-160319285D01*
X133494289Y-160319285D01*
X133780003Y-160176428D01*
X137494288Y-160462142D02*
X138780002Y-160462142D01*
X137494288Y-159462143D02*
X137494288Y-161462142D01*
X138780002Y-159462143D02*
X138780002Y-161462142D01*
X141351429Y-161319285D02*
X141065715Y-161462142D01*
X140494287Y-161462142D01*
X140208572Y-161319285D01*
X140065715Y-161033571D01*
X140065715Y-159890714D01*
X140208572Y-159605000D01*
X140494287Y-159462143D01*
X141065715Y-159462143D01*
X141351429Y-159605000D01*
X141494286Y-159890714D01*
X141494286Y-160176428D01*
X140065715Y-160462142D01*
X145351428Y-160462142D02*
X145637142Y-160462142D01*
X144780000Y-159605000D02*
X145065714Y-159462143D01*
X145637142Y-159462143D01*
X145922856Y-159605000D01*
X146065713Y-159890714D01*
X146065713Y-160033571D01*
X145922856Y-160319285D01*
X145637142Y-160462142D01*
X145922856Y-160604999D01*
X146065713Y-160890714D01*
X146065713Y-161033571D01*
X145922856Y-161319285D01*
X145637142Y-161462142D01*
X145065714Y-161462142D01*
X144780000Y-161319285D01*
X148637141Y-161462142D02*
X148637141Y-159890714D01*
X148494284Y-159605000D01*
X148208570Y-159462143D01*
X147637141Y-159462143D01*
X147351427Y-159605000D01*
X148637141Y-161319285D02*
X148351427Y-161462142D01*
X147637141Y-161462142D01*
X147351427Y-161319285D01*
X147208570Y-161033571D01*
X147208570Y-160747856D01*
X147351427Y-160462142D01*
X147637141Y-160319285D01*
X148351427Y-160319285D01*
X148637141Y-160176428D01*
X151351426Y-161319285D02*
X151065712Y-161462142D01*
X150494283Y-161462142D01*
X150208569Y-161319285D01*
X150065712Y-161176428D01*
X149922855Y-160890714D01*
X149922855Y-160033571D01*
X150065712Y-159747857D01*
X150208569Y-159605000D01*
X150494283Y-159462143D01*
X151065712Y-159462143D01*
X151351426Y-159605000D01*
X152208568Y-159462143D02*
X153637139Y-159462143D01*
X152922854Y-159462143D02*
X152922854Y-161462142D01*
X154208568Y-159462143D02*
X154779996Y-159462143D01*
X154779996Y-161462142D01*
X155494282Y-161462142D01*
X155779996Y-161319285D01*
X155922853Y-161033571D01*
X155922853Y-160604999D01*
X155779996Y-160319285D01*
X155494282Y-160176428D01*
X154779996Y-160176428D01*
X157208567Y-161462142D02*
X157208567Y-159462143D01*
X158494281Y-159462143D01*
X158494281Y-161462142D01*
X160637137Y-160462142D02*
X161065708Y-160604999D01*
X161208565Y-160890714D01*
X161208565Y-161033571D01*
X161065708Y-161319285D01*
X160779994Y-161462142D01*
X159922852Y-161462142D01*
X159922852Y-159462143D01*
X160637137Y-159462143D01*
X160922851Y-159605000D01*
X161065708Y-159890714D01*
X161065708Y-160033571D01*
X160922851Y-160319285D01*
X160637137Y-160462142D01*
X159922852Y-160462142D01*
X163779993Y-161462142D02*
X163779993Y-159890714D01*
X163637136Y-159605000D01*
X163351422Y-159462143D01*
X162779994Y-159462143D01*
X162494279Y-159605000D01*
X163779993Y-161319285D02*
X163494279Y-161462142D01*
X162779994Y-161462142D01*
X162494279Y-161319285D01*
X162351422Y-161033571D01*
X162351422Y-160747856D01*
X162494279Y-160462142D01*
X162779994Y-160319285D01*
X163494279Y-160319285D01*
X163779993Y-160176428D01*
X167494278Y-158462143D02*
X167494278Y-160890714D01*
X167637135Y-161176428D01*
X167779992Y-161319285D01*
X168065706Y-161462142D01*
X168637134Y-161462142D01*
X168922849Y-161319285D01*
X169065706Y-161176428D01*
X169208563Y-160890714D01*
X169208563Y-158462143D01*
X170494277Y-161319285D02*
X170922848Y-161462142D01*
X171637133Y-161462142D01*
X171922848Y-161319285D01*
X172065705Y-161176428D01*
X172208562Y-160890714D01*
X172208562Y-160604999D01*
X172065705Y-160319285D01*
X171922848Y-160176428D01*
X171637133Y-160033571D01*
X171065705Y-159890714D01*
X170779991Y-159747857D01*
X170637134Y-159605000D01*
X170494277Y-159319285D01*
X170494277Y-159033571D01*
X170637134Y-158747857D01*
X170779991Y-158605000D01*
X171065705Y-158462143D01*
X171779991Y-158462143D01*
X172208562Y-158605000D01*
X174494275Y-159890714D02*
X174922847Y-160033571D01*
X175065704Y-160176428D01*
X175208561Y-160462142D01*
X175208561Y-160890714D01*
X175065704Y-161176428D01*
X174922847Y-161319285D01*
X174637132Y-161462142D01*
X173494276Y-161462142D01*
X173494276Y-158462143D01*
X174494275Y-158462143D01*
X174779990Y-158605000D01*
X174922847Y-158747857D01*
X175065704Y-159033571D01*
X175065704Y-159319285D01*
X174922847Y-159605000D01*
X174779990Y-159747857D01*
X174494275Y-159890714D01*
X173494276Y-159890714D01*
X176494275Y-160319285D02*
X178779988Y-160319285D01*
X179779988Y-159462143D02*
X181208559Y-159462143D01*
X180494273Y-159462143D02*
X180494273Y-161462142D01*
X183494272Y-161462142D02*
X183494272Y-159890714D01*
X183351415Y-159605000D01*
X183065701Y-159462143D01*
X182494273Y-159462143D01*
X182208558Y-159605000D01*
X183494272Y-161319285D02*
X183208558Y-161462142D01*
X182494273Y-161462142D01*
X182208558Y-161319285D01*
X182065701Y-161033571D01*
X182065701Y-160747856D01*
X182208558Y-160462142D01*
X182494273Y-160319285D01*
X183208558Y-160319285D01*
X183494272Y-160176428D01*
X184494272Y-159462143D02*
X185922843Y-159462143D01*
X185208557Y-159462143D02*
X185208557Y-161462142D01*
X188208556Y-161462142D02*
X188208556Y-159890714D01*
X188065699Y-159605000D01*
X187779985Y-159462143D01*
X187208557Y-159462143D01*
X186922843Y-159605000D01*
X188208556Y-161319285D02*
X187922842Y-161462142D01*
X187208557Y-161462142D01*
X186922843Y-161319285D01*
X186779986Y-161033571D01*
X186779986Y-160747856D01*
X186922843Y-160462142D01*
X187208557Y-160319285D01*
X187922842Y-160319285D01*
X188208556Y-160176428D01*
X189637127Y-161176428D02*
X189779984Y-161319285D01*
X189637127Y-161462142D01*
X189494270Y-161319285D01*
X189637127Y-161176428D01*
X189637127Y-161462142D01*
D13*
X151758952Y-93544571D02*
X152533047Y-93544571D01*
X152146000Y-93931619D02*
X152146000Y-93157523D01*
X152025047Y-86033428D02*
X151250952Y-86033428D01*
D10*
X138684000Y-100266500D02*
G75*
G03X138684000Y-100266500I-190500J0D01*
G01*
D13*
X133428619Y-81921047D02*
X132944809Y-82259714D01*
X133428619Y-82501619D02*
X132412619Y-82501619D01*
X132412619Y-82114571D01*
X132461000Y-82017809D01*
X132509380Y-81969428D01*
X132606142Y-81921047D01*
X132751285Y-81921047D01*
X132848047Y-81969428D01*
X132896428Y-82017809D01*
X132944809Y-82114571D01*
X132944809Y-82501619D01*
X133380238Y-81098571D02*
X133428619Y-81195333D01*
X133428619Y-81388857D01*
X133380238Y-81485619D01*
X133283476Y-81534000D01*
X132896428Y-81534000D01*
X132799666Y-81485619D01*
X132751285Y-81388857D01*
X132751285Y-81195333D01*
X132799666Y-81098571D01*
X132896428Y-81050190D01*
X132993190Y-81050190D01*
X133089952Y-81534000D01*
X132751285Y-80711523D02*
X133428619Y-80469619D01*
X132751285Y-80227714D01*
X132896428Y-78727904D02*
X132944809Y-78582761D01*
X132993190Y-78534380D01*
X133089952Y-78486000D01*
X133235095Y-78486000D01*
X133331857Y-78534380D01*
X133380238Y-78582761D01*
X133428619Y-78679523D01*
X133428619Y-79066571D01*
X132412619Y-79066571D01*
X132412619Y-78727904D01*
X132461000Y-78631142D01*
X132509380Y-78582761D01*
X132606142Y-78534380D01*
X132702904Y-78534380D01*
X132799666Y-78582761D01*
X132848047Y-78631142D01*
X132896428Y-78727904D01*
X132896428Y-79066571D01*
D11*
X155460095Y-98831400D02*
X155411714Y-98807209D01*
X155339142Y-98807209D01*
X155266571Y-98831400D01*
X155218190Y-98879780D01*
X155194000Y-98928161D01*
X155169809Y-99024923D01*
X155169809Y-99097495D01*
X155194000Y-99194257D01*
X155218190Y-99242638D01*
X155266571Y-99291019D01*
X155339142Y-99315209D01*
X155387523Y-99315209D01*
X155460095Y-99291019D01*
X155484285Y-99266828D01*
X155484285Y-99097495D01*
X155387523Y-99097495D01*
X155702000Y-99315209D02*
X155702000Y-98807209D01*
X155895523Y-98807209D01*
X155943904Y-98831400D01*
X155968095Y-98855590D01*
X155992285Y-98903971D01*
X155992285Y-98976542D01*
X155968095Y-99024923D01*
X155943904Y-99049114D01*
X155895523Y-99073304D01*
X155702000Y-99073304D01*
X156210000Y-99315209D02*
X156210000Y-98807209D01*
X156548666Y-98807209D02*
X156645428Y-98807209D01*
X156693809Y-98831400D01*
X156742190Y-98879780D01*
X156766380Y-98976542D01*
X156766380Y-99145876D01*
X156742190Y-99242638D01*
X156693809Y-99291019D01*
X156645428Y-99315209D01*
X156548666Y-99315209D01*
X156500285Y-99291019D01*
X156451904Y-99242638D01*
X156427714Y-99145876D01*
X156427714Y-98976542D01*
X156451904Y-98879780D01*
X156500285Y-98831400D01*
X156548666Y-98807209D01*
X157080857Y-98807209D02*
X157129238Y-98807209D01*
X157177619Y-98831400D01*
X157201809Y-98855590D01*
X157226000Y-98903971D01*
X157250190Y-99000733D01*
X157250190Y-99121685D01*
X157226000Y-99218447D01*
X157201809Y-99266828D01*
X157177619Y-99291019D01*
X157129238Y-99315209D01*
X157080857Y-99315209D01*
X157032476Y-99291019D01*
X157008285Y-99266828D01*
X156984095Y-99218447D01*
X156959904Y-99121685D01*
X156959904Y-99000733D01*
X156984095Y-98903971D01*
X157008285Y-98855590D01*
X157032476Y-98831400D01*
X157080857Y-98807209D01*
X154964190Y-93751400D02*
X154915809Y-93727209D01*
X154843238Y-93727209D01*
X154770666Y-93751400D01*
X154722285Y-93799780D01*
X154698095Y-93848161D01*
X154673904Y-93944923D01*
X154673904Y-94017495D01*
X154698095Y-94114257D01*
X154722285Y-94162638D01*
X154770666Y-94211019D01*
X154843238Y-94235209D01*
X154891619Y-94235209D01*
X154964190Y-94211019D01*
X154988380Y-94186828D01*
X154988380Y-94017495D01*
X154891619Y-94017495D01*
X155206095Y-94235209D02*
X155206095Y-93727209D01*
X155399619Y-93727209D01*
X155448000Y-93751400D01*
X155472190Y-93775590D01*
X155496380Y-93823971D01*
X155496380Y-93896542D01*
X155472190Y-93944923D01*
X155448000Y-93969114D01*
X155399619Y-93993304D01*
X155206095Y-93993304D01*
X155714095Y-94235209D02*
X155714095Y-93727209D01*
X156052761Y-93727209D02*
X156149523Y-93727209D01*
X156197904Y-93751400D01*
X156246285Y-93799780D01*
X156270476Y-93896542D01*
X156270476Y-94065876D01*
X156246285Y-94162638D01*
X156197904Y-94211019D01*
X156149523Y-94235209D01*
X156052761Y-94235209D01*
X156004380Y-94211019D01*
X155956000Y-94162638D01*
X155931809Y-94065876D01*
X155931809Y-93896542D01*
X155956000Y-93799780D01*
X156004380Y-93751400D01*
X156052761Y-93727209D01*
X156439809Y-93727209D02*
X156754285Y-93727209D01*
X156584952Y-93920733D01*
X156657523Y-93920733D01*
X156705904Y-93944923D01*
X156730095Y-93969114D01*
X156754285Y-94017495D01*
X156754285Y-94138447D01*
X156730095Y-94186828D01*
X156705904Y-94211019D01*
X156657523Y-94235209D01*
X156512380Y-94235209D01*
X156464000Y-94211019D01*
X156439809Y-94186828D01*
X157189714Y-93727209D02*
X157092952Y-93727209D01*
X157044571Y-93751400D01*
X157020380Y-93775590D01*
X156972000Y-93848161D01*
X156947809Y-93944923D01*
X156947809Y-94138447D01*
X156972000Y-94186828D01*
X156996190Y-94211019D01*
X157044571Y-94235209D01*
X157141333Y-94235209D01*
X157189714Y-94211019D01*
X157213904Y-94186828D01*
X157238095Y-94138447D01*
X157238095Y-94017495D01*
X157213904Y-93969114D01*
X157189714Y-93944923D01*
X157141333Y-93920733D01*
X157044571Y-93920733D01*
X156996190Y-93944923D01*
X156972000Y-93969114D01*
X156947809Y-94017495D01*
X155091190Y-91211400D02*
X155042809Y-91187209D01*
X154970238Y-91187209D01*
X154897666Y-91211400D01*
X154849285Y-91259780D01*
X154825095Y-91308161D01*
X154800904Y-91404923D01*
X154800904Y-91477495D01*
X154825095Y-91574257D01*
X154849285Y-91622638D01*
X154897666Y-91671019D01*
X154970238Y-91695209D01*
X155018619Y-91695209D01*
X155091190Y-91671019D01*
X155115380Y-91646828D01*
X155115380Y-91477495D01*
X155018619Y-91477495D01*
X155333095Y-91695209D02*
X155333095Y-91187209D01*
X155526619Y-91187209D01*
X155575000Y-91211400D01*
X155599190Y-91235590D01*
X155623380Y-91283971D01*
X155623380Y-91356542D01*
X155599190Y-91404923D01*
X155575000Y-91429114D01*
X155526619Y-91453304D01*
X155333095Y-91453304D01*
X155841095Y-91695209D02*
X155841095Y-91187209D01*
X156179761Y-91187209D02*
X156276523Y-91187209D01*
X156324904Y-91211400D01*
X156373285Y-91259780D01*
X156397476Y-91356542D01*
X156397476Y-91525876D01*
X156373285Y-91622638D01*
X156324904Y-91671019D01*
X156276523Y-91695209D01*
X156179761Y-91695209D01*
X156131380Y-91671019D01*
X156083000Y-91622638D01*
X156058809Y-91525876D01*
X156058809Y-91356542D01*
X156083000Y-91259780D01*
X156131380Y-91211400D01*
X156179761Y-91187209D01*
X156566809Y-91187209D02*
X156881285Y-91187209D01*
X156711952Y-91380733D01*
X156784523Y-91380733D01*
X156832904Y-91404923D01*
X156857095Y-91429114D01*
X156881285Y-91477495D01*
X156881285Y-91598447D01*
X156857095Y-91646828D01*
X156832904Y-91671019D01*
X156784523Y-91695209D01*
X156639380Y-91695209D01*
X156591000Y-91671019D01*
X156566809Y-91646828D01*
X157050619Y-91187209D02*
X157389285Y-91187209D01*
X157171571Y-91695209D01*
X155091190Y-86131400D02*
X155042809Y-86107209D01*
X154970238Y-86107209D01*
X154897666Y-86131400D01*
X154849285Y-86179780D01*
X154825095Y-86228161D01*
X154800904Y-86324923D01*
X154800904Y-86397495D01*
X154825095Y-86494257D01*
X154849285Y-86542638D01*
X154897666Y-86591019D01*
X154970238Y-86615209D01*
X155018619Y-86615209D01*
X155091190Y-86591019D01*
X155115380Y-86566828D01*
X155115380Y-86397495D01*
X155018619Y-86397495D01*
X155333095Y-86615209D02*
X155333095Y-86107209D01*
X155526619Y-86107209D01*
X155575000Y-86131400D01*
X155599190Y-86155590D01*
X155623380Y-86203971D01*
X155623380Y-86276542D01*
X155599190Y-86324923D01*
X155575000Y-86349114D01*
X155526619Y-86373304D01*
X155333095Y-86373304D01*
X155841095Y-86615209D02*
X155841095Y-86107209D01*
X156179761Y-86107209D02*
X156276523Y-86107209D01*
X156324904Y-86131400D01*
X156373285Y-86179780D01*
X156397476Y-86276542D01*
X156397476Y-86445876D01*
X156373285Y-86542638D01*
X156324904Y-86591019D01*
X156276523Y-86615209D01*
X156179761Y-86615209D01*
X156131380Y-86591019D01*
X156083000Y-86542638D01*
X156058809Y-86445876D01*
X156058809Y-86276542D01*
X156083000Y-86179780D01*
X156131380Y-86131400D01*
X156179761Y-86107209D01*
X156566809Y-86107209D02*
X156881285Y-86107209D01*
X156711952Y-86300733D01*
X156784523Y-86300733D01*
X156832904Y-86324923D01*
X156857095Y-86349114D01*
X156881285Y-86397495D01*
X156881285Y-86518447D01*
X156857095Y-86566828D01*
X156832904Y-86591019D01*
X156784523Y-86615209D01*
X156639380Y-86615209D01*
X156591000Y-86591019D01*
X156566809Y-86566828D01*
X157123190Y-86615209D02*
X157219952Y-86615209D01*
X157268333Y-86591019D01*
X157292523Y-86566828D01*
X157340904Y-86494257D01*
X157365095Y-86397495D01*
X157365095Y-86203971D01*
X157340904Y-86155590D01*
X157316714Y-86131400D01*
X157268333Y-86107209D01*
X157171571Y-86107209D01*
X157123190Y-86131400D01*
X157099000Y-86155590D01*
X157074809Y-86203971D01*
X157074809Y-86324923D01*
X157099000Y-86373304D01*
X157123190Y-86397495D01*
X157171571Y-86421685D01*
X157268333Y-86421685D01*
X157316714Y-86397495D01*
X157340904Y-86373304D01*
X157365095Y-86324923D01*
X154964190Y-83591400D02*
X154915809Y-83567209D01*
X154843238Y-83567209D01*
X154770666Y-83591400D01*
X154722285Y-83639780D01*
X154698095Y-83688161D01*
X154673904Y-83784923D01*
X154673904Y-83857495D01*
X154698095Y-83954257D01*
X154722285Y-84002638D01*
X154770666Y-84051019D01*
X154843238Y-84075209D01*
X154891619Y-84075209D01*
X154964190Y-84051019D01*
X154988380Y-84026828D01*
X154988380Y-83857495D01*
X154891619Y-83857495D01*
X155206095Y-84075209D02*
X155206095Y-83567209D01*
X155399619Y-83567209D01*
X155448000Y-83591400D01*
X155472190Y-83615590D01*
X155496380Y-83663971D01*
X155496380Y-83736542D01*
X155472190Y-83784923D01*
X155448000Y-83809114D01*
X155399619Y-83833304D01*
X155206095Y-83833304D01*
X155714095Y-84075209D02*
X155714095Y-83567209D01*
X156052761Y-83567209D02*
X156149523Y-83567209D01*
X156197904Y-83591400D01*
X156246285Y-83639780D01*
X156270476Y-83736542D01*
X156270476Y-83905876D01*
X156246285Y-84002638D01*
X156197904Y-84051019D01*
X156149523Y-84075209D01*
X156052761Y-84075209D01*
X156004380Y-84051019D01*
X155956000Y-84002638D01*
X155931809Y-83905876D01*
X155931809Y-83736542D01*
X155956000Y-83639780D01*
X156004380Y-83591400D01*
X156052761Y-83567209D01*
X156705904Y-83736542D02*
X156705904Y-84075209D01*
X156584952Y-83543019D02*
X156464000Y-83905876D01*
X156778476Y-83905876D01*
X157068761Y-83567209D02*
X157117142Y-83567209D01*
X157165523Y-83591400D01*
X157189714Y-83615590D01*
X157213904Y-83663971D01*
X157238095Y-83760733D01*
X157238095Y-83881685D01*
X157213904Y-83978447D01*
X157189714Y-84026828D01*
X157165523Y-84051019D01*
X157117142Y-84075209D01*
X157068761Y-84075209D01*
X157020380Y-84051019D01*
X156996190Y-84026828D01*
X156972000Y-83978447D01*
X156947809Y-83881685D01*
X156947809Y-83760733D01*
X156972000Y-83663971D01*
X156996190Y-83615590D01*
X157020380Y-83591400D01*
X157068761Y-83567209D01*
X155822952Y-116611400D02*
X155774571Y-116587209D01*
X155702000Y-116587209D01*
X155629428Y-116611400D01*
X155581047Y-116659780D01*
X155556857Y-116708161D01*
X155532666Y-116804923D01*
X155532666Y-116877495D01*
X155556857Y-116974257D01*
X155581047Y-117022638D01*
X155629428Y-117071019D01*
X155702000Y-117095209D01*
X155750380Y-117095209D01*
X155822952Y-117071019D01*
X155847142Y-117046828D01*
X155847142Y-116877495D01*
X155750380Y-116877495D01*
X156064857Y-117095209D02*
X156064857Y-116587209D01*
X156355142Y-117095209D01*
X156355142Y-116587209D01*
X156597047Y-117095209D02*
X156597047Y-116587209D01*
X156718000Y-116587209D01*
X156790571Y-116611400D01*
X156838952Y-116659780D01*
X156863142Y-116708161D01*
X156887333Y-116804923D01*
X156887333Y-116877495D01*
X156863142Y-116974257D01*
X156838952Y-117022638D01*
X156790571Y-117071019D01*
X156718000Y-117095209D01*
X156597047Y-117095209D01*
X154964190Y-78511400D02*
X154915809Y-78487209D01*
X154843238Y-78487209D01*
X154770666Y-78511400D01*
X154722285Y-78559780D01*
X154698095Y-78608161D01*
X154673904Y-78704923D01*
X154673904Y-78777495D01*
X154698095Y-78874257D01*
X154722285Y-78922638D01*
X154770666Y-78971019D01*
X154843238Y-78995209D01*
X154891619Y-78995209D01*
X154964190Y-78971019D01*
X154988380Y-78946828D01*
X154988380Y-78777495D01*
X154891619Y-78777495D01*
X155206095Y-78995209D02*
X155206095Y-78487209D01*
X155399619Y-78487209D01*
X155448000Y-78511400D01*
X155472190Y-78535590D01*
X155496380Y-78583971D01*
X155496380Y-78656542D01*
X155472190Y-78704923D01*
X155448000Y-78729114D01*
X155399619Y-78753304D01*
X155206095Y-78753304D01*
X155714095Y-78995209D02*
X155714095Y-78487209D01*
X156052761Y-78487209D02*
X156149523Y-78487209D01*
X156197904Y-78511400D01*
X156246285Y-78559780D01*
X156270476Y-78656542D01*
X156270476Y-78825876D01*
X156246285Y-78922638D01*
X156197904Y-78971019D01*
X156149523Y-78995209D01*
X156052761Y-78995209D01*
X156004380Y-78971019D01*
X155956000Y-78922638D01*
X155931809Y-78825876D01*
X155931809Y-78656542D01*
X155956000Y-78559780D01*
X156004380Y-78511400D01*
X156052761Y-78487209D01*
X156705904Y-78656542D02*
X156705904Y-78995209D01*
X156584952Y-78463019D02*
X156464000Y-78825876D01*
X156778476Y-78825876D01*
X156947809Y-78535590D02*
X156972000Y-78511400D01*
X157020380Y-78487209D01*
X157141333Y-78487209D01*
X157189714Y-78511400D01*
X157213904Y-78535590D01*
X157238095Y-78583971D01*
X157238095Y-78632352D01*
X157213904Y-78704923D01*
X156923619Y-78995209D01*
X157238095Y-78995209D01*
X155460095Y-75971400D02*
X155411714Y-75947209D01*
X155339142Y-75947209D01*
X155266571Y-75971400D01*
X155218190Y-76019780D01*
X155194000Y-76068161D01*
X155169809Y-76164923D01*
X155169809Y-76237495D01*
X155194000Y-76334257D01*
X155218190Y-76382638D01*
X155266571Y-76431019D01*
X155339142Y-76455209D01*
X155387523Y-76455209D01*
X155460095Y-76431019D01*
X155484285Y-76406828D01*
X155484285Y-76237495D01*
X155387523Y-76237495D01*
X155702000Y-76455209D02*
X155702000Y-75947209D01*
X155895523Y-75947209D01*
X155943904Y-75971400D01*
X155968095Y-75995590D01*
X155992285Y-76043971D01*
X155992285Y-76116542D01*
X155968095Y-76164923D01*
X155943904Y-76189114D01*
X155895523Y-76213304D01*
X155702000Y-76213304D01*
X156210000Y-76455209D02*
X156210000Y-75947209D01*
X156548666Y-75947209D02*
X156645428Y-75947209D01*
X156693809Y-75971400D01*
X156742190Y-76019780D01*
X156766380Y-76116542D01*
X156766380Y-76285876D01*
X156742190Y-76382638D01*
X156693809Y-76431019D01*
X156645428Y-76455209D01*
X156548666Y-76455209D01*
X156500285Y-76431019D01*
X156451904Y-76382638D01*
X156427714Y-76285876D01*
X156427714Y-76116542D01*
X156451904Y-76019780D01*
X156500285Y-75971400D01*
X156548666Y-75947209D01*
X156959904Y-75995590D02*
X156984095Y-75971400D01*
X157032476Y-75947209D01*
X157153428Y-75947209D01*
X157201809Y-75971400D01*
X157226000Y-75995590D01*
X157250190Y-76043971D01*
X157250190Y-76092352D01*
X157226000Y-76164923D01*
X156935714Y-76455209D01*
X157250190Y-76455209D01*
X155460095Y-73431400D02*
X155411714Y-73407209D01*
X155339142Y-73407209D01*
X155266571Y-73431400D01*
X155218190Y-73479780D01*
X155194000Y-73528161D01*
X155169809Y-73624923D01*
X155169809Y-73697495D01*
X155194000Y-73794257D01*
X155218190Y-73842638D01*
X155266571Y-73891019D01*
X155339142Y-73915209D01*
X155387523Y-73915209D01*
X155460095Y-73891019D01*
X155484285Y-73866828D01*
X155484285Y-73697495D01*
X155387523Y-73697495D01*
X155702000Y-73915209D02*
X155702000Y-73407209D01*
X155895523Y-73407209D01*
X155943904Y-73431400D01*
X155968095Y-73455590D01*
X155992285Y-73503971D01*
X155992285Y-73576542D01*
X155968095Y-73624923D01*
X155943904Y-73649114D01*
X155895523Y-73673304D01*
X155702000Y-73673304D01*
X156210000Y-73915209D02*
X156210000Y-73407209D01*
X156548666Y-73407209D02*
X156645428Y-73407209D01*
X156693809Y-73431400D01*
X156742190Y-73479780D01*
X156766380Y-73576542D01*
X156766380Y-73745876D01*
X156742190Y-73842638D01*
X156693809Y-73891019D01*
X156645428Y-73915209D01*
X156548666Y-73915209D01*
X156500285Y-73891019D01*
X156451904Y-73842638D01*
X156427714Y-73745876D01*
X156427714Y-73576542D01*
X156451904Y-73479780D01*
X156500285Y-73431400D01*
X156548666Y-73407209D01*
X157250190Y-73915209D02*
X156959904Y-73915209D01*
X157105047Y-73915209D02*
X157105047Y-73407209D01*
X157056666Y-73479780D01*
X157008285Y-73528161D01*
X156959904Y-73552352D01*
X154964190Y-70891400D02*
X154915809Y-70867209D01*
X154843238Y-70867209D01*
X154770666Y-70891400D01*
X154722285Y-70939780D01*
X154698095Y-70988161D01*
X154673904Y-71084923D01*
X154673904Y-71157495D01*
X154698095Y-71254257D01*
X154722285Y-71302638D01*
X154770666Y-71351019D01*
X154843238Y-71375209D01*
X154891619Y-71375209D01*
X154964190Y-71351019D01*
X154988380Y-71326828D01*
X154988380Y-71157495D01*
X154891619Y-71157495D01*
X155206095Y-71375209D02*
X155206095Y-70867209D01*
X155399619Y-70867209D01*
X155448000Y-70891400D01*
X155472190Y-70915590D01*
X155496380Y-70963971D01*
X155496380Y-71036542D01*
X155472190Y-71084923D01*
X155448000Y-71109114D01*
X155399619Y-71133304D01*
X155206095Y-71133304D01*
X155714095Y-71375209D02*
X155714095Y-70867209D01*
X156052761Y-70867209D02*
X156149523Y-70867209D01*
X156197904Y-70891400D01*
X156246285Y-70939780D01*
X156270476Y-71036542D01*
X156270476Y-71205876D01*
X156246285Y-71302638D01*
X156197904Y-71351019D01*
X156149523Y-71375209D01*
X156052761Y-71375209D01*
X156004380Y-71351019D01*
X155956000Y-71302638D01*
X155931809Y-71205876D01*
X155931809Y-71036542D01*
X155956000Y-70939780D01*
X156004380Y-70891400D01*
X156052761Y-70867209D01*
X156705904Y-71036542D02*
X156705904Y-71375209D01*
X156584952Y-70843019D02*
X156464000Y-71205876D01*
X156778476Y-71205876D01*
X157189714Y-71036542D02*
X157189714Y-71375209D01*
X157068761Y-70843019D02*
X156947809Y-71205876D01*
X157262285Y-71205876D01*
X154964190Y-68351400D02*
X154915809Y-68327209D01*
X154843238Y-68327209D01*
X154770666Y-68351400D01*
X154722285Y-68399780D01*
X154698095Y-68448161D01*
X154673904Y-68544923D01*
X154673904Y-68617495D01*
X154698095Y-68714257D01*
X154722285Y-68762638D01*
X154770666Y-68811019D01*
X154843238Y-68835209D01*
X154891619Y-68835209D01*
X154964190Y-68811019D01*
X154988380Y-68786828D01*
X154988380Y-68617495D01*
X154891619Y-68617495D01*
X155206095Y-68835209D02*
X155206095Y-68327209D01*
X155399619Y-68327209D01*
X155448000Y-68351400D01*
X155472190Y-68375590D01*
X155496380Y-68423971D01*
X155496380Y-68496542D01*
X155472190Y-68544923D01*
X155448000Y-68569114D01*
X155399619Y-68593304D01*
X155206095Y-68593304D01*
X155714095Y-68835209D02*
X155714095Y-68327209D01*
X156052761Y-68327209D02*
X156149523Y-68327209D01*
X156197904Y-68351400D01*
X156246285Y-68399780D01*
X156270476Y-68496542D01*
X156270476Y-68665876D01*
X156246285Y-68762638D01*
X156197904Y-68811019D01*
X156149523Y-68835209D01*
X156052761Y-68835209D01*
X156004380Y-68811019D01*
X155956000Y-68762638D01*
X155931809Y-68665876D01*
X155931809Y-68496542D01*
X155956000Y-68399780D01*
X156004380Y-68351400D01*
X156052761Y-68327209D01*
X156705904Y-68496542D02*
X156705904Y-68835209D01*
X156584952Y-68303019D02*
X156464000Y-68665876D01*
X156778476Y-68665876D01*
X156923619Y-68327209D02*
X157238095Y-68327209D01*
X157068761Y-68520733D01*
X157141333Y-68520733D01*
X157189714Y-68544923D01*
X157213904Y-68569114D01*
X157238095Y-68617495D01*
X157238095Y-68738447D01*
X157213904Y-68786828D01*
X157189714Y-68811019D01*
X157141333Y-68835209D01*
X156996190Y-68835209D01*
X156947809Y-68811019D01*
X156923619Y-68786828D01*
X155822952Y-65811400D02*
X155774571Y-65787209D01*
X155702000Y-65787209D01*
X155629428Y-65811400D01*
X155581047Y-65859780D01*
X155556857Y-65908161D01*
X155532666Y-66004923D01*
X155532666Y-66077495D01*
X155556857Y-66174257D01*
X155581047Y-66222638D01*
X155629428Y-66271019D01*
X155702000Y-66295209D01*
X155750380Y-66295209D01*
X155822952Y-66271019D01*
X155847142Y-66246828D01*
X155847142Y-66077495D01*
X155750380Y-66077495D01*
X156064857Y-66295209D02*
X156064857Y-65787209D01*
X156355142Y-66295209D01*
X156355142Y-65787209D01*
X156597047Y-66295209D02*
X156597047Y-65787209D01*
X156718000Y-65787209D01*
X156790571Y-65811400D01*
X156838952Y-65859780D01*
X156863142Y-65908161D01*
X156887333Y-66004923D01*
X156887333Y-66077495D01*
X156863142Y-66174257D01*
X156838952Y-66222638D01*
X156790571Y-66271019D01*
X156718000Y-66295209D01*
X156597047Y-66295209D01*
X130123595Y-93751400D02*
X130075214Y-93727209D01*
X130002642Y-93727209D01*
X129930071Y-93751400D01*
X129881690Y-93799780D01*
X129857500Y-93848161D01*
X129833309Y-93944923D01*
X129833309Y-94017495D01*
X129857500Y-94114257D01*
X129881690Y-94162638D01*
X129930071Y-94211019D01*
X130002642Y-94235209D01*
X130051023Y-94235209D01*
X130123595Y-94211019D01*
X130147785Y-94186828D01*
X130147785Y-94017495D01*
X130051023Y-94017495D01*
X130365500Y-94235209D02*
X130365500Y-93727209D01*
X130559023Y-93727209D01*
X130607404Y-93751400D01*
X130631595Y-93775590D01*
X130655785Y-93823971D01*
X130655785Y-93896542D01*
X130631595Y-93944923D01*
X130607404Y-93969114D01*
X130559023Y-93993304D01*
X130365500Y-93993304D01*
X130873500Y-94235209D02*
X130873500Y-93727209D01*
X131212166Y-93727209D02*
X131308928Y-93727209D01*
X131357309Y-93751400D01*
X131405690Y-93799780D01*
X131429880Y-93896542D01*
X131429880Y-94065876D01*
X131405690Y-94162638D01*
X131357309Y-94211019D01*
X131308928Y-94235209D01*
X131212166Y-94235209D01*
X131163785Y-94211019D01*
X131115404Y-94162638D01*
X131091214Y-94065876D01*
X131091214Y-93896542D01*
X131115404Y-93799780D01*
X131163785Y-93751400D01*
X131212166Y-93727209D01*
X131720166Y-93944923D02*
X131671785Y-93920733D01*
X131647595Y-93896542D01*
X131623404Y-93848161D01*
X131623404Y-93823971D01*
X131647595Y-93775590D01*
X131671785Y-93751400D01*
X131720166Y-93727209D01*
X131816928Y-93727209D01*
X131865309Y-93751400D01*
X131889500Y-93775590D01*
X131913690Y-93823971D01*
X131913690Y-93848161D01*
X131889500Y-93896542D01*
X131865309Y-93920733D01*
X131816928Y-93944923D01*
X131720166Y-93944923D01*
X131671785Y-93969114D01*
X131647595Y-93993304D01*
X131623404Y-94041685D01*
X131623404Y-94138447D01*
X131647595Y-94186828D01*
X131671785Y-94211019D01*
X131720166Y-94235209D01*
X131816928Y-94235209D01*
X131865309Y-94211019D01*
X131889500Y-94186828D01*
X131913690Y-94138447D01*
X131913690Y-94041685D01*
X131889500Y-93993304D01*
X131865309Y-93969114D01*
X131816928Y-93944923D01*
X130135690Y-91211400D02*
X130087309Y-91187209D01*
X130014738Y-91187209D01*
X129942166Y-91211400D01*
X129893785Y-91259780D01*
X129869595Y-91308161D01*
X129845404Y-91404923D01*
X129845404Y-91477495D01*
X129869595Y-91574257D01*
X129893785Y-91622638D01*
X129942166Y-91671019D01*
X130014738Y-91695209D01*
X130063119Y-91695209D01*
X130135690Y-91671019D01*
X130159880Y-91646828D01*
X130159880Y-91477495D01*
X130063119Y-91477495D01*
X130377595Y-91695209D02*
X130377595Y-91187209D01*
X130571119Y-91187209D01*
X130619500Y-91211400D01*
X130643690Y-91235590D01*
X130667880Y-91283971D01*
X130667880Y-91356542D01*
X130643690Y-91404923D01*
X130619500Y-91429114D01*
X130571119Y-91453304D01*
X130377595Y-91453304D01*
X130885595Y-91695209D02*
X130885595Y-91187209D01*
X131224261Y-91187209D02*
X131321023Y-91187209D01*
X131369404Y-91211400D01*
X131417785Y-91259780D01*
X131441976Y-91356542D01*
X131441976Y-91525876D01*
X131417785Y-91622638D01*
X131369404Y-91671019D01*
X131321023Y-91695209D01*
X131224261Y-91695209D01*
X131175880Y-91671019D01*
X131127500Y-91622638D01*
X131103309Y-91525876D01*
X131103309Y-91356542D01*
X131127500Y-91259780D01*
X131175880Y-91211400D01*
X131224261Y-91187209D01*
X131925785Y-91695209D02*
X131635500Y-91695209D01*
X131780642Y-91695209D02*
X131780642Y-91187209D01*
X131732261Y-91259780D01*
X131683880Y-91308161D01*
X131635500Y-91332352D01*
X132216071Y-91404923D02*
X132167690Y-91380733D01*
X132143500Y-91356542D01*
X132119309Y-91308161D01*
X132119309Y-91283971D01*
X132143500Y-91235590D01*
X132167690Y-91211400D01*
X132216071Y-91187209D01*
X132312833Y-91187209D01*
X132361214Y-91211400D01*
X132385404Y-91235590D01*
X132409595Y-91283971D01*
X132409595Y-91308161D01*
X132385404Y-91356542D01*
X132361214Y-91380733D01*
X132312833Y-91404923D01*
X132216071Y-91404923D01*
X132167690Y-91429114D01*
X132143500Y-91453304D01*
X132119309Y-91501685D01*
X132119309Y-91598447D01*
X132143500Y-91646828D01*
X132167690Y-91671019D01*
X132216071Y-91695209D01*
X132312833Y-91695209D01*
X132361214Y-91671019D01*
X132385404Y-91646828D01*
X132409595Y-91598447D01*
X132409595Y-91501685D01*
X132385404Y-91453304D01*
X132361214Y-91429114D01*
X132312833Y-91404923D01*
X130135690Y-88671400D02*
X130087309Y-88647209D01*
X130014738Y-88647209D01*
X129942166Y-88671400D01*
X129893785Y-88719780D01*
X129869595Y-88768161D01*
X129845404Y-88864923D01*
X129845404Y-88937495D01*
X129869595Y-89034257D01*
X129893785Y-89082638D01*
X129942166Y-89131019D01*
X130014738Y-89155209D01*
X130063119Y-89155209D01*
X130135690Y-89131019D01*
X130159880Y-89106828D01*
X130159880Y-88937495D01*
X130063119Y-88937495D01*
X130377595Y-89155209D02*
X130377595Y-88647209D01*
X130571119Y-88647209D01*
X130619500Y-88671400D01*
X130643690Y-88695590D01*
X130667880Y-88743971D01*
X130667880Y-88816542D01*
X130643690Y-88864923D01*
X130619500Y-88889114D01*
X130571119Y-88913304D01*
X130377595Y-88913304D01*
X130885595Y-89155209D02*
X130885595Y-88647209D01*
X131224261Y-88647209D02*
X131321023Y-88647209D01*
X131369404Y-88671400D01*
X131417785Y-88719780D01*
X131441976Y-88816542D01*
X131441976Y-88985876D01*
X131417785Y-89082638D01*
X131369404Y-89131019D01*
X131321023Y-89155209D01*
X131224261Y-89155209D01*
X131175880Y-89131019D01*
X131127500Y-89082638D01*
X131103309Y-88985876D01*
X131103309Y-88816542D01*
X131127500Y-88719780D01*
X131175880Y-88671400D01*
X131224261Y-88647209D01*
X131925785Y-89155209D02*
X131635500Y-89155209D01*
X131780642Y-89155209D02*
X131780642Y-88647209D01*
X131732261Y-88719780D01*
X131683880Y-88768161D01*
X131635500Y-88792352D01*
X132095119Y-88647209D02*
X132433785Y-88647209D01*
X132216071Y-89155209D01*
X130135690Y-86131400D02*
X130087309Y-86107209D01*
X130014738Y-86107209D01*
X129942166Y-86131400D01*
X129893785Y-86179780D01*
X129869595Y-86228161D01*
X129845404Y-86324923D01*
X129845404Y-86397495D01*
X129869595Y-86494257D01*
X129893785Y-86542638D01*
X129942166Y-86591019D01*
X130014738Y-86615209D01*
X130063119Y-86615209D01*
X130135690Y-86591019D01*
X130159880Y-86566828D01*
X130159880Y-86397495D01*
X130063119Y-86397495D01*
X130377595Y-86615209D02*
X130377595Y-86107209D01*
X130571119Y-86107209D01*
X130619500Y-86131400D01*
X130643690Y-86155590D01*
X130667880Y-86203971D01*
X130667880Y-86276542D01*
X130643690Y-86324923D01*
X130619500Y-86349114D01*
X130571119Y-86373304D01*
X130377595Y-86373304D01*
X130885595Y-86615209D02*
X130885595Y-86107209D01*
X131224261Y-86107209D02*
X131321023Y-86107209D01*
X131369404Y-86131400D01*
X131417785Y-86179780D01*
X131441976Y-86276542D01*
X131441976Y-86445876D01*
X131417785Y-86542638D01*
X131369404Y-86591019D01*
X131321023Y-86615209D01*
X131224261Y-86615209D01*
X131175880Y-86591019D01*
X131127500Y-86542638D01*
X131103309Y-86445876D01*
X131103309Y-86276542D01*
X131127500Y-86179780D01*
X131175880Y-86131400D01*
X131224261Y-86107209D01*
X131925785Y-86615209D02*
X131635500Y-86615209D01*
X131780642Y-86615209D02*
X131780642Y-86107209D01*
X131732261Y-86179780D01*
X131683880Y-86228161D01*
X131635500Y-86252352D01*
X132361214Y-86107209D02*
X132264452Y-86107209D01*
X132216071Y-86131400D01*
X132191880Y-86155590D01*
X132143500Y-86228161D01*
X132119309Y-86324923D01*
X132119309Y-86518447D01*
X132143500Y-86566828D01*
X132167690Y-86591019D01*
X132216071Y-86615209D01*
X132312833Y-86615209D01*
X132361214Y-86591019D01*
X132385404Y-86566828D01*
X132409595Y-86518447D01*
X132409595Y-86397495D01*
X132385404Y-86349114D01*
X132361214Y-86324923D01*
X132312833Y-86300733D01*
X132216071Y-86300733D01*
X132167690Y-86324923D01*
X132143500Y-86349114D01*
X132119309Y-86397495D01*
X130135690Y-83591400D02*
X130087309Y-83567209D01*
X130014738Y-83567209D01*
X129942166Y-83591400D01*
X129893785Y-83639780D01*
X129869595Y-83688161D01*
X129845404Y-83784923D01*
X129845404Y-83857495D01*
X129869595Y-83954257D01*
X129893785Y-84002638D01*
X129942166Y-84051019D01*
X130014738Y-84075209D01*
X130063119Y-84075209D01*
X130135690Y-84051019D01*
X130159880Y-84026828D01*
X130159880Y-83857495D01*
X130063119Y-83857495D01*
X130377595Y-84075209D02*
X130377595Y-83567209D01*
X130571119Y-83567209D01*
X130619500Y-83591400D01*
X130643690Y-83615590D01*
X130667880Y-83663971D01*
X130667880Y-83736542D01*
X130643690Y-83784923D01*
X130619500Y-83809114D01*
X130571119Y-83833304D01*
X130377595Y-83833304D01*
X130885595Y-84075209D02*
X130885595Y-83567209D01*
X131224261Y-83567209D02*
X131321023Y-83567209D01*
X131369404Y-83591400D01*
X131417785Y-83639780D01*
X131441976Y-83736542D01*
X131441976Y-83905876D01*
X131417785Y-84002638D01*
X131369404Y-84051019D01*
X131321023Y-84075209D01*
X131224261Y-84075209D01*
X131175880Y-84051019D01*
X131127500Y-84002638D01*
X131103309Y-83905876D01*
X131103309Y-83736542D01*
X131127500Y-83639780D01*
X131175880Y-83591400D01*
X131224261Y-83567209D01*
X131925785Y-84075209D02*
X131635500Y-84075209D01*
X131780642Y-84075209D02*
X131780642Y-83567209D01*
X131732261Y-83639780D01*
X131683880Y-83688161D01*
X131635500Y-83712352D01*
X132385404Y-83567209D02*
X132143500Y-83567209D01*
X132119309Y-83809114D01*
X132143500Y-83784923D01*
X132191880Y-83760733D01*
X132312833Y-83760733D01*
X132361214Y-83784923D01*
X132385404Y-83809114D01*
X132409595Y-83857495D01*
X132409595Y-83978447D01*
X132385404Y-84026828D01*
X132361214Y-84051019D01*
X132312833Y-84075209D01*
X132191880Y-84075209D01*
X132143500Y-84051019D01*
X132119309Y-84026828D01*
X130123595Y-73431400D02*
X130075214Y-73407209D01*
X130002642Y-73407209D01*
X129930071Y-73431400D01*
X129881690Y-73479780D01*
X129857500Y-73528161D01*
X129833309Y-73624923D01*
X129833309Y-73697495D01*
X129857500Y-73794257D01*
X129881690Y-73842638D01*
X129930071Y-73891019D01*
X130002642Y-73915209D01*
X130051023Y-73915209D01*
X130123595Y-73891019D01*
X130147785Y-73866828D01*
X130147785Y-73697495D01*
X130051023Y-73697495D01*
X130365500Y-73915209D02*
X130365500Y-73407209D01*
X130559023Y-73407209D01*
X130607404Y-73431400D01*
X130631595Y-73455590D01*
X130655785Y-73503971D01*
X130655785Y-73576542D01*
X130631595Y-73624923D01*
X130607404Y-73649114D01*
X130559023Y-73673304D01*
X130365500Y-73673304D01*
X130873500Y-73915209D02*
X130873500Y-73407209D01*
X131212166Y-73407209D02*
X131308928Y-73407209D01*
X131357309Y-73431400D01*
X131405690Y-73479780D01*
X131429880Y-73576542D01*
X131429880Y-73745876D01*
X131405690Y-73842638D01*
X131357309Y-73891019D01*
X131308928Y-73915209D01*
X131212166Y-73915209D01*
X131163785Y-73891019D01*
X131115404Y-73842638D01*
X131091214Y-73745876D01*
X131091214Y-73576542D01*
X131115404Y-73479780D01*
X131163785Y-73431400D01*
X131212166Y-73407209D01*
X131865309Y-73576542D02*
X131865309Y-73915209D01*
X131744357Y-73383019D02*
X131623404Y-73745876D01*
X131937880Y-73745876D01*
X129927047Y-71109114D02*
X130096380Y-71109114D01*
X130168952Y-71375209D02*
X129927047Y-71375209D01*
X129927047Y-70867209D01*
X130168952Y-70867209D01*
X130386666Y-71375209D02*
X130386666Y-70867209D01*
X130676952Y-71375209D01*
X130676952Y-70867209D01*
X129794000Y-66101685D02*
X130181047Y-66101685D01*
X129987523Y-66295209D02*
X129987523Y-65908161D01*
X130374571Y-65787209D02*
X130689047Y-65787209D01*
X130519714Y-65980733D01*
X130592285Y-65980733D01*
X130640666Y-66004923D01*
X130664857Y-66029114D01*
X130689047Y-66077495D01*
X130689047Y-66198447D01*
X130664857Y-66246828D01*
X130640666Y-66271019D01*
X130592285Y-66295209D01*
X130447142Y-66295209D01*
X130398761Y-66271019D01*
X130374571Y-66246828D01*
X130906761Y-66246828D02*
X130930952Y-66271019D01*
X130906761Y-66295209D01*
X130882571Y-66271019D01*
X130906761Y-66246828D01*
X130906761Y-66295209D01*
X131100285Y-65787209D02*
X131414761Y-65787209D01*
X131245428Y-65980733D01*
X131318000Y-65980733D01*
X131366380Y-66004923D01*
X131390571Y-66029114D01*
X131414761Y-66077495D01*
X131414761Y-66198447D01*
X131390571Y-66246828D01*
X131366380Y-66271019D01*
X131318000Y-66295209D01*
X131172857Y-66295209D01*
X131124476Y-66271019D01*
X131100285Y-66246828D01*
X131559904Y-65787209D02*
X131729238Y-66295209D01*
X131898571Y-65787209D01*
D13*
X153851428Y-82126666D02*
X153851428Y-81788000D01*
X154383619Y-81642857D02*
X154383619Y-82126666D01*
X153367619Y-82126666D01*
X153367619Y-81642857D01*
X154335238Y-81255809D02*
X154383619Y-81110666D01*
X154383619Y-80868761D01*
X154335238Y-80772000D01*
X154286857Y-80723619D01*
X154190095Y-80675238D01*
X154093333Y-80675238D01*
X153996571Y-80723619D01*
X153948190Y-80772000D01*
X153899809Y-80868761D01*
X153851428Y-81062285D01*
X153803047Y-81159047D01*
X153754666Y-81207428D01*
X153657904Y-81255809D01*
X153561142Y-81255809D01*
X153464380Y-81207428D01*
X153416000Y-81159047D01*
X153367619Y-81062285D01*
X153367619Y-80820380D01*
X153416000Y-80675238D01*
X154383619Y-80239809D02*
X153367619Y-80239809D01*
X153367619Y-79852761D01*
X153416000Y-79756000D01*
X153464380Y-79707619D01*
X153561142Y-79659238D01*
X153706285Y-79659238D01*
X153803047Y-79707619D01*
X153851428Y-79756000D01*
X153899809Y-79852761D01*
X153899809Y-80239809D01*
X153367619Y-79320571D02*
X153367619Y-78691619D01*
X153754666Y-79030285D01*
X153754666Y-78885142D01*
X153803047Y-78788380D01*
X153851428Y-78740000D01*
X153948190Y-78691619D01*
X154190095Y-78691619D01*
X154286857Y-78740000D01*
X154335238Y-78788380D01*
X154383619Y-78885142D01*
X154383619Y-79175428D01*
X154335238Y-79272190D01*
X154286857Y-79320571D01*
X153464380Y-78304571D02*
X153416000Y-78256190D01*
X153367619Y-78159428D01*
X153367619Y-77917523D01*
X153416000Y-77820761D01*
X153464380Y-77772380D01*
X153561142Y-77724000D01*
X153657904Y-77724000D01*
X153803047Y-77772380D01*
X154383619Y-78352952D01*
X154383619Y-77724000D01*
X153996571Y-77288571D02*
X153996571Y-76514476D01*
X154335238Y-76079047D02*
X154383619Y-75933904D01*
X154383619Y-75692000D01*
X154335238Y-75595238D01*
X154286857Y-75546857D01*
X154190095Y-75498476D01*
X154093333Y-75498476D01*
X153996571Y-75546857D01*
X153948190Y-75595238D01*
X153899809Y-75692000D01*
X153851428Y-75885523D01*
X153803047Y-75982285D01*
X153754666Y-76030666D01*
X153657904Y-76079047D01*
X153561142Y-76079047D01*
X153464380Y-76030666D01*
X153416000Y-75982285D01*
X153367619Y-75885523D01*
X153367619Y-75643619D01*
X153416000Y-75498476D01*
X153367619Y-75159809D02*
X153367619Y-74530857D01*
X153754666Y-74869523D01*
X153754666Y-74724380D01*
X153803047Y-74627619D01*
X153851428Y-74579238D01*
X153948190Y-74530857D01*
X154190095Y-74530857D01*
X154286857Y-74579238D01*
X154335238Y-74627619D01*
X154383619Y-74724380D01*
X154383619Y-75014666D01*
X154335238Y-75111428D01*
X154286857Y-75159809D01*
X153996571Y-74095428D02*
X153996571Y-73321333D01*
X154383619Y-72837523D02*
X153367619Y-72837523D01*
X153367619Y-72595619D01*
X153416000Y-72450476D01*
X153512761Y-72353714D01*
X153609523Y-72305333D01*
X153803047Y-72256952D01*
X153948190Y-72256952D01*
X154141714Y-72305333D01*
X154238476Y-72353714D01*
X154335238Y-72450476D01*
X154383619Y-72595619D01*
X154383619Y-72837523D01*
X154335238Y-71434476D02*
X154383619Y-71531238D01*
X154383619Y-71724761D01*
X154335238Y-71821523D01*
X154238476Y-71869904D01*
X153851428Y-71869904D01*
X153754666Y-71821523D01*
X153706285Y-71724761D01*
X153706285Y-71531238D01*
X153754666Y-71434476D01*
X153851428Y-71386095D01*
X153948190Y-71386095D01*
X154044952Y-71869904D01*
X153706285Y-71047428D02*
X154383619Y-70805523D01*
X153706285Y-70563619D01*
X154383619Y-70176571D02*
X153367619Y-70176571D01*
X154383619Y-69596000D02*
X153803047Y-70031428D01*
X153367619Y-69596000D02*
X153948190Y-70176571D01*
X154383619Y-69160571D02*
X153706285Y-69160571D01*
X153367619Y-69160571D02*
X153416000Y-69208952D01*
X153464380Y-69160571D01*
X153416000Y-69112190D01*
X153367619Y-69160571D01*
X153464380Y-69160571D01*
X153706285Y-68821904D02*
X153706285Y-68434857D01*
X153367619Y-68676761D02*
X154238476Y-68676761D01*
X154335238Y-68628380D01*
X154383619Y-68531619D01*
X154383619Y-68434857D01*
X153996571Y-68096190D02*
X153996571Y-67322095D01*
X154383619Y-66354476D02*
X154383619Y-66838285D01*
X153367619Y-66838285D01*
X154383619Y-66015809D02*
X153706285Y-66015809D01*
X153367619Y-66015809D02*
X153416000Y-66064190D01*
X153464380Y-66015809D01*
X153416000Y-65967428D01*
X153367619Y-66015809D01*
X153464380Y-66015809D01*
X153706285Y-65532000D02*
X154722285Y-65532000D01*
X153754666Y-65532000D02*
X153706285Y-65435238D01*
X153706285Y-65241714D01*
X153754666Y-65144952D01*
X153803047Y-65096571D01*
X153899809Y-65048190D01*
X154190095Y-65048190D01*
X154286857Y-65096571D01*
X154335238Y-65144952D01*
X154383619Y-65241714D01*
X154383619Y-65435238D01*
X154335238Y-65532000D01*
X154383619Y-64467619D02*
X154335238Y-64564380D01*
X154286857Y-64612761D01*
X154190095Y-64661142D01*
X153899809Y-64661142D01*
X153803047Y-64612761D01*
X153754666Y-64564380D01*
X153706285Y-64467619D01*
X153706285Y-64322476D01*
X153754666Y-64225714D01*
X153803047Y-64177333D01*
X153899809Y-64128952D01*
X154190095Y-64128952D01*
X154286857Y-64177333D01*
X154335238Y-64225714D01*
X154383619Y-64322476D01*
X154383619Y-64467619D01*
X150068280Y-92552520D02*
X154561540Y-92552520D01*
X150068280Y-86517480D02*
X150068280Y-92552520D01*
X154584400Y-86517480D02*
X150068280Y-86517480D01*
X154584400Y-92565220D02*
X154584400Y-86517480D01*
G36*
X147701000Y-91716000D02*
G01*
X147701000Y-89662000D01*
X138303000Y-89662000D01*
X138303000Y-91716000D01*
X147701000Y-91716000D01*
G37*
X147701000Y-91716000D02*
X147701000Y-89662000D01*
X138303000Y-89662000D01*
X138303000Y-91716000D01*
X147701000Y-91716000D01*
X147701000Y-91716000D02*
X138303000Y-91716000D01*
X145796000Y-108077000D02*
X145796000Y-109093000D01*
X147320000Y-108077000D02*
X147320000Y-109093000D01*
X144526000Y-107315000D02*
X144907000Y-107315000D01*
X144399000Y-107442000D02*
X145034000Y-107442000D01*
X144272000Y-107569000D02*
X145034000Y-107569000D01*
X144272000Y-107696000D02*
X145161000Y-107696000D01*
X145161000Y-107823000D02*
X144018000Y-107823000D01*
X144018000Y-107950000D02*
X145288000Y-107950000D01*
X145415000Y-108077000D02*
X143891000Y-108077000D01*
X143713200Y-106857800D02*
X143713200Y-106680000D01*
X145618200Y-106857800D02*
X145618200Y-106680000D01*
X143713200Y-106680000D02*
X145618200Y-106680000D01*
X143713200Y-108229400D02*
X145618200Y-108229400D01*
X143713200Y-106857800D02*
X145618200Y-106857800D01*
X144627600Y-106857800D02*
X145618200Y-108229400D01*
X143713200Y-108229400D02*
X144627600Y-106857800D01*
X144665700Y-108813600D02*
X144665700Y-106337100D01*
X142494000Y-107315000D02*
X142875000Y-107315000D01*
X142367000Y-107442000D02*
X143002000Y-107442000D01*
X142240000Y-107569000D02*
X143002000Y-107569000D01*
X142240000Y-107696000D02*
X143129000Y-107696000D01*
X143129000Y-107823000D02*
X141986000Y-107823000D01*
X141986000Y-107950000D02*
X143256000Y-107950000D01*
X143383000Y-108077000D02*
X141859000Y-108077000D01*
X141681200Y-106857800D02*
X141681200Y-106680000D01*
X143586200Y-106857800D02*
X143586200Y-106680000D01*
X141681200Y-106680000D02*
X143586200Y-106680000D01*
X141681200Y-108229400D02*
X143586200Y-108229400D01*
X141681200Y-106857800D02*
X143586200Y-106857800D01*
X142595600Y-106857800D02*
X143586200Y-108229400D01*
X141681200Y-108229400D02*
X142595600Y-106857800D01*
X142633700Y-108813600D02*
X142633700Y-106337100D01*
X138366500Y-99314000D02*
X138366500Y-99060000D01*
X138366500Y-99314000D02*
X138366500Y-99568000D01*
X137477500Y-99314000D02*
X137477500Y-99568000D01*
X137477500Y-99314000D02*
X137477500Y-99060000D01*
X139192000Y-106426000D02*
X140208000Y-106426000D01*
X139192000Y-104902000D02*
X140208000Y-104902000D01*
X146558000Y-97332800D02*
X146558000Y-96621600D01*
X145719800Y-96621600D02*
X146558000Y-96621600D01*
X145719800Y-99466400D02*
X146558000Y-99466400D01*
X146558000Y-99466400D02*
X146558000Y-98755200D01*
D11*
X134191000Y-113455000D02*
X134291000Y-113705000D01*
X134191000Y-113455000D02*
X134091000Y-113705000D01*
X134191000Y-114205000D02*
X134191000Y-113455000D01*
X135141000Y-113455000D02*
X135241000Y-113705000D01*
X135141000Y-113455000D02*
X135041000Y-113705000D01*
X135791000Y-113455000D02*
X135891000Y-113705000D01*
X135141000Y-114205000D02*
X135141000Y-113455000D01*
X135791000Y-115955000D02*
X135791000Y-113455000D01*
X135791000Y-113455000D02*
X135691000Y-113705000D01*
X136291000Y-114205000D02*
X136291000Y-113455000D01*
X136791000Y-115955000D02*
X136791000Y-113455000D01*
X136791000Y-113455000D02*
X136691000Y-113705000D01*
X136291000Y-113455000D02*
X136391000Y-113705000D01*
X136791000Y-113455000D02*
X136891000Y-113705000D01*
X136291000Y-113455000D02*
X136191000Y-113705000D01*
X137291000Y-114205000D02*
X137291000Y-113455000D01*
X137291000Y-113455000D02*
X137191000Y-113705000D01*
X137291000Y-113455000D02*
X137391000Y-113705000D01*
X137791000Y-115955000D02*
X137791000Y-113455000D01*
X137791000Y-113455000D02*
X137891000Y-113705000D01*
X137791000Y-113455000D02*
X137691000Y-113705000D01*
X138291000Y-113455000D02*
X138391000Y-113705000D01*
X138291000Y-114205000D02*
X138291000Y-113455000D01*
X138291000Y-113455000D02*
X138191000Y-113705000D01*
X138791000Y-113455000D02*
X138891000Y-113705000D01*
X138791000Y-115955000D02*
X138791000Y-113455000D01*
X138791000Y-113455000D02*
X138691000Y-113705000D01*
X140891000Y-113455000D02*
X140991000Y-113705000D01*
X140891000Y-114205000D02*
X140891000Y-113455000D01*
X140891000Y-113455000D02*
X140791000Y-113705000D01*
X139941000Y-113455000D02*
X140041000Y-113705000D01*
X139941000Y-113455000D02*
X139841000Y-113705000D01*
X139291000Y-113455000D02*
X139191000Y-113705000D01*
X139291000Y-113455000D02*
X139391000Y-113705000D01*
X139941000Y-113455000D02*
X139941000Y-114205000D01*
X139291000Y-114205000D02*
X139291000Y-113455000D01*
D13*
X133071000Y-118655000D02*
X133071000Y-120523000D01*
X142011000Y-120523000D02*
X142011000Y-118655000D01*
X133071000Y-120523000D02*
X142011000Y-120523000D01*
X142011000Y-114655000D02*
X142011000Y-115955000D01*
X133071000Y-114655000D02*
X133071000Y-115955000D01*
D11*
X146129000Y-113455000D02*
X146229000Y-113705000D01*
X146129000Y-113455000D02*
X146029000Y-113705000D01*
X146129000Y-114205000D02*
X146129000Y-113455000D01*
X147079000Y-113455000D02*
X147179000Y-113705000D01*
X147079000Y-113455000D02*
X146979000Y-113705000D01*
X147729000Y-113455000D02*
X147829000Y-113705000D01*
X147079000Y-114205000D02*
X147079000Y-113455000D01*
X147729000Y-115955000D02*
X147729000Y-113455000D01*
X147729000Y-113455000D02*
X147629000Y-113705000D01*
X148229000Y-114205000D02*
X148229000Y-113455000D01*
X148729000Y-115955000D02*
X148729000Y-113455000D01*
X148729000Y-113455000D02*
X148629000Y-113705000D01*
X148229000Y-113455000D02*
X148329000Y-113705000D01*
X148729000Y-113455000D02*
X148829000Y-113705000D01*
X148229000Y-113455000D02*
X148129000Y-113705000D01*
X149229000Y-114205000D02*
X149229000Y-113455000D01*
X149229000Y-113455000D02*
X149129000Y-113705000D01*
X149229000Y-113455000D02*
X149329000Y-113705000D01*
X149729000Y-115955000D02*
X149729000Y-113455000D01*
X149729000Y-113455000D02*
X149829000Y-113705000D01*
X149729000Y-113455000D02*
X149629000Y-113705000D01*
X150229000Y-113455000D02*
X150329000Y-113705000D01*
X150229000Y-114205000D02*
X150229000Y-113455000D01*
X150229000Y-113455000D02*
X150129000Y-113705000D01*
X150729000Y-113455000D02*
X150829000Y-113705000D01*
X150729000Y-115955000D02*
X150729000Y-113455000D01*
X150729000Y-113455000D02*
X150629000Y-113705000D01*
X152829000Y-113455000D02*
X152929000Y-113705000D01*
X152829000Y-114205000D02*
X152829000Y-113455000D01*
X152829000Y-113455000D02*
X152729000Y-113705000D01*
X151879000Y-113455000D02*
X151979000Y-113705000D01*
X151879000Y-113455000D02*
X151779000Y-113705000D01*
X151229000Y-113455000D02*
X151129000Y-113705000D01*
X151229000Y-113455000D02*
X151329000Y-113705000D01*
X151879000Y-113455000D02*
X151879000Y-114205000D01*
X151229000Y-114205000D02*
X151229000Y-113455000D01*
D13*
X145009000Y-118655000D02*
X145009000Y-120523000D01*
X153949000Y-120523000D02*
X153949000Y-118655000D01*
X145009000Y-120523000D02*
X153949000Y-120523000D01*
X153949000Y-114655000D02*
X153949000Y-115955000D01*
X145009000Y-114655000D02*
X145009000Y-115955000D01*
X132793000Y-104589000D02*
X132793000Y-100389000D01*
X132793000Y-100389000D02*
X132893000Y-100389000D01*
X132793000Y-104589000D02*
X132893000Y-104589000D01*
X136093000Y-104589000D02*
X136193000Y-104589000D01*
X136193000Y-104589000D02*
X136193000Y-100389000D01*
X136193000Y-100389000D02*
X136093000Y-100389000D01*
X134993000Y-100389000D02*
X133993000Y-100389000D01*
X134993000Y-104589000D02*
X133993000Y-104589000D01*
X146685000Y-105854500D02*
X146939000Y-105854500D01*
X146685000Y-105854500D02*
X146431000Y-105854500D01*
X146685000Y-104965500D02*
X146431000Y-104965500D01*
X146685000Y-104965500D02*
X146939000Y-104965500D01*
X131953000Y-67691000D02*
X131953000Y-68707000D01*
X133477000Y-67691000D02*
X133477000Y-68707000D01*
X133159500Y-65532000D02*
X133159500Y-65278000D01*
X133159500Y-65532000D02*
X133159500Y-65786000D01*
X132270500Y-65532000D02*
X132270500Y-65786000D01*
X132270500Y-65532000D02*
X132270500Y-65278000D01*
X133096000Y-98069400D02*
X133096000Y-99110800D01*
X132930900Y-98996500D02*
X132930900Y-98171000D01*
X133083300Y-98031300D02*
X132943600Y-98158300D01*
X133083300Y-99123500D02*
X132930900Y-98996500D01*
D14*
X134522200Y-98327400D02*
X134652200Y-98217400D01*
X134662200Y-98197400D02*
X134582200Y-98207400D01*
X134662200Y-98197400D02*
X134662200Y-98277400D01*
X134446800Y-98197400D02*
X134446800Y-98277400D01*
X134446800Y-98197400D02*
X134366800Y-98207400D01*
X134315200Y-98306400D02*
X134445200Y-98196400D01*
D15*
X134393000Y-98662000D02*
X134393000Y-98442000D01*
X134583000Y-98442000D02*
X134483000Y-98542000D01*
X134583000Y-98662000D02*
X134473000Y-98562000D01*
X134583000Y-98662000D02*
X134583000Y-98442000D01*
X134753000Y-98552000D02*
X134233000Y-98552000D01*
D11*
X134112000Y-99187000D02*
X133096000Y-99187000D01*
X133096000Y-97967800D02*
X134112000Y-97967800D01*
D13*
X152781000Y-108077000D02*
X152781000Y-109093000D01*
X154305000Y-108077000D02*
X154305000Y-109093000D01*
X134747000Y-97599500D02*
X135001000Y-97599500D01*
X134747000Y-97599500D02*
X134493000Y-97599500D01*
X134747000Y-96710500D02*
X134493000Y-96710500D01*
X134747000Y-96710500D02*
X135001000Y-96710500D01*
X133985000Y-106489500D02*
X134239000Y-106489500D01*
X133985000Y-106489500D02*
X133731000Y-106489500D01*
X133985000Y-105600500D02*
X133731000Y-105600500D01*
X133985000Y-105600500D02*
X134239000Y-105600500D01*
X138049000Y-108331000D02*
X138049000Y-109347000D01*
X139573000Y-108331000D02*
X139573000Y-109347000D01*
X139827000Y-108331000D02*
X139827000Y-109347000D01*
X141351000Y-108331000D02*
X141351000Y-109347000D01*
X140589000Y-85407500D02*
X140335000Y-85407500D01*
X140589000Y-85407500D02*
X140843000Y-85407500D01*
X140589000Y-86296500D02*
X140843000Y-86296500D01*
X140589000Y-86296500D02*
X140335000Y-86296500D01*
X132793000Y-91635000D02*
X132793000Y-87435000D01*
X132793000Y-87435000D02*
X132893000Y-87435000D01*
X132793000Y-91635000D02*
X132893000Y-91635000D01*
X136093000Y-91635000D02*
X136193000Y-91635000D01*
X136193000Y-91635000D02*
X136193000Y-87435000D01*
X136193000Y-87435000D02*
X136093000Y-87435000D01*
X134993000Y-87435000D02*
X133993000Y-87435000D01*
X134993000Y-91635000D02*
X133993000Y-91635000D01*
X147978999Y-105561000D02*
X147978999Y-108561000D01*
X150978999Y-105561000D02*
X147978999Y-105561000D01*
X150978999Y-108561000D02*
X150978999Y-105561000D01*
X149069511Y-107811000D02*
G75*
G03X149069511Y-107811000I-390512J0D01*
G01*
X150978999Y-108561000D02*
X147978999Y-108561000D01*
X134510000Y-63481000D02*
X152510000Y-63481000D01*
X134510000Y-57481000D02*
X152510000Y-57481000D01*
X152510000Y-57481000D02*
X152510000Y-64201000D01*
X134510000Y-64201000D02*
X134510000Y-57481000D01*
X134510000Y-82251000D02*
X134510000Y-82981000D01*
X134510000Y-82981000D02*
X135755000Y-82981000D01*
X152510000Y-82251000D02*
X152510000Y-82981000D01*
X152510000Y-82981000D02*
X151265000Y-82981000D01*
X143891000Y-92456000D02*
X142875000Y-92456000D01*
X143891000Y-93980000D02*
X142875000Y-93980000D01*
X141732000Y-97917000D02*
X141732000Y-98933000D01*
X143256000Y-97917000D02*
X143256000Y-98933000D01*
X144716500Y-85598000D02*
X144716500Y-85852000D01*
X144716500Y-85598000D02*
X144716500Y-85344000D01*
X145605500Y-85598000D02*
X145605500Y-85344000D01*
X145605500Y-85598000D02*
X145605500Y-85852000D01*
X131953000Y-70866000D02*
X131953000Y-71882000D01*
X133477000Y-70866000D02*
X133477000Y-71882000D01*
X135890000Y-94716600D02*
X135890000Y-93675200D01*
X136055100Y-93789500D02*
X136055100Y-94615000D01*
X135902700Y-94754700D02*
X136042400Y-94627700D01*
X135902700Y-93662500D02*
X136055100Y-93789500D01*
D14*
X134463800Y-94458600D02*
X134333800Y-94568600D01*
X134323800Y-94588600D02*
X134403800Y-94578600D01*
X134323800Y-94588600D02*
X134323800Y-94508600D01*
X134539200Y-94588600D02*
X134539200Y-94508600D01*
X134539200Y-94588600D02*
X134619200Y-94578600D01*
X134670800Y-94479600D02*
X134540800Y-94589600D01*
D15*
X134593000Y-94124000D02*
X134593000Y-94344000D01*
X134403000Y-94344000D02*
X134503000Y-94244000D01*
X134403000Y-94124000D02*
X134513000Y-94224000D01*
X134403000Y-94124000D02*
X134403000Y-94344000D01*
X134233000Y-94234000D02*
X134753000Y-94234000D01*
D11*
X134874000Y-93599000D02*
X135890000Y-93599000D01*
X135890000Y-94818200D02*
X134874000Y-94818200D01*
D13*
X144526000Y-101092000D02*
X144526000Y-101473000D01*
X144399000Y-100965000D02*
X144399000Y-101600000D01*
X144272000Y-100838000D02*
X144272000Y-101600000D01*
X144145000Y-100838000D02*
X144145000Y-101727000D01*
X144018000Y-101727000D02*
X144018000Y-100584000D01*
X143891000Y-100584000D02*
X143891000Y-101854000D01*
X143764000Y-101981000D02*
X143764000Y-100457000D01*
X144983200Y-100279200D02*
X145161000Y-100279200D01*
X144983200Y-102184200D02*
X145161000Y-102184200D01*
X145161000Y-100279200D02*
X145161000Y-102184200D01*
X143611600Y-100279200D02*
X143611600Y-102184200D01*
X144983200Y-100279200D02*
X144983200Y-102184200D01*
X144983200Y-101193600D02*
X143611600Y-102184200D01*
X143611600Y-100279200D02*
X144983200Y-101193600D01*
X143027400Y-101231700D02*
X145503900Y-101231700D01*
D16*
X138950000Y-102466000D02*
X138600000Y-102466000D01*
X140450000Y-102466000D02*
X140800000Y-102466000D01*
D13*
X141200000Y-102416000D02*
X141200000Y-102816000D01*
X138200000Y-102416000D02*
X138200000Y-102816000D01*
D16*
X139950000Y-102516000D02*
G75*
G02X139450000Y-102516000I-250000J0D01*
G01*
X140450000Y-102516000D02*
G75*
G02X139950000Y-102516000I-250000J0D01*
G01*
X139450000Y-102516000D02*
G75*
G02X138950000Y-102516000I-250000J0D01*
G01*
D13*
X142621000Y-95313500D02*
X142875000Y-95313500D01*
X142621000Y-95313500D02*
X142367000Y-95313500D01*
X142621000Y-94424500D02*
X142367000Y-94424500D01*
X142621000Y-94424500D02*
X142875000Y-94424500D01*
X134747000Y-95186500D02*
X134493000Y-95186500D01*
X134747000Y-95186500D02*
X135001000Y-95186500D01*
X134747000Y-96075500D02*
X135001000Y-96075500D01*
X134747000Y-96075500D02*
X134493000Y-96075500D01*
X145224500Y-95250000D02*
X145224500Y-94996000D01*
X145224500Y-95250000D02*
X145224500Y-95504000D01*
X144335500Y-95250000D02*
X144335500Y-95504000D01*
X144335500Y-95250000D02*
X144335500Y-94996000D01*
X147002500Y-85598000D02*
X147002500Y-85852000D01*
X147002500Y-85598000D02*
X147002500Y-85344000D01*
X147891500Y-85598000D02*
X147891500Y-85344000D01*
X147891500Y-85598000D02*
X147891500Y-85852000D01*
X146748500Y-85598000D02*
X146748500Y-85344000D01*
X146748500Y-85598000D02*
X146748500Y-85852000D01*
X145859500Y-85598000D02*
X145859500Y-85852000D01*
X145859500Y-85598000D02*
X145859500Y-85344000D01*
X147510500Y-100838000D02*
X147510500Y-101092000D01*
X147510500Y-100838000D02*
X147510500Y-100584000D01*
X148399500Y-100838000D02*
X148399500Y-100584000D01*
X148399500Y-100838000D02*
X148399500Y-101092000D01*
X149542500Y-100838000D02*
X149542500Y-100584000D01*
X149542500Y-100838000D02*
X149542500Y-101092000D01*
X148653500Y-100838000D02*
X148653500Y-101092000D01*
X148653500Y-100838000D02*
X148653500Y-100584000D01*
X137477500Y-97028000D02*
X137477500Y-97282000D01*
X137477500Y-97028000D02*
X137477500Y-96774000D01*
X138366500Y-97028000D02*
X138366500Y-96774000D01*
X138366500Y-97028000D02*
X138366500Y-97282000D01*
X151701500Y-105029000D02*
X151701500Y-105283000D01*
X151701500Y-105029000D02*
X151701500Y-104775000D01*
X152590500Y-105029000D02*
X152590500Y-104775000D01*
X152590500Y-105029000D02*
X152590500Y-105283000D01*
X143319500Y-103378000D02*
X143319500Y-103632000D01*
X143319500Y-103378000D02*
X143319500Y-103124000D01*
X144208500Y-103378000D02*
X144208500Y-103124000D01*
X144208500Y-103378000D02*
X144208500Y-103632000D01*
X147269200Y-95643700D02*
X148399500Y-95643700D01*
X147269200Y-92837000D02*
X148399500Y-92837000D01*
X138544300Y-97612200D02*
X138544300Y-98742500D01*
X141351000Y-97612200D02*
X141351000Y-98742500D01*
X153797000Y-105346500D02*
X153543000Y-105346500D01*
X153797000Y-105346500D02*
X154051000Y-105346500D01*
X153797000Y-106235500D02*
X154051000Y-106235500D01*
X153797000Y-106235500D02*
X153543000Y-106235500D01*
X153797000Y-105219500D02*
X153543000Y-105219500D01*
X153797000Y-105219500D02*
X154051000Y-105219500D01*
X153797000Y-104330500D02*
X154051000Y-104330500D01*
X153797000Y-104330500D02*
X153543000Y-104330500D01*
X138557000Y-85407500D02*
X138811000Y-85407500D01*
X138557000Y-85407500D02*
X138303000Y-85407500D01*
X138557000Y-86296500D02*
X138303000Y-86296500D01*
X138557000Y-86296500D02*
X138811000Y-86296500D01*
X152590500Y-102870000D02*
X152590500Y-103124000D01*
X152590500Y-102870000D02*
X152590500Y-102616000D01*
X151701500Y-102870000D02*
X151701500Y-102616000D01*
X151701500Y-102870000D02*
X151701500Y-103124000D01*
X149669500Y-98298000D02*
X149669500Y-98552000D01*
X149669500Y-98298000D02*
X149669500Y-98044000D01*
X150558500Y-98298000D02*
X150558500Y-98044000D01*
X150558500Y-98298000D02*
X150558500Y-98552000D01*
X151257000Y-98653600D02*
X151257000Y-99364800D01*
X152095200Y-98653600D02*
X151257000Y-98653600D01*
X152095200Y-101498400D02*
X151257000Y-101498400D01*
X151257000Y-100787200D02*
X151257000Y-101498400D01*
X151942800Y-95631000D02*
X151231600Y-95631000D01*
X151231600Y-96469200D02*
X151231600Y-95631000D01*
X154076400Y-96469200D02*
X154076400Y-95631000D01*
X154076400Y-95631000D02*
X153365200Y-95631000D01*
X150368000Y-102425500D02*
X150114000Y-102425500D01*
X150368000Y-102425500D02*
X150622000Y-102425500D01*
X150368000Y-103314500D02*
X150622000Y-103314500D01*
X150368000Y-103314500D02*
X150114000Y-103314500D01*
X153606500Y-103124000D02*
X153606500Y-103378000D01*
X153606500Y-103124000D02*
X153606500Y-102870000D01*
X154495500Y-103124000D02*
X154495500Y-102870000D01*
X154495500Y-103124000D02*
X154495500Y-103378000D01*
X148898428Y-87847714D02*
X148946809Y-87702571D01*
X148995190Y-87654190D01*
X149091952Y-87605809D01*
X149237095Y-87605809D01*
X149333857Y-87654190D01*
X149382238Y-87702571D01*
X149430619Y-87799333D01*
X149430619Y-88186380D01*
X148414619Y-88186380D01*
X148414619Y-87847714D01*
X148463000Y-87750952D01*
X148511380Y-87702571D01*
X148608142Y-87654190D01*
X148704904Y-87654190D01*
X148801666Y-87702571D01*
X148850047Y-87750952D01*
X148898428Y-87847714D01*
X148898428Y-88186380D01*
X149140333Y-87218761D02*
X149140333Y-86734952D01*
X149430619Y-87315523D02*
X148414619Y-86976857D01*
X149430619Y-86638190D01*
X148414619Y-86444666D02*
X148414619Y-85864095D01*
X149430619Y-86154380D02*
X148414619Y-86154380D01*
X149430619Y-84993238D02*
X149430619Y-85573809D01*
X149430619Y-85283523D02*
X148414619Y-85283523D01*
X148559761Y-85380285D01*
X148656523Y-85477047D01*
X148704904Y-85573809D01*
X154012679Y-90203694D02*
X154012679Y-90832265D01*
X154012679Y-90517980D02*
X152912679Y-90517980D01*
X153069821Y-90622741D01*
X153174583Y-90727503D01*
X153226964Y-90832265D01*
X152966640Y-88828205D02*
X152914260Y-88775824D01*
X152861879Y-88671062D01*
X152861879Y-88409158D01*
X152914260Y-88304396D01*
X152966640Y-88252015D01*
X153071402Y-88199634D01*
X153176164Y-88199634D01*
X153333307Y-88252015D01*
X153961879Y-88880586D01*
X153961879Y-88199634D01*
X137135809Y-86777285D02*
X137135809Y-87793285D01*
X137135809Y-86825666D02*
X137232571Y-86777285D01*
X137426095Y-86777285D01*
X137522857Y-86825666D01*
X137571238Y-86874047D01*
X137619619Y-86970809D01*
X137619619Y-87261095D01*
X137571238Y-87357857D01*
X137522857Y-87406238D01*
X137426095Y-87454619D01*
X137232571Y-87454619D01*
X137135809Y-87406238D01*
X138055047Y-86438619D02*
X138055047Y-87261095D01*
X138103428Y-87357857D01*
X138151809Y-87406238D01*
X138248571Y-87454619D01*
X138442095Y-87454619D01*
X138538857Y-87406238D01*
X138587238Y-87357857D01*
X138635619Y-87261095D01*
X138635619Y-86438619D01*
X139119428Y-86922428D02*
X139458095Y-86922428D01*
X139603238Y-87454619D02*
X139119428Y-87454619D01*
X139119428Y-86438619D01*
X139603238Y-86438619D01*
X139941904Y-86438619D02*
X140619238Y-87454619D01*
X140619238Y-86438619D02*
X139941904Y-87454619D01*
X140861142Y-86438619D02*
X141441714Y-86438619D01*
X141151428Y-87454619D02*
X141151428Y-86438619D01*
X142312571Y-87454619D02*
X141732000Y-87454619D01*
X142022285Y-87454619D02*
X142022285Y-86438619D01*
X141925523Y-86583761D01*
X141828761Y-86680523D01*
X141732000Y-86728904D01*
D17*
X147740914Y-87365114D02*
X147305485Y-87365114D01*
X147523200Y-87365114D02*
X147523200Y-86603114D01*
X147450628Y-86711971D01*
X147378057Y-86784542D01*
X147305485Y-86820828D01*
D18*
X146452166Y-107030761D02*
X146240500Y-106728380D01*
X146089309Y-107030761D02*
X146089309Y-106395761D01*
X146331214Y-106395761D01*
X146391690Y-106426000D01*
X146421928Y-106456238D01*
X146452166Y-106516714D01*
X146452166Y-106607428D01*
X146421928Y-106667904D01*
X146391690Y-106698142D01*
X146331214Y-106728380D01*
X146089309Y-106728380D01*
X147026690Y-106395761D02*
X146724309Y-106395761D01*
X146694071Y-106698142D01*
X146724309Y-106667904D01*
X146784785Y-106637666D01*
X146935976Y-106637666D01*
X146996452Y-106667904D01*
X147026690Y-106698142D01*
X147056928Y-106758619D01*
X147056928Y-106909809D01*
X147026690Y-106970285D01*
X146996452Y-107000523D01*
X146935976Y-107030761D01*
X146784785Y-107030761D01*
X146724309Y-107000523D01*
X146694071Y-106970285D01*
D17*
X143709571Y-111215714D02*
X143709571Y-110453714D01*
X143891000Y-110453714D01*
X143999857Y-110490000D01*
X144072428Y-110562571D01*
X144108714Y-110635142D01*
X144145000Y-110780285D01*
X144145000Y-110889142D01*
X144108714Y-111034285D01*
X144072428Y-111106857D01*
X143999857Y-111179428D01*
X143891000Y-111215714D01*
X143709571Y-111215714D01*
X144870714Y-111215714D02*
X144435285Y-111215714D01*
X144653000Y-111215714D02*
X144653000Y-110453714D01*
X144580428Y-110562571D01*
X144507857Y-110635142D01*
X144435285Y-110671428D01*
X142058571Y-111215714D02*
X142058571Y-110453714D01*
X142240000Y-110453714D01*
X142348857Y-110490000D01*
X142421428Y-110562571D01*
X142457714Y-110635142D01*
X142494000Y-110780285D01*
X142494000Y-110889142D01*
X142457714Y-111034285D01*
X142421428Y-111106857D01*
X142348857Y-111179428D01*
X142240000Y-111215714D01*
X142058571Y-111215714D01*
X142748000Y-110453714D02*
X143219714Y-110453714D01*
X142965714Y-110744000D01*
X143074571Y-110744000D01*
X143147142Y-110780285D01*
X143183428Y-110816571D01*
X143219714Y-110889142D01*
X143219714Y-111070571D01*
X143183428Y-111143142D01*
X143147142Y-111179428D01*
X143074571Y-111215714D01*
X142856857Y-111215714D01*
X142784285Y-111179428D01*
X142748000Y-111143142D01*
X137377714Y-101073857D02*
X137014857Y-101327857D01*
X137377714Y-101509285D02*
X136615714Y-101509285D01*
X136615714Y-101219000D01*
X136652000Y-101146428D01*
X136688285Y-101110142D01*
X136760857Y-101073857D01*
X136869714Y-101073857D01*
X136942285Y-101110142D01*
X136978571Y-101146428D01*
X137014857Y-101219000D01*
X137014857Y-101509285D01*
X137377714Y-100348142D02*
X137377714Y-100783571D01*
X137377714Y-100565857D02*
X136615714Y-100565857D01*
X136724571Y-100638428D01*
X136797142Y-100711000D01*
X136833428Y-100783571D01*
X136615714Y-99876428D02*
X136615714Y-99803857D01*
X136652000Y-99731285D01*
X136688285Y-99695000D01*
X136760857Y-99658714D01*
X136906000Y-99622428D01*
X137087428Y-99622428D01*
X137232571Y-99658714D01*
X137305142Y-99695000D01*
X137341428Y-99731285D01*
X137377714Y-99803857D01*
X137377714Y-99876428D01*
X137341428Y-99949000D01*
X137305142Y-99985285D01*
X137232571Y-100021571D01*
X137087428Y-100057857D01*
X136906000Y-100057857D01*
X136760857Y-100021571D01*
X136688285Y-99985285D01*
X136652000Y-99949000D01*
X136615714Y-99876428D01*
X137287000Y-106698142D02*
X137250714Y-106734428D01*
X137141857Y-106770714D01*
X137069285Y-106770714D01*
X136960428Y-106734428D01*
X136887857Y-106661857D01*
X136851571Y-106589285D01*
X136815285Y-106444142D01*
X136815285Y-106335285D01*
X136851571Y-106190142D01*
X136887857Y-106117571D01*
X136960428Y-106045000D01*
X137069285Y-106008714D01*
X137141857Y-106008714D01*
X137250714Y-106045000D01*
X137287000Y-106081285D01*
X137976428Y-106008714D02*
X137613571Y-106008714D01*
X137577285Y-106371571D01*
X137613571Y-106335285D01*
X137686142Y-106299000D01*
X137867571Y-106299000D01*
X137940142Y-106335285D01*
X137976428Y-106371571D01*
X138012714Y-106444142D01*
X138012714Y-106625571D01*
X137976428Y-106698142D01*
X137940142Y-106734428D01*
X137867571Y-106770714D01*
X137686142Y-106770714D01*
X137613571Y-106734428D01*
X137577285Y-106698142D01*
X148789571Y-97917000D02*
X148789571Y-98171000D01*
X149188714Y-98171000D02*
X148426714Y-98171000D01*
X148426714Y-97808142D01*
X148789571Y-97517857D02*
X148789571Y-97263857D01*
X149188714Y-97155000D02*
X149188714Y-97517857D01*
X148426714Y-97517857D01*
X148426714Y-97155000D01*
X148426714Y-96937285D02*
X148426714Y-96501857D01*
X149188714Y-96719571D02*
X148426714Y-96719571D01*
X149188714Y-95848714D02*
X149188714Y-96284142D01*
X149188714Y-96066428D02*
X148426714Y-96066428D01*
X148535571Y-96139000D01*
X148608142Y-96211571D01*
X148644428Y-96284142D01*
D13*
X133718904Y-110441619D02*
X133718904Y-111264095D01*
X133767285Y-111360857D01*
X133815666Y-111409238D01*
X133912428Y-111457619D01*
X134105952Y-111457619D01*
X134202714Y-111409238D01*
X134251095Y-111360857D01*
X134299476Y-111264095D01*
X134299476Y-110441619D01*
X134734904Y-111409238D02*
X134880047Y-111457619D01*
X135121952Y-111457619D01*
X135218714Y-111409238D01*
X135267095Y-111360857D01*
X135315476Y-111264095D01*
X135315476Y-111167333D01*
X135267095Y-111070571D01*
X135218714Y-111022190D01*
X135121952Y-110973809D01*
X134928428Y-110925428D01*
X134831666Y-110877047D01*
X134783285Y-110828666D01*
X134734904Y-110731904D01*
X134734904Y-110635142D01*
X134783285Y-110538380D01*
X134831666Y-110490000D01*
X134928428Y-110441619D01*
X135170333Y-110441619D01*
X135315476Y-110490000D01*
X136089571Y-110925428D02*
X136234714Y-110973809D01*
X136283095Y-111022190D01*
X136331476Y-111118952D01*
X136331476Y-111264095D01*
X136283095Y-111360857D01*
X136234714Y-111409238D01*
X136137952Y-111457619D01*
X135750904Y-111457619D01*
X135750904Y-110441619D01*
X136089571Y-110441619D01*
X136186333Y-110490000D01*
X136234714Y-110538380D01*
X136283095Y-110635142D01*
X136283095Y-110731904D01*
X136234714Y-110828666D01*
X136186333Y-110877047D01*
X136089571Y-110925428D01*
X135750904Y-110925428D01*
X136766904Y-111070571D02*
X137541000Y-111070571D01*
X138218333Y-110441619D02*
X138411857Y-110441619D01*
X138508619Y-110490000D01*
X138605380Y-110586761D01*
X138653761Y-110780285D01*
X138653761Y-111118952D01*
X138605380Y-111312476D01*
X138508619Y-111409238D01*
X138411857Y-111457619D01*
X138218333Y-111457619D01*
X138121571Y-111409238D01*
X138024809Y-111312476D01*
X137976428Y-111118952D01*
X137976428Y-110780285D01*
X138024809Y-110586761D01*
X138121571Y-110490000D01*
X138218333Y-110441619D01*
X138944047Y-110441619D02*
X139524619Y-110441619D01*
X139234333Y-111457619D02*
X139234333Y-110441619D01*
X140395476Y-110490000D02*
X140298714Y-110441619D01*
X140153571Y-110441619D01*
X140008428Y-110490000D01*
X139911666Y-110586761D01*
X139863285Y-110683523D01*
X139814904Y-110877047D01*
X139814904Y-111022190D01*
X139863285Y-111215714D01*
X139911666Y-111312476D01*
X140008428Y-111409238D01*
X140153571Y-111457619D01*
X140250333Y-111457619D01*
X140395476Y-111409238D01*
X140443857Y-111360857D01*
X140443857Y-111022190D01*
X140250333Y-111022190D01*
X141411476Y-111457619D02*
X140830904Y-111457619D01*
X141121190Y-111457619D02*
X141121190Y-110441619D01*
X141024428Y-110586761D01*
X140927666Y-110683523D01*
X140830904Y-110731904D01*
D11*
X140652500Y-115592047D02*
X140628309Y-115640428D01*
X140628309Y-115713000D01*
X140652500Y-115785571D01*
X140700880Y-115833952D01*
X140749261Y-115858142D01*
X140846023Y-115882333D01*
X140918595Y-115882333D01*
X141015357Y-115858142D01*
X141063738Y-115833952D01*
X141112119Y-115785571D01*
X141136309Y-115713000D01*
X141136309Y-115664619D01*
X141112119Y-115592047D01*
X141087928Y-115567857D01*
X140918595Y-115567857D01*
X140918595Y-115664619D01*
X141136309Y-115350142D02*
X140628309Y-115350142D01*
X141136309Y-115059857D01*
X140628309Y-115059857D01*
X141136309Y-114817952D02*
X140628309Y-114817952D01*
X140628309Y-114697000D01*
X140652500Y-114624428D01*
X140700880Y-114576047D01*
X140749261Y-114551857D01*
X140846023Y-114527666D01*
X140918595Y-114527666D01*
X141015357Y-114551857D01*
X141063738Y-114576047D01*
X141112119Y-114624428D01*
X141136309Y-114697000D01*
X141136309Y-114817952D01*
X139802809Y-116374333D02*
X140310809Y-116205000D01*
X139802809Y-116035666D01*
X140044714Y-115697000D02*
X140068904Y-115624428D01*
X140093095Y-115600238D01*
X140141476Y-115576047D01*
X140214047Y-115576047D01*
X140262428Y-115600238D01*
X140286619Y-115624428D01*
X140310809Y-115672809D01*
X140310809Y-115866333D01*
X139802809Y-115866333D01*
X139802809Y-115697000D01*
X139827000Y-115648619D01*
X139851190Y-115624428D01*
X139899571Y-115600238D01*
X139947952Y-115600238D01*
X139996333Y-115624428D01*
X140020523Y-115648619D01*
X140044714Y-115697000D01*
X140044714Y-115866333D01*
X139802809Y-115358333D02*
X140214047Y-115358333D01*
X140262428Y-115334142D01*
X140286619Y-115309952D01*
X140310809Y-115261571D01*
X140310809Y-115164809D01*
X140286619Y-115116428D01*
X140262428Y-115092238D01*
X140214047Y-115068047D01*
X139802809Y-115068047D01*
X140286619Y-114850333D02*
X140310809Y-114777761D01*
X140310809Y-114656809D01*
X140286619Y-114608428D01*
X140262428Y-114584238D01*
X140214047Y-114560047D01*
X140165666Y-114560047D01*
X140117285Y-114584238D01*
X140093095Y-114608428D01*
X140068904Y-114656809D01*
X140044714Y-114753571D01*
X140020523Y-114801952D01*
X139996333Y-114826142D01*
X139947952Y-114850333D01*
X139899571Y-114850333D01*
X139851190Y-114826142D01*
X139827000Y-114801952D01*
X139802809Y-114753571D01*
X139802809Y-114632619D01*
X139827000Y-114560047D01*
X139472428Y-115543666D02*
X139496619Y-115567857D01*
X139520809Y-115640428D01*
X139520809Y-115688809D01*
X139496619Y-115761380D01*
X139448238Y-115809761D01*
X139399857Y-115833952D01*
X139303095Y-115858142D01*
X139230523Y-115858142D01*
X139133761Y-115833952D01*
X139085380Y-115809761D01*
X139037000Y-115761380D01*
X139012809Y-115688809D01*
X139012809Y-115640428D01*
X139037000Y-115567857D01*
X139061190Y-115543666D01*
X139472428Y-115035666D02*
X139496619Y-115059857D01*
X139520809Y-115132428D01*
X139520809Y-115180809D01*
X139496619Y-115253380D01*
X139448238Y-115301761D01*
X139399857Y-115325952D01*
X139303095Y-115350142D01*
X139230523Y-115350142D01*
X139133761Y-115325952D01*
X139085380Y-115301761D01*
X139037000Y-115253380D01*
X139012809Y-115180809D01*
X139012809Y-115132428D01*
X139037000Y-115059857D01*
X139061190Y-115035666D01*
X139061190Y-114842142D02*
X139037000Y-114817952D01*
X139012809Y-114769571D01*
X139012809Y-114648619D01*
X139037000Y-114600238D01*
X139061190Y-114576047D01*
X139109571Y-114551857D01*
X139157952Y-114551857D01*
X139230523Y-114576047D01*
X139520809Y-114866333D01*
X139520809Y-114551857D01*
X138996619Y-118112142D02*
X139020809Y-118039571D01*
X139020809Y-117918619D01*
X138996619Y-117870238D01*
X138972428Y-117846047D01*
X138924047Y-117821857D01*
X138875666Y-117821857D01*
X138827285Y-117846047D01*
X138803095Y-117870238D01*
X138778904Y-117918619D01*
X138754714Y-118015380D01*
X138730523Y-118063761D01*
X138706333Y-118087952D01*
X138657952Y-118112142D01*
X138609571Y-118112142D01*
X138561190Y-118087952D01*
X138537000Y-118063761D01*
X138512809Y-118015380D01*
X138512809Y-117894428D01*
X138537000Y-117821857D01*
X138754714Y-117434809D02*
X138778904Y-117362238D01*
X138803095Y-117338047D01*
X138851476Y-117313857D01*
X138924047Y-117313857D01*
X138972428Y-117338047D01*
X138996619Y-117362238D01*
X139020809Y-117410619D01*
X139020809Y-117604142D01*
X138512809Y-117604142D01*
X138512809Y-117434809D01*
X138537000Y-117386428D01*
X138561190Y-117362238D01*
X138609571Y-117338047D01*
X138657952Y-117338047D01*
X138706333Y-117362238D01*
X138730523Y-117386428D01*
X138754714Y-117434809D01*
X138754714Y-117604142D01*
X138512809Y-117096142D02*
X138924047Y-117096142D01*
X138972428Y-117071952D01*
X138996619Y-117047761D01*
X139020809Y-116999380D01*
X139020809Y-116902619D01*
X138996619Y-116854238D01*
X138972428Y-116830047D01*
X138924047Y-116805857D01*
X138512809Y-116805857D01*
X139020809Y-116297857D02*
X139020809Y-116588142D01*
X139020809Y-116443000D02*
X138512809Y-116443000D01*
X138585380Y-116491380D01*
X138633761Y-116539761D01*
X138657952Y-116588142D01*
X138520809Y-115833952D02*
X138012809Y-115833952D01*
X138012809Y-115713000D01*
X138037000Y-115640428D01*
X138085380Y-115592047D01*
X138133761Y-115567857D01*
X138230523Y-115543666D01*
X138303095Y-115543666D01*
X138399857Y-115567857D01*
X138448238Y-115592047D01*
X138496619Y-115640428D01*
X138520809Y-115713000D01*
X138520809Y-115833952D01*
X138520809Y-115325952D02*
X138012809Y-115325952D01*
X138012809Y-115132428D01*
X138037000Y-115084047D01*
X138061190Y-115059857D01*
X138109571Y-115035666D01*
X138182142Y-115035666D01*
X138230523Y-115059857D01*
X138254714Y-115084047D01*
X138278904Y-115132428D01*
X138278904Y-115325952D01*
X138061190Y-114842142D02*
X138037000Y-114817952D01*
X138012809Y-114769571D01*
X138012809Y-114648619D01*
X138037000Y-114600238D01*
X138061190Y-114576047D01*
X138109571Y-114551857D01*
X138157952Y-114551857D01*
X138230523Y-114576047D01*
X138520809Y-114866333D01*
X138520809Y-114551857D01*
X138020809Y-117596047D02*
X137512809Y-117596047D01*
X137512809Y-117475095D01*
X137537000Y-117402523D01*
X137585380Y-117354142D01*
X137633761Y-117329952D01*
X137730523Y-117305761D01*
X137803095Y-117305761D01*
X137899857Y-117329952D01*
X137948238Y-117354142D01*
X137996619Y-117402523D01*
X138020809Y-117475095D01*
X138020809Y-117596047D01*
X138020809Y-117088047D02*
X137512809Y-117088047D01*
X138020809Y-116797761D01*
X137512809Y-116797761D01*
X138020809Y-116289761D02*
X138020809Y-116580047D01*
X138020809Y-116434904D02*
X137512809Y-116434904D01*
X137585380Y-116483285D01*
X137633761Y-116531666D01*
X137657952Y-116580047D01*
X137520809Y-115833952D02*
X137012809Y-115833952D01*
X137012809Y-115713000D01*
X137037000Y-115640428D01*
X137085380Y-115592047D01*
X137133761Y-115567857D01*
X137230523Y-115543666D01*
X137303095Y-115543666D01*
X137399857Y-115567857D01*
X137448238Y-115592047D01*
X137496619Y-115640428D01*
X137520809Y-115713000D01*
X137520809Y-115833952D01*
X137520809Y-115325952D02*
X137012809Y-115325952D01*
X137012809Y-115132428D01*
X137037000Y-115084047D01*
X137061190Y-115059857D01*
X137109571Y-115035666D01*
X137182142Y-115035666D01*
X137230523Y-115059857D01*
X137254714Y-115084047D01*
X137278904Y-115132428D01*
X137278904Y-115325952D01*
X137520809Y-114551857D02*
X137520809Y-114842142D01*
X137520809Y-114697000D02*
X137012809Y-114697000D01*
X137085380Y-114745380D01*
X137133761Y-114793761D01*
X137157952Y-114842142D01*
X137020809Y-117596047D02*
X136512809Y-117596047D01*
X136512809Y-117475095D01*
X136537000Y-117402523D01*
X136585380Y-117354142D01*
X136633761Y-117329952D01*
X136730523Y-117305761D01*
X136803095Y-117305761D01*
X136899857Y-117329952D01*
X136948238Y-117354142D01*
X136996619Y-117402523D01*
X137020809Y-117475095D01*
X137020809Y-117596047D01*
X137020809Y-117088047D02*
X136512809Y-117088047D01*
X137020809Y-116797761D01*
X136512809Y-116797761D01*
X136561190Y-116580047D02*
X136537000Y-116555857D01*
X136512809Y-116507476D01*
X136512809Y-116386523D01*
X136537000Y-116338142D01*
X136561190Y-116313952D01*
X136609571Y-116289761D01*
X136657952Y-116289761D01*
X136730523Y-116313952D01*
X137020809Y-116604238D01*
X137020809Y-116289761D01*
X136472428Y-115543666D02*
X136496619Y-115567857D01*
X136520809Y-115640428D01*
X136520809Y-115688809D01*
X136496619Y-115761380D01*
X136448238Y-115809761D01*
X136399857Y-115833952D01*
X136303095Y-115858142D01*
X136230523Y-115858142D01*
X136133761Y-115833952D01*
X136085380Y-115809761D01*
X136037000Y-115761380D01*
X136012809Y-115688809D01*
X136012809Y-115640428D01*
X136037000Y-115567857D01*
X136061190Y-115543666D01*
X136472428Y-115035666D02*
X136496619Y-115059857D01*
X136520809Y-115132428D01*
X136520809Y-115180809D01*
X136496619Y-115253380D01*
X136448238Y-115301761D01*
X136399857Y-115325952D01*
X136303095Y-115350142D01*
X136230523Y-115350142D01*
X136133761Y-115325952D01*
X136085380Y-115301761D01*
X136037000Y-115253380D01*
X136012809Y-115180809D01*
X136012809Y-115132428D01*
X136037000Y-115059857D01*
X136061190Y-115035666D01*
X136520809Y-114551857D02*
X136520809Y-114842142D01*
X136520809Y-114697000D02*
X136012809Y-114697000D01*
X136085380Y-114745380D01*
X136133761Y-114793761D01*
X136157952Y-114842142D01*
X135996619Y-118112142D02*
X136020809Y-118039571D01*
X136020809Y-117918619D01*
X135996619Y-117870238D01*
X135972428Y-117846047D01*
X135924047Y-117821857D01*
X135875666Y-117821857D01*
X135827285Y-117846047D01*
X135803095Y-117870238D01*
X135778904Y-117918619D01*
X135754714Y-118015380D01*
X135730523Y-118063761D01*
X135706333Y-118087952D01*
X135657952Y-118112142D01*
X135609571Y-118112142D01*
X135561190Y-118087952D01*
X135537000Y-118063761D01*
X135512809Y-118015380D01*
X135512809Y-117894428D01*
X135537000Y-117821857D01*
X135754714Y-117434809D02*
X135778904Y-117362238D01*
X135803095Y-117338047D01*
X135851476Y-117313857D01*
X135924047Y-117313857D01*
X135972428Y-117338047D01*
X135996619Y-117362238D01*
X136020809Y-117410619D01*
X136020809Y-117604142D01*
X135512809Y-117604142D01*
X135512809Y-117434809D01*
X135537000Y-117386428D01*
X135561190Y-117362238D01*
X135609571Y-117338047D01*
X135657952Y-117338047D01*
X135706333Y-117362238D01*
X135730523Y-117386428D01*
X135754714Y-117434809D01*
X135754714Y-117604142D01*
X135512809Y-117096142D02*
X135924047Y-117096142D01*
X135972428Y-117071952D01*
X135996619Y-117047761D01*
X136020809Y-116999380D01*
X136020809Y-116902619D01*
X135996619Y-116854238D01*
X135972428Y-116830047D01*
X135924047Y-116805857D01*
X135512809Y-116805857D01*
X135561190Y-116588142D02*
X135537000Y-116563952D01*
X135512809Y-116515571D01*
X135512809Y-116394619D01*
X135537000Y-116346238D01*
X135561190Y-116322047D01*
X135609571Y-116297857D01*
X135657952Y-116297857D01*
X135730523Y-116322047D01*
X136020809Y-116612333D01*
X136020809Y-116297857D01*
X134762809Y-116386333D02*
X135270809Y-116217000D01*
X134762809Y-116047666D01*
X135004714Y-115709000D02*
X135028904Y-115636428D01*
X135053095Y-115612238D01*
X135101476Y-115588047D01*
X135174047Y-115588047D01*
X135222428Y-115612238D01*
X135246619Y-115636428D01*
X135270809Y-115684809D01*
X135270809Y-115878333D01*
X134762809Y-115878333D01*
X134762809Y-115709000D01*
X134787000Y-115660619D01*
X134811190Y-115636428D01*
X134859571Y-115612238D01*
X134907952Y-115612238D01*
X134956333Y-115636428D01*
X134980523Y-115660619D01*
X135004714Y-115709000D01*
X135004714Y-115878333D01*
X134762809Y-115370333D02*
X135174047Y-115370333D01*
X135222428Y-115346142D01*
X135246619Y-115321952D01*
X135270809Y-115273571D01*
X135270809Y-115176809D01*
X135246619Y-115128428D01*
X135222428Y-115104238D01*
X135174047Y-115080047D01*
X134762809Y-115080047D01*
X135246619Y-114862333D02*
X135270809Y-114789761D01*
X135270809Y-114668809D01*
X135246619Y-114620428D01*
X135222428Y-114596238D01*
X135174047Y-114572047D01*
X135125666Y-114572047D01*
X135077285Y-114596238D01*
X135053095Y-114620428D01*
X135028904Y-114668809D01*
X135004714Y-114765571D01*
X134980523Y-114813952D01*
X134956333Y-114838142D01*
X134907952Y-114862333D01*
X134859571Y-114862333D01*
X134811190Y-114838142D01*
X134787000Y-114813952D01*
X134762809Y-114765571D01*
X134762809Y-114644619D01*
X134787000Y-114572047D01*
X133985000Y-115592047D02*
X133960809Y-115640428D01*
X133960809Y-115713000D01*
X133985000Y-115785571D01*
X134033380Y-115833952D01*
X134081761Y-115858142D01*
X134178523Y-115882333D01*
X134251095Y-115882333D01*
X134347857Y-115858142D01*
X134396238Y-115833952D01*
X134444619Y-115785571D01*
X134468809Y-115713000D01*
X134468809Y-115664619D01*
X134444619Y-115592047D01*
X134420428Y-115567857D01*
X134251095Y-115567857D01*
X134251095Y-115664619D01*
X134468809Y-115350142D02*
X133960809Y-115350142D01*
X134468809Y-115059857D01*
X133960809Y-115059857D01*
X134468809Y-114817952D02*
X133960809Y-114817952D01*
X133960809Y-114697000D01*
X133985000Y-114624428D01*
X134033380Y-114576047D01*
X134081761Y-114551857D01*
X134178523Y-114527666D01*
X134251095Y-114527666D01*
X134347857Y-114551857D01*
X134396238Y-114576047D01*
X134444619Y-114624428D01*
X134468809Y-114697000D01*
X134468809Y-114817952D01*
X133597952Y-118829666D02*
X133839857Y-118829666D01*
X133549571Y-118974809D02*
X133718904Y-118466809D01*
X133888238Y-118974809D01*
X134275285Y-118636142D02*
X134275285Y-118974809D01*
X134154333Y-118442619D02*
X134033380Y-118805476D01*
X134347857Y-118805476D01*
X134638142Y-118466809D02*
X134686523Y-118466809D01*
X134734904Y-118491000D01*
X134759095Y-118515190D01*
X134783285Y-118563571D01*
X134807476Y-118660333D01*
X134807476Y-118781285D01*
X134783285Y-118878047D01*
X134759095Y-118926428D01*
X134734904Y-118950619D01*
X134686523Y-118974809D01*
X134638142Y-118974809D01*
X134589761Y-118950619D01*
X134565571Y-118926428D01*
X134541380Y-118878047D01*
X134517190Y-118781285D01*
X134517190Y-118660333D01*
X134541380Y-118563571D01*
X134565571Y-118515190D01*
X134589761Y-118491000D01*
X134638142Y-118466809D01*
X135025190Y-118781285D02*
X135412238Y-118781285D01*
X135750904Y-118466809D02*
X135799285Y-118466809D01*
X135847666Y-118491000D01*
X135871857Y-118515190D01*
X135896047Y-118563571D01*
X135920238Y-118660333D01*
X135920238Y-118781285D01*
X135896047Y-118878047D01*
X135871857Y-118926428D01*
X135847666Y-118950619D01*
X135799285Y-118974809D01*
X135750904Y-118974809D01*
X135702523Y-118950619D01*
X135678333Y-118926428D01*
X135654142Y-118878047D01*
X135629952Y-118781285D01*
X135629952Y-118660333D01*
X135654142Y-118563571D01*
X135678333Y-118515190D01*
X135702523Y-118491000D01*
X135750904Y-118466809D01*
X136234714Y-118466809D02*
X136283095Y-118466809D01*
X136331476Y-118491000D01*
X136355666Y-118515190D01*
X136379857Y-118563571D01*
X136404047Y-118660333D01*
X136404047Y-118781285D01*
X136379857Y-118878047D01*
X136355666Y-118926428D01*
X136331476Y-118950619D01*
X136283095Y-118974809D01*
X136234714Y-118974809D01*
X136186333Y-118950619D01*
X136162142Y-118926428D01*
X136137952Y-118878047D01*
X136113761Y-118781285D01*
X136113761Y-118660333D01*
X136137952Y-118563571D01*
X136162142Y-118515190D01*
X136186333Y-118491000D01*
X136234714Y-118466809D01*
X136887857Y-118974809D02*
X136597571Y-118974809D01*
X136742714Y-118974809D02*
X136742714Y-118466809D01*
X136694333Y-118539380D01*
X136645952Y-118587761D01*
X136597571Y-118611952D01*
X137371666Y-118974809D02*
X137081380Y-118974809D01*
X137226523Y-118974809D02*
X137226523Y-118466809D01*
X137178142Y-118539380D01*
X137129761Y-118587761D01*
X137081380Y-118611952D01*
X137613571Y-118974809D02*
X137710333Y-118974809D01*
X137758714Y-118950619D01*
X137782904Y-118926428D01*
X137831285Y-118853857D01*
X137855476Y-118757095D01*
X137855476Y-118563571D01*
X137831285Y-118515190D01*
X137807095Y-118491000D01*
X137758714Y-118466809D01*
X137661952Y-118466809D01*
X137613571Y-118491000D01*
X137589380Y-118515190D01*
X137565190Y-118563571D01*
X137565190Y-118684523D01*
X137589380Y-118732904D01*
X137613571Y-118757095D01*
X137661952Y-118781285D01*
X137758714Y-118781285D01*
X137807095Y-118757095D01*
X137831285Y-118732904D01*
X137855476Y-118684523D01*
X138073190Y-118781285D02*
X138460238Y-118781285D01*
X138677952Y-118829666D02*
X138919857Y-118829666D01*
X138629571Y-118974809D02*
X138798904Y-118466809D01*
X138968238Y-118974809D01*
X139379476Y-118466809D02*
X139137571Y-118466809D01*
X139113380Y-118708714D01*
X139137571Y-118684523D01*
X139185952Y-118660333D01*
X139306904Y-118660333D01*
X139355285Y-118684523D01*
X139379476Y-118708714D01*
X139403666Y-118757095D01*
X139403666Y-118878047D01*
X139379476Y-118926428D01*
X139355285Y-118950619D01*
X139306904Y-118974809D01*
X139185952Y-118974809D01*
X139137571Y-118950619D01*
X139113380Y-118926428D01*
X139597190Y-118515190D02*
X139621380Y-118491000D01*
X139669761Y-118466809D01*
X139790714Y-118466809D01*
X139839095Y-118491000D01*
X139863285Y-118515190D01*
X139887476Y-118563571D01*
X139887476Y-118611952D01*
X139863285Y-118684523D01*
X139573000Y-118974809D01*
X139887476Y-118974809D01*
X140105190Y-118781285D02*
X140492238Y-118781285D01*
X141000238Y-118974809D02*
X140709952Y-118974809D01*
X140855095Y-118974809D02*
X140855095Y-118466809D01*
X140806714Y-118539380D01*
X140758333Y-118587761D01*
X140709952Y-118611952D01*
X141193761Y-118515190D02*
X141217952Y-118491000D01*
X141266333Y-118466809D01*
X141387285Y-118466809D01*
X141435666Y-118491000D01*
X141459857Y-118515190D01*
X141484047Y-118563571D01*
X141484047Y-118611952D01*
X141459857Y-118684523D01*
X141169571Y-118974809D01*
X141484047Y-118974809D01*
D13*
X145475476Y-110441619D02*
X145475476Y-111264095D01*
X145523857Y-111360857D01*
X145572238Y-111409238D01*
X145669000Y-111457619D01*
X145862523Y-111457619D01*
X145959285Y-111409238D01*
X146007666Y-111360857D01*
X146056047Y-111264095D01*
X146056047Y-110441619D01*
X146491476Y-111409238D02*
X146636619Y-111457619D01*
X146878523Y-111457619D01*
X146975285Y-111409238D01*
X147023666Y-111360857D01*
X147072047Y-111264095D01*
X147072047Y-111167333D01*
X147023666Y-111070571D01*
X146975285Y-111022190D01*
X146878523Y-110973809D01*
X146685000Y-110925428D01*
X146588238Y-110877047D01*
X146539857Y-110828666D01*
X146491476Y-110731904D01*
X146491476Y-110635142D01*
X146539857Y-110538380D01*
X146588238Y-110490000D01*
X146685000Y-110441619D01*
X146926904Y-110441619D01*
X147072047Y-110490000D01*
X147846142Y-110925428D02*
X147991285Y-110973809D01*
X148039666Y-111022190D01*
X148088047Y-111118952D01*
X148088047Y-111264095D01*
X148039666Y-111360857D01*
X147991285Y-111409238D01*
X147894523Y-111457619D01*
X147507476Y-111457619D01*
X147507476Y-110441619D01*
X147846142Y-110441619D01*
X147942904Y-110490000D01*
X147991285Y-110538380D01*
X148039666Y-110635142D01*
X148039666Y-110731904D01*
X147991285Y-110828666D01*
X147942904Y-110877047D01*
X147846142Y-110925428D01*
X147507476Y-110925428D01*
X148523476Y-111070571D02*
X149297571Y-111070571D01*
X149781380Y-110441619D02*
X149781380Y-111264095D01*
X149829761Y-111360857D01*
X149878142Y-111409238D01*
X149974904Y-111457619D01*
X150168428Y-111457619D01*
X150265190Y-111409238D01*
X150313571Y-111360857D01*
X150361952Y-111264095D01*
X150361952Y-110441619D01*
X150797380Y-111167333D02*
X151281190Y-111167333D01*
X150700619Y-111457619D02*
X151039285Y-110441619D01*
X151377952Y-111457619D01*
X152297190Y-111457619D02*
X151958523Y-110973809D01*
X151716619Y-111457619D02*
X151716619Y-110441619D01*
X152103666Y-110441619D01*
X152200428Y-110490000D01*
X152248809Y-110538380D01*
X152297190Y-110635142D01*
X152297190Y-110780285D01*
X152248809Y-110877047D01*
X152200428Y-110925428D01*
X152103666Y-110973809D01*
X151716619Y-110973809D01*
X152587476Y-110441619D02*
X153168047Y-110441619D01*
X152877761Y-111457619D02*
X152877761Y-110441619D01*
X154038904Y-111457619D02*
X153458333Y-111457619D01*
X153748619Y-111457619D02*
X153748619Y-110441619D01*
X153651857Y-110586761D01*
X153555095Y-110683523D01*
X153458333Y-110731904D01*
D11*
X152590500Y-115576047D02*
X152566309Y-115624428D01*
X152566309Y-115697000D01*
X152590500Y-115769571D01*
X152638880Y-115817952D01*
X152687261Y-115842142D01*
X152784023Y-115866333D01*
X152856595Y-115866333D01*
X152953357Y-115842142D01*
X153001738Y-115817952D01*
X153050119Y-115769571D01*
X153074309Y-115697000D01*
X153074309Y-115648619D01*
X153050119Y-115576047D01*
X153025928Y-115551857D01*
X152856595Y-115551857D01*
X152856595Y-115648619D01*
X153074309Y-115334142D02*
X152566309Y-115334142D01*
X153074309Y-115043857D01*
X152566309Y-115043857D01*
X153074309Y-114801952D02*
X152566309Y-114801952D01*
X152566309Y-114681000D01*
X152590500Y-114608428D01*
X152638880Y-114560047D01*
X152687261Y-114535857D01*
X152784023Y-114511666D01*
X152856595Y-114511666D01*
X152953357Y-114535857D01*
X153001738Y-114560047D01*
X153050119Y-114608428D01*
X153074309Y-114681000D01*
X153074309Y-114801952D01*
X151740809Y-116386333D02*
X152248809Y-116217000D01*
X151740809Y-116047666D01*
X151982714Y-115709000D02*
X152006904Y-115636428D01*
X152031095Y-115612238D01*
X152079476Y-115588047D01*
X152152047Y-115588047D01*
X152200428Y-115612238D01*
X152224619Y-115636428D01*
X152248809Y-115684809D01*
X152248809Y-115878333D01*
X151740809Y-115878333D01*
X151740809Y-115709000D01*
X151765000Y-115660619D01*
X151789190Y-115636428D01*
X151837571Y-115612238D01*
X151885952Y-115612238D01*
X151934333Y-115636428D01*
X151958523Y-115660619D01*
X151982714Y-115709000D01*
X151982714Y-115878333D01*
X151740809Y-115370333D02*
X152152047Y-115370333D01*
X152200428Y-115346142D01*
X152224619Y-115321952D01*
X152248809Y-115273571D01*
X152248809Y-115176809D01*
X152224619Y-115128428D01*
X152200428Y-115104238D01*
X152152047Y-115080047D01*
X151740809Y-115080047D01*
X152224619Y-114862333D02*
X152248809Y-114789761D01*
X152248809Y-114668809D01*
X152224619Y-114620428D01*
X152200428Y-114596238D01*
X152152047Y-114572047D01*
X152103666Y-114572047D01*
X152055285Y-114596238D01*
X152031095Y-114620428D01*
X152006904Y-114668809D01*
X151982714Y-114765571D01*
X151958523Y-114813952D01*
X151934333Y-114838142D01*
X151885952Y-114862333D01*
X151837571Y-114862333D01*
X151789190Y-114838142D01*
X151765000Y-114813952D01*
X151740809Y-114765571D01*
X151740809Y-114644619D01*
X151765000Y-114572047D01*
X151410428Y-115543666D02*
X151434619Y-115567857D01*
X151458809Y-115640428D01*
X151458809Y-115688809D01*
X151434619Y-115761380D01*
X151386238Y-115809761D01*
X151337857Y-115833952D01*
X151241095Y-115858142D01*
X151168523Y-115858142D01*
X151071761Y-115833952D01*
X151023380Y-115809761D01*
X150975000Y-115761380D01*
X150950809Y-115688809D01*
X150950809Y-115640428D01*
X150975000Y-115567857D01*
X150999190Y-115543666D01*
X151410428Y-115035666D02*
X151434619Y-115059857D01*
X151458809Y-115132428D01*
X151458809Y-115180809D01*
X151434619Y-115253380D01*
X151386238Y-115301761D01*
X151337857Y-115325952D01*
X151241095Y-115350142D01*
X151168523Y-115350142D01*
X151071761Y-115325952D01*
X151023380Y-115301761D01*
X150975000Y-115253380D01*
X150950809Y-115180809D01*
X150950809Y-115132428D01*
X150975000Y-115059857D01*
X150999190Y-115035666D01*
X150999190Y-114842142D02*
X150975000Y-114817952D01*
X150950809Y-114769571D01*
X150950809Y-114648619D01*
X150975000Y-114600238D01*
X150999190Y-114576047D01*
X151047571Y-114551857D01*
X151095952Y-114551857D01*
X151168523Y-114576047D01*
X151458809Y-114866333D01*
X151458809Y-114551857D01*
X150934619Y-118112142D02*
X150958809Y-118039571D01*
X150958809Y-117918619D01*
X150934619Y-117870238D01*
X150910428Y-117846047D01*
X150862047Y-117821857D01*
X150813666Y-117821857D01*
X150765285Y-117846047D01*
X150741095Y-117870238D01*
X150716904Y-117918619D01*
X150692714Y-118015380D01*
X150668523Y-118063761D01*
X150644333Y-118087952D01*
X150595952Y-118112142D01*
X150547571Y-118112142D01*
X150499190Y-118087952D01*
X150475000Y-118063761D01*
X150450809Y-118015380D01*
X150450809Y-117894428D01*
X150475000Y-117821857D01*
X150692714Y-117434809D02*
X150716904Y-117362238D01*
X150741095Y-117338047D01*
X150789476Y-117313857D01*
X150862047Y-117313857D01*
X150910428Y-117338047D01*
X150934619Y-117362238D01*
X150958809Y-117410619D01*
X150958809Y-117604142D01*
X150450809Y-117604142D01*
X150450809Y-117434809D01*
X150475000Y-117386428D01*
X150499190Y-117362238D01*
X150547571Y-117338047D01*
X150595952Y-117338047D01*
X150644333Y-117362238D01*
X150668523Y-117386428D01*
X150692714Y-117434809D01*
X150692714Y-117604142D01*
X150450809Y-117096142D02*
X150862047Y-117096142D01*
X150910428Y-117071952D01*
X150934619Y-117047761D01*
X150958809Y-116999380D01*
X150958809Y-116902619D01*
X150934619Y-116854238D01*
X150910428Y-116830047D01*
X150862047Y-116805857D01*
X150450809Y-116805857D01*
X150958809Y-116297857D02*
X150958809Y-116588142D01*
X150958809Y-116443000D02*
X150450809Y-116443000D01*
X150523380Y-116491380D01*
X150571761Y-116539761D01*
X150595952Y-116588142D01*
X150458809Y-115833952D02*
X149950809Y-115833952D01*
X149950809Y-115713000D01*
X149975000Y-115640428D01*
X150023380Y-115592047D01*
X150071761Y-115567857D01*
X150168523Y-115543666D01*
X150241095Y-115543666D01*
X150337857Y-115567857D01*
X150386238Y-115592047D01*
X150434619Y-115640428D01*
X150458809Y-115713000D01*
X150458809Y-115833952D01*
X150458809Y-115325952D02*
X149950809Y-115325952D01*
X149950809Y-115132428D01*
X149975000Y-115084047D01*
X149999190Y-115059857D01*
X150047571Y-115035666D01*
X150120142Y-115035666D01*
X150168523Y-115059857D01*
X150192714Y-115084047D01*
X150216904Y-115132428D01*
X150216904Y-115325952D01*
X149999190Y-114842142D02*
X149975000Y-114817952D01*
X149950809Y-114769571D01*
X149950809Y-114648619D01*
X149975000Y-114600238D01*
X149999190Y-114576047D01*
X150047571Y-114551857D01*
X150095952Y-114551857D01*
X150168523Y-114576047D01*
X150458809Y-114866333D01*
X150458809Y-114551857D01*
X149958809Y-117596047D02*
X149450809Y-117596047D01*
X149450809Y-117475095D01*
X149475000Y-117402523D01*
X149523380Y-117354142D01*
X149571761Y-117329952D01*
X149668523Y-117305761D01*
X149741095Y-117305761D01*
X149837857Y-117329952D01*
X149886238Y-117354142D01*
X149934619Y-117402523D01*
X149958809Y-117475095D01*
X149958809Y-117596047D01*
X149958809Y-117088047D02*
X149450809Y-117088047D01*
X149958809Y-116797761D01*
X149450809Y-116797761D01*
X149958809Y-116289761D02*
X149958809Y-116580047D01*
X149958809Y-116434904D02*
X149450809Y-116434904D01*
X149523380Y-116483285D01*
X149571761Y-116531666D01*
X149595952Y-116580047D01*
X149458809Y-115833952D02*
X148950809Y-115833952D01*
X148950809Y-115713000D01*
X148975000Y-115640428D01*
X149023380Y-115592047D01*
X149071761Y-115567857D01*
X149168523Y-115543666D01*
X149241095Y-115543666D01*
X149337857Y-115567857D01*
X149386238Y-115592047D01*
X149434619Y-115640428D01*
X149458809Y-115713000D01*
X149458809Y-115833952D01*
X149458809Y-115325952D02*
X148950809Y-115325952D01*
X148950809Y-115132428D01*
X148975000Y-115084047D01*
X148999190Y-115059857D01*
X149047571Y-115035666D01*
X149120142Y-115035666D01*
X149168523Y-115059857D01*
X149192714Y-115084047D01*
X149216904Y-115132428D01*
X149216904Y-115325952D01*
X149458809Y-114551857D02*
X149458809Y-114842142D01*
X149458809Y-114697000D02*
X148950809Y-114697000D01*
X149023380Y-114745380D01*
X149071761Y-114793761D01*
X149095952Y-114842142D01*
X148958809Y-117596047D02*
X148450809Y-117596047D01*
X148450809Y-117475095D01*
X148475000Y-117402523D01*
X148523380Y-117354142D01*
X148571761Y-117329952D01*
X148668523Y-117305761D01*
X148741095Y-117305761D01*
X148837857Y-117329952D01*
X148886238Y-117354142D01*
X148934619Y-117402523D01*
X148958809Y-117475095D01*
X148958809Y-117596047D01*
X148958809Y-117088047D02*
X148450809Y-117088047D01*
X148958809Y-116797761D01*
X148450809Y-116797761D01*
X148499190Y-116580047D02*
X148475000Y-116555857D01*
X148450809Y-116507476D01*
X148450809Y-116386523D01*
X148475000Y-116338142D01*
X148499190Y-116313952D01*
X148547571Y-116289761D01*
X148595952Y-116289761D01*
X148668523Y-116313952D01*
X148958809Y-116604238D01*
X148958809Y-116289761D01*
X148410428Y-115543666D02*
X148434619Y-115567857D01*
X148458809Y-115640428D01*
X148458809Y-115688809D01*
X148434619Y-115761380D01*
X148386238Y-115809761D01*
X148337857Y-115833952D01*
X148241095Y-115858142D01*
X148168523Y-115858142D01*
X148071761Y-115833952D01*
X148023380Y-115809761D01*
X147975000Y-115761380D01*
X147950809Y-115688809D01*
X147950809Y-115640428D01*
X147975000Y-115567857D01*
X147999190Y-115543666D01*
X148410428Y-115035666D02*
X148434619Y-115059857D01*
X148458809Y-115132428D01*
X148458809Y-115180809D01*
X148434619Y-115253380D01*
X148386238Y-115301761D01*
X148337857Y-115325952D01*
X148241095Y-115350142D01*
X148168523Y-115350142D01*
X148071761Y-115325952D01*
X148023380Y-115301761D01*
X147975000Y-115253380D01*
X147950809Y-115180809D01*
X147950809Y-115132428D01*
X147975000Y-115059857D01*
X147999190Y-115035666D01*
X148458809Y-114551857D02*
X148458809Y-114842142D01*
X148458809Y-114697000D02*
X147950809Y-114697000D01*
X148023380Y-114745380D01*
X148071761Y-114793761D01*
X148095952Y-114842142D01*
X147934619Y-118112142D02*
X147958809Y-118039571D01*
X147958809Y-117918619D01*
X147934619Y-117870238D01*
X147910428Y-117846047D01*
X147862047Y-117821857D01*
X147813666Y-117821857D01*
X147765285Y-117846047D01*
X147741095Y-117870238D01*
X147716904Y-117918619D01*
X147692714Y-118015380D01*
X147668523Y-118063761D01*
X147644333Y-118087952D01*
X147595952Y-118112142D01*
X147547571Y-118112142D01*
X147499190Y-118087952D01*
X147475000Y-118063761D01*
X147450809Y-118015380D01*
X147450809Y-117894428D01*
X147475000Y-117821857D01*
X147692714Y-117434809D02*
X147716904Y-117362238D01*
X147741095Y-117338047D01*
X147789476Y-117313857D01*
X147862047Y-117313857D01*
X147910428Y-117338047D01*
X147934619Y-117362238D01*
X147958809Y-117410619D01*
X147958809Y-117604142D01*
X147450809Y-117604142D01*
X147450809Y-117434809D01*
X147475000Y-117386428D01*
X147499190Y-117362238D01*
X147547571Y-117338047D01*
X147595952Y-117338047D01*
X147644333Y-117362238D01*
X147668523Y-117386428D01*
X147692714Y-117434809D01*
X147692714Y-117604142D01*
X147450809Y-117096142D02*
X147862047Y-117096142D01*
X147910428Y-117071952D01*
X147934619Y-117047761D01*
X147958809Y-116999380D01*
X147958809Y-116902619D01*
X147934619Y-116854238D01*
X147910428Y-116830047D01*
X147862047Y-116805857D01*
X147450809Y-116805857D01*
X147499190Y-116588142D02*
X147475000Y-116563952D01*
X147450809Y-116515571D01*
X147450809Y-116394619D01*
X147475000Y-116346238D01*
X147499190Y-116322047D01*
X147547571Y-116297857D01*
X147595952Y-116297857D01*
X147668523Y-116322047D01*
X147958809Y-116612333D01*
X147958809Y-116297857D01*
X146700809Y-116386333D02*
X147208809Y-116217000D01*
X146700809Y-116047666D01*
X146942714Y-115709000D02*
X146966904Y-115636428D01*
X146991095Y-115612238D01*
X147039476Y-115588047D01*
X147112047Y-115588047D01*
X147160428Y-115612238D01*
X147184619Y-115636428D01*
X147208809Y-115684809D01*
X147208809Y-115878333D01*
X146700809Y-115878333D01*
X146700809Y-115709000D01*
X146725000Y-115660619D01*
X146749190Y-115636428D01*
X146797571Y-115612238D01*
X146845952Y-115612238D01*
X146894333Y-115636428D01*
X146918523Y-115660619D01*
X146942714Y-115709000D01*
X146942714Y-115878333D01*
X146700809Y-115370333D02*
X147112047Y-115370333D01*
X147160428Y-115346142D01*
X147184619Y-115321952D01*
X147208809Y-115273571D01*
X147208809Y-115176809D01*
X147184619Y-115128428D01*
X147160428Y-115104238D01*
X147112047Y-115080047D01*
X146700809Y-115080047D01*
X147184619Y-114862333D02*
X147208809Y-114789761D01*
X147208809Y-114668809D01*
X147184619Y-114620428D01*
X147160428Y-114596238D01*
X147112047Y-114572047D01*
X147063666Y-114572047D01*
X147015285Y-114596238D01*
X146991095Y-114620428D01*
X146966904Y-114668809D01*
X146942714Y-114765571D01*
X146918523Y-114813952D01*
X146894333Y-114838142D01*
X146845952Y-114862333D01*
X146797571Y-114862333D01*
X146749190Y-114838142D01*
X146725000Y-114813952D01*
X146700809Y-114765571D01*
X146700809Y-114644619D01*
X146725000Y-114572047D01*
X145859500Y-115592047D02*
X145835309Y-115640428D01*
X145835309Y-115713000D01*
X145859500Y-115785571D01*
X145907880Y-115833952D01*
X145956261Y-115858142D01*
X146053023Y-115882333D01*
X146125595Y-115882333D01*
X146222357Y-115858142D01*
X146270738Y-115833952D01*
X146319119Y-115785571D01*
X146343309Y-115713000D01*
X146343309Y-115664619D01*
X146319119Y-115592047D01*
X146294928Y-115567857D01*
X146125595Y-115567857D01*
X146125595Y-115664619D01*
X146343309Y-115350142D02*
X145835309Y-115350142D01*
X146343309Y-115059857D01*
X145835309Y-115059857D01*
X146343309Y-114817952D02*
X145835309Y-114817952D01*
X145835309Y-114697000D01*
X145859500Y-114624428D01*
X145907880Y-114576047D01*
X145956261Y-114551857D01*
X146053023Y-114527666D01*
X146125595Y-114527666D01*
X146222357Y-114551857D01*
X146270738Y-114576047D01*
X146319119Y-114624428D01*
X146343309Y-114697000D01*
X146343309Y-114817952D01*
X145535952Y-118829666D02*
X145777857Y-118829666D01*
X145487571Y-118974809D02*
X145656904Y-118466809D01*
X145826238Y-118974809D01*
X146213285Y-118636142D02*
X146213285Y-118974809D01*
X146092333Y-118442619D02*
X145971380Y-118805476D01*
X146285857Y-118805476D01*
X146576142Y-118466809D02*
X146624523Y-118466809D01*
X146672904Y-118491000D01*
X146697095Y-118515190D01*
X146721285Y-118563571D01*
X146745476Y-118660333D01*
X146745476Y-118781285D01*
X146721285Y-118878047D01*
X146697095Y-118926428D01*
X146672904Y-118950619D01*
X146624523Y-118974809D01*
X146576142Y-118974809D01*
X146527761Y-118950619D01*
X146503571Y-118926428D01*
X146479380Y-118878047D01*
X146455190Y-118781285D01*
X146455190Y-118660333D01*
X146479380Y-118563571D01*
X146503571Y-118515190D01*
X146527761Y-118491000D01*
X146576142Y-118466809D01*
X146963190Y-118781285D02*
X147350238Y-118781285D01*
X147688904Y-118466809D02*
X147737285Y-118466809D01*
X147785666Y-118491000D01*
X147809857Y-118515190D01*
X147834047Y-118563571D01*
X147858238Y-118660333D01*
X147858238Y-118781285D01*
X147834047Y-118878047D01*
X147809857Y-118926428D01*
X147785666Y-118950619D01*
X147737285Y-118974809D01*
X147688904Y-118974809D01*
X147640523Y-118950619D01*
X147616333Y-118926428D01*
X147592142Y-118878047D01*
X147567952Y-118781285D01*
X147567952Y-118660333D01*
X147592142Y-118563571D01*
X147616333Y-118515190D01*
X147640523Y-118491000D01*
X147688904Y-118466809D01*
X148172714Y-118466809D02*
X148221095Y-118466809D01*
X148269476Y-118491000D01*
X148293666Y-118515190D01*
X148317857Y-118563571D01*
X148342047Y-118660333D01*
X148342047Y-118781285D01*
X148317857Y-118878047D01*
X148293666Y-118926428D01*
X148269476Y-118950619D01*
X148221095Y-118974809D01*
X148172714Y-118974809D01*
X148124333Y-118950619D01*
X148100142Y-118926428D01*
X148075952Y-118878047D01*
X148051761Y-118781285D01*
X148051761Y-118660333D01*
X148075952Y-118563571D01*
X148100142Y-118515190D01*
X148124333Y-118491000D01*
X148172714Y-118466809D01*
X148825857Y-118974809D02*
X148535571Y-118974809D01*
X148680714Y-118974809D02*
X148680714Y-118466809D01*
X148632333Y-118539380D01*
X148583952Y-118587761D01*
X148535571Y-118611952D01*
X149309666Y-118974809D02*
X149019380Y-118974809D01*
X149164523Y-118974809D02*
X149164523Y-118466809D01*
X149116142Y-118539380D01*
X149067761Y-118587761D01*
X149019380Y-118611952D01*
X149551571Y-118974809D02*
X149648333Y-118974809D01*
X149696714Y-118950619D01*
X149720904Y-118926428D01*
X149769285Y-118853857D01*
X149793476Y-118757095D01*
X149793476Y-118563571D01*
X149769285Y-118515190D01*
X149745095Y-118491000D01*
X149696714Y-118466809D01*
X149599952Y-118466809D01*
X149551571Y-118491000D01*
X149527380Y-118515190D01*
X149503190Y-118563571D01*
X149503190Y-118684523D01*
X149527380Y-118732904D01*
X149551571Y-118757095D01*
X149599952Y-118781285D01*
X149696714Y-118781285D01*
X149745095Y-118757095D01*
X149769285Y-118732904D01*
X149793476Y-118684523D01*
X150011190Y-118781285D02*
X150398238Y-118781285D01*
X150615952Y-118829666D02*
X150857857Y-118829666D01*
X150567571Y-118974809D02*
X150736904Y-118466809D01*
X150906238Y-118974809D01*
X151317476Y-118466809D02*
X151075571Y-118466809D01*
X151051380Y-118708714D01*
X151075571Y-118684523D01*
X151123952Y-118660333D01*
X151244904Y-118660333D01*
X151293285Y-118684523D01*
X151317476Y-118708714D01*
X151341666Y-118757095D01*
X151341666Y-118878047D01*
X151317476Y-118926428D01*
X151293285Y-118950619D01*
X151244904Y-118974809D01*
X151123952Y-118974809D01*
X151075571Y-118950619D01*
X151051380Y-118926428D01*
X151535190Y-118515190D02*
X151559380Y-118491000D01*
X151607761Y-118466809D01*
X151728714Y-118466809D01*
X151777095Y-118491000D01*
X151801285Y-118515190D01*
X151825476Y-118563571D01*
X151825476Y-118611952D01*
X151801285Y-118684523D01*
X151511000Y-118974809D01*
X151825476Y-118974809D01*
X152043190Y-118781285D02*
X152430238Y-118781285D01*
X152938238Y-118974809D02*
X152647952Y-118974809D01*
X152793095Y-118974809D02*
X152793095Y-118466809D01*
X152744714Y-118539380D01*
X152696333Y-118587761D01*
X152647952Y-118611952D01*
X153131761Y-118515190D02*
X153155952Y-118491000D01*
X153204333Y-118466809D01*
X153325285Y-118466809D01*
X153373666Y-118491000D01*
X153397857Y-118515190D01*
X153422047Y-118563571D01*
X153422047Y-118611952D01*
X153397857Y-118684523D01*
X153107571Y-118974809D01*
X153422047Y-118974809D01*
D13*
X137214428Y-105089476D02*
X137262809Y-104944333D01*
X137311190Y-104895952D01*
X137407952Y-104847571D01*
X137553095Y-104847571D01*
X137649857Y-104895952D01*
X137698238Y-104944333D01*
X137746619Y-105041095D01*
X137746619Y-105428142D01*
X136730619Y-105428142D01*
X136730619Y-105089476D01*
X136779000Y-104992714D01*
X136827380Y-104944333D01*
X136924142Y-104895952D01*
X137020904Y-104895952D01*
X137117666Y-104944333D01*
X137166047Y-104992714D01*
X137214428Y-105089476D01*
X137214428Y-105428142D01*
X136730619Y-104412142D02*
X137553095Y-104412142D01*
X137649857Y-104363761D01*
X137698238Y-104315380D01*
X137746619Y-104218619D01*
X137746619Y-104025095D01*
X137698238Y-103928333D01*
X137649857Y-103879952D01*
X137553095Y-103831571D01*
X136730619Y-103831571D01*
X136730619Y-103492904D02*
X136730619Y-102912333D01*
X137746619Y-103202619D02*
X136730619Y-103202619D01*
X137746619Y-102041476D02*
X137746619Y-102622047D01*
X137746619Y-102331761D02*
X136730619Y-102331761D01*
X136875761Y-102428523D01*
X136972523Y-102525285D01*
X137020904Y-102622047D01*
D17*
X147320000Y-104539142D02*
X147283714Y-104575428D01*
X147174857Y-104611714D01*
X147102285Y-104611714D01*
X146993428Y-104575428D01*
X146920857Y-104502857D01*
X146884571Y-104430285D01*
X146848285Y-104285142D01*
X146848285Y-104176285D01*
X146884571Y-104031142D01*
X146920857Y-103958571D01*
X146993428Y-103886000D01*
X147102285Y-103849714D01*
X147174857Y-103849714D01*
X147283714Y-103886000D01*
X147320000Y-103922285D01*
X147610285Y-103922285D02*
X147646571Y-103886000D01*
X147719142Y-103849714D01*
X147900571Y-103849714D01*
X147973142Y-103886000D01*
X148009428Y-103922285D01*
X148045714Y-103994857D01*
X148045714Y-104067428D01*
X148009428Y-104176285D01*
X147574000Y-104611714D01*
X148045714Y-104611714D01*
X132842000Y-75329142D02*
X132805714Y-75365428D01*
X132696857Y-75401714D01*
X132624285Y-75401714D01*
X132515428Y-75365428D01*
X132442857Y-75292857D01*
X132406571Y-75220285D01*
X132370285Y-75075142D01*
X132370285Y-74966285D01*
X132406571Y-74821142D01*
X132442857Y-74748571D01*
X132515428Y-74676000D01*
X132624285Y-74639714D01*
X132696857Y-74639714D01*
X132805714Y-74676000D01*
X132842000Y-74712285D01*
X133495142Y-74639714D02*
X133350000Y-74639714D01*
X133277428Y-74676000D01*
X133241142Y-74712285D01*
X133168571Y-74821142D01*
X133132285Y-74966285D01*
X133132285Y-75256571D01*
X133168571Y-75329142D01*
X133204857Y-75365428D01*
X133277428Y-75401714D01*
X133422571Y-75401714D01*
X133495142Y-75365428D01*
X133531428Y-75329142D01*
X133567714Y-75256571D01*
X133567714Y-75075142D01*
X133531428Y-75002571D01*
X133495142Y-74966285D01*
X133422571Y-74930000D01*
X133277428Y-74930000D01*
X133204857Y-74966285D01*
X133168571Y-75002571D01*
X133132285Y-75075142D01*
X132842000Y-73932142D02*
X132805714Y-73968428D01*
X132696857Y-74004714D01*
X132624285Y-74004714D01*
X132515428Y-73968428D01*
X132442857Y-73895857D01*
X132406571Y-73823285D01*
X132370285Y-73678142D01*
X132370285Y-73569285D01*
X132406571Y-73424142D01*
X132442857Y-73351571D01*
X132515428Y-73279000D01*
X132624285Y-73242714D01*
X132696857Y-73242714D01*
X132805714Y-73279000D01*
X132842000Y-73315285D01*
X133096000Y-73242714D02*
X133604000Y-73242714D01*
X133277428Y-74004714D01*
X137123714Y-98515714D02*
X137123714Y-98878571D01*
X136361714Y-98878571D01*
X136724571Y-98261714D02*
X136724571Y-98007714D01*
X137123714Y-97898857D02*
X137123714Y-98261714D01*
X136361714Y-98261714D01*
X136361714Y-97898857D01*
X137123714Y-97572285D02*
X136361714Y-97572285D01*
X136361714Y-97390857D01*
X136398000Y-97282000D01*
X136470571Y-97209428D01*
X136543142Y-97173142D01*
X136688285Y-97136857D01*
X136797142Y-97136857D01*
X136942285Y-97173142D01*
X137014857Y-97209428D01*
X137087428Y-97282000D01*
X137123714Y-97390857D01*
X137123714Y-97572285D01*
X137123714Y-96411142D02*
X137123714Y-96846571D01*
X137123714Y-96628857D02*
X136361714Y-96628857D01*
X136470571Y-96701428D01*
X136543142Y-96774000D01*
X136579428Y-96846571D01*
X152363714Y-109347000D02*
X152000857Y-109601000D01*
X152363714Y-109782428D02*
X151601714Y-109782428D01*
X151601714Y-109492142D01*
X151638000Y-109419571D01*
X151674285Y-109383285D01*
X151746857Y-109347000D01*
X151855714Y-109347000D01*
X151928285Y-109383285D01*
X151964571Y-109419571D01*
X152000857Y-109492142D01*
X152000857Y-109782428D01*
X151601714Y-109093000D02*
X151601714Y-108621285D01*
X151892000Y-108875285D01*
X151892000Y-108766428D01*
X151928285Y-108693857D01*
X151964571Y-108657571D01*
X152037142Y-108621285D01*
X152218571Y-108621285D01*
X152291142Y-108657571D01*
X152327428Y-108693857D01*
X152363714Y-108766428D01*
X152363714Y-108984142D01*
X152327428Y-109056714D01*
X152291142Y-109093000D01*
D18*
X132433785Y-97696261D02*
X132222119Y-97393880D01*
X132070928Y-97696261D02*
X132070928Y-97061261D01*
X132312833Y-97061261D01*
X132373309Y-97091500D01*
X132403547Y-97121738D01*
X132433785Y-97182214D01*
X132433785Y-97272928D01*
X132403547Y-97333404D01*
X132373309Y-97363642D01*
X132312833Y-97393880D01*
X132070928Y-97393880D01*
X133038547Y-97696261D02*
X132675690Y-97696261D01*
X132857119Y-97696261D02*
X132857119Y-97061261D01*
X132796642Y-97151976D01*
X132736166Y-97212452D01*
X132675690Y-97242690D01*
X133250214Y-97061261D02*
X133643309Y-97061261D01*
X133431642Y-97303166D01*
X133522357Y-97303166D01*
X133582833Y-97333404D01*
X133613071Y-97363642D01*
X133643309Y-97424119D01*
X133643309Y-97575309D01*
X133613071Y-97635785D01*
X133582833Y-97666023D01*
X133522357Y-97696261D01*
X133340928Y-97696261D01*
X133280452Y-97666023D01*
X133250214Y-97635785D01*
X133449785Y-107602261D02*
X133238119Y-107299880D01*
X133086928Y-107602261D02*
X133086928Y-106967261D01*
X133328833Y-106967261D01*
X133389309Y-106997500D01*
X133419547Y-107027738D01*
X133449785Y-107088214D01*
X133449785Y-107178928D01*
X133419547Y-107239404D01*
X133389309Y-107269642D01*
X133328833Y-107299880D01*
X133086928Y-107299880D01*
X134054547Y-107602261D02*
X133691690Y-107602261D01*
X133873119Y-107602261D02*
X133873119Y-106967261D01*
X133812642Y-107057976D01*
X133752166Y-107118452D01*
X133691690Y-107148690D01*
X134629071Y-106967261D02*
X134326690Y-106967261D01*
X134296452Y-107269642D01*
X134326690Y-107239404D01*
X134387166Y-107209166D01*
X134538357Y-107209166D01*
X134598833Y-107239404D01*
X134629071Y-107269642D01*
X134659309Y-107330119D01*
X134659309Y-107481309D01*
X134629071Y-107541785D01*
X134598833Y-107572023D01*
X134538357Y-107602261D01*
X134387166Y-107602261D01*
X134326690Y-107572023D01*
X134296452Y-107541785D01*
D17*
X136488714Y-108693857D02*
X136125857Y-108947857D01*
X136488714Y-109129285D02*
X135726714Y-109129285D01*
X135726714Y-108839000D01*
X135763000Y-108766428D01*
X135799285Y-108730142D01*
X135871857Y-108693857D01*
X135980714Y-108693857D01*
X136053285Y-108730142D01*
X136089571Y-108766428D01*
X136125857Y-108839000D01*
X136125857Y-109129285D01*
X136488714Y-107968142D02*
X136488714Y-108403571D01*
X136488714Y-108185857D02*
X135726714Y-108185857D01*
X135835571Y-108258428D01*
X135908142Y-108331000D01*
X135944428Y-108403571D01*
X135726714Y-107315000D02*
X135726714Y-107460142D01*
X135763000Y-107532714D01*
X135799285Y-107569000D01*
X135908142Y-107641571D01*
X136053285Y-107677857D01*
X136343571Y-107677857D01*
X136416142Y-107641571D01*
X136452428Y-107605285D01*
X136488714Y-107532714D01*
X136488714Y-107387571D01*
X136452428Y-107315000D01*
X136416142Y-107278714D01*
X136343571Y-107242428D01*
X136162142Y-107242428D01*
X136089571Y-107278714D01*
X136053285Y-107315000D01*
X136017000Y-107387571D01*
X136017000Y-107532714D01*
X136053285Y-107605285D01*
X136089571Y-107641571D01*
X136162142Y-107677857D01*
X137758714Y-108693857D02*
X137395857Y-108947857D01*
X137758714Y-109129285D02*
X136996714Y-109129285D01*
X136996714Y-108839000D01*
X137033000Y-108766428D01*
X137069285Y-108730142D01*
X137141857Y-108693857D01*
X137250714Y-108693857D01*
X137323285Y-108730142D01*
X137359571Y-108766428D01*
X137395857Y-108839000D01*
X137395857Y-109129285D01*
X137758714Y-107968142D02*
X137758714Y-108403571D01*
X137758714Y-108185857D02*
X136996714Y-108185857D01*
X137105571Y-108258428D01*
X137178142Y-108331000D01*
X137214428Y-108403571D01*
X136996714Y-107714142D02*
X136996714Y-107206142D01*
X137758714Y-107532714D01*
X139718142Y-84926714D02*
X139464142Y-84563857D01*
X139282714Y-84926714D02*
X139282714Y-84164714D01*
X139573000Y-84164714D01*
X139645571Y-84201000D01*
X139681857Y-84237285D01*
X139718142Y-84309857D01*
X139718142Y-84418714D01*
X139681857Y-84491285D01*
X139645571Y-84527571D01*
X139573000Y-84563857D01*
X139282714Y-84563857D01*
X140443857Y-84926714D02*
X140008428Y-84926714D01*
X140226142Y-84926714D02*
X140226142Y-84164714D01*
X140153571Y-84273571D01*
X140081000Y-84346142D01*
X140008428Y-84382428D01*
X140879285Y-84491285D02*
X140806714Y-84455000D01*
X140770428Y-84418714D01*
X140734142Y-84346142D01*
X140734142Y-84309857D01*
X140770428Y-84237285D01*
X140806714Y-84201000D01*
X140879285Y-84164714D01*
X141024428Y-84164714D01*
X141097000Y-84201000D01*
X141133285Y-84237285D01*
X141169571Y-84309857D01*
X141169571Y-84346142D01*
X141133285Y-84418714D01*
X141097000Y-84455000D01*
X141024428Y-84491285D01*
X140879285Y-84491285D01*
X140806714Y-84527571D01*
X140770428Y-84563857D01*
X140734142Y-84636428D01*
X140734142Y-84781571D01*
X140770428Y-84854142D01*
X140806714Y-84890428D01*
X140879285Y-84926714D01*
X141024428Y-84926714D01*
X141097000Y-84890428D01*
X141133285Y-84854142D01*
X141169571Y-84781571D01*
X141169571Y-84636428D01*
X141133285Y-84563857D01*
X141097000Y-84527571D01*
X141024428Y-84491285D01*
X134855857Y-86323714D02*
X134601857Y-85960857D01*
X134420428Y-86323714D02*
X134420428Y-85561714D01*
X134710714Y-85561714D01*
X134783285Y-85598000D01*
X134819571Y-85634285D01*
X134855857Y-85706857D01*
X134855857Y-85815714D01*
X134819571Y-85888285D01*
X134783285Y-85924571D01*
X134710714Y-85960857D01*
X134420428Y-85960857D01*
X135146142Y-86287428D02*
X135255000Y-86323714D01*
X135436428Y-86323714D01*
X135509000Y-86287428D01*
X135545285Y-86251142D01*
X135581571Y-86178571D01*
X135581571Y-86106000D01*
X135545285Y-86033428D01*
X135509000Y-85997142D01*
X135436428Y-85960857D01*
X135291285Y-85924571D01*
X135218714Y-85888285D01*
X135182428Y-85852000D01*
X135146142Y-85779428D01*
X135146142Y-85706857D01*
X135182428Y-85634285D01*
X135218714Y-85598000D01*
X135291285Y-85561714D01*
X135472714Y-85561714D01*
X135581571Y-85598000D01*
X135799285Y-85561714D02*
X136234714Y-85561714D01*
X136017000Y-86323714D02*
X136017000Y-85561714D01*
X136887857Y-86323714D02*
X136452428Y-86323714D01*
X136670142Y-86323714D02*
X136670142Y-85561714D01*
X136597571Y-85670571D01*
X136525000Y-85743142D01*
X136452428Y-85779428D01*
X147755428Y-102198714D02*
X147755428Y-102815571D01*
X147791714Y-102888142D01*
X147828000Y-102924428D01*
X147900571Y-102960714D01*
X148045714Y-102960714D01*
X148118285Y-102924428D01*
X148154571Y-102888142D01*
X148190857Y-102815571D01*
X148190857Y-102198714D01*
X148481142Y-102198714D02*
X148952857Y-102198714D01*
X148698857Y-102489000D01*
X148807714Y-102489000D01*
X148880285Y-102525285D01*
X148916571Y-102561571D01*
X148952857Y-102634142D01*
X148952857Y-102815571D01*
X148916571Y-102888142D01*
X148880285Y-102924428D01*
X148807714Y-102960714D01*
X148590000Y-102960714D01*
X148517428Y-102924428D01*
X148481142Y-102888142D01*
D13*
X150101904Y-84406619D02*
X150101904Y-85229095D01*
X150150285Y-85325857D01*
X150198666Y-85374238D01*
X150295428Y-85422619D01*
X150488952Y-85422619D01*
X150585714Y-85374238D01*
X150634095Y-85325857D01*
X150682476Y-85229095D01*
X150682476Y-84406619D01*
X151601714Y-84745285D02*
X151601714Y-85422619D01*
X151359809Y-84358238D02*
X151117904Y-85083952D01*
X151746857Y-85083952D01*
X149950714Y-64806285D02*
X149950714Y-65483619D01*
X149708809Y-64419238D02*
X149466904Y-65144952D01*
X150095857Y-65144952D01*
X150676428Y-64467619D02*
X150773190Y-64467619D01*
X150869952Y-64516000D01*
X150918333Y-64564380D01*
X150966714Y-64661142D01*
X151015095Y-64854666D01*
X151015095Y-65096571D01*
X150966714Y-65290095D01*
X150918333Y-65386857D01*
X150869952Y-65435238D01*
X150773190Y-65483619D01*
X150676428Y-65483619D01*
X150579666Y-65435238D01*
X150531285Y-65386857D01*
X150482904Y-65290095D01*
X150434523Y-65096571D01*
X150434523Y-64854666D01*
X150482904Y-64661142D01*
X150531285Y-64564380D01*
X150579666Y-64516000D01*
X150676428Y-64467619D01*
X149781380Y-81419095D02*
X149733000Y-81370714D01*
X149684619Y-81273952D01*
X149684619Y-81032047D01*
X149733000Y-80935285D01*
X149781380Y-80886904D01*
X149878142Y-80838523D01*
X149974904Y-80838523D01*
X150120047Y-80886904D01*
X150700619Y-81467476D01*
X150700619Y-80838523D01*
X149684619Y-79967666D02*
X149684619Y-80161190D01*
X149733000Y-80257952D01*
X149781380Y-80306333D01*
X149926523Y-80403095D01*
X150120047Y-80451476D01*
X150507095Y-80451476D01*
X150603857Y-80403095D01*
X150652238Y-80354714D01*
X150700619Y-80257952D01*
X150700619Y-80064428D01*
X150652238Y-79967666D01*
X150603857Y-79919285D01*
X150507095Y-79870904D01*
X150265190Y-79870904D01*
X150168428Y-79919285D01*
X150120047Y-79967666D01*
X150071666Y-80064428D01*
X150071666Y-80257952D01*
X150120047Y-80354714D01*
X150168428Y-80403095D01*
X150265190Y-80451476D01*
X136984619Y-80711523D02*
X136984619Y-81292095D01*
X136984619Y-81001809D02*
X135968619Y-81001809D01*
X136113761Y-81098571D01*
X136210523Y-81195333D01*
X136258904Y-81292095D01*
X135968619Y-79792285D02*
X135968619Y-80276095D01*
X136452428Y-80324476D01*
X136404047Y-80276095D01*
X136355666Y-80179333D01*
X136355666Y-79937428D01*
X136404047Y-79840666D01*
X136452428Y-79792285D01*
X136549190Y-79743904D01*
X136791095Y-79743904D01*
X136887857Y-79792285D01*
X136936238Y-79840666D01*
X136984619Y-79937428D01*
X136984619Y-80179333D01*
X136936238Y-80276095D01*
X136887857Y-80324476D01*
X136561285Y-65483619D02*
X135980714Y-65483619D01*
X136271000Y-65483619D02*
X136271000Y-64467619D01*
X136174238Y-64612761D01*
X136077476Y-64709523D01*
X135980714Y-64757904D01*
X133797523Y-64301914D02*
X133737047Y-64422866D01*
X133676571Y-64483342D01*
X133555619Y-64543819D01*
X133192761Y-64543819D01*
X133071809Y-64483342D01*
X133011333Y-64422866D01*
X132950857Y-64301914D01*
X132950857Y-64120485D01*
X133011333Y-63999533D01*
X133071809Y-63939057D01*
X133192761Y-63878580D01*
X133555619Y-63878580D01*
X133676571Y-63939057D01*
X133737047Y-63999533D01*
X133797523Y-64120485D01*
X133797523Y-64301914D01*
X139609285Y-60892666D02*
X140214047Y-60892666D01*
X139488333Y-61255523D02*
X139911666Y-59985523D01*
X140335000Y-61255523D01*
X140758333Y-61255523D02*
X140758333Y-59985523D01*
X141484047Y-61255523D01*
X141484047Y-59985523D01*
X141907380Y-59985523D02*
X142633095Y-59985523D01*
X142270238Y-61255523D02*
X142270238Y-59985523D01*
X143056428Y-60590285D02*
X143479761Y-60590285D01*
X143661190Y-61255523D02*
X143056428Y-61255523D01*
X143056428Y-59985523D01*
X143661190Y-59985523D01*
X144205476Y-61255523D02*
X144205476Y-59985523D01*
X144931190Y-61255523D01*
X144931190Y-59985523D01*
X145535952Y-61255523D02*
X145535952Y-59985523D01*
X146261666Y-61255523D01*
X146261666Y-59985523D01*
X146805952Y-60892666D02*
X147410714Y-60892666D01*
X146685000Y-61255523D02*
X147108333Y-59985523D01*
X147531666Y-61255523D01*
D17*
X140589000Y-93236142D02*
X140552714Y-93272428D01*
X140443857Y-93308714D01*
X140371285Y-93308714D01*
X140262428Y-93272428D01*
X140189857Y-93199857D01*
X140153571Y-93127285D01*
X140117285Y-92982142D01*
X140117285Y-92873285D01*
X140153571Y-92728142D01*
X140189857Y-92655571D01*
X140262428Y-92583000D01*
X140371285Y-92546714D01*
X140443857Y-92546714D01*
X140552714Y-92583000D01*
X140589000Y-92619285D01*
X141314714Y-93308714D02*
X140879285Y-93308714D01*
X141097000Y-93308714D02*
X141097000Y-92546714D01*
X141024428Y-92655571D01*
X140951857Y-92728142D01*
X140879285Y-92764428D01*
X142512142Y-96393000D02*
X142548428Y-96429285D01*
X142584714Y-96538142D01*
X142584714Y-96610714D01*
X142548428Y-96719571D01*
X142475857Y-96792142D01*
X142403285Y-96828428D01*
X142258142Y-96864714D01*
X142149285Y-96864714D01*
X142004142Y-96828428D01*
X141931571Y-96792142D01*
X141859000Y-96719571D01*
X141822714Y-96610714D01*
X141822714Y-96538142D01*
X141859000Y-96429285D01*
X141895285Y-96393000D01*
X141822714Y-96139000D02*
X141822714Y-95667285D01*
X142113000Y-95921285D01*
X142113000Y-95812428D01*
X142149285Y-95739857D01*
X142185571Y-95703571D01*
X142258142Y-95667285D01*
X142439571Y-95667285D01*
X142512142Y-95703571D01*
X142548428Y-95739857D01*
X142584714Y-95812428D01*
X142584714Y-96030142D01*
X142548428Y-96102714D01*
X142512142Y-96139000D01*
X142893142Y-84963000D02*
X142929428Y-84999285D01*
X142965714Y-85108142D01*
X142965714Y-85180714D01*
X142929428Y-85289571D01*
X142856857Y-85362142D01*
X142784285Y-85398428D01*
X142639142Y-85434714D01*
X142530285Y-85434714D01*
X142385142Y-85398428D01*
X142312571Y-85362142D01*
X142240000Y-85289571D01*
X142203714Y-85180714D01*
X142203714Y-85108142D01*
X142240000Y-84999285D01*
X142276285Y-84963000D01*
X142457714Y-84309857D02*
X142965714Y-84309857D01*
X142167428Y-84491285D02*
X142711714Y-84672714D01*
X142711714Y-84201000D01*
X132842000Y-76726142D02*
X132805714Y-76762428D01*
X132696857Y-76798714D01*
X132624285Y-76798714D01*
X132515428Y-76762428D01*
X132442857Y-76689857D01*
X132406571Y-76617285D01*
X132370285Y-76472142D01*
X132370285Y-76363285D01*
X132406571Y-76218142D01*
X132442857Y-76145571D01*
X132515428Y-76073000D01*
X132624285Y-76036714D01*
X132696857Y-76036714D01*
X132805714Y-76073000D01*
X132842000Y-76109285D01*
X133277428Y-76363285D02*
X133204857Y-76327000D01*
X133168571Y-76290714D01*
X133132285Y-76218142D01*
X133132285Y-76181857D01*
X133168571Y-76109285D01*
X133204857Y-76073000D01*
X133277428Y-76036714D01*
X133422571Y-76036714D01*
X133495142Y-76073000D01*
X133531428Y-76109285D01*
X133567714Y-76181857D01*
X133567714Y-76218142D01*
X133531428Y-76290714D01*
X133495142Y-76327000D01*
X133422571Y-76363285D01*
X133277428Y-76363285D01*
X133204857Y-76399571D01*
X133168571Y-76435857D01*
X133132285Y-76508428D01*
X133132285Y-76653571D01*
X133168571Y-76726142D01*
X133204857Y-76762428D01*
X133277428Y-76798714D01*
X133422571Y-76798714D01*
X133495142Y-76762428D01*
X133531428Y-76726142D01*
X133567714Y-76653571D01*
X133567714Y-76508428D01*
X133531428Y-76435857D01*
X133495142Y-76399571D01*
X133422571Y-76363285D01*
X132551714Y-93236142D02*
X132515428Y-93272428D01*
X132406571Y-93308714D01*
X132334000Y-93308714D01*
X132225142Y-93272428D01*
X132152571Y-93199857D01*
X132116285Y-93127285D01*
X132080000Y-92982142D01*
X132080000Y-92873285D01*
X132116285Y-92728142D01*
X132152571Y-92655571D01*
X132225142Y-92583000D01*
X132334000Y-92546714D01*
X132406571Y-92546714D01*
X132515428Y-92583000D01*
X132551714Y-92619285D01*
X132878285Y-93308714D02*
X132878285Y-92546714D01*
X132878285Y-92909571D02*
X133313714Y-92909571D01*
X133313714Y-93308714D02*
X133313714Y-92546714D01*
X133640285Y-93091000D02*
X134003142Y-93091000D01*
X133567714Y-93308714D02*
X133821714Y-92546714D01*
X134075714Y-93308714D01*
X134765142Y-93308714D02*
X134511142Y-92945857D01*
X134329714Y-93308714D02*
X134329714Y-92546714D01*
X134620000Y-92546714D01*
X134692571Y-92583000D01*
X134728857Y-92619285D01*
X134765142Y-92691857D01*
X134765142Y-92800714D01*
X134728857Y-92873285D01*
X134692571Y-92909571D01*
X134620000Y-92945857D01*
X134329714Y-92945857D01*
X135490857Y-92583000D02*
X135418285Y-92546714D01*
X135309428Y-92546714D01*
X135200571Y-92583000D01*
X135128000Y-92655571D01*
X135091714Y-92728142D01*
X135055428Y-92873285D01*
X135055428Y-92982142D01*
X135091714Y-93127285D01*
X135128000Y-93199857D01*
X135200571Y-93272428D01*
X135309428Y-93308714D01*
X135382000Y-93308714D01*
X135490857Y-93272428D01*
X135527142Y-93236142D01*
X135527142Y-92982142D01*
X135382000Y-92982142D01*
X135853714Y-93308714D02*
X135853714Y-92546714D01*
X136216571Y-93308714D02*
X136216571Y-92546714D01*
X136652000Y-93308714D01*
X136652000Y-92546714D01*
X137414000Y-92583000D02*
X137341428Y-92546714D01*
X137232571Y-92546714D01*
X137123714Y-92583000D01*
X137051142Y-92655571D01*
X137014857Y-92728142D01*
X136978571Y-92873285D01*
X136978571Y-92982142D01*
X137014857Y-93127285D01*
X137051142Y-93199857D01*
X137123714Y-93272428D01*
X137232571Y-93308714D01*
X137305142Y-93308714D01*
X137414000Y-93272428D01*
X137450285Y-93236142D01*
X137450285Y-92982142D01*
X137305142Y-92982142D01*
X138176000Y-93308714D02*
X137740571Y-93308714D01*
X137958285Y-93308714D02*
X137958285Y-92546714D01*
X137885714Y-92655571D01*
X137813142Y-92728142D01*
X137740571Y-92764428D01*
X145868571Y-102960714D02*
X145868571Y-102198714D01*
X146050000Y-102198714D01*
X146158857Y-102235000D01*
X146231428Y-102307571D01*
X146267714Y-102380142D01*
X146304000Y-102525285D01*
X146304000Y-102634142D01*
X146267714Y-102779285D01*
X146231428Y-102851857D01*
X146158857Y-102924428D01*
X146050000Y-102960714D01*
X145868571Y-102960714D01*
X146594285Y-102271285D02*
X146630571Y-102235000D01*
X146703142Y-102198714D01*
X146884571Y-102198714D01*
X146957142Y-102235000D01*
X146993428Y-102271285D01*
X147029714Y-102343857D01*
X147029714Y-102416428D01*
X146993428Y-102525285D01*
X146558000Y-102960714D01*
X147029714Y-102960714D01*
X142330714Y-104394000D02*
X142330714Y-104756857D01*
X141568714Y-104756857D01*
X142330714Y-103740857D02*
X142330714Y-104176285D01*
X142330714Y-103958571D02*
X141568714Y-103958571D01*
X141677571Y-104031142D01*
X141750142Y-104103714D01*
X141786428Y-104176285D01*
X140716000Y-94578714D02*
X140462000Y-94215857D01*
X140280571Y-94578714D02*
X140280571Y-93816714D01*
X140570857Y-93816714D01*
X140643428Y-93853000D01*
X140679714Y-93889285D01*
X140716000Y-93961857D01*
X140716000Y-94070714D01*
X140679714Y-94143285D01*
X140643428Y-94179571D01*
X140570857Y-94215857D01*
X140280571Y-94215857D01*
X141441714Y-94578714D02*
X141006285Y-94578714D01*
X141224000Y-94578714D02*
X141224000Y-93816714D01*
X141151428Y-93925571D01*
X141078857Y-93998142D01*
X141006285Y-94034428D01*
D18*
X132990166Y-95918261D02*
X132778500Y-95615880D01*
X132627309Y-95918261D02*
X132627309Y-95283261D01*
X132869214Y-95283261D01*
X132929690Y-95313500D01*
X132959928Y-95343738D01*
X132990166Y-95404214D01*
X132990166Y-95494928D01*
X132959928Y-95555404D01*
X132929690Y-95585642D01*
X132869214Y-95615880D01*
X132627309Y-95615880D01*
X133232071Y-95343738D02*
X133262309Y-95313500D01*
X133322785Y-95283261D01*
X133473976Y-95283261D01*
X133534452Y-95313500D01*
X133564690Y-95343738D01*
X133594928Y-95404214D01*
X133594928Y-95464690D01*
X133564690Y-95555404D01*
X133201833Y-95918261D01*
X133594928Y-95918261D01*
D17*
X145759714Y-93853000D02*
X145396857Y-94107000D01*
X145759714Y-94288428D02*
X144997714Y-94288428D01*
X144997714Y-93998142D01*
X145034000Y-93925571D01*
X145070285Y-93889285D01*
X145142857Y-93853000D01*
X145251714Y-93853000D01*
X145324285Y-93889285D01*
X145360571Y-93925571D01*
X145396857Y-93998142D01*
X145396857Y-94288428D01*
X145251714Y-93199857D02*
X145759714Y-93199857D01*
X144961428Y-93381285D02*
X145505714Y-93562714D01*
X145505714Y-93091000D01*
X147193000Y-84545714D02*
X146939000Y-84182857D01*
X146757571Y-84545714D02*
X146757571Y-83783714D01*
X147047857Y-83783714D01*
X147120428Y-83820000D01*
X147156714Y-83856285D01*
X147193000Y-83928857D01*
X147193000Y-84037714D01*
X147156714Y-84110285D01*
X147120428Y-84146571D01*
X147047857Y-84182857D01*
X146757571Y-84182857D01*
X147846142Y-83783714D02*
X147701000Y-83783714D01*
X147628428Y-83820000D01*
X147592142Y-83856285D01*
X147519571Y-83965142D01*
X147483285Y-84110285D01*
X147483285Y-84400571D01*
X147519571Y-84473142D01*
X147555857Y-84509428D01*
X147628428Y-84545714D01*
X147773571Y-84545714D01*
X147846142Y-84509428D01*
X147882428Y-84473142D01*
X147918714Y-84400571D01*
X147918714Y-84219142D01*
X147882428Y-84146571D01*
X147846142Y-84110285D01*
X147773571Y-84074000D01*
X147628428Y-84074000D01*
X147555857Y-84110285D01*
X147519571Y-84146571D01*
X147483285Y-84219142D01*
X144235714Y-84836000D02*
X143872857Y-85090000D01*
X144235714Y-85271428D02*
X143473714Y-85271428D01*
X143473714Y-84981142D01*
X143510000Y-84908571D01*
X143546285Y-84872285D01*
X143618857Y-84836000D01*
X143727714Y-84836000D01*
X143800285Y-84872285D01*
X143836571Y-84908571D01*
X143872857Y-84981142D01*
X143872857Y-85271428D01*
X143473714Y-84582000D02*
X143473714Y-84074000D01*
X144235714Y-84400571D01*
X147574000Y-99658714D02*
X147320000Y-99295857D01*
X147138571Y-99658714D02*
X147138571Y-98896714D01*
X147428857Y-98896714D01*
X147501428Y-98933000D01*
X147537714Y-98969285D01*
X147574000Y-99041857D01*
X147574000Y-99150714D01*
X147537714Y-99223285D01*
X147501428Y-99259571D01*
X147428857Y-99295857D01*
X147138571Y-99295857D01*
X148009428Y-99223285D02*
X147936857Y-99187000D01*
X147900571Y-99150714D01*
X147864285Y-99078142D01*
X147864285Y-99041857D01*
X147900571Y-98969285D01*
X147936857Y-98933000D01*
X148009428Y-98896714D01*
X148154571Y-98896714D01*
X148227142Y-98933000D01*
X148263428Y-98969285D01*
X148299714Y-99041857D01*
X148299714Y-99078142D01*
X148263428Y-99150714D01*
X148227142Y-99187000D01*
X148154571Y-99223285D01*
X148009428Y-99223285D01*
X147936857Y-99259571D01*
X147900571Y-99295857D01*
X147864285Y-99368428D01*
X147864285Y-99513571D01*
X147900571Y-99586142D01*
X147936857Y-99622428D01*
X148009428Y-99658714D01*
X148154571Y-99658714D01*
X148227142Y-99622428D01*
X148263428Y-99586142D01*
X148299714Y-99513571D01*
X148299714Y-99368428D01*
X148263428Y-99295857D01*
X148227142Y-99259571D01*
X148154571Y-99223285D01*
X149569714Y-99314000D02*
X149206857Y-99568000D01*
X149569714Y-99749428D02*
X148807714Y-99749428D01*
X148807714Y-99459142D01*
X148844000Y-99386571D01*
X148880285Y-99350285D01*
X148952857Y-99314000D01*
X149061714Y-99314000D01*
X149134285Y-99350285D01*
X149170571Y-99386571D01*
X149206857Y-99459142D01*
X149206857Y-99749428D01*
X149569714Y-98951142D02*
X149569714Y-98806000D01*
X149533428Y-98733428D01*
X149497142Y-98697142D01*
X149388285Y-98624571D01*
X149243142Y-98588285D01*
X148952857Y-98588285D01*
X148880285Y-98624571D01*
X148844000Y-98660857D01*
X148807714Y-98733428D01*
X148807714Y-98878571D01*
X148844000Y-98951142D01*
X148880285Y-98987428D01*
X148952857Y-99023714D01*
X149134285Y-99023714D01*
X149206857Y-98987428D01*
X149243142Y-98951142D01*
X149279428Y-98878571D01*
X149279428Y-98733428D01*
X149243142Y-98660857D01*
X149206857Y-98624571D01*
X149134285Y-98588285D01*
X138139714Y-95485857D02*
X137776857Y-95739857D01*
X138139714Y-95921285D02*
X137377714Y-95921285D01*
X137377714Y-95631000D01*
X137414000Y-95558428D01*
X137450285Y-95522142D01*
X137522857Y-95485857D01*
X137631714Y-95485857D01*
X137704285Y-95522142D01*
X137740571Y-95558428D01*
X137776857Y-95631000D01*
X137776857Y-95921285D01*
X138139714Y-94760142D02*
X138139714Y-95195571D01*
X138139714Y-94977857D02*
X137377714Y-94977857D01*
X137486571Y-95050428D01*
X137559142Y-95123000D01*
X137595428Y-95195571D01*
X138139714Y-94034428D02*
X138139714Y-94469857D01*
X138139714Y-94252142D02*
X137377714Y-94252142D01*
X137486571Y-94324714D01*
X137559142Y-94397285D01*
X137595428Y-94469857D01*
X152490714Y-107550857D02*
X152127857Y-107804857D01*
X152490714Y-107986285D02*
X151728714Y-107986285D01*
X151728714Y-107696000D01*
X151765000Y-107623428D01*
X151801285Y-107587142D01*
X151873857Y-107550857D01*
X151982714Y-107550857D01*
X152055285Y-107587142D01*
X152091571Y-107623428D01*
X152127857Y-107696000D01*
X152127857Y-107986285D01*
X152490714Y-106825142D02*
X152490714Y-107260571D01*
X152490714Y-107042857D02*
X151728714Y-107042857D01*
X151837571Y-107115428D01*
X151910142Y-107188000D01*
X151946428Y-107260571D01*
X151801285Y-106534857D02*
X151765000Y-106498571D01*
X151728714Y-106426000D01*
X151728714Y-106244571D01*
X151765000Y-106172000D01*
X151801285Y-106135714D01*
X151873857Y-106099428D01*
X151946428Y-106099428D01*
X152055285Y-106135714D01*
X152490714Y-106571142D01*
X152490714Y-106099428D01*
X145378714Y-104375857D02*
X145015857Y-104629857D01*
X145378714Y-104811285D02*
X144616714Y-104811285D01*
X144616714Y-104521000D01*
X144653000Y-104448428D01*
X144689285Y-104412142D01*
X144761857Y-104375857D01*
X144870714Y-104375857D01*
X144943285Y-104412142D01*
X144979571Y-104448428D01*
X145015857Y-104521000D01*
X145015857Y-104811285D01*
X145378714Y-103650142D02*
X145378714Y-104085571D01*
X145378714Y-103867857D02*
X144616714Y-103867857D01*
X144725571Y-103940428D01*
X144798142Y-104013000D01*
X144834428Y-104085571D01*
X144870714Y-102997000D02*
X145378714Y-102997000D01*
X144580428Y-103178428D02*
X145124714Y-103359857D01*
X145124714Y-102888142D01*
X150331714Y-94560571D02*
X150948571Y-94560571D01*
X151021142Y-94524285D01*
X151057428Y-94488000D01*
X151093714Y-94415428D01*
X151093714Y-94270285D01*
X151057428Y-94197714D01*
X151021142Y-94161428D01*
X150948571Y-94125142D01*
X150331714Y-94125142D01*
X151093714Y-93363142D02*
X151093714Y-93798571D01*
X151093714Y-93580857D02*
X150331714Y-93580857D01*
X150440571Y-93653428D01*
X150513142Y-93726000D01*
X150549428Y-93798571D01*
X138865428Y-95086714D02*
X138865428Y-95703571D01*
X138901714Y-95776142D01*
X138938000Y-95812428D01*
X139010571Y-95848714D01*
X139155714Y-95848714D01*
X139228285Y-95812428D01*
X139264571Y-95776142D01*
X139300857Y-95703571D01*
X139300857Y-95086714D01*
X139627428Y-95159285D02*
X139663714Y-95123000D01*
X139736285Y-95086714D01*
X139917714Y-95086714D01*
X139990285Y-95123000D01*
X140026571Y-95159285D01*
X140062857Y-95231857D01*
X140062857Y-95304428D01*
X140026571Y-95413285D01*
X139591142Y-95848714D01*
X140062857Y-95848714D01*
D18*
X155354261Y-106961214D02*
X155051880Y-107172880D01*
X155354261Y-107324071D02*
X154719261Y-107324071D01*
X154719261Y-107082166D01*
X154749500Y-107021690D01*
X154779738Y-106991452D01*
X154840214Y-106961214D01*
X154930928Y-106961214D01*
X154991404Y-106991452D01*
X155021642Y-107021690D01*
X155051880Y-107082166D01*
X155051880Y-107324071D01*
X155354261Y-106356452D02*
X155354261Y-106719309D01*
X155354261Y-106537880D02*
X154719261Y-106537880D01*
X154809976Y-106598357D01*
X154870452Y-106658833D01*
X154900690Y-106719309D01*
X155354261Y-106054071D02*
X155354261Y-105933119D01*
X155324023Y-105872642D01*
X155293785Y-105842404D01*
X155203071Y-105781928D01*
X155082119Y-105751690D01*
X154840214Y-105751690D01*
X154779738Y-105781928D01*
X154749500Y-105812166D01*
X154719261Y-105872642D01*
X154719261Y-105993595D01*
X154749500Y-106054071D01*
X154779738Y-106084309D01*
X154840214Y-106114547D01*
X154991404Y-106114547D01*
X155051880Y-106084309D01*
X155082119Y-106054071D01*
X155112357Y-105993595D01*
X155112357Y-105872642D01*
X155082119Y-105812166D01*
X155051880Y-105781928D01*
X154991404Y-105751690D01*
X155354261Y-104548214D02*
X155051880Y-104759880D01*
X155354261Y-104911071D02*
X154719261Y-104911071D01*
X154719261Y-104669166D01*
X154749500Y-104608690D01*
X154779738Y-104578452D01*
X154840214Y-104548214D01*
X154930928Y-104548214D01*
X154991404Y-104578452D01*
X155021642Y-104608690D01*
X155051880Y-104669166D01*
X155051880Y-104911071D01*
X154779738Y-104306309D02*
X154749500Y-104276071D01*
X154719261Y-104215595D01*
X154719261Y-104064404D01*
X154749500Y-104003928D01*
X154779738Y-103973690D01*
X154840214Y-103943452D01*
X154900690Y-103943452D01*
X154991404Y-103973690D01*
X155354261Y-104336547D01*
X155354261Y-103943452D01*
X154719261Y-103550357D02*
X154719261Y-103489880D01*
X154749500Y-103429404D01*
X154779738Y-103399166D01*
X154840214Y-103368928D01*
X154961166Y-103338690D01*
X155112357Y-103338690D01*
X155233309Y-103368928D01*
X155293785Y-103399166D01*
X155324023Y-103429404D01*
X155354261Y-103489880D01*
X155354261Y-103550357D01*
X155324023Y-103610833D01*
X155293785Y-103641071D01*
X155233309Y-103671309D01*
X155112357Y-103701547D01*
X154961166Y-103701547D01*
X154840214Y-103671309D01*
X154779738Y-103641071D01*
X154749500Y-103610833D01*
X154719261Y-103550357D01*
D17*
X137305142Y-84926714D02*
X137051142Y-84563857D01*
X136869714Y-84926714D02*
X136869714Y-84164714D01*
X137160000Y-84164714D01*
X137232571Y-84201000D01*
X137268857Y-84237285D01*
X137305142Y-84309857D01*
X137305142Y-84418714D01*
X137268857Y-84491285D01*
X137232571Y-84527571D01*
X137160000Y-84563857D01*
X136869714Y-84563857D01*
X137595428Y-84237285D02*
X137631714Y-84201000D01*
X137704285Y-84164714D01*
X137885714Y-84164714D01*
X137958285Y-84201000D01*
X137994571Y-84237285D01*
X138030857Y-84309857D01*
X138030857Y-84382428D01*
X137994571Y-84491285D01*
X137559142Y-84926714D01*
X138030857Y-84926714D01*
X138756571Y-84926714D02*
X138321142Y-84926714D01*
X138538857Y-84926714D02*
X138538857Y-84164714D01*
X138466285Y-84273571D01*
X138393714Y-84346142D01*
X138321142Y-84382428D01*
X153506714Y-103105857D02*
X153143857Y-103359857D01*
X153506714Y-103541285D02*
X152744714Y-103541285D01*
X152744714Y-103251000D01*
X152781000Y-103178428D01*
X152817285Y-103142142D01*
X152889857Y-103105857D01*
X152998714Y-103105857D01*
X153071285Y-103142142D01*
X153107571Y-103178428D01*
X153143857Y-103251000D01*
X153143857Y-103541285D01*
X152817285Y-102815571D02*
X152781000Y-102779285D01*
X152744714Y-102706714D01*
X152744714Y-102525285D01*
X152781000Y-102452714D01*
X152817285Y-102416428D01*
X152889857Y-102380142D01*
X152962428Y-102380142D01*
X153071285Y-102416428D01*
X153506714Y-102851857D01*
X153506714Y-102380142D01*
X152817285Y-102089857D02*
X152781000Y-102053571D01*
X152744714Y-101981000D01*
X152744714Y-101799571D01*
X152781000Y-101727000D01*
X152817285Y-101690714D01*
X152889857Y-101654428D01*
X152962428Y-101654428D01*
X153071285Y-101690714D01*
X153506714Y-102126142D01*
X153506714Y-101654428D01*
X150839714Y-96755857D02*
X150476857Y-97009857D01*
X150839714Y-97191285D02*
X150077714Y-97191285D01*
X150077714Y-96901000D01*
X150114000Y-96828428D01*
X150150285Y-96792142D01*
X150222857Y-96755857D01*
X150331714Y-96755857D01*
X150404285Y-96792142D01*
X150440571Y-96828428D01*
X150476857Y-96901000D01*
X150476857Y-97191285D01*
X150150285Y-96465571D02*
X150114000Y-96429285D01*
X150077714Y-96356714D01*
X150077714Y-96175285D01*
X150114000Y-96102714D01*
X150150285Y-96066428D01*
X150222857Y-96030142D01*
X150295428Y-96030142D01*
X150404285Y-96066428D01*
X150839714Y-96501857D01*
X150839714Y-96030142D01*
X150077714Y-95776142D02*
X150077714Y-95304428D01*
X150368000Y-95558428D01*
X150368000Y-95449571D01*
X150404285Y-95377000D01*
X150440571Y-95340714D01*
X150513142Y-95304428D01*
X150694571Y-95304428D01*
X150767142Y-95340714D01*
X150803428Y-95377000D01*
X150839714Y-95449571D01*
X150839714Y-95667285D01*
X150803428Y-95739857D01*
X150767142Y-95776142D01*
X154141714Y-100656571D02*
X154141714Y-100221142D01*
X154903714Y-100438857D02*
X154141714Y-100438857D01*
X154903714Y-99568000D02*
X154903714Y-100003428D01*
X154903714Y-99785714D02*
X154141714Y-99785714D01*
X154250571Y-99858285D01*
X154323142Y-99930857D01*
X154359428Y-100003428D01*
X153470428Y-94451714D02*
X153905857Y-94451714D01*
X153688142Y-95213714D02*
X153688142Y-94451714D01*
X154123571Y-94524285D02*
X154159857Y-94488000D01*
X154232428Y-94451714D01*
X154413857Y-94451714D01*
X154486428Y-94488000D01*
X154522714Y-94524285D01*
X154559000Y-94596857D01*
X154559000Y-94669428D01*
X154522714Y-94778285D01*
X154087285Y-95213714D01*
X154559000Y-95213714D01*
X150138368Y-102139331D02*
X149702184Y-102062357D01*
X149830474Y-102447225D02*
X149291658Y-101908410D01*
X149496921Y-101703147D01*
X149573895Y-101677489D01*
X149625211Y-101677489D01*
X149702184Y-101703147D01*
X149779158Y-101780120D01*
X149804816Y-101857094D01*
X149804816Y-101908410D01*
X149779158Y-101985383D01*
X149573895Y-102190646D01*
X149856131Y-101446568D02*
X149856131Y-101395252D01*
X149881789Y-101318279D01*
X150010079Y-101189989D01*
X150087052Y-101164331D01*
X150138368Y-101164331D01*
X150215342Y-101189989D01*
X150266657Y-101241305D01*
X150317973Y-101343937D01*
X150317973Y-101959725D01*
X150651525Y-101626173D01*
X150754157Y-100805121D02*
X151113367Y-101164331D01*
X150420605Y-100728148D02*
X150677183Y-101241305D01*
X151010736Y-100907753D01*
X154450142Y-102071714D02*
X154196142Y-101708857D01*
X154014714Y-102071714D02*
X154014714Y-101309714D01*
X154305000Y-101309714D01*
X154377571Y-101346000D01*
X154413857Y-101382285D01*
X154450142Y-101454857D01*
X154450142Y-101563714D01*
X154413857Y-101636285D01*
X154377571Y-101672571D01*
X154305000Y-101708857D01*
X154014714Y-101708857D01*
X154740428Y-101382285D02*
X154776714Y-101346000D01*
X154849285Y-101309714D01*
X155030714Y-101309714D01*
X155103285Y-101346000D01*
X155139571Y-101382285D01*
X155175857Y-101454857D01*
X155175857Y-101527428D01*
X155139571Y-101636285D01*
X154704142Y-102071714D01*
X155175857Y-102071714D01*
X155429857Y-101309714D02*
X155937857Y-101309714D01*
X155611285Y-102071714D01*
M02*
