M48
; DRILL file {KiCad 5.1.0-rc2-unknown-036be7d~80~ubuntu16.04.1} date 16.05.2023 (вт) 15:29:09 EEST
; FORMAT={-:-/ absolute / inch / decimal}
; #@! TF.CreationDate,2023-05-16T15:29:09+03:00*
; #@! TF.GenerationSoftware,Kicad,Pcbnew,5.1.0-rc2-unknown-036be7d~80~ubuntu16.04.1
; #@! TF.FileFunction,Plated,1,2,PTH
FMAT,2
INCH
T1C0.0157
T2C0.0236
T3C0.0315
T4C0.0354
T5C0.0394
T6C0.0472
%
G90
G05
T1
X5.195Y-2.695
X5.2004Y-2.8198
X5.2571Y-2.5579
X5.33Y-4.175
X5.33Y-4.225
X5.34Y-4.075
X5.35Y-2.7075
X5.35Y-2.7575
X5.35Y-2.8075
X5.35Y-2.8575
X5.35Y-2.9075
X5.35Y-2.9575
X5.35Y-3.0075
X5.35Y-3.0575
X5.35Y-3.1075
X5.3528Y-4.3105
X5.36Y-3.765
X5.36Y-3.806
X5.36Y-3.85
X5.375Y-2.5579
X5.375Y-3.21
X5.375Y-3.32
X5.375Y-3.365
X5.375Y-3.41
X5.38Y-3.475
X5.4Y-2.975
X5.4Y-3.11
X5.425Y-3.45
X5.43Y-3.16
X5.435Y-4.31
X5.45Y-2.5579
X5.45Y-2.6579
X5.45Y-2.8
X5.45Y-2.875
X5.455Y-3.03
X5.455Y-3.54
X5.46Y-3.12
X5.465Y-3.42
X5.47Y-3.6
X5.48Y-3.68
X5.505Y-2.605
X5.53Y-3.34
X5.5629Y-2.5579
X5.5629Y-2.6579
X5.58Y-3.2
X5.58Y-3.34
X5.586Y-4.206
X5.595Y-3.705
X5.61Y-3.56
X5.625Y-2.5579
X5.675Y-3.595
X5.685Y-3.385
X5.7Y-3.535
X5.725Y-2.5579
X5.725Y-2.6579
X5.73Y-3.32
X5.74Y-3.535
X5.745Y-3.065
X5.75Y-2.705
X5.75Y-2.755
X5.75Y-2.805
X5.75Y-4.175
X5.77Y-2.605
X5.775Y-2.94
X5.775Y-2.995
X5.795Y-4.505
X5.795Y-4.6203
X5.81Y-3.105
X5.81Y-3.91
X5.825Y-2.5579
X5.825Y-2.6579
X5.825Y-2.745
X5.825Y-2.84
X5.825Y-3.815
X5.83Y-4.205
X5.845Y-4.07
X5.855Y-3.91
X5.875Y-2.61
X5.875Y-3.33
X5.875Y-3.465
X5.8772Y-3.3778
X5.88Y-3.19
X5.915Y-2.7075
X5.915Y-2.76
X5.92Y-3.33
X5.92Y-3.444
X5.925Y-2.5579
X5.925Y-2.6579
X5.925Y-2.825
X5.925Y-2.95
X5.945Y-4.175
X5.9475Y-3.2025
X5.95Y-3.0075
X5.95Y-3.0575
X5.95Y-3.1075
X5.95Y-3.1575
X5.95Y-3.895
X5.95Y-4.02
X5.96Y-4.305
X5.965Y-3.32
X5.975Y-4.505
X5.975Y-4.6203
X5.98Y-3.275
X6.02Y-4.525
X6.0222Y-4.5625
X6.03Y-4.08
X6.035Y-4.195
X6.0421Y-2.6579
X6.055Y-3.66
X6.065Y-2.615
X6.085Y-4.24
X5.5358Y-2.8343
X5.5358Y-2.8894
X5.5634Y-2.8067
X5.5634Y-2.917
X5.6185Y-2.8067
X5.6185Y-2.917
X5.6461Y-2.8343
X5.6461Y-2.8894
T2
X5.39Y-4.5
X5.4Y-2.62
X5.465Y-4.2
X5.48Y-4.5
X5.525Y-3.865
X5.5322Y-4.2028
X5.555Y-3.755
X5.585Y-4.255
X5.61Y-4.055
X5.645Y-3.79
X5.65Y-4.2
X5.705Y-4.03
X5.72Y-4.255
X5.7591Y-4.1059
X5.765Y-3.8
X5.795Y-3.59
X5.905Y-4.215
T4
X5.9707Y-3.4856
X5.9708Y-3.5655
T5
X6.15Y-2.55
X6.15Y-2.65
X6.15Y-2.75
X6.15Y-2.85
X6.15Y-2.95
X6.15Y-3.05
X6.15Y-3.15
X6.15Y-3.25
X6.15Y-3.35
X6.15Y-3.45
X6.15Y-3.55
X6.15Y-3.65
X6.15Y-3.75
X6.15Y-3.85
X6.15Y-3.95
X6.15Y-4.05
X6.15Y-4.15
X6.15Y-4.25
X6.15Y-4.35
X6.15Y-4.45
X6.15Y-4.55
X6.15Y-4.65
X5.15Y-2.55
X5.15Y-2.65
X5.15Y-2.75
X5.15Y-2.85
X5.15Y-2.95
X5.15Y-3.05
X5.15Y-3.15
X5.15Y-3.25
X5.15Y-3.35
X5.15Y-3.45
X5.15Y-3.55
X5.15Y-3.65
X5.15Y-3.75
X5.15Y-3.85
X5.15Y-3.95
X5.15Y-4.05
X5.15Y-4.15
X5.15Y-4.25
X5.15Y-4.35
X5.15Y-4.45
X5.15Y-4.55
X5.15Y-4.65
T6
X5.5909Y-2.8619
T3
G00X5.2449Y-4.438
M15
G01X5.2449Y-4.4734
M16
G05
G00X5.2449Y-4.6085
M15
G01X5.2449Y-4.6321
M16
G05
G00X5.5851Y-4.438
M15
G01X5.5851Y-4.4734
M16
G05
G00X5.5851Y-4.6085
M15
G01X5.5851Y-4.6321
M16
G05
G00X5.7149Y-4.438
M15
G01X5.7149Y-4.4734
M16
G05
G00X5.7149Y-4.6085
M15
G01X5.7149Y-4.6321
M16
G05
G00X6.0551Y-4.438
M15
G01X6.0551Y-4.4734
M16
G05
G00X6.0551Y-4.6085
M15
G01X6.0551Y-4.6321
M16
G05
T0
M30
