G04 #@! TF.GenerationSoftware,KiCad,Pcbnew,5.1.0-rc2-unknown-036be7d~80~ubuntu16.04.1*
G04 #@! TF.CreationDate,2023-05-16T15:29:05+03:00*
G04 #@! TF.ProjectId,ESP32-S3-DevKit-LiPo_Rev_B,45535033-322d-4533-932d-4465764b6974,B*
G04 #@! TF.SameCoordinates,Original*
G04 #@! TF.FileFunction,Soldermask,Bot*
G04 #@! TF.FilePolarity,Negative*
%FSLAX46Y46*%
G04 Gerber Fmt 4.6, Leading zero omitted, Abs format (unit mm)*
G04 Created by KiCad (PCBNEW 5.1.0-rc2-unknown-036be7d~80~ubuntu16.04.1) date 2023-05-16 15:29:05*
%MOMM*%
%LPD*%
G04 APERTURE LIST*
%ADD10C,1.501600*%
%ADD11R,1.501600X1.501600*%
%ADD12C,1.879600*%
%ADD13R,1.879600X1.879600*%
%ADD14C,0.701600*%
%ADD15O,1.301600X2.301600*%
%ADD16O,1.401600X2.101600*%
%ADD17C,1.701600*%
G04 APERTURE END LIST*
D10*
X151655780Y-88534240D03*
D11*
X151658320Y-90563700D03*
D12*
X156210000Y-115570000D03*
X156210000Y-118110000D03*
X156210000Y-72390000D03*
X156210000Y-69850000D03*
X156210000Y-67310000D03*
D13*
X156210000Y-64770000D03*
D12*
X156210000Y-74930000D03*
X156210000Y-77470000D03*
X156210000Y-82550000D03*
X156210000Y-80010000D03*
X156210000Y-85090000D03*
X156210000Y-87630000D03*
X156210000Y-92710000D03*
X156210000Y-90170000D03*
X156210000Y-95250000D03*
X156210000Y-97790000D03*
X156210000Y-102870000D03*
X156210000Y-100330000D03*
X156210000Y-110490000D03*
X156210000Y-113030000D03*
X156210000Y-107950000D03*
X156210000Y-105410000D03*
D14*
X140431000Y-113675000D03*
D15*
X141861000Y-113175000D03*
D16*
X141861000Y-117355000D03*
X133221000Y-117355000D03*
D14*
X134651000Y-113675000D03*
D15*
X133221000Y-113175000D03*
D14*
X152369000Y-113675000D03*
D15*
X153799000Y-113175000D03*
D16*
X153799000Y-117355000D03*
X145159000Y-117355000D03*
D14*
X146589000Y-113675000D03*
D15*
X145159000Y-113175000D03*
D12*
X130810000Y-115569999D03*
X130810000Y-118109999D03*
X130810000Y-72389999D03*
X130810000Y-69849999D03*
X130810000Y-67309999D03*
D13*
X130810000Y-64769999D03*
D12*
X130810000Y-74929999D03*
X130810000Y-77469999D03*
X130810000Y-82549999D03*
X130810000Y-80009999D03*
X130810000Y-85089999D03*
X130810000Y-87629999D03*
X130810000Y-92709999D03*
X130810000Y-90169999D03*
X130810000Y-95249999D03*
X130810000Y-97789999D03*
X130810000Y-102869999D03*
X130810000Y-100329999D03*
X130810000Y-110489999D03*
X130810000Y-113029999D03*
X130810000Y-107949999D03*
X130810000Y-105409999D03*
D17*
X142010000Y-72691000D03*
M02*
